<svg width="36" height="36" viewBox="0 0 36 36" fill="none" xmlns="http://www.w3.org/2000/svg">
<g clip-path="url(#clip0_1183_2350)">
<path d="M35.9338 8.53665C35.8099 8.07589 35.5076 7.68308 35.094 7.44494C34.6801 7.20562 34.188 7.14089 33.7264 7.26479C33.2653 7.38899 32.8725 7.69099 32.6344 8.10459L32.3344 8.62657C32.0494 8.46283 31.6853 8.5592 31.5187 8.84275L29.9949 11.4401L29.4729 11.1401C29.3347 11.0601 29.17 11.0385 29.016 11.0801C28.8616 11.1219 28.7304 11.2233 28.651 11.3621C28.4884 11.6489 28.5874 12.0133 28.873 12.1779L29.395 12.4779L24.2959 21.3144L23.036 24.68L22.4361 25.8016C22.0849 26.4126 22.1224 27.1721 22.5322 27.7454L21.1824 29.401L20.8046 28.4534C20.6341 28.031 20.2395 27.7416 19.7858 27.7061C19.3318 27.6704 18.8968 27.8948 18.6628 28.2852L18.4469 28.6511L18.243 26.2515C18.1961 25.6838 17.7565 25.2275 17.1911 25.1589C16.6255 25.0907 16.09 25.4296 15.9093 25.9697L14.4336 30.3969C14.3305 30.71 14.4992 31.0475 14.8115 31.1529C14.87 31.1802 14.933 31.1966 14.9975 31.2007C15.2552 31.2015 15.4849 31.0372 15.5675 30.7929L17.0371 26.3657L17.2471 28.8011C17.2904 29.3207 17.6639 29.7528 18.1718 29.8705C18.6797 29.9883 19.2052 29.7645 19.4727 29.3172L19.6947 28.951L20.0667 29.8931C20.2246 30.29 20.5817 30.5732 21.0043 30.6362C21.427 30.6992 21.8512 30.5325 22.1183 30.1989L23.5161 28.4293C23.6708 28.4698 23.8301 28.49 23.9901 28.4894C24.633 28.4944 25.23 28.1558 25.5557 27.6013L26.1556 26.5995L28.4413 23.822L33.5943 14.8775L34.1163 15.1774C34.2554 15.2571 34.3568 15.3886 34.3981 15.5436C34.4397 15.6973 34.418 15.8614 34.3383 15.9993L31.9387 20.1567C31.8482 20.2932 31.8174 20.4608 31.8538 20.6207C31.8901 20.7804 31.99 20.9183 32.1306 21.0024C32.2688 21.0827 32.4335 21.1043 32.5875 21.0627C32.7419 21.0208 32.8731 20.9195 32.9525 20.7807L35.3521 16.6233C35.5914 16.2094 35.6561 15.7173 35.5319 15.2556C35.4078 14.7946 35.1058 14.4018 34.6922 14.1636L34.1702 13.8637L35.6699 11.2661C35.8337 10.9811 35.7373 10.6172 35.454 10.4503L35.754 9.9283C35.9997 9.50797 36.0648 9.0059 35.9338 8.53665ZM33.6722 8.70449C33.7516 8.56565 33.8834 8.464 34.0384 8.4227C34.1924 8.38462 34.3553 8.406 34.4941 8.48275C34.6333 8.56213 34.7346 8.69394 34.7762 8.84861C34.8143 9.00268 34.7929 9.16554 34.7162 9.30439L34.4162 9.82637L33.3723 9.22647L33.6722 8.70449ZM25.4957 25.4539L25.1957 25.2799L24.3079 24.7638L25.1597 22.4843L27.0493 23.576L25.4957 25.4539ZM23.696 27.1874C23.4426 27.0107 23.3647 26.671 23.5161 26.4015L23.8161 25.8798L24.8597 26.4797L24.5598 26.9955C24.4757 27.1414 24.3345 27.2451 24.1702 27.2817C24.0059 27.318 23.8339 27.284 23.696 27.1874ZM27.7333 22.5924L25.6577 21.3926L30.4568 13.0778L32.5325 14.2776L27.7333 22.5924ZM33.1324 13.2398L31.0567 12.04L32.2565 9.96433L34.3322 11.1641L33.1324 13.2398Z" fill="#416387"/>
<path d="M9.46629 26.8874L7.34292 29.0052L6.07107 27.7334C5.83702 27.5008 5.45916 27.5008 5.22512 27.7334C5.11146 27.8461 5.04761 27.9993 5.04761 28.1593C5.04761 28.3192 5.11146 28.4727 5.22512 28.5852L6.49697 29.857C6.72193 30.0802 7.02598 30.2053 7.34292 30.205C7.66162 30.2068 7.9683 30.0817 8.19473 29.857L10.3122 27.7334C10.5161 27.4952 10.5023 27.1405 10.2809 26.919C10.0592 26.6973 9.70443 26.6835 9.46629 26.8874Z" fill="#416387"/>
<path d="M2.39966 28.5012C2.39966 31.3176 4.68267 33.6003 7.49879 33.6003C10.3149 33.6003 12.5979 31.3176 12.5979 28.5012C12.5979 28.1699 12.3293 27.9013 11.998 27.9013C11.6667 27.9013 11.3981 28.1699 11.3981 28.5012C11.3981 30.6547 9.65233 32.4005 7.49879 32.4005C5.34525 32.4005 3.59945 30.6547 3.59945 28.5012C3.59945 26.3477 5.34525 24.6019 7.49879 24.6019C8.34298 24.5995 9.16462 24.8734 9.83833 25.3819C10.1034 25.5808 10.4795 25.5269 10.6781 25.2618C10.877 24.9967 10.8234 24.6209 10.5583 24.422C9.01318 23.2632 6.94576 23.0769 5.21842 23.9404C3.49078 24.8043 2.39966 26.57 2.39966 28.5012Z" fill="#416387"/>
<path d="M21.5964 4.80514C21.9277 4.80514 22.1963 4.53683 22.1963 4.20524C22.1963 3.87395 21.9277 3.60535 21.5964 3.60535H5.99907C5.66778 3.60535 5.39917 3.87395 5.39917 4.20524V6.60484C5.39917 6.93642 5.66778 7.20473 5.99907 7.20473H21.5964C21.9277 7.20473 22.1963 6.93642 22.1963 6.60484C22.1963 6.27354 21.9277 6.00494 21.5964 6.00494H6.59897V4.80514H21.5964Z" fill="#416387"/>
<path d="M7.79863 8.40454C7.46734 8.40454 7.19873 8.67315 7.19873 9.00444C7.19873 9.33602 7.46734 9.60434 7.79863 9.60434H19.7966C20.1279 9.60434 20.3965 9.33602 20.3965 9.00444C20.3965 8.67315 20.1279 8.40454 19.7966 8.40454H7.79863Z" fill="#416387"/>
<path d="M23.396 12.6039H10.1983C9.867 12.6039 9.59839 12.8725 9.59839 13.2038C9.59839 13.5354 9.867 13.8037 10.1983 13.8037H23.396C23.7273 13.8037 23.9959 13.5354 23.9959 13.2038C23.9959 12.8725 23.7273 12.6039 23.396 12.6039Z" fill="#416387"/>
<path d="M17.397 16.8031C17.397 16.4719 17.1284 16.2032 16.7971 16.2032H4.79912C4.46783 16.2032 4.19922 16.4719 4.19922 16.8031C4.19922 17.1347 4.46783 17.403 4.79912 17.403H16.7971C17.1284 17.403 17.397 17.1347 17.397 16.8031Z" fill="#416387"/>
<path d="M23.3961 16.2032H19.1968C18.8655 16.2032 18.5969 16.4719 18.5969 16.8031C18.5969 17.1347 18.8655 17.403 19.1968 17.403H23.3961C23.7274 17.403 23.996 17.1347 23.996 16.8031C23.996 16.4719 23.7274 16.2032 23.3961 16.2032Z" fill="#416387"/>
<path d="M10.7981 20.4026C11.1294 20.4026 11.398 20.1342 11.398 19.8027C11.398 19.4714 11.1294 19.2028 10.7981 19.2028H4.79912C4.46783 19.2028 4.19922 19.4714 4.19922 19.8027C4.19922 20.1342 4.46783 20.4026 4.79912 20.4026H10.7981Z" fill="#416387"/>
<path d="M13.1978 20.4026H17.3971C17.7284 20.4026 17.997 20.1342 17.997 19.8027C17.997 19.4714 17.7284 19.2028 17.3971 19.2028H13.1978C12.8665 19.2028 12.5979 19.4714 12.5979 19.8027C12.5979 20.1342 12.8665 20.4026 13.1978 20.4026Z" fill="#416387"/>
<path d="M26.9954 27.6013C26.6641 27.6013 26.3955 27.8699 26.3955 28.2012V34.2002C26.3955 34.5317 26.1269 34.8001 25.7956 34.8001H1.79969C1.4684 34.8001 1.1998 34.5317 1.1998 34.2002V1.80567C1.1998 1.47438 1.4684 1.20578 1.79969 1.20578H25.7956C26.1269 1.20578 26.3955 1.47438 26.3955 1.80567V13.0719C26.3955 13.4032 26.6641 13.6718 26.9954 13.6718C27.3267 13.6718 27.5953 13.4032 27.5953 13.0719V1.80567C27.5953 0.811801 26.7895 0.00598145 25.7956 0.00598145H1.79969C0.80582 0.00598145 0 0.811801 0 1.80567V34.2002C0 35.1943 0.80582 35.9999 1.79969 35.9999H25.7956C26.7895 35.9999 27.5953 35.1943 27.5953 34.2002V28.2012C27.5953 27.8699 27.3267 27.6013 26.9954 27.6013Z" fill="#416387"/>
</g>
<defs>
<clipPath id="clip0_1183_2350">
<rect width="36" height="36" fill="white"/>
</clipPath>
</defs>
</svg>
