<svg width="35" height="35" viewBox="0 0 35 35" fill="none" xmlns="http://www.w3.org/2000/svg">
<g clip-path="url(#clip0_1184_2401)">
<path d="M6.01456 -0.000579835C4.04911 -0.00884755 3.26916 1.66428 3.28125 3.28179V13.1234C1.41851 13.1296 0 14.5973 0 16.4057V31.7182C0 33.5266 1.44569 34.9995 3.28125 34.9995H31.173C33.2843 34.9995 35 33.32 35 31.1724V18.5932C35 16.7507 33.526 15.312 31.7177 15.312V14.2171C31.7177 12.3661 30.2448 10.9359 28.4364 10.9359H24.0646V9.84105L31.7279 9.84931C33.3249 9.86172 35 8.56912 35 6.56341V3.82685C34.9988 3.52483 34.753 3.28095 34.451 3.28211H29.5302C29.5302 1.44353 28.0562 -0.000201369 26.2479 -0.000201369L6.01456 -0.000579835ZM23.796 1.09937C23.2609 1.68348 22.9698 2.42983 22.9698 3.28192C22.9691 7.65988 22.9698 12.0284 22.9698 16.4059H13.8994L10.7784 13.2848C10.6756 13.1817 10.5362 13.1236 10.3906 13.1236H4.37606V3.28198C4.36159 2.09763 4.84263 1.10111 6.01456 1.09331L23.796 1.09937ZM28.4364 3.28179C28.4364 4.37555 28.4365 5.46929 28.4364 6.56303C28.4364 7.40229 28.7433 8.1627 29.2642 8.74299L24.0646 8.74716V3.2816C24.0646 2.06028 25.0749 1.09304 26.2479 1.09312C27.4692 1.09321 28.4425 2.10881 28.4364 3.28179ZM19.1385 4.3755C19.8842 4.39203 19.8842 3.26505 19.1385 3.28179L8.2016 3.27763C7.50876 3.2859 7.4334 4.37664 8.20313 4.376L19.1385 4.3755ZM29.5302 4.3755H33.9063V6.56303C33.9063 7.74209 32.939 8.74728 31.7177 8.74728C30.5263 8.75142 29.5302 7.78438 29.5302 6.56303C29.5302 5.83388 29.5302 5.10467 29.5302 4.3755ZM19.1385 7.65781C19.8684 7.65781 19.8684 6.56303 19.1385 6.56303L8.19267 6.56234C7.50248 6.5644 7.44605 7.65783 8.20306 7.65781H19.1385ZM8.20313 9.84105C7.47325 9.84105 7.47325 10.9359 8.20313 10.9359H19.1385C19.8684 10.9359 19.8684 9.84105 19.1385 9.84105H8.20313ZM24.0646 12.0297H28.4364C29.6578 12.0297 30.6239 13.0471 30.6239 14.2171V29.5296C30.6239 30.7037 29.6835 31.6861 28.4866 31.7129C28.4527 31.5384 28.4356 31.3577 28.4364 31.1724V19.688C28.4364 18.8473 28.1365 18.081 27.6148 17.4994H27.8906C28.6363 17.516 28.6363 16.3889 27.8906 16.4057H25.1584H24.0646V15.312H27.8906C28.6205 15.312 28.6205 14.2171 27.8906 14.2171H24.0646L24.0646 12.0297ZM13.6729 13.1234C12.9279 13.1068 12.9279 14.2332 13.6729 14.2171H19.1385C19.8521 14.2168 19.8914 13.1234 19.1385 13.1234H13.6729ZM3.28125 14.2171H4.37606H10.1652L13.2852 17.3381C13.3879 17.4413 13.5274 17.4994 13.6729 17.4994H25.1584C26.3797 17.4994 27.3477 18.5089 27.3416 19.688H18.4805C18.34 19.5079 18.1023 19.4343 17.8845 19.5032L16.2962 20.0041L15.1694 18.7747C14.9021 18.491 14.5384 18.5667 14.3629 18.7747L13.2414 20.0041L11.6521 19.5032C11.433 19.4323 11.193 19.5053 11.0518 19.688H1.09376V16.4056C1.09376 15.1843 2.08105 14.2171 3.28125 14.2171ZM31.7177 16.4057C32.939 16.4057 33.9063 17.3975 33.9063 18.5932V31.1724C33.9063 32.6665 32.6973 33.9057 31.173 33.9057C30.2493 33.9057 29.4418 33.4573 28.947 32.7681C30.5177 32.5426 31.7177 31.1937 31.7177 29.5296V16.4057ZM14.7656 19.955L15.7205 21.0029C15.8644 21.1608 16.0872 21.2204 16.2909 21.1556L17.6442 20.723L17.9443 22.1095C17.99 22.3183 18.1531 22.4814 18.362 22.5271L19.7494 22.8325L19.3169 24.1794C19.2515 24.3828 19.3107 24.6056 19.4686 24.7498L20.5164 25.7047L19.4686 26.6586C19.3109 26.8028 19.2517 27.0255 19.3169 27.2289L19.7494 28.5812L18.362 28.8813C18.1531 28.927 17.9899 29.0901 17.9443 29.2989L17.6442 30.6853L16.2909 30.2527C16.0873 30.1878 15.8645 30.2466 15.7205 30.4055L14.7656 31.4534L13.8118 30.4055C13.6677 30.2476 13.4451 30.1879 13.2414 30.2527L11.8935 30.6853L11.588 29.2989C11.5425 29.0901 11.3793 28.9269 11.1703 28.8813L9.78714 28.5812L10.2154 27.2289C10.2803 27.0253 10.2216 26.8025 10.0627 26.6586L9.01487 25.7047L10.0627 24.7498C10.2208 24.606 10.2804 24.3831 10.2154 24.1794L9.78714 22.8325L11.1703 22.5271C11.3793 22.4814 11.5424 22.3183 11.588 22.1095L11.8935 20.723L13.2414 21.1556C13.445 21.2205 13.6678 21.1618 13.8118 21.0029L14.7656 19.955ZM1.09376 20.7817H10.7581L10.5946 21.5337L8.9657 21.8883C8.65018 21.9578 8.46329 22.284 8.56302 22.5911L8.68373 22.9693H1.09372L1.09376 20.7817ZM18.7743 20.7817H27.3416V22.9693H20.8539L20.9746 22.5911C21.0742 22.2819 20.8837 21.9546 20.5655 21.8883L18.9377 21.5337L18.7743 20.7817ZM16.0228 24.2211L14.222 26.0219L13.5159 25.3148C12.999 24.7979 12.2235 25.5733 12.7405 26.0903L13.8342 27.1841C14.0481 27.399 14.3959 27.399 14.6097 27.1841L16.794 24.9965C17.3126 24.4273 16.5216 23.7404 16.0228 24.2211ZM1.09376 24.064H9.03304L9.06942 24.1794L7.83468 25.3009C7.59797 25.5176 7.59797 25.8905 7.83468 26.1073L9.06942 27.2288L8.56312 28.8171C8.4635 29.1243 8.65035 29.4504 8.9658 29.5199L10.5947 29.8734L10.9482 31.5013C11.017 31.8176 11.3442 32.0053 11.6521 31.9051L13.2415 31.403L14.363 32.6324C14.5798 32.8688 14.9526 32.8688 15.1694 32.6324L16.2963 31.403L17.8846 31.9051C18.1908 32.0016 18.5139 31.8147 18.5831 31.5013L18.9377 29.8734L20.5655 29.5199C20.8837 29.4535 21.0742 29.1263 20.9746 28.8171L20.4673 27.2288L21.6977 26.1073C21.9344 25.8905 21.9344 25.5176 21.6977 25.3009L20.4673 24.1794L20.5036 24.064H27.3417V31.1723C27.3417 32.9344 28.4878 33.9056 28.4878 33.9056H3.28135C2.09324 33.9056 1.09386 32.9395 1.09386 31.7182L1.09376 24.064Z" fill="#416387"/>
</g>
<defs>
<clipPath id="clip0_1184_2401">
<rect width="35" height="35" fill="white"/>
</clipPath>
</defs>
</svg>
