<svg width="38" height="39" viewBox="0 0 38 39" fill="none" xmlns="http://www.w3.org/2000/svg">
<path d="M11.1982 6.04995H19.1247C19.276 6.04995 19.4211 5.98984 19.5281 5.88285C19.6351 5.77586 19.6952 5.63075 19.6952 5.47944C19.6952 5.32814 19.6351 5.18302 19.5281 5.07603C19.4211 4.96904 19.276 4.90894 19.1247 4.90894H11.1982C11.0469 4.90894 10.9018 4.96904 10.7948 5.07603C10.6878 5.18302 10.6277 5.32814 10.6277 5.47944C10.6277 5.63075 10.6878 5.77586 10.7948 5.88285C10.9018 5.98984 11.0469 6.04995 11.1982 6.04995Z" fill="#416387"/>
<path d="M37.2538 21.6953C37.2513 19.8037 36.5369 17.9825 35.2527 16.5937C33.9685 15.205 32.2085 14.3506 30.323 14.2004V0.570508C30.323 0.4192 30.2629 0.274089 30.1559 0.167098C30.0489 0.0601067 29.9038 0 29.7525 0H6.61235C6.60277 0.0010465 6.59336 0.00323543 6.58431 0.00652008C6.44352 0.0112365 6.30963 0.0685871 6.20908 0.16724L0.166914 6.2081C0.0689263 6.30838 0.0118522 6.44159 0.00684606 6.5817C0.0032639 6.59124 0.000961869 6.60122 0 6.61137V38.1855C0 38.3368 0.0601069 38.482 0.167098 38.5889C0.274089 38.6959 0.4192 38.756 0.570508 38.756H29.7525C30.2863 38.7554 30.7981 38.5431 31.1756 38.1657C31.5531 37.7882 31.7655 37.2765 31.7662 36.7426V28.9339C33.3441 28.4891 34.7338 27.5415 35.7243 26.2351C36.7147 24.9286 37.2517 23.3347 37.2538 21.6953ZM6.04314 1.94788V6.04216H1.94788L6.04314 1.94788ZM1.14102 7.18318H6.61235C6.76365 7.18318 6.90876 7.12307 7.01575 7.01608C7.12275 6.90909 7.18285 6.76398 7.18285 6.61267V1.14102H29.1819V14.1975C27.827 14.2958 26.5244 14.7616 25.4143 15.5449V10.1127C25.4143 9.96135 25.3542 9.81623 25.2472 9.70924C25.1402 9.60225 24.9951 9.54215 24.8438 9.54215H5.47915C5.32785 9.54215 5.18274 9.60225 5.07574 9.70924C4.96875 9.81623 4.90865 9.96135 4.90865 10.1127V33.2779C4.90865 33.4292 4.96875 33.5743 5.07574 33.6813C5.18274 33.7883 5.32785 33.8484 5.47915 33.8484H24.8438C24.9951 33.8484 25.1402 33.7883 25.2472 33.6813C25.3542 33.5743 25.4143 33.4292 25.4143 33.2779V27.8453C26.1201 28.3432 26.9067 28.7151 27.7394 28.9446V36.7439C27.7397 37.0462 27.8086 37.3445 27.9409 37.6163H1.14102V7.18318ZM6.04966 32.7074V29.2152H9.54182V32.7074H6.04966ZM24.2733 10.6832V14.175H10.6828V10.6832H24.2733ZM9.54182 14.175H6.04966V10.6832H9.54182V14.175ZM9.54182 23.4413H6.04966V19.9492H9.54182V23.4413ZM10.6828 19.9492H22.419C22.1434 21.0969 22.1434 22.2936 22.419 23.4413H10.6828V19.9492ZM6.04966 24.5824H9.54182V28.0742H6.04966V24.5824ZM6.04966 18.8082V15.316H9.54182V18.8082H6.04966ZM10.6828 29.2152H24.2733V32.7074H10.6828V29.2152ZM24.2733 28.0742H10.6828V24.5824H22.7906C23.1431 25.4242 23.6454 26.1951 24.2733 26.8575V28.0742ZM22.7906 18.8082H10.6828V15.316H24.2733V16.5327C23.6454 17.1951 23.143 17.9662 22.7906 18.8082ZM30.6239 36.7439C30.6239 36.9753 30.532 37.1972 30.3684 37.3608C30.2047 37.5244 29.9829 37.6163 29.7515 37.6163C29.5201 37.6163 29.2982 37.5244 29.1346 37.3608C28.971 37.1972 28.8791 36.9753 28.8791 36.7439V29.1653C29.4588 29.2333 30.0445 29.2318 30.6239 29.1608V36.7439ZM29.7339 28.0742C28.4721 28.0742 27.2387 27.7002 26.1896 26.9992C25.1405 26.2983 24.3228 25.302 23.84 24.1363C23.3571 22.9706 23.2307 21.688 23.4769 20.4505C23.723 19.213 24.3306 18.0763 25.2227 17.1841C26.1149 16.2919 27.2516 15.6844 28.4891 15.4382C29.7266 15.1921 31.0093 15.3185 32.1749 15.8013C33.3406 16.2842 34.3369 17.1019 35.0378 18.151C35.7388 19.2001 36.1129 20.4335 36.1128 21.6953C36.1108 23.3864 35.4381 25.0078 34.2423 26.2036C33.0464 27.3995 31.4251 28.0722 29.7339 28.0742Z" fill="#416387"/>
<path d="M29.7339 16.4215C28.6908 16.4215 27.6712 16.7308 26.8039 17.3103C25.9366 17.8898 25.2607 18.7134 24.8615 19.6771C24.4624 20.6407 24.3579 21.7011 24.5614 22.7241C24.7649 23.7472 25.2672 24.6868 26.0047 25.4244C26.7423 26.1619 27.682 26.6642 28.705 26.8677C29.728 27.0712 30.7884 26.9668 31.752 26.5676C32.7157 26.1684 33.5393 25.4925 34.1188 24.6252C34.6983 23.758 35.0076 22.7383 35.0076 21.6953C35.0056 20.2972 34.4494 18.9569 33.4608 17.9684C32.4722 16.9798 31.1319 16.4235 29.7339 16.4215ZM29.7339 25.828C28.9165 25.828 28.1175 25.5857 27.4378 25.1315C26.7582 24.6774 26.2285 24.032 25.9157 23.2768C25.6029 22.5217 25.521 21.6907 25.6805 20.889C25.84 20.0873 26.2336 19.351 26.8116 18.773C27.3895 18.195 28.1259 17.8014 28.9276 17.6419C29.7293 17.4825 30.5602 17.5643 31.3154 17.8771C32.0706 18.1899 32.716 18.7196 33.1701 19.3992C33.6242 20.0789 33.8666 20.8779 33.8666 21.6953C33.8653 22.791 33.4295 23.8414 32.6547 24.6161C31.88 25.3909 30.8295 25.8267 29.7339 25.828Z" fill="#416387"/>
</svg>
