<svg width="43" height="30" viewBox="0 0 43 30" fill="none" xmlns="http://www.w3.org/2000/svg">
<path d="M27.1072 15.7347H29.5676C29.9421 15.7347 30.2452 15.4316 30.2452 15.057V13.5419H31.5937C31.9682 13.5419 32.2714 13.2387 32.2714 12.8642V10.4031C32.2714 10.0286 31.9682 9.72547 31.5937 9.72547H30.2452V8.24665C30.2452 7.87214 29.9421 7.56897 29.5676 7.56897H27.1072C26.7327 7.56897 26.4295 7.87214 26.4295 8.24665V9.72547H24.9822C24.6077 9.72547 24.3046 10.0286 24.3046 10.4031V12.8642C24.3046 13.2387 24.6077 13.5419 24.9822 13.5419H26.4295V15.057C26.4295 15.4316 26.7327 15.7347 27.1072 15.7347ZM25.6599 12.1865V11.0808H27.1072C27.4817 11.0808 27.7849 10.7777 27.7849 10.4031V8.92433H28.8899V10.4031C28.8899 10.7777 29.193 11.0808 29.5676 11.0808H30.916V12.1865H29.5676C29.193 12.1865 28.8899 12.4897 28.8899 12.8642V14.3794H27.7849V12.8642C27.7849 12.4897 27.4817 12.1865 27.1072 12.1865H25.6599Z" fill="#416387"/>
<path d="M41.4893 1.271H15.0866C14.7121 1.271 14.4089 1.57417 14.4089 1.94867V6.08814H11.8038V5.65808C11.8038 4.40629 10.7852 3.3884 9.53415 3.3884C8.28305 3.3884 7.26447 4.40698 7.26447 5.65808V6.08814H6.7226C6.41669 6.08814 6.14918 6.29254 6.06893 6.5868L4.05167 13.9672L0.237325 17.2211C0.0864246 17.3501 0 17.538 0 17.7369V24.3313C0 24.7058 0.303172 25.009 0.677679 25.009H1.68528C2.05979 25.009 2.36296 24.7058 2.36296 24.3313C2.36296 23.9568 2.05979 23.6536 1.68528 23.6536H1.35399V22.6494H2.02549C2.4 22.6494 2.70317 22.3463 2.70317 21.9718C2.70317 21.5972 2.4 21.2941 2.02549 21.2941H1.35399V18.049L4.89945 15.0249H11.0788C11.4533 15.0249 11.7565 14.7217 11.7565 14.3472V7.4435H14.4082V21.2941H13.8492C13.4747 21.2941 13.1715 21.5972 13.1715 21.9718C13.1715 22.3463 13.4747 22.6494 13.8492 22.6494H14.4082V23.6536H14.0804C13.7059 23.6536 13.4027 23.9568 13.4027 24.3313C13.4027 24.7058 13.7059 25.009 14.0804 25.009H15.0859H28.1614C28.5359 25.009 28.8391 24.7058 28.8391 24.3313C28.8391 23.9568 28.5359 23.6536 28.1614 23.6536H15.7643V22.6494H28.4803C28.8549 22.6494 29.158 22.3463 29.158 21.9718C29.158 21.5972 28.8549 21.2941 28.4803 21.2941H15.7643V15.7341H24.0343C24.4088 15.7341 24.712 15.4309 24.712 15.0564C24.712 14.6819 24.4088 14.3787 24.0343 14.3787H15.7643V8.92369H24.0343C24.4088 8.92369 24.712 8.62052 24.712 8.24601C24.712 7.87151 24.4088 7.56833 24.0343 7.56833H15.7643V6.76582V2.62635H40.8116V7.56833H32.6918C32.3173 7.56833 32.0142 7.87151 32.0142 8.24601C32.0142 8.62052 32.3173 8.92369 32.6918 8.92369H40.8116V14.3787H32.6918C32.3173 14.3787 32.0142 14.6819 32.0142 15.0564C32.0142 15.4309 32.3173 15.7341 32.6918 15.7341H40.8116V21.2941H40.2814C39.9069 21.2941 39.6037 21.5972 39.6037 21.9718C39.6037 22.3463 39.9069 22.6494 40.2814 22.6494H40.8116V23.6536H40.6162C40.2416 23.6536 39.9385 23.9568 39.9385 24.3313C39.9385 24.7058 40.2416 25.009 40.6162 25.009H41.4893C41.8638 25.009 42.167 24.7058 42.167 24.3313V1.94867C42.167 1.57417 41.8638 1.271 41.4893 1.271ZM8.61914 5.65808C8.61914 5.15393 9.02932 4.74376 9.53346 4.74376C10.0376 4.74376 10.4478 5.15393 10.4478 5.65808V6.08814H8.61846L8.61914 5.65808ZM5.53735 13.6695L7.23909 7.4435H10.4011V13.6695H5.53735Z" fill="#416387"/>
<path d="M7.88106 19.5999C5.27255 19.5999 3.14966 21.7221 3.14966 24.3313C3.14966 26.9405 5.27186 29.0634 7.88106 29.0634C10.4903 29.0634 12.6125 26.9411 12.6125 24.3313C12.6125 21.7227 10.4903 19.5999 7.88106 19.5999ZM7.88106 27.708C6.01951 27.708 4.50502 26.1928 4.50502 24.3313C4.50502 22.4697 6.01951 20.9552 7.88106 20.9552C9.74262 20.9552 11.2571 22.4697 11.2571 24.3313C11.2571 26.1928 9.74262 27.708 7.88106 27.708Z" fill="#416387"/>
<path d="M7.88109 22.1816C6.69583 22.1816 5.73145 23.146 5.73145 24.3313C5.73145 25.5165 6.69583 26.4809 7.88109 26.4809C9.06634 26.4809 10.0307 25.5165 10.0307 24.3313C10.0307 23.146 9.06634 22.1816 7.88109 22.1816ZM7.88109 25.1256C7.44279 25.1256 7.0868 24.7696 7.0868 24.3313C7.0868 23.893 7.44279 23.537 7.88109 23.537C8.31938 23.537 8.67537 23.893 8.67537 24.3313C8.67537 24.7696 8.31938 25.1256 7.88109 25.1256Z" fill="#416387"/>
<path d="M34.3346 19.5999C31.726 19.5999 29.6031 21.7221 29.6031 24.3313C29.6031 26.9405 31.7254 29.0634 34.3346 29.0634C36.9438 29.0634 39.066 26.9411 39.066 24.3313C39.066 21.7227 36.9431 19.5999 34.3346 19.5999ZM34.3346 27.708C32.473 27.708 30.9585 26.1928 30.9585 24.3313C30.9585 22.4697 32.473 20.9552 34.3346 20.9552C36.1961 20.9552 37.7106 22.4697 37.7106 24.3313C37.7106 26.1928 36.1961 27.708 34.3346 27.708Z" fill="#416387"/>
<path d="M34.3345 22.1816C33.1492 22.1816 32.1848 23.146 32.1848 24.3313C32.1848 25.5165 33.1492 26.4809 34.3345 26.4809C35.5197 26.4809 36.4841 25.5165 36.4841 24.3313C36.4841 23.146 35.5197 22.1816 34.3345 22.1816ZM34.3345 25.1256C33.8962 25.1256 33.5402 24.7696 33.5402 24.3313C33.5402 23.893 33.8962 23.537 34.3345 23.537C34.7728 23.537 35.1287 23.893 35.1287 24.3313C35.1287 24.7696 34.7728 25.1256 34.3345 25.1256Z" fill="#416387"/>
<path d="M8.85571 0.677679V1.67774C8.85571 2.05224 9.15889 2.35541 9.53339 2.35541C9.9079 2.35541 10.2111 2.05224 10.2111 1.67774V0.677679C10.2111 0.303172 9.9079 0 9.53339 0C9.15889 0 8.85571 0.303172 8.85571 0.677679Z" fill="#416387"/>
<path d="M11.6796 1.48634L10.9985 2.21821C10.744 2.49257 10.7591 2.92126 11.0328 3.17642C11.1638 3.29783 11.3291 3.3575 11.4944 3.3575C11.6755 3.3575 11.8572 3.2848 11.991 3.14144L12.6721 2.40957C12.9266 2.13521 12.9115 1.70652 12.6378 1.45136C12.3634 1.19826 11.9361 1.21403 11.6796 1.48634Z" fill="#416387"/>
<path d="M6.42892 1.45212C6.15524 1.70727 6.13946 2.13597 6.39462 2.41033L7.07573 3.1422C7.20948 3.28487 7.39056 3.35826 7.57233 3.35826C7.73763 3.35826 7.90294 3.2979 8.03395 3.17718C8.30763 2.92202 8.3234 2.49333 8.06824 2.21896L7.38713 1.4871C7.13129 1.21411 6.70397 1.19833 6.42892 1.45212Z" fill="#416387"/>
</svg>
