<svg width="37" height="38" viewBox="0 0 37 38" fill="none" xmlns="http://www.w3.org/2000/svg">
<g clip-path="url(#clip0_1183_2365)">
<path d="M36.4217 4.4191H26.1406L18.244 0.0704043C18.0734 -0.0236309 17.8683 -0.0236309 17.6976 0.0704043L9.80109 4.4191H0.577759C0.258489 4.4191 -0.000366211 4.68496 -0.000366211 5.01285V28.978C-0.000366211 29.3059 0.258489 29.5718 0.577759 29.5718H12.0701C11.8341 31.1752 11.1671 32.6407 10.0047 34.1214H8.6538C7.61274 34.1214 6.76572 34.9914 6.76572 36.0606V37.4061C6.76572 37.734 7.02458 37.9999 7.34384 37.9999H29.6555C29.9748 37.9999 30.2336 37.734 30.2336 37.4061V36.0607C30.2336 34.9914 29.3866 34.1216 28.3455 34.1216H26.9946C25.8322 32.6409 25.1653 31.1753 24.9292 29.5719H36.4215C36.7408 29.5719 36.9996 29.3061 36.9996 28.9782V5.01285C36.9998 4.68496 36.7409 4.4191 36.4217 4.4191ZM17.9709 1.2674L29.0138 7.34874L24.5847 9.78786C24.5828 9.7889 24.5809 9.78994 24.579 9.79098L17.9709 13.4301L11.3627 9.79091C11.3609 9.78994 11.3592 9.78898 11.3576 9.78809L6.92803 7.34881L17.9709 1.2674ZM30.7166 14.74V16.5289L30.5261 16.416C30.4367 16.363 30.3368 16.3364 30.237 16.3364C30.1372 16.3364 30.0373 16.3629 29.948 16.416L29.7575 16.5289V14.74L30.237 14.4557L30.7166 14.74ZM29.659 13.4273L28.8903 13.883C28.7113 13.9891 28.6012 14.1851 28.6012 14.3972V17.5573C28.6012 17.7694 28.7113 17.9654 28.8903 18.0715C29.0691 18.1776 29.2895 18.1776 29.4684 18.0715L30.237 17.6157L31.0057 18.0715C31.0951 18.1245 31.1949 18.1511 31.2948 18.1511C31.3946 18.1511 31.4944 18.1246 31.5838 18.0715C31.7628 17.9654 31.8729 17.7694 31.8729 17.5573V14.3972C31.8729 14.1851 31.7628 13.9891 31.5838 13.883L30.8152 13.4273V7.94249H33.5691V26.0483H3.43044V7.94256H5.55946L10.5067 10.6671V17.7209C10.5067 17.9397 10.6238 18.1407 10.8117 18.2441L16.3317 21.2841C16.8603 21.5751 17.4155 21.7207 17.971 21.7207C18.5263 21.7207 19.0817 21.5751 19.6102 21.2841L25.1302 18.2441C25.318 18.1407 25.4352 17.9397 25.4352 17.7209V10.667L29.659 8.3409L29.659 13.4273ZM17.6976 14.6271C17.783 14.6741 17.8768 14.6977 17.9708 14.6977C18.0647 14.6977 18.1587 14.6742 18.244 14.6271L24.2788 11.3037V15.2324L18.1987 18.5806C18.0306 18.6733 17.9112 18.6733 17.7431 18.5806L11.6629 15.2323V11.3037L17.6976 14.6271ZM11.663 16.5797L17.1969 19.6273C17.4501 19.7666 17.7105 19.8363 17.9709 19.8363C18.2314 19.8363 18.4919 19.7666 18.7451 19.6272L24.2789 16.5798V17.3654L19.0638 20.2375C18.359 20.6257 17.5828 20.6256 16.8781 20.2375L11.663 17.3654V16.5797ZM29.0774 36.0606V36.8124H7.92204V36.0607C7.92204 35.6463 8.25034 35.3091 8.65388 35.3091H28.3455C28.7491 35.309 29.0774 35.6462 29.0774 36.0606ZM25.5453 34.1215H11.4541C12.454 32.6614 13.0322 31.1845 13.2389 29.5718H23.7605C23.9673 31.1845 24.5454 32.6614 25.5453 34.1215ZM35.8435 28.3843H1.15588V5.6066H7.64476L5.55946 6.75506H2.85232C2.53305 6.75506 2.27419 7.02092 2.27419 7.34881V26.6421C2.27419 26.97 2.53305 27.2359 2.85232 27.2359H34.1473C34.4666 27.2359 34.7254 26.97 34.7254 26.6421V7.34881C34.7254 7.02092 34.4666 6.75506 34.1473 6.75506H30.3823L28.297 5.60668H35.8436V28.3843H35.8435Z" fill="#416387"/>
</g>
<defs>
<clipPath id="clip0_1183_2365">
<rect width="37" height="38" fill="white"/>
</clipPath>
</defs>
</svg>
