<svg width="38" height="38" viewBox="0 0 38 38" fill="none" xmlns="http://www.w3.org/2000/svg">
<path d="M27.4173 20.9131L26.0355 19.8966C26.0731 19.5996 26.092 19.2996 26.092 19.0001C26.092 18.7006 26.0731 18.4005 26.0355 18.1035L27.4173 17.087C27.7218 16.8629 27.8093 16.4456 27.6202 16.1181L25.806 12.9758C25.6169 12.6484 25.2118 12.5154 24.8655 12.6671L23.2941 13.3555C22.8149 12.9899 22.2953 12.6894 21.7413 12.4575L21.552 10.754C21.5102 10.3782 21.1925 10.0938 20.8143 10.0938H17.1859C16.8077 10.0938 16.49 10.3781 16.4482 10.754L16.2589 12.4575C15.7049 12.6894 15.1852 12.99 14.7061 13.3555L13.1348 12.6671C12.7884 12.5154 12.3833 12.6484 12.1942 12.9758L10.38 16.1181C10.1909 16.4456 10.2783 16.8629 10.5829 17.0871L11.9647 18.1035C11.9271 18.4005 11.9082 18.7006 11.9082 19.0001C11.9082 19.2993 11.9272 19.5993 11.9647 19.8965L10.5829 20.9131C10.2783 21.1373 10.1909 21.5545 10.38 21.8821L12.1942 25.0244C12.3833 25.3519 12.7882 25.4848 13.1347 25.333L14.706 24.6447C15.1851 25.0102 15.7049 25.3108 16.259 25.5428L16.4482 27.2462C16.49 27.622 16.8077 27.9064 17.1859 27.9064H20.8143C21.1925 27.9064 21.5102 27.6221 21.552 27.2462L21.7412 25.5428C22.2953 25.3108 22.8149 25.0102 23.2941 24.6446L24.8655 25.333C25.212 25.485 25.617 25.352 25.806 25.0244L27.6202 21.8821C27.8094 21.5545 27.7219 21.1373 27.4173 20.9131ZM24.5029 17.9163C24.5724 18.2716 24.6077 18.6363 24.6077 19.0001C24.6077 19.3639 24.5724 19.7285 24.5029 20.0838C24.4478 20.3657 24.5601 20.6541 24.7915 20.8242L26.0026 21.7152L24.8527 23.707L23.4744 23.103C23.211 22.9875 22.9047 23.0348 22.6882 23.2239C22.135 23.7073 21.5044 24.072 20.8137 24.308C20.5416 24.4009 20.3478 24.6426 20.316 24.9283L20.15 26.422H17.8502L17.6843 24.9283C17.6525 24.6426 17.4586 24.4009 17.1865 24.308C16.4956 24.072 15.8649 23.7073 15.3121 23.2241C15.0956 23.0348 14.7892 22.9876 14.5258 23.1031L13.1475 23.707L11.9975 21.7152L13.2088 20.8241C13.4401 20.6539 13.5525 20.3656 13.4974 20.0838C13.4277 19.7279 13.3924 19.3634 13.3924 19.0001C13.3924 18.6363 13.4277 18.2717 13.4972 17.9163C13.5524 17.6345 13.44 17.3461 13.2087 17.1759L11.9975 16.2849L13.1475 14.2932L14.5258 14.8971C14.7893 15.0127 15.0955 14.9654 15.312 14.7762C15.8652 14.2928 16.4958 13.9281 17.1864 13.6922C17.4585 13.5993 17.6524 13.3576 17.6842 13.0719L17.8501 11.5782H20.15L20.3159 13.0719C20.3477 13.3577 20.5416 13.5993 20.8137 13.6922C21.5044 13.9282 22.135 14.2929 22.688 14.7761C22.9045 14.9654 23.2108 15.0126 23.4743 14.8971L24.8526 14.2932L26.0025 16.2849L24.7914 17.1759C24.5601 17.3462 24.4478 17.6345 24.5029 17.9163Z" fill="#416387"/>
<path d="M19 15.99C17.3403 15.99 15.99 17.3403 15.99 19C15.99 20.6598 17.3403 22.01 19 22.01C20.6598 22.01 22.01 20.6598 22.01 19C22.01 17.3403 20.6598 15.99 19 15.99ZM19 20.5256C18.1588 20.5256 17.4744 19.8412 17.4744 19C17.4744 18.1588 18.1587 17.4744 19 17.4744C19.8413 17.4744 20.5257 18.1588 20.5257 19C20.5257 19.8412 19.8413 20.5256 19 20.5256Z" fill="#416387"/>
<path d="M10.3907 10.0195C10.3907 7.84456 9.0472 5.97744 7.14653 5.20445C7.76975 4.65983 8.16407 3.85945 8.16407 2.96875C8.16407 1.33178 6.83229 0 5.19532 0C3.55835 0 2.22656 1.33178 2.22656 2.96875C2.22656 3.85945 2.62089 4.65983 3.24418 5.20445C1.34351 5.97744 0 7.84456 0 10.0195C0 10.4294 0.332278 10.7617 0.742188 10.7617H9.64845C10.0584 10.7617 10.3907 10.4294 10.3907 10.0195ZM5.19539 1.48438C6.01388 1.48438 6.67977 2.15027 6.67977 2.96875C6.67977 3.78724 6.01388 4.45313 5.19539 4.45313C4.37691 4.45313 3.71102 3.78724 3.71102 2.96875C3.71102 2.15027 4.37691 1.48438 5.19539 1.48438ZM1.55897 9.27735C1.90379 7.58561 3.4033 6.3086 5.19539 6.3086C6.98748 6.3086 8.48692 7.58561 8.83182 9.27735H1.55897Z" fill="#416387"/>
<path d="M34.756 32.4428C35.3792 31.8982 35.7736 31.0979 35.7736 30.2072C35.7736 28.5702 34.4418 27.2384 32.8048 27.2384C31.1678 27.2384 29.8361 28.5702 29.8361 30.2072C29.8361 31.0979 30.2304 31.8982 30.8537 32.4428C28.953 33.2158 27.6095 35.083 27.6095 37.2579C27.6095 37.6678 27.9418 38.0001 28.3517 38.0001H37.2579C37.6679 38.0001 38.0001 37.6678 38.0001 37.2579C38.0001 35.083 36.6566 33.2158 34.756 32.4428ZM32.8048 28.7228C33.6233 28.7228 34.2892 29.3887 34.2892 30.2072C34.2892 31.0256 33.6233 31.6915 32.8048 31.6915C31.9863 31.6915 31.3204 31.0256 31.3204 30.2072C31.3204 29.3887 31.9863 28.7228 32.8048 28.7228ZM29.1684 36.5158C29.5132 34.824 31.0127 33.547 32.8048 33.547C34.5969 33.547 36.0963 34.824 36.4412 36.5158H29.1684Z" fill="#416387"/>
<path d="M24.5031 33.5821C22.7381 34.2482 20.8866 34.5859 19.0001 34.5859C10.4061 34.5859 3.41424 27.5941 3.41424 19C3.41424 17.8211 3.54747 16.6498 3.81116 15.5047L3.95826 15.7715C4.09349 16.017 4.34724 16.1556 4.60894 16.1556C4.73006 16.1556 4.85297 16.1259 4.96652 16.0633C5.32552 15.8654 5.45614 15.414 5.25828 15.055L4.24497 13.2166C4.14997 13.0442 3.99033 12.9166 3.80129 12.8619C3.61211 12.8072 3.40912 12.8298 3.23671 12.9249L1.39824 13.9382C1.03925 14.1361 0.908625 14.5875 1.10649 14.9465C1.30436 15.3054 1.75583 15.436 2.11475 15.2382L2.38364 15.09C2.08224 16.3703 1.92987 17.6807 1.92987 19.0001C1.92987 23.5598 3.70548 27.8465 6.9296 31.0707C10.1537 34.2949 14.4404 36.0704 19.0001 36.0704C21.0663 36.0704 23.0942 35.7005 25.0273 34.971C25.4108 34.8263 25.6043 34.398 25.4596 34.0145C25.3148 33.631 24.8866 33.4372 24.5031 33.5821Z" fill="#416387"/>
<path d="M13.497 4.41799C15.2621 3.75187 17.1135 3.41418 19 3.41418C27.5941 3.41418 34.5859 10.406 34.5859 19.0001C34.5859 20.179 34.4527 21.3503 34.189 22.4955L34.0419 22.2286C33.844 21.8695 33.3925 21.7389 33.0337 21.9368C32.6747 22.1347 32.5441 22.5861 32.742 22.9451L33.7552 24.7836C33.8502 24.9559 34.0098 25.0835 34.1989 25.1382C34.3872 25.1929 34.5908 25.1705 34.7634 25.0752L36.6019 24.0619C36.9609 23.8641 37.0915 23.4127 36.8937 23.0537C36.6957 22.6946 36.2443 22.564 35.8854 22.7619L35.6165 22.9101C35.9179 21.6299 36.0703 20.3194 36.0703 19C36.0703 14.4403 34.2947 10.1537 31.0705 6.92947C27.8464 3.70527 23.5597 1.92981 19 1.92981C16.9338 1.92981 14.906 2.29971 12.9729 3.02921C12.5894 3.17393 12.3958 3.60218 12.5406 3.98574C12.6853 4.36922 13.1135 4.56301 13.497 4.41799Z" fill="#416387"/>
</svg>
