<svg width="41" height="40" viewBox="0 0 41 40" fill="none" xmlns="http://www.w3.org/2000/svg">
<g clip-path="url(#clip0_1210_1953)">
<path d="M20.3331 40C20.2521 39.9999 20.1715 39.9881 20.0939 39.965C15.6697 38.7574 11.6808 36.3149 8.59389 32.9233C0.075554 23.47 2.06222 10.5783 2.54639 8.08997C2.57352 7.95127 2.63548 7.82174 2.72644 7.71357C2.81741 7.60541 2.93439 7.52215 3.06639 7.47164C5.64139 6.48581 8.18889 5.44997 10.6397 4.39247C13.7922 3.03414 16.9097 1.59414 19.9089 0.110806C20.0325 0.0409789 20.1715 0.00290578 20.3135 -2.91702e-06C20.4554 -0.00291162 20.5958 0.0294349 20.7222 0.094139C23.7314 1.58331 26.8622 3.02914 30.0264 4.39164C32.4772 5.44997 35.0264 6.48581 37.5997 7.47497C37.7317 7.52549 37.8487 7.60874 37.9397 7.71691C38.0306 7.82508 38.0926 7.9546 38.1197 8.09331C38.6039 10.5816 40.5906 23.4733 32.0697 32.9266C28.9913 36.3092 25.0153 38.7478 20.6047 39.9583C20.5171 39.9871 20.4253 40.0012 20.3331 40ZM4.10055 8.85914C3.64389 11.5941 2.23055 23.3725 9.83305 31.8066C12.6579 34.9093 16.2953 37.1587 20.3331 38.3C24.3708 37.1587 28.0082 34.9093 30.8331 31.8066C38.4347 23.3725 37.0214 11.5941 36.5647 8.85914C34.1181 7.91664 31.6997 6.92997 29.3681 5.92247C26.2981 4.60081 23.2606 3.20164 20.3331 1.75997C17.4056 3.20164 14.3681 4.60081 11.2981 5.92664C8.96639 6.92997 6.54805 7.91664 4.10055 8.85914Z" fill="#EDF1F4"/>
<path d="M20.3328 28.3334C18.1227 28.3334 16.0031 27.4554 14.4403 25.8926C12.8775 24.3298 11.9995 22.2102 11.9995 20C11.9995 17.7899 12.8775 15.6703 14.4403 14.1075C16.0031 12.5447 18.1227 11.6667 20.3328 11.6667C20.5539 11.6667 20.7658 11.7545 20.9221 11.9108C21.0784 12.067 21.1662 12.279 21.1662 12.5C21.1662 12.721 21.0784 12.933 20.9221 13.0893C20.7658 13.2456 20.5539 13.3334 20.3328 13.3334C19.0143 13.3334 17.7254 13.7243 16.629 14.4569C15.5327 15.1894 14.6782 16.2306 14.1736 17.4488C13.6691 18.667 13.537 20.0074 13.7943 21.3006C14.0515 22.5938 14.6864 23.7817 15.6188 24.7141C16.5511 25.6464 17.739 26.2814 19.0322 26.5386C20.3254 26.7958 21.6659 26.6638 22.8841 26.1592C24.1022 25.6546 25.1434 24.8001 25.876 23.7038C26.6085 22.6075 26.9995 21.3186 26.9995 20C26.9995 19.779 27.0873 19.567 27.2436 19.4108C27.3999 19.2545 27.6118 19.1667 27.8328 19.1667C28.0539 19.1667 28.2658 19.2545 28.4221 19.4108C28.5784 19.567 28.6662 19.779 28.6662 20C28.6638 22.2094 27.785 24.3276 26.2227 25.8899C24.6604 27.4522 22.5422 28.3309 20.3328 28.3334Z" fill="#EDF1F4"/>
<path d="M21.1664 22.5C20.9454 22.5 20.7335 22.4121 20.5772 22.2558L17.2439 18.9225C17.1058 18.7636 17.0329 18.5582 17.04 18.3478C17.0471 18.1373 17.1336 17.9374 17.2822 17.7881C17.4307 17.6388 17.6302 17.5513 17.8406 17.5432C18.0511 17.535 18.2568 17.6068 18.4164 17.7442L21.0914 20.4192L27.1747 12.8125C27.2431 12.727 27.3277 12.6559 27.4236 12.6031C27.5195 12.5503 27.6248 12.5169 27.7336 12.5048C27.8424 12.4928 27.9525 12.5022 28.0577 12.5327C28.1628 12.5632 28.2609 12.6141 28.3464 12.6825C28.4318 12.7509 28.503 12.8355 28.5558 12.9314C28.6086 13.0273 28.642 13.1326 28.654 13.2414C28.6661 13.3502 28.6566 13.4603 28.6262 13.5655C28.5957 13.6706 28.5448 13.7687 28.4764 13.8542L21.8097 22.1875C21.7365 22.2788 21.6448 22.3537 21.5407 22.4073C21.4366 22.4608 21.3224 22.4919 21.2055 22.4983L21.1664 22.5Z" fill="#EDF1F4"/>
</g>
<defs>
<clipPath id="clip0_1210_1953">
<rect width="40" height="40" fill="white" transform="translate(0.333008)"/>
</clipPath>
</defs>
</svg>
