<svg width="47" height="47" viewBox="0 0 47 47" fill="none" xmlns="http://www.w3.org/2000/svg">
<g clip-path="url(#clip0_1210_2057)">
<path d="M19.3578 35.08C19.4859 35.1866 19.6463 35.2464 19.8128 35.2498C19.9793 35.2532 20.1421 35.1999 20.2743 35.0987L45.2431 16.0049C45.3307 15.938 45.4021 15.8522 45.452 15.7539C45.5019 15.6556 45.529 15.5473 45.5314 15.437C45.5337 15.3268 45.5112 15.2175 45.4655 15.1172C45.4198 15.0168 45.3521 14.9281 45.2675 14.8575L27.6425 0.169952C27.5145 0.0633771 27.354 0.00348054 27.1875 9.1135e-05C27.021 -0.00329827 26.8582 0.0500208 26.726 0.151299L1.75722 19.2451C1.66961 19.312 1.59821 19.3978 1.5483 19.4961C1.49839 19.5944 1.47126 19.7027 1.46892 19.8129C1.46657 19.9231 1.48908 20.0325 1.53477 20.1328C1.58046 20.2331 1.64815 20.3219 1.73283 20.3925L19.3578 35.08ZM27.1527 1.67384L43.6202 15.3975L19.8477 33.5761L3.38015 19.8525L27.1527 1.67384Z" fill="white"/>
<path d="M44.3507 26.5888L19.8474 45.3261L2.67348 31.0137C2.59936 30.9519 2.5138 30.9053 2.42168 30.8766C2.32956 30.8479 2.23269 30.8376 2.1366 30.8463C2.0405 30.8551 1.94706 30.8826 1.86162 30.9275C1.77618 30.9723 1.7004 31.0335 1.63862 31.1076C1.57684 31.1818 1.53026 31.2673 1.50155 31.3594C1.47284 31.4516 1.46255 31.5484 1.47127 31.6445C1.47999 31.7406 1.50756 31.8341 1.5524 31.9195C1.59723 32.0049 1.65845 32.0807 1.73257 32.1425L19.3576 46.83C19.4856 46.9365 19.646 46.9964 19.8126 46.9998C19.9791 47.0032 20.1418 46.9499 20.2741 46.8487L45.2428 27.7549C45.397 27.6364 45.4979 27.4616 45.5233 27.2689C45.5488 27.0761 45.4967 26.8811 45.3786 26.7267C45.2604 26.5723 45.0858 26.471 44.8931 26.4452C44.7004 26.4193 44.5054 26.471 44.3507 26.5888Z" fill="white"/>
<path d="M44.3507 22.9169L19.8474 41.6542L2.67348 27.3418C2.59936 27.28 2.5138 27.2335 2.42168 27.2047C2.32956 27.176 2.23269 27.1657 2.1366 27.1745C2.0405 27.1832 1.94706 27.2108 1.86162 27.2556C1.77618 27.3004 1.7004 27.3616 1.63862 27.4358C1.57684 27.5099 1.53026 27.5954 1.50155 27.6876C1.47284 27.7797 1.46255 27.8766 1.47127 27.9727C1.47999 28.0687 1.50756 28.1622 1.5524 28.2476C1.59723 28.3331 1.65845 28.4088 1.73257 28.4706L19.3576 43.1581C19.4856 43.2647 19.646 43.3245 19.8126 43.3279C19.9791 43.3313 20.1418 43.278 20.2741 43.1768L45.2428 24.083C45.397 23.9646 45.4979 23.7898 45.5233 23.597C45.5488 23.4042 45.4967 23.2093 45.3786 23.0548C45.2604 22.9004 45.0858 22.7992 44.8931 22.7733C44.7004 22.7475 44.5054 22.7991 44.3507 22.9169Z" fill="white"/>
<path d="M44.3507 19.245L19.8474 37.9824L2.67348 23.6699C2.59936 23.6082 2.5138 23.5616 2.42168 23.5329C2.32956 23.5042 2.23269 23.4939 2.1366 23.5026C2.0405 23.5113 1.94706 23.5389 1.86162 23.5837C1.77618 23.6285 1.7004 23.6898 1.63862 23.7639C1.57684 23.838 1.53026 23.9236 1.50155 24.0157C1.47284 24.1078 1.46255 24.2047 1.47127 24.3008C1.47999 24.3969 1.50756 24.4903 1.5524 24.5758C1.59723 24.6612 1.65845 24.737 1.73257 24.7988L19.3576 39.4862C19.4856 39.5928 19.646 39.6527 19.8126 39.6561C19.9791 39.6594 20.1418 39.6061 20.2741 39.5049L45.2428 20.4112C45.397 20.2927 45.4979 20.1179 45.5233 19.9251C45.5488 19.7324 45.4967 19.5374 45.3786 19.383C45.2604 19.2285 45.0858 19.1273 44.8931 19.1014C44.7004 19.0756 44.5054 19.1272 44.3507 19.245Z" fill="white"/>
<path d="M36.2352 16.7092C36.3078 16.773 36.3922 16.8219 36.4837 16.853C36.5752 16.8841 36.6719 16.8969 36.7683 16.8906C36.8648 16.8842 36.959 16.8589 37.0456 16.8161C37.1323 16.7733 37.2096 16.7138 37.2732 16.6411C37.3368 16.5683 37.3854 16.4837 37.4163 16.3922C37.4471 16.3006 37.4596 16.2038 37.453 16.1074C37.4464 16.011 37.4208 15.9168 37.3777 15.8303C37.3346 15.7438 37.2749 15.6667 37.202 15.6033L25.452 5.32206C25.3052 5.19456 25.1139 5.13044 24.92 5.14375C24.726 5.15707 24.5453 5.24673 24.4173 5.39309C24.2894 5.53945 24.2247 5.73056 24.2374 5.92454C24.2501 6.11852 24.3393 6.29954 24.4852 6.42792L36.2352 16.7092Z" fill="white"/>
<path d="M31.4617 20.7482C31.5343 20.8121 31.6187 20.8609 31.7102 20.8921C31.8017 20.9232 31.8984 20.9359 31.9948 20.9296C32.0913 20.9233 32.1855 20.898 32.2721 20.8552C32.3588 20.8124 32.4361 20.7529 32.4997 20.6801C32.5633 20.6074 32.6119 20.5228 32.6428 20.4312C32.6736 20.3396 32.6861 20.2429 32.6795 20.1465C32.6728 20.0501 32.6473 19.9559 32.6042 19.8694C32.5611 19.7829 32.5014 19.7057 32.4285 19.6424L20.6785 9.36112C20.6059 9.2973 20.5214 9.24843 20.43 9.2173C20.3385 9.18618 20.2418 9.17341 20.1453 9.17974C20.0489 9.18606 19.9547 9.21136 19.868 9.25417C19.7814 9.29698 19.7041 9.35647 19.6405 9.42922C19.5769 9.50197 19.5283 9.58656 19.4974 9.67814C19.4666 9.76972 19.4541 9.86648 19.4607 9.96289C19.4673 10.0593 19.4929 10.1534 19.536 10.24C19.5791 10.3265 19.6388 10.4036 19.7117 10.467L31.4617 20.7482Z" fill="white"/>
<path d="M26.6884 24.7873C26.7609 24.8511 26.8454 24.9 26.9368 24.9311C27.0283 24.9622 27.125 24.975 27.2215 24.9687C27.3179 24.9624 27.4121 24.9371 27.4988 24.8943C27.5854 24.8514 27.6627 24.792 27.7263 24.7192C27.7899 24.6464 27.8385 24.5619 27.8694 24.4703C27.9002 24.3787 27.9127 24.2819 27.9061 24.1855C27.8995 24.0891 27.8739 23.995 27.8308 23.9085C27.7878 23.822 27.728 23.7448 27.6551 23.6814L15.9051 13.4002C15.7583 13.2727 15.567 13.2086 15.3731 13.2219C15.1792 13.2352 14.9984 13.3249 14.8705 13.4712C14.7425 13.6176 14.6778 13.8087 14.6905 14.0027C14.7033 14.1966 14.7924 14.3777 14.9384 14.5061L26.6884 24.7873Z" fill="white"/>
<path d="M22.3983 29.0078C22.5477 29.0078 22.6936 28.9622 22.8165 28.8771C22.9394 28.792 23.0333 28.6715 23.0859 28.5316C23.1384 28.3917 23.147 28.2391 23.1105 28.0941C23.074 27.9492 22.9942 27.8189 22.8816 27.7205L11.1316 17.4392C10.9849 17.3117 10.7936 17.2476 10.5997 17.2609C10.4057 17.2743 10.225 17.3639 10.097 17.5103C9.96908 17.6566 9.90438 17.8477 9.9171 18.0417C9.92983 18.2357 10.0189 18.4167 10.1649 18.5451L21.9149 28.8264C22.0486 28.9437 22.2204 29.0082 22.3983 29.0078Z" fill="white"/>
</g>
<defs>
<clipPath id="clip0_1210_2057">
<rect width="47" height="47" fill="white"/>
</clipPath>
</defs>
</svg>
