<svg width="33" height="43" viewBox="0 0 33 43" fill="none" xmlns="http://www.w3.org/2000/svg">
<path d="M32.3192 34.4324C32.408 34.2344 32.3875 34.0091 32.2715 33.8316C32.1554 33.6541 31.9506 33.5449 31.7389 33.5449H23.2529V33.1148C23.2529 31.7152 22.1128 30.5819 20.7201 30.5819H16.9174V29.0732C20.7884 28.9161 24.4886 27.305 27.2467 24.5946L28.5234 25.8713C28.6463 25.9942 28.8101 26.0556 28.974 26.0556C29.1378 26.0556 29.3017 25.9942 29.4246 25.8713C29.6703 25.6255 29.6703 25.2227 29.4246 24.9769L25.9564 21.5088C27.8407 19.2422 28.8852 16.4158 28.8852 13.4597C28.8852 13.3778 28.8852 13.3027 28.8784 13.2139C28.8784 13.2071 28.8784 13.2003 28.8784 13.2003C28.7419 6.40053 23.3212 0.986682 16.5556 0.87745C16.4395 0.870623 16.3371 0.863796 16.2347 0.870623C16.1664 0.870623 16.105 0.870623 16.064 0.87745H16.0572C16.0436 0.87745 16.0367 0.87745 16.0299 0.87745H16.0231C13.1489 0.911585 10.4112 1.9493 8.22659 3.76529L5.14759 0.693119C4.90182 0.447346 4.49902 0.447346 4.25325 0.693119C4.00748 0.938893 4.00748 1.34169 4.25325 1.58746L5.14077 2.47498C2.27341 5.39013 0.641742 9.34299 0.641742 13.4392C0.641742 21.8433 7.31177 28.7182 15.6408 29.0527V30.5615H11.8381C10.4386 30.5615 9.30527 31.7016 9.30527 33.0943V33.5244H4.4922C2.01398 33.5244 0 35.5384 0 38.0166C0 40.4948 2.01398 42.5088 4.4922 42.5088H31.7389C31.9506 42.5088 32.1554 42.3996 32.2715 42.2221C32.3875 42.0446 32.408 41.8124 32.3192 41.6213C31.2269 39.2045 31.2269 36.8492 32.3192 34.4324ZM8.62256 5.08974C9.87874 3.93597 11.367 3.09624 12.985 2.60469C11.961 3.79943 11.1213 5.56081 10.5751 7.73181C8.41092 8.27797 6.65637 9.11087 5.46164 10.1349C6.04194 8.21653 7.12744 6.46197 8.62256 5.08974ZM27.6086 13.2822C27.6154 13.3368 27.6154 13.3914 27.6154 13.446C27.6154 14.9139 26.052 16.3817 23.4987 17.3579C23.2734 16.9347 22.9184 16.5933 22.4883 16.3885C22.6044 15.4259 22.6726 14.4428 22.6726 13.446C22.6726 11.9441 22.5429 10.4968 22.2903 9.12452C25.4171 10.0325 27.4789 11.6164 27.6086 13.2822ZM11.961 19.4538C13.1352 19.6655 14.3709 19.7884 15.6408 19.8225V24.6834C14.1593 24.2396 12.7871 22.2939 11.961 19.4538ZM4.94961 13.2822C5.07932 11.6164 7.13426 10.0393 10.2679 9.13135C10.1382 9.85502 10.0426 10.606 9.97432 11.3843C9.01853 11.6301 8.30169 12.4903 8.30169 13.528C8.30169 14.5725 9.02536 15.4395 10.0016 15.6785C10.0631 16.3885 10.1586 17.0849 10.2884 17.7676C7.14792 16.8596 5.08615 15.2825 4.94961 13.6167C4.94278 13.5621 4.94278 13.5075 4.94278 13.4529C4.94961 13.3914 4.94278 13.3436 4.94961 13.2822ZM18.3579 8.42134C19.2454 8.49644 20.1057 8.62615 20.9249 8.79683C21.2321 10.2578 21.396 11.8144 21.396 13.446C21.396 14.3745 21.3277 15.2962 21.2253 16.2042C20.1603 16.3544 19.3342 17.2555 19.3137 18.3615C18.5354 18.4639 17.7298 18.5254 16.9106 18.5459V9.8004C17.5796 9.59559 18.119 9.08356 18.3579 8.42134ZM11.6401 18.0953C11.4694 17.2897 11.3466 16.4568 11.2715 15.6034C12.1317 15.2962 12.7461 14.4838 12.7461 13.5211C12.7461 12.5585 12.1453 11.7598 11.2578 11.4457C11.3397 10.5241 11.4626 9.63655 11.6401 8.79683C12.4594 8.62615 13.3127 8.50326 14.2003 8.42134C14.4392 9.07673 14.9785 9.58876 15.6476 9.79357V18.5459C14.248 18.5117 12.9031 18.3615 11.6401 18.0953ZM10.5478 12.5722C11.0666 12.5858 11.4763 13.0023 11.4763 13.5211C11.4763 14.0332 11.0735 14.4496 10.5819 14.4701H10.5205C9.9948 14.4701 9.57152 14.0468 9.57152 13.5211C9.57152 12.9955 10.0016 12.5722 10.5478 12.5722ZM16.2757 8.63298C15.7637 8.63298 15.3404 8.22335 15.3267 7.68402C15.3267 7.15833 15.75 6.73506 16.2757 6.73506C16.8014 6.73506 17.2246 7.15833 17.2246 7.71815C17.211 8.22335 16.7877 8.63298 16.2757 8.63298ZM15.6476 5.56763C14.9034 5.79292 14.33 6.38688 14.1388 7.14468C13.3947 7.20612 12.671 7.3017 11.9678 7.43142C12.7939 4.59819 14.1593 2.65248 15.6476 2.21555V5.56763ZM16.9106 24.6765V19.8225C17.8527 19.802 18.7812 19.7269 19.6756 19.5972C19.8462 19.8566 20.0783 20.0751 20.3378 20.239C19.5049 22.6489 18.2487 24.2737 16.9106 24.6765ZM21.2799 19.3037C20.9795 19.2217 20.7337 18.9964 20.6313 18.7029C20.5972 18.6005 20.5767 18.4981 20.5767 18.3888C20.5767 17.8631 21 17.4399 21.5257 17.4399C21.5803 17.4399 21.6213 17.4467 21.6895 17.4535C22.0992 17.5218 22.4132 17.8427 22.4678 18.225C22.4746 18.2796 22.4815 18.3342 22.4815 18.3888C22.4815 19.0033 21.8602 19.4743 21.2799 19.3037ZM18.4194 7.14468C18.2282 6.38688 17.6547 5.79292 16.9106 5.56763V2.21555C18.3921 2.65248 19.7643 4.59819 20.5904 7.43142C19.8872 7.3017 19.1635 7.21295 18.4194 7.14468ZM10.5683 19.1535C11.1144 21.3313 11.961 23.0927 12.985 24.2874C9.36671 23.2019 6.53349 20.3755 5.44116 16.7367C6.64272 17.7676 8.39727 18.6073 10.5683 19.1535ZM21.553 20.6076C22.6863 20.594 23.6079 19.7269 23.724 18.6209C25.1099 18.1157 26.2568 17.474 27.1102 16.7435C26.6187 18.3479 25.7858 19.843 24.6252 21.106C23.2598 22.5875 21.5257 23.6661 19.6141 24.2601C20.3787 23.3453 21.0341 22.1164 21.553 20.6076ZM27.117 10.1486C25.9223 9.1177 24.1541 8.27797 21.9831 7.73181C21.4369 5.56081 20.5972 3.79943 19.5663 2.60469C23.1983 3.69019 26.0315 6.52342 27.117 10.1486ZM1.91157 13.446C1.91157 9.68434 3.4067 6.05235 6.03511 3.37615L7.29129 4.63233C5.05202 6.92621 3.7344 10.0052 3.67978 13.1798C3.67295 13.2754 3.67295 13.3573 3.67295 13.446C3.67295 13.5348 3.67295 13.6167 3.67978 13.6713V13.6918V13.7123V13.7191C3.81632 20.5189 9.23699 25.9259 16.0026 26.0351C16.0982 26.0419 16.1801 26.042 16.2689 26.042C16.3508 26.042 16.4327 26.0419 16.4668 26.0351H16.4805H16.501H16.5146C19.7165 25.9737 22.7955 24.6629 25.0826 22.4236L26.3388 23.6798C23.6625 26.3082 20.0306 27.8033 16.2689 27.8033C8.35631 27.8033 1.91157 21.3654 1.91157 13.446ZM10.5751 33.1079C10.5751 32.4116 11.1417 31.8381 11.8449 31.8381H20.7201C21.4164 31.8381 21.9899 32.4048 21.9899 33.1079V33.538H10.5751V33.1079ZM4.4922 41.2594C2.71034 41.2594 1.263 39.8121 1.263 38.0302C1.263 36.2484 2.71034 34.8011 4.4922 34.8011H9.94018H22.618H30.8036C30.0527 36.9447 30.0527 39.1089 30.8036 41.2526H4.4922V41.2594Z" fill="#EDF1F4"/>
<path d="M17.7239 37.3955H4.29507C3.94689 37.3955 3.66016 37.6822 3.66016 38.0304C3.66016 38.3786 3.94689 38.6653 4.29507 38.6653H17.7239C18.0721 38.6653 18.3588 38.3786 18.3588 38.0304C18.3588 37.6822 18.0721 37.3955 17.7239 37.3955Z" fill="#EDF1F4"/>
<path d="M28.0802 37.3955H22.0382C21.6901 37.3955 21.4033 37.6822 21.4033 38.0304C21.4033 38.3786 21.6901 38.6653 22.0382 38.6653H28.0802C28.4284 38.6653 28.7151 38.3786 28.7151 38.0304C28.7151 37.6822 28.4284 37.3955 28.0802 37.3955Z" fill="#EDF1F4"/>
</svg>
