<svg width="43" height="42" viewBox="0 0 43 42" fill="none" xmlns="http://www.w3.org/2000/svg">
<path d="M40.8606 28.0529C40.7987 27.9676 40.7162 27.8995 40.6207 27.855C40.5252 27.8105 40.4199 27.7911 40.3148 27.7986L37.9332 27.9412L32.8845 28.2513C32.9274 27.951 32.9065 27.6449 32.8231 27.3531C32.7398 27.0614 32.5958 26.7905 32.4007 26.5581C32.6035 26.331 32.7474 26.0577 32.8199 25.762C32.8924 25.4664 32.8912 25.1575 32.8165 24.8624C32.7418 24.5672 32.5959 24.295 32.3914 24.0694C32.187 23.8439 31.9304 23.6719 31.644 23.5686V21.9002C32.9403 21.5529 34.2428 21.2055 35.5329 20.8458C35.6858 20.8061 35.8178 20.7095 35.9019 20.5758C35.986 20.4421 36.016 20.2814 35.9856 20.1263C35.6073 18.3339 35.2352 16.4608 34.8568 14.6559L41.8158 11.7409C41.929 11.6943 42.026 11.6153 42.0944 11.5138C42.1629 11.4122 42.1997 11.2927 42.2003 11.1702V8.57149C42.1993 8.48448 42.1801 8.39864 42.1437 8.31957C42.1074 8.24049 42.0548 8.16995 41.9894 8.11252C41.928 8.06406 41.8615 8.02246 41.791 7.98848L34.3482 5.28428C34.1936 5.22753 34.0228 5.23453 33.8733 5.30374C33.7238 5.37294 33.608 5.49869 33.5512 5.65332C33.4945 5.80794 33.5015 5.97878 33.5707 6.12824C33.6399 6.27771 33.7657 6.39356 33.9203 6.45031L39.8869 8.61491L31.2037 12.3363L21.3483 8.61491C21.2717 8.5864 21.1903 8.57325 21.1086 8.57621C21.027 8.57917 20.9467 8.59819 20.8724 8.63217C20.7981 8.66615 20.7312 8.71443 20.6756 8.77426C20.62 8.83408 20.5767 8.90428 20.5482 8.98084C20.5197 9.0574 20.5065 9.13883 20.5095 9.22048C20.5124 9.30212 20.5314 9.38238 20.5654 9.45668C20.5994 9.53097 20.6477 9.59785 20.7075 9.65348C20.7673 9.70912 20.8375 9.75243 20.9141 9.78094L29.5477 13.0185L21.1002 16.5786L2.32586 8.61491L21.1002 1.7862L32.4813 5.92312C32.6307 5.95791 32.7876 5.93614 32.9219 5.86202C33.0561 5.78789 33.1581 5.66666 33.2083 5.52173C33.2584 5.3768 33.253 5.21845 33.1932 5.07724C33.1334 4.93603 33.0234 4.82197 32.8845 4.75709L21.2986 0.545739C21.1624 0.496472 21.0131 0.496472 20.8769 0.545739L0.409351 7.98848C0.292801 8.03497 0.192164 8.11414 0.119543 8.21647C0.0469225 8.3188 0.00541052 8.43993 0 8.56529C0 8.56529 0 11.164 0 11.1702C9.92223e-05 11.292 0.0360266 11.411 0.103304 11.5125C0.170582 11.614 0.266234 11.6934 0.378339 11.7409L7.3373 14.6559C6.95896 16.4608 6.58682 18.3339 6.21469 20.1263C6.18383 20.2797 6.21207 20.439 6.29373 20.5725C6.37539 20.7059 6.50445 20.8035 6.65505 20.8458L9.47709 21.6149C13.4193 22.6184 17.2967 23.8611 21.0878 25.3363C24.1293 24.1316 27.2352 23.0963 30.3912 22.2351V23.5624C30.1048 23.6657 29.8482 23.8377 29.6438 24.0632C29.4394 24.2888 29.2934 24.561 29.2187 24.8562C29.144 25.1513 29.1429 25.4602 29.2154 25.7558C29.2878 26.0515 29.4318 26.3248 29.6345 26.5519C29.4282 26.8229 29.2798 27.1334 29.1987 27.4642C29.1176 27.795 29.1055 28.1389 29.1631 28.4746L25.9628 28.6731C25.9616 28.6566 25.9616 28.64 25.9628 28.6235C25.5224 28.0032 24.7223 28.1397 24.1703 27.935C24.0697 27.8068 23.9882 27.6648 23.9284 27.5133C23.488 26.3968 22.6197 26.0929 21.5963 26.7442C21.4507 26.8377 21.2918 26.9087 21.125 26.9551C20.9567 26.9076 20.7959 26.8366 20.6474 26.7442C19.6302 26.0929 18.7867 26.3968 18.3153 27.5133C18.2554 27.6698 18.1717 27.8163 18.0672 27.9474C17.5214 28.1273 16.7151 28.0218 16.2996 28.6049V28.6669C11.5859 28.3878 6.34493 28.0467 1.93511 27.7986C1.83104 27.7922 1.72705 27.8121 1.63273 27.8566C1.53842 27.901 1.45683 27.9685 1.39551 28.0529C0.53131 29.2405 0.0657703 30.6714 0.0657703 32.1402C0.0657703 33.6089 0.53131 35.0399 1.39551 36.2275C1.45325 36.3065 1.52887 36.3707 1.61619 36.4149C1.7035 36.4591 1.80003 36.482 1.8979 36.4818L4.26717 36.3391L7.31249 36.153C7.39399 36.1483 7.47375 36.1275 7.5472 36.0919C7.62065 36.0562 7.68634 36.0065 7.74051 35.9454C7.79467 35.8843 7.83624 35.8131 7.86284 35.7359C7.88944 35.6588 7.90054 35.5771 7.8955 35.4956C7.89076 35.4141 7.86998 35.3343 7.83434 35.2609C7.7987 35.1874 7.74892 35.1217 7.68784 35.0676C7.62676 35.0134 7.55558 34.9718 7.4784 34.9452C7.40122 34.9186 7.31954 34.9075 7.23806 34.9126L4.6207 35.0738C4.08811 34.188 3.80673 33.1738 3.80673 32.1402C3.80673 31.1065 4.08811 30.0924 4.6207 29.2065L16.0887 29.8763C16.1383 30.0795 16.1654 30.2875 16.1693 30.4966C15.8158 30.9741 15.115 31.3463 15.1212 32.1029C15.1274 32.8596 15.8096 33.2318 16.1631 33.7031C16.1646 33.9122 16.1396 34.1206 16.0887 34.3234L8.80104 34.8382C8.63654 34.848 8.48271 34.9228 8.37337 35.0461C8.26403 35.1694 8.20815 35.3311 8.21802 35.4956C8.22789 35.6601 8.3027 35.8139 8.426 35.9233C8.54929 36.0326 8.71097 36.0885 8.87547 36.0786L16.2376 35.6382C16.2376 35.6382 16.2376 35.6382 16.2376 35.6817C16.4815 35.9771 16.8306 36.1661 17.2113 36.2089L15.2328 39.0681C15.1712 39.1667 15.1385 39.2806 15.1385 39.3968C15.1385 39.5131 15.1712 39.627 15.2328 39.7256C15.2896 39.8271 15.3738 39.9105 15.4758 39.9665C15.5778 40.0224 15.6935 40.0485 15.8096 40.0419L17.6331 39.9178L18.4394 41.5552C18.4902 41.6601 18.5695 41.7485 18.6682 41.8104C18.7669 41.8723 18.8811 41.9051 18.9976 41.9051C19.1141 41.9051 19.2283 41.8723 19.327 41.8104C19.4257 41.7485 19.505 41.6601 19.5558 41.5552L21.1064 38.268L22.6507 41.5552C22.701 41.6608 22.7801 41.75 22.8788 41.8125C22.9776 41.8751 23.092 41.9084 23.2089 41.9088C23.3252 41.909 23.4391 41.8765 23.5378 41.8151C23.6365 41.7537 23.716 41.6658 23.7671 41.5614L24.5796 39.924L26.3969 40.0481C26.5137 40.0563 26.6304 40.0312 26.7336 39.9759C26.8368 39.9205 26.9222 39.8371 26.9799 39.7352C27.0377 39.6334 27.0654 39.5173 27.0599 39.4003C27.0544 39.2833 27.0159 39.1703 26.9489 39.0743L24.9642 36.2151C25.339 36.1785 25.6844 35.9958 25.9255 35.7065C25.9415 35.6859 25.9541 35.6628 25.9628 35.6382L29.1693 35.8367V37.7532C29.1693 37.9177 29.2347 38.0755 29.351 38.1918C29.4673 38.3081 29.6251 38.3735 29.7896 38.3735H32.2705C32.435 38.3735 32.5927 38.3081 32.709 38.1918C32.8254 38.0755 32.8907 37.9177 32.8907 37.7532V36.029L40.3334 36.4818C40.4313 36.482 40.5278 36.4591 40.6152 36.4149C40.7025 36.3707 40.7781 36.3065 40.8358 36.2275C41.7073 35.044 42.1794 33.6139 42.1839 32.1442C42.1883 30.6745 41.7249 29.2416 40.8606 28.0529ZM34.1684 17.509C34.3234 18.2843 34.4847 19.0533 34.6397 19.8162L31.644 20.6163V15.9956L33.6784 15.1397C33.8396 15.9274 34.0071 16.7151 34.1684 17.5028V17.509ZM40.9475 9.50804V10.7485L31.644 14.6497V13.4527L40.9475 9.50804ZM21.7204 17.664L30.4036 13.9799V15.1707L21.7204 18.8053V17.664ZM1.25286 9.50804L20.4799 17.664V18.8053L1.25286 10.7423V9.50804ZM21.1002 24.0214C16.4547 22.0863 12.1007 21.0567 7.56058 19.81C7.8769 18.2719 8.18081 16.7089 8.51573 15.1397L20.8583 20.3062C20.9348 20.3386 21.0171 20.3553 21.1002 20.3553C21.1833 20.3553 21.2655 20.3386 21.3421 20.3062L30.4036 16.5166V20.9574C27.2393 21.776 24.1316 22.7994 21.1002 24.0214ZM3.18177 35.1545L2.15219 35.2227C1.56324 34.3024 1.25025 33.2327 1.25025 32.1402C1.25025 31.0476 1.56324 29.9779 2.15219 29.0576L3.18177 29.1196C2.73182 30.0619 2.4983 31.0929 2.4983 32.1371C2.4983 33.1812 2.73182 34.2122 3.18177 35.1545ZM31.0238 24.6974C31.1883 24.6974 31.3461 24.7628 31.4624 24.8791C31.5787 24.9954 31.644 25.1532 31.644 25.3177C31.644 25.4821 31.5787 25.6399 31.4624 25.7562C31.3461 25.8725 31.1883 25.9379 31.0238 25.9379C30.8593 25.9379 30.7016 25.8725 30.5852 25.7562C30.4689 25.6399 30.4036 25.4821 30.4036 25.3177C30.4036 25.1532 30.4689 24.9954 30.5852 24.8791C30.7016 24.7628 30.8593 24.6974 31.0238 24.6974ZM17.7261 29.2561C18.0953 29.2396 18.4541 29.1285 18.7681 28.9336C19.2271 28.6111 19.3573 28.0467 19.6302 27.6311C20.0807 27.9056 20.5797 28.0909 21.1002 28.1769C21.6184 28.0899 22.1152 27.9046 22.5639 27.6311C22.8368 28.0343 22.9733 28.6173 23.4136 28.9212C23.8802 29.1609 24.3911 29.3024 24.9146 29.3367C24.8009 29.8457 24.7799 30.3709 24.8525 30.8873C25.0138 31.4145 25.5286 31.7184 25.8263 32.1278C25.5162 32.5495 25.02 32.81 24.8525 33.3682C24.7765 33.8865 24.7975 34.4144 24.9146 34.925C24.4961 34.986 24.0818 35.073 23.6741 35.1855C23.5782 35.2214 23.4883 35.2716 23.4074 35.3343C22.9484 35.6507 22.8244 36.2275 22.5453 36.643C22.1184 36.3757 21.6483 36.1847 21.156 36.0786C20.6237 36.1525 20.1138 36.3409 19.6612 36.6306C19.3945 36.2399 19.2457 35.632 18.8363 35.3529C18.7532 35.2836 18.6588 35.229 18.5572 35.1917C18.5572 35.1917 18.5572 35.1917 18.5138 35.1917C18.1233 35.0806 17.7253 34.9977 17.323 34.9436C17.4363 34.4347 17.4594 33.9099 17.3912 33.393C17.1532 32.9254 16.8142 32.5166 16.3988 32.196C16.6593 31.799 17.2423 31.4765 17.3912 30.9555C17.4609 30.4369 17.4399 29.9102 17.3292 29.3988C17.4587 29.3437 17.5912 29.2961 17.7261 29.2561ZM18.9666 39.8C18.7185 39.403 18.551 38.5595 17.9432 38.5967L16.9943 38.6588L18.3029 36.7981C18.5572 37.4183 19.1526 38.0385 19.8969 37.8339L18.9666 39.8ZM24.2261 38.5967C23.6059 38.5347 23.4446 39.4092 23.2089 39.8L22.2724 37.809C23.0167 38.0323 23.6121 37.4121 23.8726 36.7733L25.1751 38.634L24.2261 38.5967ZM26.0868 34.342C26.0382 34.1388 26.0132 33.9307 26.0124 33.7217C26.3659 33.2442 27.0668 32.872 27.0606 32.1154C27.0544 31.3587 26.3845 31.0113 26.062 30.5338C26.0631 30.3249 26.0881 30.1168 26.1364 29.9135L29.1631 29.7151V34.5653L26.0868 34.342ZM31.644 37.102H30.4036V27.7986C30.4099 27.6785 30.451 27.5629 30.5219 27.4658C30.5927 27.3687 30.6902 27.2943 30.8026 27.2516C30.9149 27.2088 31.0373 27.1997 31.1547 27.2252C31.2722 27.2508 31.3797 27.3099 31.4642 27.3954C31.7619 27.6001 31.6068 28.5801 31.644 28.9336V37.102ZM32.8845 34.7885V29.4918L37.6292 29.2065C38.1618 30.0924 38.4432 31.1065 38.4432 32.1402C38.4432 33.1738 38.1618 34.188 37.6292 35.0738L32.8845 34.7885ZM40.0419 35.2227L39.0124 35.1607C39.4654 34.2182 39.7007 33.1859 39.7007 32.1402C39.7007 31.0944 39.4654 30.0621 39.0124 29.1196L40.0419 29.0576C40.6338 29.9768 40.9485 31.0469 40.9485 32.1402C40.9485 33.2334 40.6338 34.3035 40.0419 35.2227Z" fill="#EDF1F4"/>
<path d="M21.1002 35.2413C25.1937 35.1111 25.1937 29.1693 21.1002 29.0391C17.0005 29.1693 17.0005 35.1111 21.1002 35.2413ZM21.1002 30.2795C21.5937 30.2795 22.0669 30.4756 22.4159 30.8245C22.7648 31.1734 22.9609 31.6467 22.9609 32.1402C22.9609 32.6337 22.7648 33.107 22.4159 33.4559C22.0669 33.8049 21.5937 34.0009 21.1002 34.0009C20.6067 34.0009 20.1334 33.8049 19.7845 33.4559C19.4355 33.107 19.2395 32.6337 19.2395 32.1402C19.2395 31.6467 19.4355 31.1734 19.7845 30.8245C20.1334 30.4756 20.6067 30.2795 21.1002 30.2795Z" fill="#EDF1F4"/>
</svg>
