<svg width="40" height="34" viewBox="0 0 40 34" fill="none" xmlns="http://www.w3.org/2000/svg">
<path d="M40 8.3763C40 6.71231 38.6738 5.35889 37.0425 5.35889H27.195V3.01742C27.195 1.35342 25.8688 0 24.2382 0H15.4858C13.8552 0 12.529 1.35342 12.529 3.01742V5.35889H2.95677C1.32622 5.35889 0 6.71231 0 8.3763V13.382C0 14.1835 0.314027 14.9166 0.827211 15.4631V30.9826C0.827211 32.6466 2.15343 34 3.78399 34H36.216C37.8466 34 39.1728 32.6466 39.1728 30.9826V15.4639C39.686 14.9173 40 14.1835 40 13.382V8.3763ZM14.0208 3.01742C14.0208 2.19303 14.678 1.52241 15.4858 1.52241H24.2375C25.0453 1.52241 25.7025 2.19303 25.7025 3.01742V5.35889H14.0208V3.01742ZM1.49181 8.3763C1.49181 7.55192 2.14896 6.8813 2.95677 6.8813H37.0432C37.851 6.8813 38.5089 7.55192 38.5089 8.3763V13.382C38.5089 14.0701 38.0517 14.6669 37.3975 14.8328L23.6945 18.3123V18.0695C23.6945 17.2299 23.0254 16.5471 22.2027 16.5471H17.7981C16.9753 16.5471 16.3063 17.2299 16.3063 18.0695V18.3123L2.60321 14.8336C1.94905 14.6677 1.49181 14.0709 1.49181 13.3828V8.3763ZM22.2027 22.1876H17.7973V18.0695H22.2019L22.2027 22.1876ZM36.216 32.4776H3.78399C2.97617 32.4776 2.31902 31.807 2.31902 30.9826V16.3294L16.3063 19.8812V22.1876C16.3063 23.0272 16.9753 23.71 17.7981 23.71H22.2027C23.0254 23.71 23.6945 23.0272 23.6945 22.1876V19.8812L37.6817 16.3294V30.9833C37.681 31.807 37.0238 32.4776 36.216 32.4776Z" fill="white"/>
</svg>
