<svg width="39" height="40" viewBox="0 0 39 40" fill="none" xmlns="http://www.w3.org/2000/svg">
<g clip-path="url(#clip0_1239_2251)">
<path d="M11.6499 30.7209C12.169 29.9356 12.4722 28.9956 12.4722 27.9858C12.4722 25.2441 10.2409 23.0137 7.49805 23.0137C4.75526 23.0137 2.52395 25.2441 2.52395 27.9858C2.52395 28.9957 2.82727 29.9356 3.34638 30.721C1.3733 31.5384 0 33.497 0 35.7005V38.7471C0 39.1677 0.341022 39.5088 0.761719 39.5088H14.2345C14.6552 39.5088 14.9962 39.1677 14.9962 38.7471V35.7005C14.9962 33.4967 13.6229 31.5381 11.6499 30.7209ZM7.49805 24.5371C9.40075 24.5371 10.9488 26.0842 10.9488 27.9858C10.9488 29.8886 9.40083 31.4366 7.49805 31.4366C5.59536 31.4366 4.04739 29.8886 4.04739 27.9858C4.04739 26.0842 5.59536 24.5371 7.49805 24.5371ZM13.4727 37.9853H1.52344V35.7005C1.52344 33.9165 2.77875 32.3562 4.49147 31.9451C5.32723 32.5813 6.36903 32.96 7.49805 32.96C8.62707 32.96 9.66895 32.5813 10.5047 31.9451C12.2174 32.3558 13.4727 33.9163 13.4727 35.7005V37.9853Z" fill="#EDF1F4"/>
<path d="M35.6509 30.7208C36.1699 29.9355 36.4731 28.9956 36.4731 27.9858C36.4731 25.2441 34.2418 23.0137 31.499 23.0137C28.7575 23.0137 26.5271 25.2441 26.5271 27.9858C26.5271 28.9954 26.8301 29.9352 27.3488 30.7204C25.375 31.5374 24.001 33.4964 24.001 35.7005V38.7471C24.001 39.1677 24.342 39.5088 24.7627 39.5088H38.2377C38.6583 39.5088 38.9994 39.1677 38.9994 38.7471V35.7005C38.9993 33.4967 37.6252 31.5379 35.6509 30.7208ZM31.499 24.5371C33.4017 24.5371 34.9497 26.0842 34.9497 27.9858C34.9497 29.8886 33.4017 31.4366 31.499 31.4366C29.5975 31.4366 28.0505 29.8886 28.0505 27.9858C28.0505 26.0842 29.5975 24.5371 31.499 24.5371ZM37.4759 37.9853H25.5243V35.7005C25.5243 33.9162 26.7802 32.3555 28.4934 31.9448C29.3289 32.5812 30.3704 32.96 31.499 32.96C32.6281 32.96 33.6699 32.5812 34.5057 31.945C36.2196 32.3559 37.4758 33.9164 37.4758 35.7005V37.9853H37.4759Z" fill="#EDF1F4"/>
<path d="M31.52 20.6363C31.6448 20.7162 31.7875 20.7565 31.9307 20.7565C32.054 20.7565 32.1775 20.7266 32.29 20.6665C32.5331 20.5364 32.687 20.2851 32.6923 20.0094L32.7363 17.7108C34.7541 17.2161 36.2507 15.3712 36.2507 13.2409C36.2507 11.012 34.6572 9.14874 32.5499 8.7291C32.6583 8.24679 32.714 7.75418 32.714 7.25564C32.7139 3.5354 29.6874 0.508789 25.9672 0.508789H20.7703C20.3496 0.508789 20.0085 0.849811 20.0085 1.27051C20.0085 1.69121 20.3496 2.03223 20.7703 2.03223H25.9672C28.8474 2.03223 31.1906 4.3755 31.1906 7.25571C31.1906 7.726 31.127 8.18966 31.0024 8.64021H20.5976C18.3203 8.64021 16.4253 10.3037 16.0612 12.4792H14.0145C13.8423 12.4792 13.6752 12.5375 13.5403 12.6447L9.0289 16.2328L8.97017 13.2023C8.96263 12.813 8.66267 12.492 8.27472 12.4582C5.6017 12.2253 3.50781 9.94009 3.50781 7.25556C3.50781 4.3755 5.85193 2.03223 8.73328 2.03223H13.9303C14.351 2.03223 14.692 1.69121 14.692 1.27051C14.692 0.849811 14.351 0.508789 13.9303 0.508789H8.73328C5.0119 0.508789 1.98438 3.5354 1.98438 7.25571C1.98438 8.94848 2.61995 10.57 3.77411 11.8216C4.76297 12.894 6.05264 13.6106 7.45961 13.881L7.53555 17.8029C7.54119 18.0926 7.71067 18.354 7.97286 18.4774C8.07622 18.526 8.1869 18.5499 8.29704 18.5499C8.46622 18.5499 8.63395 18.4936 8.77129 18.3843L14.2804 14.0027H16.0612C16.4253 16.1782 18.3203 17.8417 20.5976 17.8417H27.1542L31.52 20.6363ZM17.5204 13.2409C17.5204 11.5441 18.9009 10.1637 20.5976 10.1637H31.65C33.3468 10.1637 34.7272 11.5441 34.7272 13.2409C34.7272 14.8224 33.4945 16.1687 31.9207 16.3059C31.5327 16.3397 31.2327 16.6608 31.2253 17.0502L31.1952 18.6195L27.7878 16.4383C27.6653 16.3599 27.5227 16.3181 27.3772 16.3181H20.5976C18.9008 16.3182 17.5204 14.9377 17.5204 13.2409Z" fill="#EDF1F4"/>
<path d="M21.8018 12.4785C21.3811 12.4785 21.04 12.8206 21.04 13.2413C21.04 13.662 21.3811 14.003 21.8018 14.003C22.2225 14.003 22.5635 13.662 22.5635 13.2413V13.2392C22.5635 12.8185 22.2225 12.4785 21.8018 12.4785Z" fill="#EDF1F4"/>
<path d="M26.125 12.4785C25.7043 12.4785 25.3633 12.8206 25.3633 13.2413C25.3633 13.662 25.7043 14.003 26.125 14.003C26.5457 14.003 26.8867 13.662 26.8867 13.2413V13.2392C26.8867 12.8185 26.5457 12.4785 26.125 12.4785Z" fill="#EDF1F4"/>
<path d="M30.4453 14.003C30.866 14.003 31.207 13.662 31.207 13.2413V13.2392C31.207 12.8185 30.866 12.4785 30.4453 12.4785C30.0246 12.4785 29.6836 12.8206 29.6836 13.2413C29.6836 13.662 30.0246 14.003 30.4453 14.003Z" fill="#EDF1F4"/>
<path d="M17.3505 2.03223H17.3549C17.7755 2.03223 18.1144 1.69121 18.1144 1.27051C18.1144 0.849811 17.7713 0.508789 17.3506 0.508789C16.9299 0.508789 16.5889 0.849811 16.5889 1.27051C16.5889 1.69121 16.9298 2.03223 17.3505 2.03223Z" fill="#EDF1F4"/>
</g>
<defs>
<clipPath id="clip0_1239_2251">
<rect width="39" height="39" fill="white" transform="translate(0 0.508789)"/>
</clipPath>
</defs>
</svg>
