<svg width="40" height="40" viewBox="0 0 40 40" fill="none" xmlns="http://www.w3.org/2000/svg">
<g clip-path="url(#clip0_1186_3324)">
<path d="M20 40C19.9191 40 19.8385 39.9882 19.7609 39.965C15.3366 38.7574 11.3478 36.315 8.26088 32.9233C-0.257454 23.47 1.72921 10.5783 2.21338 8.09C2.24051 7.9513 2.30247 7.82177 2.39343 7.7136C2.4844 7.60543 2.60138 7.52218 2.73338 7.47167C5.30838 6.48583 7.85588 5.45 10.3067 4.3925C13.4592 3.03417 16.5767 1.59417 19.5759 0.110832C19.6995 0.0410056 19.8385 0.00293248 19.9804 2.37859e-05C20.1224 -0.00288491 20.2628 0.0294616 20.3892 0.0941657C23.3984 1.58333 26.5292 3.02917 29.6934 4.39167C32.1442 5.45 34.6934 6.48583 37.2667 7.475C37.3987 7.52551 37.5157 7.60877 37.6067 7.71694C37.6976 7.8251 37.7596 7.95463 37.7867 8.09333C38.2709 10.5817 40.2575 23.4733 31.7367 32.9267C28.6583 36.3093 24.6823 38.7478 20.2717 39.9583C20.1841 39.9872 20.0923 40.0012 20 40ZM3.76755 8.85917C3.31088 11.5942 1.89755 23.3725 9.50005 31.8067C12.3249 34.9093 15.9623 37.1587 20 38.3C24.0378 37.1587 27.6752 34.9093 30.5 31.8067C38.1017 23.3725 36.6884 11.5942 36.2317 8.85917C33.785 7.91667 31.3667 6.93 29.035 5.9225C25.965 4.60083 22.9275 3.20167 20 1.76C17.0725 3.20167 14.035 4.60083 10.965 5.92667C8.63338 6.93 6.21505 7.91667 3.76755 8.85917Z" fill="#EDF1F4"/>
<path d="M20.0001 28.3333C17.7899 28.3333 15.6703 27.4554 14.1075 25.8926C12.5447 24.3298 11.6667 22.2101 11.6667 20C11.6667 17.7899 12.5447 15.6702 14.1075 14.1074C15.6703 12.5446 17.7899 11.6667 20.0001 11.6667C20.2211 11.6667 20.4331 11.7545 20.5893 11.9107C20.7456 12.067 20.8334 12.279 20.8334 12.5C20.8334 12.721 20.7456 12.933 20.5893 13.0893C20.4331 13.2455 20.2211 13.3333 20.0001 13.3333C18.6815 13.3333 17.3926 13.7243 16.2963 14.4569C15.2 15.1894 14.3455 16.2306 13.8409 17.4488C13.3363 18.6669 13.2043 20.0074 13.4615 21.3006C13.7187 22.5938 14.3537 23.7817 15.286 24.714C16.2184 25.6464 17.4063 26.2813 18.6995 26.5386C19.9927 26.7958 21.3331 26.6638 22.5513 26.1592C23.7695 25.6546 24.8107 24.8001 25.5432 23.7038C26.2758 22.6075 26.6667 21.3185 26.6667 20C26.6667 19.779 26.7545 19.567 26.9108 19.4107C27.0671 19.2545 27.2791 19.1667 27.5001 19.1667C27.7211 19.1667 27.9331 19.2545 28.0893 19.4107C28.2456 19.567 28.3334 19.779 28.3334 20C28.331 22.2094 27.4522 24.3276 25.89 25.8899C24.3277 27.4522 22.2095 28.3309 20.0001 28.3333Z" fill="#EDF1F4"/>
<path d="M20.8334 22.5C20.6124 22.5 20.4004 22.4121 20.2442 22.2558L16.9109 18.9225C16.7727 18.7636 16.6999 18.5582 16.707 18.3478C16.7141 18.1373 16.8006 17.9374 16.9492 17.7881C17.0977 17.6388 17.2972 17.5513 17.5076 17.5432C17.718 17.535 17.9237 17.6068 18.0834 17.7442L20.7584 20.4192L26.8417 12.8125C26.9101 12.727 26.9947 12.6559 27.0906 12.6031C27.1865 12.5503 27.2918 12.5169 27.4006 12.5048C27.5094 12.4928 27.6195 12.5022 27.7247 12.5327C27.8298 12.5632 27.9279 12.6141 28.0134 12.6825C28.0988 12.7509 28.17 12.8355 28.2228 12.9314C28.2756 13.0273 28.309 13.1326 28.321 13.2414C28.3331 13.3502 28.3236 13.4603 28.2931 13.5655C28.2627 13.6706 28.2118 13.7687 28.1434 13.8542L21.4767 22.1875C21.4035 22.2788 21.3118 22.3537 21.2077 22.4073C21.1036 22.4608 20.9894 22.4919 20.8725 22.4983L20.8334 22.5Z" fill="#EDF1F4"/>
</g>
<defs>
<clipPath id="clip0_1186_3324">
<rect width="40" height="40" fill="white"/>
</clipPath>
</defs>
</svg>
