<svg width="49" height="49" viewBox="0 0 49 49" fill="none" xmlns="http://www.w3.org/2000/svg">
<path d="M37.4183 30.9241C37.2465 30.9241 37.0778 30.8605 36.9474 30.7268L32.1874 25.9668C31.9265 25.7059 31.9265 25.2827 32.1874 25.0218C32.4483 24.7609 32.8715 24.7609 33.1324 25.0218L37.8924 29.7818C38.1533 30.0427 38.1533 30.4659 37.8924 30.7268C37.7619 30.8573 37.5901 30.9241 37.4183 30.9241Z" fill="#EDF1F4"/>
<path d="M31.6623 41.6786C29.3427 41.6786 27.0932 41.2236 24.9741 40.3295C22.9282 39.4641 21.0923 38.2264 19.5141 36.6482C17.9359 35.07 16.6982 33.2341 15.8327 31.1882C14.9355 29.0691 14.4836 26.8195 14.4836 24.5C14.4836 22.1805 14.9386 19.9309 15.8327 17.8118C16.6982 15.7659 17.9359 13.93 19.5141 12.3518C21.0923 10.7736 22.9282 9.53591 24.9741 8.67046C27.0932 7.77318 29.3427 7.32137 31.6623 7.32137C33.9818 7.32137 36.2314 7.77637 38.3505 8.67046C40.3964 9.53591 42.2323 10.7736 43.8105 12.3518C45.3886 13.93 46.6264 15.7659 47.4918 17.8118C48.3891 19.9309 48.8409 22.1805 48.8409 24.5C48.8409 26.8195 48.3859 29.0691 47.4918 31.1882C46.6264 33.2341 45.3886 35.07 43.8105 36.6482C42.2323 38.2264 40.3964 39.4641 38.3505 40.3295C36.2314 41.2236 33.9818 41.6786 31.6623 41.6786ZM31.6623 8.65773C22.9282 8.65773 15.82 15.7627 15.82 24.5C15.82 33.2341 22.925 40.3423 31.6623 40.3423C40.3964 40.3423 47.5046 33.2373 47.5046 24.5C47.5046 15.7659 40.3995 8.65773 31.6623 8.65773Z" fill="#EDF1F4"/>
<path d="M19.6509 13.8409H9.79367C9.42458 13.8409 9.12549 13.5418 9.12549 13.1727C9.12549 12.8036 9.42458 12.5045 9.79367 12.5045H19.6509C20.02 12.5045 20.3191 12.8036 20.3191 13.1727C20.3191 13.5418 20.02 13.8409 19.6509 13.8409Z" fill="#EDF1F4"/>
<path d="M16.151 19.5045H5.50143C5.13234 19.5045 4.83325 19.2055 4.83325 18.8364C4.83325 18.4673 5.13234 18.1682 5.50143 18.1682H16.151C16.5201 18.1682 16.8192 18.4673 16.8192 18.8364C16.8192 19.2055 16.5201 19.5045 16.151 19.5045Z" fill="#EDF1F4"/>
<path d="M15.152 25.1682H6.53879C6.1697 25.1682 5.87061 24.8691 5.87061 24.5C5.87061 24.1309 6.1697 23.8318 6.53879 23.8318H15.1552C15.5242 23.8318 15.8233 24.1309 15.8233 24.5C15.8233 24.8691 15.5211 25.1682 15.152 25.1682Z" fill="#EDF1F4"/>
<path d="M3.18827 25.1682H0.827361C0.458271 25.1682 0.15918 24.8691 0.15918 24.5C0.15918 24.1309 0.458271 23.8318 0.827361 23.8318H3.18827C3.55736 23.8318 3.85645 24.1309 3.85645 24.5C3.85645 24.8691 3.55736 25.1682 3.18827 25.1682Z" fill="#EDF1F4"/>
<path d="M16.151 30.8318H5.50143C5.13234 30.8318 4.83325 30.5327 4.83325 30.1636C4.83325 29.7945 5.13234 29.4955 5.50143 29.4955H16.151C16.5201 29.4955 16.8192 29.7945 16.8192 30.1636C16.8192 30.5327 16.5201 30.8318 16.151 30.8318Z" fill="#EDF1F4"/>
<path d="M19.6509 36.4955H9.79367C9.42458 36.4955 9.12549 36.1964 9.12549 35.8273C9.12549 35.4582 9.42458 35.1591 9.79367 35.1591H19.6509C20.02 35.1591 20.3191 35.4582 20.3191 35.8273C20.3191 36.1964 20.02 36.4955 19.6509 36.4955Z" fill="#EDF1F4"/>
<path d="M31.6623 38.7545C29.7373 38.7545 27.8727 38.3791 26.1132 37.6345C24.4173 36.9155 22.89 35.8877 21.5823 34.58C20.2745 33.2723 19.2468 31.7482 18.5277 30.0491C17.7832 28.2927 17.4077 26.425 17.4077 24.5C17.4077 22.575 17.7832 20.7105 18.5277 18.9509C19.2468 17.255 20.2745 15.7277 21.5823 14.42C22.89 13.1123 24.4141 12.0845 26.1132 11.3655C27.8695 10.6209 29.7373 10.2455 31.6623 10.2455C33.5873 10.2455 35.4518 10.6209 37.2114 11.3655C38.9073 12.0845 40.4345 13.1123 41.7423 14.42C43.05 15.7277 44.0777 17.2518 44.7968 18.9509C45.5414 20.7073 45.9168 22.575 45.9168 24.5C45.9168 26.425 45.5414 28.2895 44.7968 30.0491C44.0777 31.745 43.05 33.2723 41.7423 34.58C40.4345 35.8877 38.9104 36.9155 37.2114 37.6345C35.455 38.3759 33.5873 38.7545 31.6623 38.7545ZM31.6623 11.5818C24.5414 11.5818 18.7441 17.3759 18.7441 24.5C18.7441 31.6241 24.5382 37.4182 31.6623 37.4182C38.7864 37.4182 44.5804 31.6241 44.5804 24.5C44.5804 17.3759 38.7864 11.5818 31.6623 11.5818Z" fill="#EDF1F4"/>
<path d="M31.6624 26.5555C30.5297 26.5555 29.6069 25.6327 29.6069 24.5C29.6069 23.3673 30.5297 22.4445 31.6624 22.4445C32.7951 22.4445 33.7178 23.3673 33.7178 24.5C33.721 25.6327 32.7983 26.5555 31.6624 26.5555ZM31.6624 23.7809C31.2647 23.7809 30.9433 24.1055 30.9433 24.5C30.9433 24.8945 31.2678 25.2191 31.6624 25.2191C32.0569 25.2191 32.3815 24.8945 32.3815 24.5C32.3815 24.1055 32.0601 23.7809 31.6624 23.7809Z" fill="#EDF1F4"/>
<path d="M31.6623 23.7905C31.2932 23.7905 30.9941 23.4914 30.9941 23.1223V17.8659C30.9941 17.4968 31.2932 17.1977 31.6623 17.1977C32.0314 17.1977 32.3305 17.4968 32.3305 17.8659V23.1223C32.3305 23.4914 32.0314 23.7905 31.6623 23.7905Z" fill="#EDF1F4"/>
<path d="M31.6623 13.6436C31.2932 13.6436 30.9941 13.3445 30.9941 12.9755V10.9136C30.9941 10.5445 31.2932 10.2455 31.6623 10.2455C32.0314 10.2455 32.3305 10.5445 32.3305 10.9136V12.9755C32.3305 13.3445 32.0314 13.6436 31.6623 13.6436Z" fill="#EDF1F4"/>
<path d="M23.5138 17.0195C23.3419 17.0195 23.1733 16.9559 23.0428 16.8223L21.5856 15.365C21.3247 15.1041 21.3247 14.6809 21.5856 14.42C21.8465 14.1591 22.2697 14.1591 22.5306 14.42L23.9878 15.8773C24.2488 16.1382 24.2488 16.5614 23.9878 16.8223C23.8574 16.9559 23.6856 17.0195 23.5138 17.0195Z" fill="#EDF1F4"/>
<path d="M20.1409 25.1682H18.0791C17.71 25.1682 17.4109 24.8691 17.4109 24.5C17.4109 24.1309 17.71 23.8318 18.0791 23.8318H20.1409C20.51 23.8318 20.8091 24.1309 20.8091 24.5C20.8091 24.8691 20.51 25.1682 20.1409 25.1682Z" fill="#EDF1F4"/>
<path d="M22.0565 34.7741C21.8847 34.7741 21.716 34.7105 21.5856 34.5768C21.3247 34.3159 21.3247 33.8927 21.5856 33.6318L23.0428 32.1745C23.3038 31.9136 23.7269 31.9136 23.9878 32.1745C24.2488 32.4355 24.2488 32.8586 23.9878 33.1195L22.5306 34.5768C22.4001 34.7105 22.2283 34.7741 22.0565 34.7741Z" fill="#EDF1F4"/>
<path d="M31.6623 38.7545C31.2932 38.7545 30.9941 38.4555 30.9941 38.0864V36.0245C30.9941 35.6555 31.2932 35.3564 31.6623 35.3564C32.0314 35.3564 32.3305 35.6555 32.3305 36.0245V38.0864C32.3305 38.4555 32.0314 38.7545 31.6623 38.7545Z" fill="#EDF1F4"/>
<path d="M41.2682 34.7741C41.0963 34.7741 40.9277 34.7105 40.7972 34.5768L39.34 33.1195C39.0791 32.8586 39.0791 32.4355 39.34 32.1745C39.6009 31.9136 40.0241 31.9136 40.285 32.1745L41.7422 33.6318C42.0032 33.8927 42.0032 34.3159 41.7422 34.5768C41.6118 34.7105 41.44 34.7741 41.2682 34.7741Z" fill="#EDF1F4"/>
<path d="M45.2488 25.1682H43.187C42.8179 25.1682 42.5188 24.8691 42.5188 24.5C42.5188 24.1309 42.8179 23.8318 43.187 23.8318H45.2488C45.6179 23.8318 45.917 24.1309 45.917 24.5C45.917 24.8691 45.6179 25.1682 45.2488 25.1682Z" fill="#EDF1F4"/>
<path d="M39.8109 17.0195C39.6391 17.0195 39.4704 16.9527 39.34 16.8223C39.0791 16.5614 39.0791 16.1382 39.34 15.8773L40.7972 14.42C41.0581 14.1591 41.4813 14.1591 41.7422 14.42C42.0032 14.6809 42.0032 15.1041 41.7422 15.365L40.285 16.8223C40.1545 16.9559 39.9827 17.0195 39.8109 17.0195Z" fill="#EDF1F4"/>
</svg>
