<svg width="37" height="37" viewBox="0 0 37 37" fill="none" xmlns="http://www.w3.org/2000/svg">
<g clip-path="url(#clip0_1239_2192)">
<path fill-rule="evenodd" clip-rule="evenodd" d="M5.81228 29.1627L5.34831 28.9518L3.85094 27.4544C3.26044 26.8639 4.1462 25.9571 4.73671 26.5476L5.81228 27.6231L9.48188 23.9535C10.0724 23.363 10.9582 24.2699 10.3676 24.8604C9.92476 25.3033 6.25516 29.0572 6.06536 29.0994L5.81228 29.1627ZM36.0126 36.0379H8.84919C8.51175 36.0379 8.23759 35.7426 8.23759 35.4052V32.7901C4.29383 33.4861 0.6875 30.4492 0.6875 26.4632C0.6875 23.4263 2.81755 20.8534 5.66465 20.1996L3.07063 4.74089C3.00736 4.36127 3.30261 4.00275 3.70332 4.00275H8.23759V0.712767C8.23759 0.354243 8.51175 0.0800781 8.84919 0.0800781H36.0126C36.3501 0.0800781 36.6453 0.354243 36.6453 0.712767V35.4052C36.6453 35.7426 36.3501 36.0379 36.0126 36.0379ZM9.48188 34.7725H35.3799V1.34546H9.48188V20.4948C14.8808 22.646 14.8597 30.3015 9.48188 32.4316V34.7725ZM8.23759 20.1363V5.26813H4.44145L6.93003 20.0309L8.23759 20.1363ZM7.11984 21.2962C4.27274 21.2962 1.95288 23.6161 1.95288 26.4632C1.95288 29.3103 4.27274 31.6302 7.11984 31.6302C9.96694 31.6302 12.2657 29.3103 12.2657 26.4632C12.2657 23.5528 9.90367 21.2962 7.11984 21.2962ZM32.8281 23.4263H15.0495C14.227 23.4263 14.227 22.1609 15.0495 22.1609H32.8281C33.6506 22.1609 33.6506 23.4263 32.8281 23.4263ZM32.8281 26.5687H15.0495C14.227 26.5687 14.227 25.3033 15.0495 25.3033H32.8281C33.6506 25.3033 33.6506 26.5687 32.8281 26.5687ZM32.8281 29.7321H15.0495C14.227 29.7321 14.227 28.4667 15.0495 28.4667H32.8281C33.6506 28.4667 33.6506 29.7321 32.8281 29.7321ZM32.8281 32.8955H12.0548C11.2112 32.8955 11.2112 31.6302 12.0548 31.6302H32.8281C33.6506 31.6302 33.6506 32.8955 32.8281 32.8955ZM32.8281 10.6671H25.1093C24.7508 10.6671 24.4766 10.3718 24.4766 10.0344V7.01857C24.4766 6.66004 24.7508 6.38588 25.1093 6.38588H32.8281C33.1655 6.38588 33.4608 6.66004 33.4608 7.01857V10.0344C33.4608 10.3718 33.1655 10.6671 32.8281 10.6671ZM25.7209 9.4017H32.1954V7.65126H25.7209V9.4017ZM32.8281 20.2629H20.9757C20.6383 20.2629 20.343 19.9887 20.343 19.6302V16.6144C20.343 16.2769 20.6383 15.9817 20.9757 15.9817H32.8281C33.1655 15.9817 33.4397 16.2769 33.4397 16.6144V19.6302C33.4608 19.9887 33.1655 20.2629 32.8281 20.2629ZM21.6084 18.9975H32.1954V17.247H21.6084V18.9975ZM18.5082 19.9465H12.0548C11.2112 19.9465 11.2112 18.6811 12.0548 18.6811H18.5082C19.3518 18.6811 19.3518 19.9465 18.5082 19.9465ZM18.5082 17.5634H12.0548C11.2112 17.5634 11.2112 16.298 12.0548 16.298H18.5082C19.3518 16.298 19.3518 17.5634 18.5082 17.5634ZM17.1585 14.5265C16.7367 14.5265 11.4221 12.4808 11.4221 5.24704C11.4221 4.82525 11.8017 4.48781 12.2868 4.65653C12.2868 4.65653 14.691 5.56338 16.6524 2.96936C16.9054 2.63192 17.4116 2.63192 17.6647 2.96936C19.6049 5.56338 22.0302 4.65653 22.0302 4.65653C22.4731 4.48781 22.8949 4.82525 22.8949 5.24704C22.8949 12.4808 17.5592 14.5265 17.1585 14.5265ZM12.7086 6.02735C13.0249 11.1521 16.2938 12.8604 17.1585 13.2189C18.0021 12.8604 21.2921 11.1521 21.6084 6.02735C20.575 6.15389 18.7824 6.06953 17.1585 4.34018C15.5346 6.06953 13.742 6.15389 12.7086 6.02735Z" fill="#EDF1F4"/>
</g>
<defs>
<clipPath id="clip0_1239_2192">
<rect width="36" height="36" fill="white" transform="translate(0.666016 0.0585938)"/>
</clipPath>
</defs>
</svg>
