<svg width="53" height="38" viewBox="0 0 53 38" fill="none" xmlns="http://www.w3.org/2000/svg">
<path d="M40.5208 26.2361C40.3339 26.2361 40.1505 26.1669 40.0086 26.0215L34.832 20.8448C34.5482 20.5611 34.5482 20.1009 34.832 19.8171C35.1157 19.5334 35.5759 19.5334 35.8597 19.8171L41.0364 24.9938C41.3201 25.2776 41.3201 25.7378 41.0364 26.0215C40.8945 26.1634 40.7076 26.2361 40.5208 26.2361Z" fill="#EDF1F4"/>
<path d="M34.2606 37.9321C31.738 37.9321 29.2915 37.4372 26.9869 36.4649C24.7619 35.5237 22.7653 34.1776 21.0489 32.4613C19.3326 30.7449 17.9865 28.7483 17.0453 26.5233C16.0695 24.2187 15.5781 21.7722 15.5781 19.2496C15.5781 16.727 16.073 14.2806 17.0453 11.976C17.9865 9.75097 19.3326 7.75435 21.0489 6.03801C22.7653 4.32168 24.7619 2.9756 26.9869 2.03439C29.2915 1.05857 31.738 0.5672 34.2606 0.5672C36.7831 0.5672 39.2296 1.06203 41.5342 2.03439C43.7592 2.9756 45.7558 4.32168 47.4722 6.03801C49.1885 7.75435 50.5346 9.75097 51.4758 11.976C52.4516 14.2806 52.943 16.727 52.943 19.2496C52.943 21.7722 52.4482 24.2187 51.4758 26.5233C50.5346 28.7483 49.1885 30.7449 47.4722 32.4613C45.7558 34.1776 43.7592 35.5237 41.5342 36.4649C39.2296 37.4372 36.7831 37.9321 34.2606 37.9321ZM34.2606 2.02055C24.7619 2.02055 17.0315 9.74751 17.0315 19.2496C17.0315 28.7483 24.7584 36.4787 34.2606 36.4787C43.7592 36.4787 51.4896 28.7518 51.4896 19.2496C51.4896 9.75097 43.7627 2.02055 34.2606 2.02055Z" fill="#EDF1F4"/>
<path d="M21.1983 7.65745H10.4781C10.0767 7.65745 9.75146 7.33218 9.75146 6.93078C9.75146 6.52937 10.0767 6.2041 10.4781 6.2041H21.1983C21.5997 6.2041 21.925 6.52937 21.925 6.93078C21.925 7.33218 21.5997 7.65745 21.1983 7.65745Z" fill="#EDF1F4"/>
<path d="M17.392 13.8169H5.81017C5.40877 13.8169 5.0835 13.4916 5.0835 13.0902C5.0835 12.6888 5.40877 12.3635 5.81017 12.3635H17.392C17.7934 12.3635 18.1186 12.6888 18.1186 13.0902C18.1186 13.4916 17.7934 13.8169 17.392 13.8169Z" fill="#EDF1F4"/>
<path d="M16.3053 19.9763H6.9381C6.5367 19.9763 6.21143 19.651 6.21143 19.2496C6.21143 18.8482 6.5367 18.5229 6.9381 18.5229H16.3087C16.7101 18.5229 17.0354 18.8482 17.0354 19.2496C17.0354 19.651 16.7067 19.9763 16.3053 19.9763Z" fill="#EDF1F4"/>
<path d="M3.29425 19.9763H0.726674C0.325273 19.9763 0 19.651 0 19.2496C0 18.8482 0.325273 18.5229 0.726674 18.5229H3.29425C3.69565 18.5229 4.02093 18.8482 4.02093 19.2496C4.02093 19.651 3.69565 19.9763 3.29425 19.9763Z" fill="#EDF1F4"/>
<path d="M17.392 26.1357H5.81017C5.40877 26.1357 5.0835 25.8104 5.0835 25.409C5.0835 25.0076 5.40877 24.6824 5.81017 24.6824H17.392C17.7934 24.6824 18.1186 25.0076 18.1186 25.409C18.1186 25.8104 17.7934 26.1357 17.392 26.1357Z" fill="#EDF1F4"/>
<path d="M21.1983 32.2951H10.4781C10.0767 32.2951 9.75146 31.9699 9.75146 31.5685C9.75146 31.1671 10.0767 30.8418 10.4781 30.8418H21.1983C21.5997 30.8418 21.925 31.1671 21.925 31.5685C21.925 31.9699 21.5997 32.2951 21.1983 32.2951Z" fill="#EDF1F4"/>
<path d="M34.2607 34.752C32.1672 34.752 30.1394 34.3437 28.2258 33.534C26.3815 32.7519 24.7205 31.6342 23.2983 30.212C21.8761 28.7898 20.7584 27.1323 19.9763 25.2845C19.1666 23.3744 18.7583 21.3431 18.7583 19.2496C18.7583 17.1561 19.1666 15.1283 19.9763 13.2148C20.7584 11.3704 21.8761 9.70944 23.2983 8.28723C24.7205 6.86503 26.378 5.74734 28.2258 4.9653C30.1359 4.15558 32.1672 3.74725 34.2607 3.74725C36.3542 3.74725 38.3819 4.15558 40.2955 4.9653C42.1399 5.74734 43.8009 6.86503 45.2231 8.28723C46.6453 9.70944 47.763 11.3669 48.545 13.2148C49.3547 15.1249 49.763 17.1561 49.763 19.2496C49.763 21.3431 49.3547 23.3709 48.545 25.2845C47.763 27.1288 46.6453 28.7898 45.2231 30.212C43.8009 31.6342 42.1433 32.7519 40.2955 33.534C38.3854 34.3402 36.3542 34.752 34.2607 34.752ZM34.2607 5.2006C26.5164 5.2006 20.2116 11.5019 20.2116 19.2496C20.2116 26.9973 26.5129 33.2986 34.2607 33.2986C42.0084 33.2986 48.3097 26.9973 48.3097 19.2496C48.3097 11.5019 42.0084 5.2006 34.2607 5.2006Z" fill="#EDF1F4"/>
<path d="M34.2608 21.485C33.0289 21.485 32.0254 20.4815 32.0254 19.2496C32.0254 18.0177 33.0289 17.0142 34.2608 17.0142C35.4927 17.0142 36.4962 18.0177 36.4962 19.2496C36.4996 20.4815 35.4961 21.485 34.2608 21.485ZM34.2608 18.4676C33.8282 18.4676 33.4787 18.8205 33.4787 19.2496C33.4787 19.6787 33.8317 20.0316 34.2608 20.0316C34.6899 20.0316 35.0428 19.6787 35.0428 19.2496C35.0428 18.8205 34.6933 18.4676 34.2608 18.4676Z" fill="#EDF1F4"/>
<path d="M34.2613 18.478C33.8599 18.478 33.5347 18.1527 33.5347 17.7513V12.0348C33.5347 11.6334 33.8599 11.3081 34.2613 11.3081C34.6627 11.3081 34.988 11.6334 34.988 12.0348V17.7513C34.988 18.1527 34.6627 18.478 34.2613 18.478Z" fill="#EDF1F4"/>
<path d="M34.2613 7.44291C33.8599 7.44291 33.5347 7.11763 33.5347 6.71623V4.47393C33.5347 4.07253 33.8599 3.74725 34.2613 3.74725C34.6627 3.74725 34.988 4.07253 34.988 4.47393V6.71623C34.988 7.11763 34.6627 7.44291 34.2613 7.44291Z" fill="#EDF1F4"/>
<path d="M25.3991 11.1143C25.2123 11.1143 25.0289 11.0451 24.887 10.8998L23.3022 9.31494C23.0184 9.03119 23.0184 8.57096 23.3022 8.28721C23.5859 8.00346 24.0461 8.00346 24.3299 8.28721L25.9147 9.87205C26.1985 10.1558 26.1985 10.616 25.9147 10.8998C25.7729 11.0451 25.586 11.1143 25.3991 11.1143Z" fill="#EDF1F4"/>
<path d="M21.7312 19.9763H19.4889C19.0875 19.9763 18.7622 19.651 18.7622 19.2496C18.7622 18.8482 19.0875 18.5229 19.4889 18.5229H21.7312C22.1326 18.5229 22.4579 18.8482 22.4579 19.2496C22.4579 19.651 22.1326 19.9763 21.7312 19.9763Z" fill="#EDF1F4"/>
<path d="M23.8143 30.4231C23.6274 30.4231 23.444 30.3539 23.3022 30.2086C23.0184 29.9248 23.0184 29.4646 23.3022 29.1808L24.887 27.596C25.1708 27.3122 25.631 27.3122 25.9147 27.596C26.1985 27.8797 26.1985 28.34 25.9147 28.6237L24.3299 30.2086C24.188 30.3539 24.0012 30.4231 23.8143 30.4231Z" fill="#EDF1F4"/>
<path d="M34.2613 34.752C33.8599 34.752 33.5347 34.4267 33.5347 34.0253V31.783C33.5347 31.3816 33.8599 31.0563 34.2613 31.0563C34.6627 31.0563 34.988 31.3816 34.988 31.783V34.0253C34.988 34.4267 34.6627 34.752 34.2613 34.752Z" fill="#EDF1F4"/>
<path d="M44.7077 30.4231C44.5209 30.4231 44.3375 30.3539 44.1956 30.2086L42.6108 28.6237C42.327 28.34 42.327 27.8797 42.6108 27.596C42.8945 27.3122 43.3547 27.3122 43.6385 27.596L45.2233 29.1808C45.5071 29.4646 45.5071 29.9248 45.2233 30.2086C45.0815 30.3539 44.8946 30.4231 44.7077 30.4231Z" fill="#EDF1F4"/>
<path d="M49.0368 19.9763H46.7945C46.3931 19.9763 46.0679 19.651 46.0679 19.2496C46.0679 18.8482 46.3931 18.5229 46.7945 18.5229H49.0368C49.4383 18.5229 49.7635 18.8482 49.7635 19.2496C49.7635 19.651 49.4383 19.9763 49.0368 19.9763Z" fill="#EDF1F4"/>
<path d="M43.1229 11.1143C42.936 11.1143 42.7526 11.0417 42.6108 10.8998C42.327 10.616 42.327 10.1558 42.6108 9.87205L44.1956 8.28721C44.4793 8.00346 44.9396 8.00346 45.2233 8.28721C45.5071 8.57096 45.5071 9.03119 45.2233 9.31494L43.6385 10.8998C43.4966 11.0451 43.3097 11.1143 43.1229 11.1143Z" fill="#EDF1F4"/>
</svg>
