<svg width="36" height="36" viewBox="0 0 36 36" fill="none" xmlns="http://www.w3.org/2000/svg">
<path fill-rule="evenodd" clip-rule="evenodd" d="M5.14578 29.1037L4.68181 28.8928L3.18444 27.3954C2.59393 26.8049 3.4797 25.8981 4.07021 26.4886L5.14578 27.5641L8.81537 23.8946C9.40588 23.304 10.2916 24.2109 9.70114 24.8014C9.25826 25.2443 5.58866 28.9982 5.39885 29.0404L5.14578 29.1037ZM35.3461 35.9789H8.18268C7.84525 35.9789 7.57108 35.6837 7.57108 35.3462V32.7311C3.62732 33.4271 0.0209961 30.3902 0.0209961 26.4042C0.0209961 23.3673 2.15105 20.7944 4.99815 20.1406L2.40412 4.6819C2.34086 4.30228 2.63611 3.94376 3.03681 3.94376H7.57108V0.653777C7.57108 0.295253 7.84525 0.0210876 8.18268 0.0210876H35.3461C35.6836 0.0210876 35.9788 0.295253 35.9788 0.653777V35.3462C35.9788 35.6837 35.6836 35.9789 35.3461 35.9789ZM8.81537 34.7135H34.7134V1.28647H8.81537V20.4359C14.2143 22.587 14.1932 30.2425 8.81537 32.3726V34.7135ZM7.57108 20.0773V5.20914H3.77495L6.26353 19.9719L7.57108 20.0773ZM6.45333 21.2373C3.60623 21.2373 1.28637 23.5571 1.28637 26.4042C1.28637 29.2513 3.60623 31.5712 6.45333 31.5712C9.30044 31.5712 11.5992 29.2513 11.5992 26.4042C11.5992 23.4939 9.23717 21.2373 6.45333 21.2373ZM32.1616 23.3673H14.383C13.5605 23.3673 13.5605 22.1019 14.383 22.1019H32.1616C32.9841 22.1019 32.9841 23.3673 32.1616 23.3673ZM32.1616 26.5097H14.383C13.5605 26.5097 13.5605 25.2443 14.383 25.2443H32.1616C32.9841 25.2443 32.9841 26.5097 32.1616 26.5097ZM32.1616 29.6731H14.383C13.5605 29.6731 13.5605 28.4077 14.383 28.4077H32.1616C32.9841 28.4077 32.9841 29.6731 32.1616 29.6731ZM32.1616 32.8366H11.3883C10.5447 32.8366 10.5447 31.5712 11.3883 31.5712H32.1616C32.9841 31.5712 32.9841 32.8366 32.1616 32.8366ZM32.1616 10.6081H24.4428C24.0843 10.6081 23.8101 10.3128 23.8101 9.9754V6.95958C23.8101 6.60105 24.0843 6.32689 24.4428 6.32689H32.1616C32.499 6.32689 32.7943 6.60105 32.7943 6.95958V9.9754C32.7943 10.3128 32.499 10.6081 32.1616 10.6081ZM25.0544 9.34271H31.5289V7.59227H25.0544V9.34271ZM32.1616 20.2039H20.3092C19.9718 20.2039 19.6765 19.9297 19.6765 19.5712V16.5554C19.6765 16.2179 19.9718 15.9227 20.3092 15.9227H32.1616C32.499 15.9227 32.7732 16.2179 32.7732 16.5554V19.5712C32.7943 19.9297 32.499 20.2039 32.1616 20.2039ZM20.9419 18.9385H31.5289V17.188H20.9419V18.9385ZM17.8417 19.8875H11.3883C10.5447 19.8875 10.5447 18.6221 11.3883 18.6221H17.8417C18.6853 18.6221 18.6853 19.8875 17.8417 19.8875ZM17.8417 17.5044H11.3883C10.5447 17.5044 10.5447 16.239 11.3883 16.239H17.8417C18.6853 16.239 18.6853 17.5044 17.8417 17.5044ZM16.492 14.4675C16.0702 14.4675 10.7556 12.4218 10.7556 5.18805C10.7556 4.76626 11.1352 4.42882 11.6203 4.59754C11.6203 4.59754 14.0245 5.50439 15.9858 2.91037C16.2389 2.57293 16.7451 2.57293 16.9982 2.91037C18.9384 5.50439 21.3637 4.59754 21.3637 4.59754C21.8066 4.42882 22.2284 4.76626 22.2284 5.18805C22.2284 12.4218 16.8927 14.4675 16.492 14.4675ZM12.0421 5.96836C12.3584 11.0931 15.6273 12.8014 16.492 13.1599C17.3356 12.8014 20.6256 11.0931 20.9419 5.96836C19.9085 6.0949 18.1159 6.01054 16.492 4.28119C14.8681 6.01054 13.0755 6.0949 12.0421 5.96836Z" fill="#EDF1F4"/>
</svg>
