<svg width="36" height="32" viewBox="0 0 36 32" fill="none" xmlns="http://www.w3.org/2000/svg">
<path d="M34.0232 32.0001H1.74975C0.784862 32.0001 0 31.215 0 30.2503V7.58947C0 6.62458 0.784862 5.83972 1.74975 5.83972H34.0229C34.9878 5.83972 35.7727 6.62458 35.7727 7.58947V30.2503C35.7729 31.2152 34.9881 32.0001 34.0232 32.0001ZM1.74975 6.95763C1.40134 6.95763 1.1179 7.24106 1.1179 7.58947V30.2503C1.1179 30.5987 1.40134 30.8822 1.74975 30.8822H34.0229C34.3714 30.8822 34.6548 30.5987 34.6548 30.2503V7.58947C34.6548 7.24106 34.3714 6.95763 34.0229 6.95763H1.74975Z" fill="#416387"/>
<path d="M33.7283 19.4787H30.1748C29.8662 19.4787 29.6158 19.2284 29.6158 18.9198C29.6158 18.6112 29.8662 18.3608 30.1748 18.3608H33.7283C34.2393 18.3608 34.655 17.9451 34.655 17.4341V7.88396C34.655 7.37298 34.2393 6.95726 33.7283 6.95726H2.0446C1.53362 6.95726 1.1179 7.37298 1.1179 7.88396V17.4341C1.1179 17.9451 1.53362 18.3608 2.0446 18.3608H5.59814C5.90672 18.3608 6.15709 18.6112 6.15709 18.9198C6.15709 19.2284 5.90672 19.4787 5.59814 19.4787H2.0446C0.917147 19.4787 0 18.5616 0 17.4341V7.88396C0 6.7565 0.917147 5.83936 2.0446 5.83936H33.7286C34.856 5.83936 35.7732 6.7565 35.7732 7.88396V17.4341C35.7729 18.5616 34.8558 19.4787 33.7283 19.4787Z" fill="#416387"/>
<path d="M19.2122 28.9703C19.1079 28.9703 19.0038 28.9411 18.9129 28.8834C18.7513 28.7809 18.6532 28.6027 18.6532 28.4113V26.1557H17.1194V28.4113C17.1194 28.6027 17.0213 28.7809 16.8597 28.8834C16.6981 28.9859 16.4952 28.9984 16.322 28.9169C15.7017 28.6244 15.1766 28.1647 14.8032 27.5875C14.4196 26.9944 14.2168 26.3059 14.2168 25.5968C14.2168 24.8876 14.4194 24.1994 14.8032 23.6062C15.1104 23.1313 15.5203 22.7361 16.0015 22.4478V15.3919C15.5203 15.1038 15.1104 14.7084 14.8032 14.2335C14.4196 13.6403 14.2168 12.9519 14.2168 12.2427C14.2168 11.5335 14.4194 10.8453 14.8032 10.2521C15.1766 9.675 15.7017 9.21526 16.322 8.92274C16.495 8.841 16.6981 8.85357 16.8597 8.95628C17.0213 9.05876 17.1194 9.23692 17.1194 9.42836V11.684H18.6532V9.42836C18.6532 9.23692 18.7513 9.05876 18.9129 8.95628C19.0746 8.85381 19.2776 8.84123 19.4507 8.92274C20.0709 9.21526 20.5961 9.675 20.9694 10.2521C21.353 10.8453 21.5558 11.5337 21.5558 12.2429C21.5558 12.9521 21.353 13.6403 20.9694 14.2335C20.6622 14.7084 20.2523 15.1036 19.7712 15.3919V22.4478C20.2523 22.7358 20.6622 23.1313 20.9694 23.6062C21.353 24.1994 21.5558 24.8878 21.5558 25.5968C21.5558 26.3059 21.353 26.9941 20.9694 27.5873C20.5961 28.1644 20.0709 28.6242 19.4507 28.9167C19.3748 28.9526 19.2935 28.9703 19.2122 28.9703ZM16.5604 25.0378H19.2122C19.5208 25.0378 19.7712 25.2882 19.7712 25.5968V27.3146C20.1913 26.8518 20.4379 26.2407 20.4379 25.5968C20.4379 24.6137 19.8634 23.7073 18.9737 23.2878C18.7781 23.1956 18.6532 22.9986 18.6532 22.7822V15.0575C18.6532 14.8411 18.7781 14.6443 18.9737 14.5519C19.8631 14.1322 20.4379 13.226 20.4379 12.2429C20.4379 11.599 20.1913 10.9878 19.7712 10.5251V12.2429C19.7712 12.5515 19.5208 12.8019 19.2122 12.8019H16.5604C16.2518 12.8019 16.0015 12.5515 16.0015 12.2429V10.5251C15.5813 10.9878 15.3347 11.599 15.3347 12.2429C15.3347 13.226 15.9093 14.1324 16.7989 14.5519C16.9946 14.6441 17.1194 14.8411 17.1194 15.0575V22.7822C17.1194 22.9986 16.9946 23.1954 16.7989 23.2878C15.9095 23.7075 15.3347 24.6137 15.3347 25.5968C15.3347 26.2407 15.5813 26.8518 16.0015 27.3146V25.5968C16.0015 25.2879 16.2518 25.0378 16.5604 25.0378Z" fill="#416387"/>
<path d="M16.5604 19.4787H10.2645C9.95593 19.4787 9.70557 19.2284 9.70557 18.9198C9.70557 18.6112 9.95593 18.3608 10.2645 18.3608H16.5604C16.869 18.3608 17.1194 18.6112 17.1194 18.9198C17.1194 19.2284 16.869 19.4787 16.5604 19.4787Z" fill="#416387"/>
<path d="M25.5082 19.4787H19.2123C18.9037 19.4787 18.6533 19.2284 18.6533 18.9198C18.6533 18.6112 18.9037 18.3608 19.2123 18.3608H25.5082C25.8168 18.3608 26.0671 18.6112 26.0671 18.9198C26.0671 19.2284 25.8168 19.4787 25.5082 19.4787Z" fill="#416387"/>
<path d="M24.7123 6.95755C24.4037 6.95755 24.1534 6.70719 24.1534 6.3986V3.40169C24.1534 2.14242 23.1288 1.1179 21.8693 1.1179H13.9024C12.6429 1.1179 11.6184 2.14242 11.6184 3.40169V6.3986C11.6184 6.70719 11.368 6.95755 11.0594 6.95755C10.7509 6.95755 10.5005 6.70719 10.5005 6.3986V3.40169C10.5005 1.52594 12.0267 0 13.9024 0H21.8693C23.7451 0 25.2713 1.52594 25.2713 3.40169V6.3986C25.2713 6.70719 25.0211 6.95755 24.7123 6.95755Z" fill="#416387"/>
<path d="M22.6164 6.95754H13.1556C12.847 6.95754 12.5967 6.70718 12.5967 6.39859V3.40168C12.5967 2.68179 13.1824 2.09583 13.9025 2.09583H21.8697C22.5898 2.09583 23.1755 2.68156 23.1755 3.40168V6.39859C23.1753 6.70718 22.9249 6.95754 22.6164 6.95754ZM13.7146 5.83964H22.0574V3.40168C22.0574 3.29804 21.9731 3.21373 21.8695 3.21373H13.9025C13.7989 3.21373 13.7146 3.29804 13.7146 3.40168V5.83964Z" fill="#416387"/>
<path d="M9.70419 21.8122H6.15764C5.5407 21.8122 5.03857 21.3103 5.03857 20.6931V17.1468C5.03857 16.5298 5.54047 16.0277 6.15764 16.0277H9.70396C10.3209 16.0277 10.823 16.5296 10.823 17.1468V20.6931C10.8233 21.31 10.3211 21.8122 9.70419 21.8122ZM6.15764 17.1454L6.15648 20.6929L9.70396 20.694H9.70489L9.70512 17.1465L6.15764 17.1454Z" fill="#416387"/>
<path d="M29.6148 21.8122H26.0683C25.4513 21.8122 24.9492 21.3103 24.9492 20.6931V17.1468C24.9492 16.5298 25.4511 16.0277 26.0683 16.0277H29.6148C30.2318 16.0277 30.7339 16.5296 30.7339 17.1468V20.6931C30.7339 21.31 30.2318 21.8122 29.6148 21.8122ZM26.0683 17.1454L26.0671 20.6929L29.6146 20.694H29.6155L29.6158 17.1465L26.0683 17.1454Z" fill="#416387"/>
<path d="M9.07183 17.1455C8.76324 17.1455 8.51288 16.8951 8.51288 16.5865V6.95763H7.34886V16.5865C7.34886 16.8951 7.0985 17.1455 6.78991 17.1455C6.48132 17.1455 6.23096 16.8951 6.23096 16.5865V6.39867C6.23096 6.09009 6.48132 5.83972 6.78991 5.83972H9.07183C9.38042 5.83972 9.63078 6.09009 9.63078 6.39867V16.5865C9.63078 16.8951 9.38042 17.1455 9.07183 17.1455Z" fill="#416387"/>
<path d="M7.93087 26.0518C7.7392 26.0518 7.5608 25.9535 7.45832 25.7914L6.31736 23.985C6.261 23.8956 6.23096 23.7922 6.23096 23.6865V21.2532C6.23096 20.9446 6.48132 20.6942 6.78991 20.6942C7.0985 20.6942 7.34886 20.9446 7.34886 21.2532V23.5246L7.93087 24.4459L8.51288 23.5246V21.2532C8.51288 20.9446 8.76324 20.6942 9.07183 20.6942C9.38042 20.6942 9.63078 20.9446 9.63078 21.2532V23.6865C9.63078 23.7922 9.60074 23.8956 9.54438 23.985L8.40342 25.7914C8.30094 25.9535 8.12254 26.0518 7.93087 26.0518Z" fill="#416387"/>
<path d="M28.982 17.1455C28.6734 17.1455 28.423 16.8951 28.423 16.5865V6.95763H27.259V16.5865C27.259 16.8951 27.0087 17.1455 26.7001 17.1455C26.3915 17.1455 26.1411 16.8951 26.1411 16.5865V6.39867C26.1411 6.09009 26.3915 5.83972 26.7001 5.83972H28.982C29.2906 5.83972 29.5409 6.09009 29.5409 6.39867V16.5865C29.5409 16.8951 29.2908 17.1455 28.982 17.1455Z" fill="#416387"/>
<path d="M27.841 26.0518C27.6494 26.0518 27.471 25.9535 27.3685 25.7914L26.2275 23.985C26.1712 23.8956 26.1411 23.7922 26.1411 23.6865V21.2532C26.1411 20.9446 26.3915 20.6942 26.7001 20.6942C27.0087 20.6942 27.259 20.9446 27.259 21.2532V23.5246L27.841 24.4459L28.423 23.5246V21.2532C28.423 20.9446 28.6734 20.6942 28.982 20.6942C29.2906 20.6942 29.5409 20.9446 29.5409 21.2532V23.6865C29.5409 23.7922 29.5109 23.8956 29.4545 23.985L28.3136 25.7914C28.2111 25.9535 28.0327 26.0518 27.841 26.0518Z" fill="#416387"/>
</svg>
