<svg width="31" height="37" viewBox="0 0 31 37" fill="none" xmlns="http://www.w3.org/2000/svg">
<path d="M29.4876 19.8808H17.6382C17.4842 19.8809 17.3366 19.9421 17.2278 20.0509C17.1189 20.1598 17.0577 20.3074 17.0576 20.4613V22.8995C16.9435 23.001 16.8252 23.0977 16.7027 23.1895C16.6138 23.085 16.5235 22.9818 16.4273 22.8869C15.519 21.9816 14.2896 21.4722 13.0072 21.4698C11.7545 21.4697 10.5511 21.9576 9.65205 22.8299C8.93537 22.1723 8.40526 21.337 8.11543 20.4086C7.82561 19.4802 7.78637 18.4916 8.00171 17.5431C8.21705 16.5946 8.67931 15.72 9.34163 15.0077C10.0039 14.2954 10.8428 13.7709 11.7731 13.4873L14.3321 15.5305L14.0402 15.8954C13.8443 16.1355 13.698 16.4121 13.6098 16.7091C13.5215 17.0061 13.493 17.3177 13.5259 17.6258C13.5589 17.9339 13.6526 18.2325 13.8016 18.5041C13.9507 18.7758 14.1521 19.0152 14.3943 19.2085C14.6365 19.4018 14.9146 19.5451 15.2126 19.6303C15.5105 19.7154 15.8224 19.7406 16.1301 19.7044C16.4379 19.6682 16.7354 19.5713 17.0055 19.4194C17.2755 19.2674 17.5128 19.0635 17.7035 18.8192L24.9654 9.72018C25.1573 9.47954 25.3 9.20345 25.3852 8.90769C25.4704 8.61192 25.4965 8.30227 25.462 7.99642C25.4275 7.69057 25.3331 7.3945 25.1843 7.12512C25.0354 6.85574 24.8349 6.61832 24.5942 6.42642C24.3536 6.23452 24.0775 6.0919 23.7817 6.0067C23.486 5.9215 23.1763 5.89539 22.8705 5.92986C22.5646 5.96433 22.2685 6.05871 21.9992 6.2076C21.7298 6.35649 21.4924 6.55698 21.3005 6.79763L20.3484 7.99186L12.8164 1.98222C12.6495 1.84874 12.4579 1.74949 12.2526 1.69014C12.0473 1.6308 11.8323 1.61253 11.6199 1.63638C11.4075 1.66022 11.2019 1.72572 11.0148 1.82913C10.8278 1.93253 10.663 2.0718 10.5298 2.23898L10.3809 2.42541L7.49746 0.126843C7.42232 0.0668307 7.33344 0.0264364 7.23881 0.00929343C7.14419 -0.00784959 7.04678 -0.00120351 6.95536 0.0286337C6.86394 0.0584709 6.78138 0.110563 6.71508 0.180227C6.64879 0.24989 6.60085 0.334938 6.57558 0.427724L5.32827 4.99566C5.29842 5.10518 5.30137 5.22104 5.33675 5.3289C5.37213 5.43675 5.43839 5.53185 5.52731 5.6024L6.94678 6.73294L6.54871 7.23385C6.31176 7.5292 6.18557 7.89811 6.19199 8.2767C6.19841 8.65529 6.33704 9.01971 6.58387 9.30684C4.91162 10.4415 3.57008 11.9993 2.69596 13.8213C1.82185 15.6433 1.44642 17.6646 1.60792 19.679C1.76943 21.6934 2.4621 23.629 3.61535 25.2885C4.76859 26.948 6.34119 28.2721 8.17286 29.1258V30.3967H4.36824C4.2143 30.3967 4.06669 30.4579 3.95784 30.5668C3.84899 30.6756 3.7878 30.8232 3.78771 30.9772V32.9178H0.58053C0.426591 32.9179 0.278982 32.9791 0.17013 33.0879C0.0612788 33.1968 8.78899e-05 33.3444 0 33.4983V36.0195C0 36.1735 0.0611623 36.3211 0.170033 36.43C0.278903 36.5389 0.426564 36.6 0.58053 36.6H25.4328C25.5091 36.6001 25.5846 36.5851 25.6551 36.5559C25.7255 36.5268 25.7895 36.484 25.8434 36.4301C25.8974 36.3762 25.9401 36.3122 25.9693 36.2417C25.9984 36.1713 26.0134 36.0958 26.0134 36.0195V33.4983C26.0134 33.3444 25.9522 33.1967 25.8433 33.0878C25.7345 32.979 25.5868 32.9178 25.4328 32.9178H22.2257V30.9765C22.2257 30.8226 22.1645 30.6749 22.0556 30.566C21.9468 30.4572 21.7991 30.396 21.6451 30.396H17.8438V29.1308C20.3084 27.9687 22.2831 25.9732 23.4192 23.4966H29.4876C29.6415 23.4966 29.7891 23.4354 29.898 23.3265C30.0068 23.2177 30.068 23.0701 30.0681 22.9161V20.4613C30.068 20.3074 30.0068 20.1598 29.898 20.0509C29.7891 19.9421 29.6415 19.8809 29.4876 19.8808ZM22.2091 7.52047C22.4067 7.28108 22.6904 7.12893 22.9992 7.09685C23.3079 7.06476 23.6169 7.15532 23.8595 7.34897C24.102 7.54263 24.2588 7.82387 24.2959 8.13205C24.333 8.44022 24.2475 8.75064 24.0578 8.99634L16.7956 18.0964C16.5972 18.3373 16.3128 18.4915 16.0027 18.5263C15.6926 18.5611 15.3811 18.4738 15.1342 18.2828C14.8897 18.0867 14.7327 17.8017 14.6977 17.4901C14.6626 17.1786 14.7523 16.8658 14.9471 16.6202L15.5675 15.8426C15.5801 15.8293 15.5924 15.8154 15.604 15.8008L20.8865 9.17846C20.8891 9.17515 20.8924 9.17282 20.8951 9.16951C20.8975 9.16621 20.8997 9.16277 20.9017 9.15922L22.2091 7.52047ZM11.7496 2.78998C11.8103 2.78273 11.8719 2.78781 11.9306 2.80491C11.9893 2.82201 12.0439 2.85078 12.0913 2.8895L19.6246 8.90047L19.0135 9.66346C19.0109 9.66644 19.0079 9.66843 19.0055 9.67142L15.0553 14.6228L12.2903 12.4168C12.2853 12.4122 12.2797 12.4085 12.2744 12.4042L7.9171 8.92568L7.52466 8.61021C7.47708 8.57294 7.43742 8.52654 7.40802 8.47373C7.37863 8.42092 7.36009 8.36277 7.35349 8.30269C7.34628 8.24161 7.35137 8.17971 7.36846 8.12063C7.38555 8.06155 7.4143 8.00648 7.45301 7.95869L8.21134 7.00761L8.21599 7.00297L8.2203 6.99667L11.4381 2.96248C11.4759 2.91446 11.523 2.87447 11.5765 2.84485C11.63 2.81523 11.6888 2.79658 11.7496 2.78998ZM6.54904 4.93263L7.46329 1.58414L9.65703 3.33303L7.66963 5.82532L6.54904 4.93263ZM2.73015 18.7662C2.7351 17.0343 3.17595 15.3316 4.01205 13.8149C4.84815 12.2983 6.05261 11.0165 7.51438 10.0877L10.7096 12.6391C9.68551 13.0874 8.79014 13.7852 8.1054 14.6689C7.42066 15.5526 6.96839 16.5938 6.78997 17.6974C6.61154 18.801 6.71265 19.9317 7.08405 20.9861C7.45545 22.0405 8.08528 22.985 8.91594 23.7332C8.43133 24.5042 8.17305 25.3958 8.17054 26.3064V27.8324C6.5264 26.9571 5.15144 25.6509 4.19304 24.0537C3.23465 22.4566 2.72895 20.6288 2.73015 18.7662ZM24.8523 35.439H1.16106V34.0789H24.8523V35.439ZM21.0646 32.9178H4.94877V31.5577H8.74145H8.75107C8.75107 31.5577 8.75737 31.5577 8.76069 31.5577H17.253H17.2626C17.2626 31.5577 17.2689 31.5577 17.2723 31.5577H21.0639L21.0646 32.9178ZM9.3316 30.3967V26.3064C9.33244 25.4678 9.61859 24.6543 10.143 23.9999C10.2279 23.8977 10.3155 23.8008 10.4084 23.7083C10.7497 23.3665 11.1551 23.0953 11.6013 22.9104C12.0476 22.7256 12.5259 22.6305 13.009 22.6308C13.492 22.6311 13.9702 22.7267 14.4163 22.9121C14.8623 23.0975 15.2674 23.3691 15.6083 23.7113C15.7881 23.8891 15.9482 24.0859 16.0856 24.2981C16.4758 24.8952 16.6833 25.5932 16.6828 26.3064V30.3967H9.3316ZM17.8438 27.8334V26.3074C17.8437 25.5636 17.6715 24.83 17.3409 24.1638C17.6162 23.9619 17.8753 23.7389 18.1158 23.4966H22.1298C21.166 25.3376 19.6733 26.848 17.8438 27.8334ZM28.9071 22.3356H18.2187V21.0418H28.9071V22.3356Z" fill="#416387"/>
<path d="M13.0068 24.2629C12.5617 24.2627 12.1265 24.3946 11.7563 24.6417C11.3861 24.8889 11.0974 25.2403 10.927 25.6515C10.7565 26.0627 10.7118 26.5152 10.7985 26.9518C10.8852 27.3885 11.0995 27.7895 11.4142 28.1044C11.7289 28.4192 12.1299 28.6336 12.5664 28.7206C13.003 28.8075 13.4555 28.763 13.8668 28.5927C14.2781 28.4224 14.6296 28.1339 14.877 27.7638C15.1243 27.3937 15.2563 26.9585 15.2563 26.5134C15.2557 25.9169 15.0185 25.345 14.5968 24.9231C14.1751 24.5012 13.6033 24.2638 13.0068 24.2629ZM13.0068 27.6025C12.7913 27.6027 12.5806 27.5389 12.4013 27.4193C12.222 27.2997 12.0822 27.1296 11.9996 26.9306C11.917 26.7315 11.8953 26.5124 11.9373 26.301C11.9792 26.0896 12.0829 25.8954 12.2353 25.743C12.3876 25.5905 12.5818 25.4867 12.7931 25.4446C13.0045 25.4026 13.2236 25.4241 13.4227 25.5066C13.6218 25.5891 13.792 25.7288 13.9117 25.908C14.0314 26.0872 14.0953 26.2979 14.0952 26.5134C14.095 26.8021 13.9802 27.0788 13.7762 27.283C13.5722 27.4871 13.2955 27.602 13.0068 27.6025Z" fill="#416387"/>
</svg>
