<svg width="37" height="38" viewBox="0 0 37 38" fill="none" xmlns="http://www.w3.org/2000/svg">
<g clip-path="url(#clip0_1218_3593)">
<path d="M36.4215 4.4191H26.1405L18.2439 0.0704043C18.0733 -0.0236309 17.8682 -0.0236309 17.6975 0.0704043L9.80097 4.4191H0.577637C0.258367 4.4191 -0.000488281 4.68496 -0.000488281 5.01285V28.978C-0.000488281 29.3059 0.258367 29.5718 0.577637 29.5718H12.07C11.8339 31.1752 11.167 32.6407 10.0045 34.1214H8.65368C7.61262 34.1214 6.7656 34.9914 6.7656 36.0606V37.4061C6.7656 37.734 7.02445 37.9999 7.34372 37.9999H29.6554C29.9746 37.9999 30.2335 37.734 30.2335 37.4061V36.0607C30.2335 34.9914 29.3865 34.1216 28.3453 34.1216H26.9945C25.8321 32.6409 25.1651 31.1753 24.9291 29.5719H36.4214C36.7407 29.5719 36.9995 29.3061 36.9995 28.9782V5.01285C36.9997 4.68496 36.7408 4.4191 36.4215 4.4191ZM17.9707 1.2674L29.0137 7.34874L24.5846 9.78786C24.5827 9.7889 24.5807 9.78994 24.5789 9.79098L17.9707 13.4301L11.3626 9.79091C11.3608 9.78994 11.3591 9.78898 11.3574 9.78809L6.92791 7.34881L17.9707 1.2674ZM30.7165 14.74V16.5289L30.526 16.416C30.4366 16.363 30.3367 16.3364 30.2369 16.3364C30.1371 16.3364 30.0372 16.3629 29.9478 16.416L29.7573 16.5289V14.74L30.2369 14.4557L30.7165 14.74ZM29.6588 13.4273L28.8902 13.883C28.7112 13.9891 28.6011 14.1851 28.6011 14.3972V17.5573C28.6011 17.7694 28.7112 17.9654 28.8902 18.0715C29.069 18.1776 29.2894 18.1776 29.4683 18.0715L30.2369 17.6157L31.0056 18.0715C31.095 18.1245 31.1948 18.1511 31.2946 18.1511C31.3944 18.1511 31.4943 18.1246 31.5837 18.0715C31.7626 17.9654 31.8728 17.7694 31.8728 17.5573V14.3972C31.8728 14.1851 31.7626 13.9891 31.5837 13.883L30.8151 13.4273V7.94249H33.569V26.0483H3.43032V7.94256H5.55934L10.5066 10.6671V17.7209C10.5066 17.9397 10.6237 18.1407 10.8115 18.2441L16.3316 21.2841C16.8602 21.5751 17.4154 21.7207 17.9709 21.7207C18.5262 21.7207 19.0816 21.5751 19.6101 21.2841L25.1301 18.2441C25.3179 18.1407 25.4351 17.9397 25.4351 17.7209V10.667L29.6589 8.3409L29.6588 13.4273ZM17.6975 14.6271C17.7829 14.6741 17.8767 14.6977 17.9707 14.6977C18.0646 14.6977 18.1586 14.6742 18.2438 14.6271L24.2787 11.3037V15.2324L18.1986 18.5806C18.0304 18.6733 17.9111 18.6733 17.743 18.5806L11.6628 15.2323V11.3037L17.6975 14.6271ZM11.6629 16.5797L17.1968 19.6273C17.45 19.7666 17.7104 19.8363 17.9708 19.8363C18.2313 19.8363 18.4918 19.7666 18.745 19.6272L24.2787 16.5798V17.3654L19.0637 20.2375C18.3589 20.6257 17.5827 20.6256 16.878 20.2375L11.6629 17.3654V16.5797ZM29.0773 36.0606V36.8124H7.92192V36.0607C7.92192 35.6463 8.25022 35.3091 8.65375 35.3091H28.3454C28.749 35.309 29.0773 35.6462 29.0773 36.0606ZM25.5452 34.1215H11.454C12.4538 32.6614 13.032 31.1845 13.2388 29.5718H23.7604C23.9671 31.1845 24.5453 32.6614 25.5452 34.1215ZM35.8434 28.3843H1.15576V5.6066H7.64464L5.55934 6.75506H2.8522C2.53293 6.75506 2.27407 7.02092 2.27407 7.34881V26.6421C2.27407 26.97 2.53293 27.2359 2.8522 27.2359H34.1472C34.4665 27.2359 34.7253 26.97 34.7253 26.6421V7.34881C34.7253 7.02092 34.4665 6.75506 34.1472 6.75506H30.3822L28.2969 5.60668H35.8435V28.3843H35.8434Z" fill="#416387"/>
</g>
<defs>
<clipPath id="clip0_1218_3593">
<rect width="37" height="38" fill="white"/>
</clipPath>
</defs>
</svg>
