<svg width="38" height="38" viewBox="0 0 38 38" fill="none" xmlns="http://www.w3.org/2000/svg">
<path d="M36.3388 30.2823H30.2823V25.0821L34.7725 20.592L28.4654 14.2849V12.7186H30.888C31.5561 12.7186 32.0992 12.1754 32.0992 11.5073V10.296C32.0992 9.62788 31.5561 9.08469 30.888 9.08469H29.6767V5.45081C29.6767 2.44501 27.2316 0 24.2258 0H6.66211C3.6563 0 1.21129 2.44501 1.21129 5.45081V13.3914C0.463406 14.1563 0 15.2005 0 16.3522C0 17.504 0.463427 18.5483 1.21129 19.3131V30.2819C0.543192 30.2819 0 30.8251 0 31.4932V32.7045C0 33.3726 0.543192 33.9158 1.21129 33.9158V36.3383C1.21129 37.0065 1.75448 37.5496 2.42258 37.5496H35.1275C35.7956 37.5496 36.3388 37.0065 36.3388 36.3383V33.9158C37.0069 33.9158 37.5501 33.3726 37.5501 32.7045V31.4932C37.5501 30.8251 37.0069 30.2819 36.3388 30.2819V30.2823ZM20.592 30.2823V21.8033H24.2258V24.2258H25.4371V21.8033H29.071V30.2823H20.592ZM11.6014 20.5241L8.1268 18.0391C8.35284 17.5219 8.47938 16.9522 8.47938 16.3525C8.47938 15.2007 8.01595 14.1565 7.26809 13.3916V7.87347C7.26809 6.87169 8.08325 6.05653 9.08502 6.05653H18.1697C19.1715 6.05653 19.9867 6.87169 19.9867 7.87347V9.08476H18.7754C18.1073 9.08476 17.5641 9.62795 17.5641 10.2961V11.5073C17.5641 12.1754 18.1073 12.7186 18.7754 12.7186H21.1979V14.2849L14.8909 20.592L19.381 25.0822V30.2824H12.1133V21.5133C12.1133 21.1186 11.9207 20.7478 11.6014 20.5243L11.6014 20.5241ZM19.3807 20.592V23.3696L16.6031 20.592L21.1976 15.9975V17.5638H24.2258V20.592H19.3807ZM33.06 20.592L30.2824 23.3696V20.592H25.4372V17.5638H28.4654V15.9975L33.06 20.592ZM27.2541 16.3525H25.4372V15.1412H24.2259V16.3525H22.409V12.7186H27.2541V16.3525ZM30.8891 11.5073H18.7748V10.296H30.8877L30.8891 11.5073ZM6.6619 1.21132H24.2256C26.5628 1.21132 28.4652 3.11368 28.4652 5.45085V9.08472H21.1974V7.87343C21.1974 6.20358 19.839 4.8452 18.1692 4.8452H9.08448C7.41463 4.8452 6.05625 6.20358 6.05625 7.87343V12.5277C5.50441 12.2649 4.88981 12.1129 4.23931 12.1129C3.58882 12.1129 2.97424 12.2649 2.42238 12.5277V5.45099C2.42238 3.11381 4.32473 1.21146 6.6619 1.21146V1.21132ZM4.23931 13.3242C5.90917 13.3242 7.26755 14.6826 7.26755 16.3525C7.26755 18.0223 5.90917 19.3807 4.23931 19.3807C2.56946 19.3807 1.21108 18.0223 1.21108 16.3525C1.21108 14.6826 2.56946 13.3242 4.23931 13.3242ZM2.42238 20.1773C2.97422 20.4401 3.58882 20.592 4.23931 20.592C5.54253 20.592 6.70924 19.9996 7.48738 19.0719L10.9014 21.5132V30.2823H2.42238V20.1773ZM35.1273 36.3387L2.42238 36.3397V33.916H35.1273V36.3387ZM36.3386 32.7048H1.21108V31.4935H36.3386V32.7048Z" fill="#416387"/>
<path d="M4.23979 18.1694C5.24156 18.1694 6.05673 17.3542 6.05673 16.3524C6.05673 15.3506 5.24156 14.5355 4.23979 14.5355C3.23802 14.5355 2.42285 15.3506 2.42285 16.3524C2.42285 17.3542 3.23802 18.1694 4.23979 18.1694ZM4.23979 15.7468C4.57397 15.7468 4.84544 16.0182 4.84544 16.3524C4.84544 16.6866 4.57397 16.9581 4.23979 16.9581C3.9056 16.9581 3.63414 16.6866 3.63414 16.3524C3.63414 16.0182 3.9056 15.7468 4.23979 15.7468Z" fill="#416387"/>
<path d="M3.63428 21.8033V26.6485H9.69074V21.8033H3.63428ZM8.47945 25.4372H4.84557V23.0146H8.47945V25.4372Z" fill="#416387"/>
<path d="M3.63428 27.8597H4.84557V29.071H3.63428V27.8597Z" fill="#416387"/>
<path d="M6.05664 27.8597H7.26793V29.071H6.05664V27.8597Z" fill="#416387"/>
<path d="M8.479 27.8597H9.6903V29.071H8.479V27.8597Z" fill="#416387"/>
</svg>
