<svg width="37" height="38" viewBox="0 0 37 38" fill="none" xmlns="http://www.w3.org/2000/svg">
<path d="M36.656 20.592C36.656 19.663 36.2884 18.7532 35.6467 18.0962L33.7714 16.1751C33.13 15.5178 32.2419 15.1412 31.335 15.1412C30.428 15.1412 29.5399 15.5178 28.8985 16.1751L28.3788 16.7075V8.47903C28.3788 5.57083 26.38 3.1099 23.649 2.54482V1.21129C23.649 0.543191 23.1187 0 22.4665 0H5.91225C5.26006 0 4.7298 0.543191 4.7298 1.21129V2.42258H1.77367C0.795755 2.42258 0 3.23774 0 4.23952V31.4935C0 34.833 2.65234 37.55 5.91225 37.55H27.1964C28.1743 37.55 28.97 36.7348 28.97 35.7331V29.9272L35.6466 23.0878C36.2882 22.4308 36.6559 21.521 36.6559 20.5919L36.656 20.592ZM17.6287 32.7049H7.09479C5.79065 32.7049 4.72989 31.6183 4.72989 30.2824V7.26785H21.2842C22.5883 7.26785 23.6491 8.35448 23.6491 9.69043V21.5528L19.5749 25.7263L17.6287 32.7049ZM27.4924 19.3288L29.6126 21.5008L23.9878 27.2628C23.5602 26.26 22.6227 25.5451 21.5094 25.458L27.4924 19.3288ZM19.3436 30.9676L21.207 32.8765L18.598 33.6403L19.3436 30.9676ZM22.508 32.4963L19.7155 29.6357L20.548 26.6489H21.2846C22.2625 26.6489 23.0583 27.4641 23.0583 28.4658V29.0715H23.6495C24.6274 29.0715 25.4232 29.8867 25.4232 30.8884V31.643L22.508 32.4963ZM26.5856 30.6583C26.5004 29.5178 25.8028 28.5572 24.8238 28.1194L30.4487 22.3574L32.5689 24.5294L26.5856 30.6583ZM28.3284 18.4727L28.9706 17.8149L34.0469 23.015L33.4048 23.6729L28.3284 18.4727ZM10.6423 3.63405V1.21147H17.737V3.63405H10.6423ZM18.9195 1.21147H22.4668V3.63405H18.9195V1.21147ZM5.91255 1.21147H9.4599V3.63405H5.91255V1.21147ZM27.7879 35.7332C27.7879 36.0674 27.5229 36.3389 27.1966 36.3389H5.91255C3.30454 36.3389 1.18275 34.1653 1.18275 31.4937V4.2397C1.18275 3.90605 1.44774 3.63405 1.77397 3.63405H4.7301C4.7301 4.30215 5.26036 4.84534 5.91255 4.84534H22.4668C23.0676 4.84534 23.5596 4.38272 23.634 3.78737C25.7032 4.32271 27.1966 6.23154 27.1966 8.47921V17.919L24.8317 20.3416V9.6905C24.8317 7.68647 23.2407 6.05663 21.2844 6.05663H4.7301C4.07791 6.05663 3.54765 6.59982 3.54765 7.26792V30.2824C3.54765 32.2865 5.13869 33.9163 7.095 33.9163H17.2911L16.8762 35.4036L26.3236 32.6388L27.788 31.1387L27.7879 35.7332ZM34.8751 22.1509L29.813 16.9653C30.2274 16.5789 30.7733 16.3524 31.3349 16.3524C31.9309 16.3524 32.5139 16.6 32.9354 17.0313L34.8107 18.9523C35.2323 19.3841 35.4735 19.9814 35.4735 20.5919C35.4735 21.1673 35.2528 21.7264 34.8751 22.1509L34.8751 22.1509Z" fill="#416387"/>
<path d="M21.2841 9.69041H7.09473V15.7469H21.2841V9.69041ZM20.1017 14.5356H8.27718V10.9017H20.1017V14.5356Z" fill="#416387"/>
<path d="M7.09473 21.8033H11.8245V16.9581H7.09473V21.8033ZM8.27718 18.1694H10.6421V20.592H8.27718V18.1694Z" fill="#416387"/>
<path d="M7.09473 29.0711H11.8245V24.226H7.09473V29.0711ZM8.27718 25.4372H10.6421V27.8598H8.27718V25.4372Z" fill="#416387"/>
<path d="M13.0068 16.9581H21.284V18.1694H13.0068V16.9581Z" fill="#416387"/>
<path d="M20.1021 19.3808H21.2845V20.5921H20.1021V19.3808Z" fill="#416387"/>
<path d="M13.0068 19.3808H18.9191V20.5921H13.0068V19.3808Z" fill="#416387"/>
<path d="M13.0068 26.6485H17.7366V27.8598H13.0068V26.6485Z" fill="#416387"/>
<path d="M13.0068 24.226H17.7366V25.4372H13.0068V24.226Z" fill="#416387"/>
</svg>
