<svg width="38" height="38" viewBox="0 0 38 38" fill="none" xmlns="http://www.w3.org/2000/svg">
<path d="M35.7331 1.21129H25.4371C25.4371 0.543191 24.8939 0 24.2258 0H13.3242C12.6561 0 12.1129 0.543191 12.1129 1.21129H1.81694C0.815164 1.21129 0 2.02645 0 3.02823V35.7331C0 36.7348 0.815164 37.55 1.81694 37.55H35.7331C36.7348 37.55 37.55 36.7348 37.55 35.7331V3.02823C37.55 2.02645 36.7348 1.21129 35.7331 1.21129ZM13.3242 1.21129H24.2258V6.05645L23.0145 5.14798V3.63387H21.8032V5.20017L20.6573 6.34605L19.3806 4.64298V2.42265H18.1694V4.64298L16.8927 6.34557L15.7468 5.20024V3.63394H14.5355V5.14805L13.3242 6.05652V1.21129ZM36.3387 35.7331C36.3387 36.0673 36.0667 36.3387 35.7331 36.3387H1.81694C1.48329 36.3387 1.21129 36.0673 1.21129 35.7331V3.02823C1.21129 2.69404 1.48329 2.42258 1.81694 2.42258H12.1129V8.47903L15.0841 6.25033L17.0233 8.1895L18.7751 5.85482L20.5266 8.1895L22.4658 6.25033L25.4372 8.47903V2.42258H35.7332C36.0669 2.42258 36.3389 2.69404 36.3389 3.02823L36.3387 35.7331Z" fill="#416387"/>
<path d="M30.888 9.69035H6.66215C5.66038 9.69035 4.84521 10.5055 4.84521 11.5073V26.0428C4.84521 27.0445 5.66038 27.8597 6.66215 27.8597H13.1542L12.2457 31.4936H10.296C8.62617 31.4936 7.2678 32.852 7.2678 34.5218V35.1274H30.2823V34.5218C30.2823 32.852 28.9239 31.4936 27.2541 31.4936H25.3044L24.3959 27.8597H30.888C31.8897 27.8597 32.7049 27.0445 32.7049 26.0428V11.5073C32.7049 10.5055 31.8897 9.69035 30.888 9.69035ZM28.9675 33.9162H8.5825C8.8326 33.2113 9.50612 32.7049 10.2959 32.7049H27.2539C28.0437 32.7049 28.7173 33.2113 28.9673 33.9162H28.9675ZM24.0558 31.4936H13.494L14.4025 27.8597H23.1466L24.0558 31.4936ZM31.4938 26.0428C31.4938 26.377 31.2218 26.6484 30.8882 26.6484H6.66236C6.32871 26.6484 6.05671 26.377 6.05671 26.0428V11.5073C6.05671 11.1731 6.32871 10.9016 6.66236 10.9016H30.8882C31.2218 10.9016 31.4938 11.1731 31.4938 11.5073V26.0428Z" fill="#416387"/>
<path d="M7.26807 23.0145H30.2826V12.1129H7.26807V23.0145ZM8.47936 13.3242H29.0713V21.8032H8.47936V13.3242Z" fill="#416387"/>
<path d="M29.0713 24.2258H30.2826V25.4371H29.0713V24.2258Z" fill="#416387"/>
<path d="M26.6484 24.2258H27.8597V25.4371H26.6484V24.2258Z" fill="#416387"/>
<path d="M24.2256 24.2258H25.4369V25.4371H24.2256V24.2258Z" fill="#416387"/>
</svg>
