<svg width="39" height="38" viewBox="0 0 39 38" fill="none" xmlns="http://www.w3.org/2000/svg">
<g clip-path="url(#clip0_1289_624)">
<path fill-rule="evenodd" clip-rule="evenodd" d="M4.50792 34.9182H4.3501C3.55859 34.9182 2.81394 34.5346 2.21778 33.852C1.42984 32.9498 0.898438 31.5014 0.898438 29.8701V11.2237C0.898438 9.6086 2.2078 8.29924 3.82302 8.29924H4.05035V6.86172C4.05035 6.05597 4.70447 5.40185 5.51022 5.40185H7.23766C8.04333 5.40185 8.69753 6.05597 8.69753 6.86172V8.29924H9.95093V4.61935C9.95093 2.36803 11.7973 0.521606 14.0487 0.521606H24.5009C26.7557 0.521606 28.5986 2.36803 28.5986 4.61935V8.29924H29.8951V6.86172C29.8951 6.05597 30.5493 5.40185 31.355 5.40185H33.0824C33.8882 5.40185 34.5423 6.05597 34.5423 6.86172V8.29924H34.7266C36.3418 8.29924 37.6511 9.6086 37.6511 11.2237V29.8701C37.6511 31.5014 37.1197 32.9499 36.3311 33.8522C35.7347 34.5346 34.9895 34.9182 34.1969 34.9182H34.0417V35.8951C34.0417 36.769 33.3322 37.4785 32.4583 37.4785H28.7104C27.8366 37.4785 27.1271 36.769 27.1271 35.8951V34.9182H11.4225V35.8951C11.4225 36.769 10.713 37.4785 9.83917 37.4785H6.09125C5.2174 37.4785 4.50792 36.769 4.50792 35.8951V34.9182ZM5.24251 8.29924H7.50537V6.86172C7.50537 6.71397 7.38541 6.59401 7.23766 6.59401H5.51022C5.36247 6.59401 5.24251 6.71397 5.24251 6.86172V8.29924ZM11.1431 8.29924H13.0508V4.61935C13.0508 4.08765 13.517 3.62151 14.0487 3.62151H24.5009C25.0399 3.62151 25.4987 4.08765 25.4987 4.61935V8.29924H27.4065V4.61935C27.4065 3.02298 26.0997 1.71376 24.5009 1.71376H14.0487C12.4523 1.71376 11.1431 3.02298 11.1431 4.61935V8.29924ZM14.243 8.29924H24.3066V4.81367H14.243V8.29924ZM31.0873 8.29924H33.3501V6.86172C33.3501 6.71397 33.2302 6.59401 33.0824 6.59401H31.355C31.2072 6.59401 31.0873 6.71397 31.0873 6.86172V8.29924ZM32.8495 34.9182H28.3192V35.8951C28.3192 36.1111 28.4946 36.2863 28.7104 36.2863H32.4583C32.6742 36.2863 32.8495 36.1111 32.8495 35.8951V34.9182ZM10.2303 34.9182H5.70007V35.8951C5.70007 36.1111 5.87539 36.2863 6.09125 36.2863H9.83917C10.055 36.2863 10.2303 36.1111 10.2303 35.8951V34.9182ZM3.82302 9.49139C2.86624 9.49139 2.09059 10.267 2.09059 11.2237V29.8701C2.09059 31.176 2.4849 32.3456 3.1157 33.0679C3.46552 33.4684 3.88568 33.7261 4.3501 33.7261H34.1969C34.6623 33.7261 35.0832 33.4684 35.4334 33.0676C36.0647 32.3454 36.459 31.1759 36.459 29.8701V11.2237C36.459 10.267 35.6833 9.49139 34.7266 9.49139H3.82302ZM19.2764 32.0775C13.5088 32.0775 8.80601 27.3746 8.80601 21.6103C8.80601 15.8428 13.5089 11.1399 19.2764 11.1399C25.0406 11.1399 29.7436 15.8427 29.7436 21.6103C29.7436 27.3746 25.0407 32.0775 19.2764 32.0775ZM19.2764 30.8853C24.3842 30.8853 28.5514 26.7181 28.5514 21.6103C28.5514 16.4995 24.3842 12.3321 19.2764 12.3321C14.1655 12.3321 9.99817 16.4994 9.99817 21.6103C9.99817 26.7181 14.1656 30.8853 19.2764 30.8853ZM17.6112 15.8741H20.9384C21.2676 15.8741 21.5345 16.1409 21.5345 16.4701V19.3491H24.4134C24.7426 19.3491 25.0094 19.6159 25.0094 19.9452V23.2723C25.0094 23.6015 24.7426 23.8684 24.4134 23.8684H21.5345V26.7473C21.5345 27.0765 21.2676 27.3433 20.9384 27.3433H17.6112C17.282 27.3433 17.0151 27.0765 17.0151 26.7473V23.8684H14.1362C13.807 23.8684 13.5401 23.6015 13.5401 23.2723V19.9452C13.5401 19.6159 13.807 19.3491 14.1362 19.3491H17.0151V16.4701C17.0151 16.1409 17.282 15.8741 17.6112 15.8741ZM18.2073 17.0662V19.9452C18.2073 20.2744 17.9405 20.5413 17.6112 20.5413H14.7323V22.6762H17.6112C17.9405 22.6762 18.2073 22.943 18.2073 23.2723V26.1512H20.3423V23.2723C20.3423 22.943 20.6091 22.6762 20.9384 22.6762H23.8173V20.5413H20.9384C20.6091 20.5413 20.3423 20.2744 20.3423 19.9452V17.0662H18.2073Z" fill="#416387"/>
</g>
<defs>
<clipPath id="clip0_1289_624">
<rect width="38" height="38" fill="white" transform="translate(0.274414)"/>
</clipPath>
</defs>
</svg>
