<svg width="39" height="38" viewBox="0 0 39 38" fill="none" xmlns="http://www.w3.org/2000/svg">
<g clip-path="url(#clip0_1289_612)">
<path fill-rule="evenodd" clip-rule="evenodd" d="M19.2746 38C19.2004 38 19.1262 38 19.052 38L18.5324 37.7773C14.4504 36.5156 11.259 34.1406 8.80979 30.7266C6.73167 27.7578 5.24729 23.9727 4.5051 19.5195C3.98557 16.4766 3.76292 13.1367 3.91135 9.57422C3.91135 9.20312 3.91135 8.90625 3.91135 8.53516C3.98557 8.23828 3.98557 7.86719 3.98557 7.49609V7.42188L4.20823 5.34375C4.20823 5.19531 4.28245 5.12109 4.43089 4.97266C4.5051 4.89844 4.65354 4.89844 4.80198 4.89844L6.80589 5.26953C9.70042 5.71484 12.4465 5.04688 15.0442 3.41406C15.7864 2.89453 16.677 2.22656 17.5676 1.41016L18.9035 0.148438C19.1262 -0.0742188 19.4231 -0.0742188 19.6457 0.148438L20.9817 1.41016C21.8723 2.22656 22.7629 2.89453 23.5051 3.41406C26.1028 5.04688 28.8489 5.64062 31.7434 5.26953L33.7473 4.89844C33.8957 4.89844 34.0442 4.89844 34.1184 4.97266C34.2668 5.12109 34.341 5.19531 34.341 5.34375L34.5637 7.42188V7.49609C34.5637 7.79297 34.5637 8.16406 34.6379 8.46094V9.5C34.7864 13.0625 34.5637 16.4023 34.0442 19.3711C33.302 23.8984 31.8176 27.6836 29.7395 30.6523C27.2903 34.0664 24.0989 36.4414 20.0168 37.7773L19.4973 37.9258C19.4231 38 19.3489 38 19.2746 38ZM5.02464 7.49609C5.02464 7.94141 5.02464 8.23828 4.95042 8.60938V9.57422C4.80198 13.0625 4.95042 16.3281 5.54417 19.3711C7.10276 28.6484 11.6301 34.5117 18.8293 36.7383L19.2746 36.9609L19.6457 36.7383H19.7199C26.9192 34.4375 31.3723 28.5 33.0051 19.2227C33.5246 16.2539 33.7473 12.9883 33.5989 9.5C33.5989 9.20312 33.5989 8.83203 33.5246 8.53516C33.5246 8.23828 33.5246 7.86719 33.5246 7.49609L33.3762 6.01172L31.8918 6.30859C28.7746 6.75391 25.7317 6.08594 22.9114 4.30469C22.0949 3.78516 21.2043 3.04297 20.2395 2.15234L19.2746 1.26172L18.3098 2.15234C17.2707 3.04297 16.4543 3.78516 15.6379 4.30469C12.8176 6.08594 9.77464 6.75391 6.65745 6.30859L5.17307 6.01172L5.02464 7.49609Z" fill="#416387"/>
<path fill-rule="evenodd" clip-rule="evenodd" d="M19.2742 35.9961C19.2 35.9961 19.1258 35.9961 19.1258 35.9961C15.4891 34.8086 12.5203 32.582 10.368 29.4648C8.4383 26.7188 7.10237 23.2305 6.4344 19.1484C5.84065 16.3281 5.69221 13.0625 5.84065 9.64844C5.84065 9.35156 5.84065 9.05469 5.84065 8.75781C5.91487 8.38672 5.91487 8.01562 5.91487 7.64453C5.91487 7.49609 5.98909 7.34766 6.0633 7.27344C6.21174 7.19922 6.36018 7.125 6.50862 7.125C9.77424 7.71875 12.9656 6.97656 16.0828 5.04688C17.0477 4.45312 18.0867 3.71094 18.9031 2.82031C19.1258 2.59766 19.4227 2.59766 19.6453 2.82031C20.4617 3.71094 21.5008 4.45312 22.3914 5.04688C25.5828 6.97656 28.7742 7.71875 32.0399 7.125C32.1883 7.125 32.3367 7.125 32.411 7.27344C32.5594 7.34766 32.6336 7.49609 32.6336 7.64453V8.68359C32.7078 8.98047 32.7078 9.27734 32.7078 9.57422C32.8563 12.8398 32.7078 16.1055 32.1883 19.0742C30.5555 28.0547 26.2508 33.7695 19.4227 35.9961C19.3485 35.9961 19.3485 35.9961 19.2742 35.9961ZM6.95393 8.23828C6.95393 8.46094 6.95393 8.60938 6.87971 8.75781V9.64844C6.73127 13.0625 6.87971 16.1797 7.47346 19C8.88362 27.3867 12.8172 32.8047 19.2742 34.957C25.6571 32.8047 29.6649 27.3867 31.1492 18.9258C31.6688 15.957 31.8172 12.8398 31.6688 9.57422C31.6688 9.27734 31.6688 8.98047 31.5946 8.68359C31.5946 8.53516 31.5946 8.38672 31.5946 8.23828C28.3289 8.68359 25.0633 7.86719 21.8719 5.9375C20.9813 5.41797 20.0906 4.67578 19.2742 3.93359C18.4578 4.67578 17.5672 5.41797 16.6766 5.9375C13.4852 7.86719 10.2196 8.68359 6.95393 8.23828Z" fill="#416387"/>
<path fill-rule="evenodd" clip-rule="evenodd" d="M19.3486 26.9414C18.8291 26.9414 18.0869 26.8672 17.2705 26.6445C15.7861 26.2734 13.7822 25.3086 12.669 22.7109C12.001 21.375 11.7783 19.7422 11.9268 18.1836C12.1494 16.4023 12.8174 14.9922 14.0049 14.1016C14.1533 13.9531 14.376 13.9531 14.5986 14.0273C14.7471 14.1758 14.8213 14.3984 14.8213 14.5469V14.6211C14.6729 15.2891 14.376 16.9219 14.9697 17.3672C15.1182 17.4414 15.1924 17.5156 15.2666 17.5156C15.415 17.293 15.6377 16.8477 15.4893 16.5508C14.8213 13.582 16.4541 12.1719 17.5674 11.1328C18.6065 10.168 18.9033 9.87109 18.3096 8.98047C18.1611 8.83203 18.1611 8.60938 18.2354 8.38672C18.3838 8.23828 18.6065 8.16406 18.8291 8.16406C18.9033 8.23828 20.2393 8.60938 20.9815 9.94531C21.4268 10.9102 21.501 12.0234 21.0557 13.3594C20.9815 13.582 20.7588 14.9922 21.9463 15.3633H22.0205C22.0947 15.3633 22.0947 15.3633 22.0947 15.4375C22.169 15.3633 22.169 15.3633 22.2432 15.3633C22.7627 14.8438 22.9111 13.8789 22.54 12.4688C22.4658 12.2461 22.6143 12.0234 22.7627 11.875C22.9111 11.8008 23.208 11.8008 23.3565 11.875C24.544 12.6914 25.5088 14.3242 26.1025 16.3281C26.6221 18.2578 26.6221 20.1875 26.1768 21.5234C25.8799 22.7109 24.544 26.3477 20.3135 26.8672C20.2393 26.8672 19.8682 26.9414 19.3486 26.9414ZM13.5596 16.1797C12.669 17.9609 12.7432 20.4844 13.5596 22.2656C14.376 24.0469 15.6377 25.1602 17.4932 25.6797C18.9033 26.0508 20.165 25.8281 20.165 25.8281C23.6533 25.3828 24.8408 22.4883 25.1377 21.2266C25.583 20.0391 25.5088 18.2578 25.0635 16.625C24.7666 15.4375 24.3213 14.4727 23.8018 13.7305C23.8018 15.0664 23.3565 15.7344 22.9111 16.1055C22.8369 16.1797 22.8369 16.1797 22.8369 16.1797C22.3916 16.4766 22.0947 16.5508 21.5752 16.3281C19.9424 15.7344 19.8682 13.9531 20.0166 13.1367C20.0166 13.0625 20.0166 13.0625 20.0166 13.0625C20.3877 12.0234 20.3877 11.1328 20.0166 10.4648C19.9424 10.2422 19.794 10.0195 19.6455 9.87109C19.6455 10.0938 19.5713 10.2422 19.4971 10.4648C19.2744 10.9844 18.7549 11.4297 18.2354 11.875C17.1963 12.8398 16.0088 13.9531 16.5283 16.2539C16.6768 16.9219 16.4541 17.8125 15.9346 18.2578C15.415 18.7773 14.6729 18.4062 14.4502 18.2578C14.376 18.2578 14.376 18.2578 14.376 18.2578C13.708 17.7383 13.5596 16.9961 13.5596 16.1797Z" fill="#416387"/>
<path fill-rule="evenodd" clip-rule="evenodd" d="M19.2748 26.9414H19.2005C18.0873 26.8672 17.1966 26.2734 16.8255 25.3828C16.3802 24.3438 16.306 22.4883 18.9037 19.5195C18.9779 19.4453 19.1263 19.3711 19.2748 19.3711C19.4232 19.3711 19.5716 19.4453 19.6459 19.5195C20.1654 20.1133 20.3138 20.707 20.4623 21.2266C20.6107 21.6719 20.7591 22.043 20.9818 22.3398C21.056 22.4883 21.2045 22.6367 21.2787 22.7852C21.8724 23.3789 22.4662 24.1211 21.724 25.5312C21.2787 26.4219 20.3138 26.9414 19.2748 26.9414ZM19.2005 20.7812C17.8646 22.4883 17.3451 23.9727 17.7904 24.9375C18.013 25.5312 18.5326 25.9023 19.2005 25.9023C19.7943 25.9023 20.4623 25.6797 20.8334 25.0859C21.2045 24.2695 20.9818 23.9727 20.5365 23.4531C20.388 23.3047 20.2396 23.1562 20.0912 22.9336C19.7943 22.4883 19.6459 22.043 19.4974 21.5234C19.4232 21.3008 19.349 21.0039 19.2005 20.7812Z" fill="#416387"/>
</g>
<defs>
<clipPath id="clip0_1289_612">
<rect width="38" height="38" fill="white" transform="translate(0.274414)"/>
</clipPath>
</defs>
</svg>
