<svg width="39" height="38" viewBox="0 0 39 38" fill="none" xmlns="http://www.w3.org/2000/svg">
<path d="M37.0634 30.2823H31.0069V25.0821L35.4971 20.592L29.19 14.2849V12.7186H31.6126C32.2807 12.7186 32.8239 12.1754 32.8239 11.5073V10.296C32.8239 9.62788 32.2807 9.08469 31.6126 9.08469H30.4013V5.45081C30.4013 2.44501 27.9563 0 24.9505 0H7.38672C4.38091 0 1.9359 2.44501 1.9359 5.45081V13.3914C1.18802 14.1563 0.724609 15.2005 0.724609 16.3522C0.724609 17.504 1.18804 18.5483 1.9359 19.3131V30.2819C1.2678 30.2819 0.724609 30.8251 0.724609 31.4932V32.7045C0.724609 33.3726 1.2678 33.9158 1.9359 33.9158V36.3383C1.9359 37.0065 2.47909 37.5496 3.14719 37.5496H35.8521C36.5202 37.5496 37.0634 37.0065 37.0634 36.3383V33.9158C37.7315 33.9158 38.2747 33.3726 38.2747 32.7045V31.4932C38.2747 30.8251 37.7315 30.2819 37.0634 30.2819V30.2823ZM21.3166 30.2823V21.8033H24.9505V24.2258H26.1617V21.8033H29.7956V30.2823H21.3166ZM12.326 20.5241L8.85141 18.0391C9.07745 17.5219 9.20399 16.9522 9.20399 16.3525C9.20399 15.2007 8.74056 14.1565 7.9927 13.3916V7.87347C7.9927 6.87169 8.80786 6.05653 9.80963 6.05653H18.8943C19.8961 6.05653 20.7113 6.87169 20.7113 7.87347V9.08476H19.5C18.8319 9.08476 18.2887 9.62795 18.2887 10.2961V11.5073C18.2887 12.1754 18.8319 12.7186 19.5 12.7186H21.9226V14.2849L15.6155 20.592L20.1056 25.0822V30.2824H12.8379V21.5133C12.8379 21.1186 12.6454 20.7478 12.326 20.5243L12.326 20.5241ZM20.1053 20.592V23.3696L17.3277 20.592L21.9222 15.9975V17.5638H24.9505V20.592H20.1053ZM33.7846 20.592L31.007 23.3696V20.592H26.1618V17.5638H29.19V15.9975L33.7846 20.592ZM27.9788 16.3525H26.1618V15.1412H24.9505V16.3525H23.1336V12.7186H27.9788V16.3525ZM31.6137 11.5073H19.4994V10.296H31.6124L31.6137 11.5073ZM7.38651 1.21132H24.9502C27.2874 1.21132 29.1898 3.11368 29.1898 5.45085V9.08472H21.922V7.87343C21.922 6.20358 20.5636 4.8452 18.8938 4.8452H9.80909C8.13924 4.8452 6.78086 6.20358 6.78086 7.87343V12.5277C6.22902 12.2649 5.61442 12.1129 4.96392 12.1129C4.31343 12.1129 3.69885 12.2649 3.14699 12.5277V5.45099C3.14699 3.11381 5.04934 1.21146 7.38651 1.21146V1.21132ZM4.96392 13.3242C6.63378 13.3242 7.99215 14.6826 7.99215 16.3525C7.99215 18.0223 6.63378 19.3807 4.96392 19.3807C3.29407 19.3807 1.93569 18.0223 1.93569 16.3525C1.93569 14.6826 3.29407 13.3242 4.96392 13.3242ZM3.14699 20.1773C3.69883 20.4401 4.31343 20.592 4.96392 20.592C6.26714 20.592 7.43385 19.9996 8.21199 19.0719L11.626 21.5132V30.2823H3.14699V20.1773ZM35.8519 36.3387L3.14699 36.3397V33.916H35.8519V36.3387ZM37.0632 32.7048H1.93569V31.4935H37.0632V32.7048Z" fill="#416387"/>
<path d="M4.9644 18.1694C5.96617 18.1694 6.78134 17.3542 6.78134 16.3525C6.78134 15.3507 5.96617 14.5355 4.9644 14.5355C3.96263 14.5355 3.14746 15.3507 3.14746 16.3525C3.14746 17.3542 3.96263 18.1694 4.9644 18.1694ZM4.9644 15.7468C5.29858 15.7468 5.57005 16.0183 5.57005 16.3525C5.57005 16.6866 5.29858 16.9581 4.9644 16.9581C4.63021 16.9581 4.35875 16.6866 4.35875 16.3525C4.35875 16.0183 4.63021 15.7468 4.9644 15.7468Z" fill="#416387"/>
<path d="M4.35938 21.8033V26.6485H10.4158V21.8033H4.35938ZM9.20454 25.4372H5.57067V23.0146H9.20454V25.4372Z" fill="#416387"/>
<path d="M4.35938 27.8597H5.57067V29.071H4.35938V27.8597Z" fill="#416387"/>
<path d="M6.78125 27.8597H7.99254V29.071H6.78125V27.8597Z" fill="#416387"/>
<path d="M9.2041 27.8597H10.4154V29.071H9.2041V27.8597Z" fill="#416387"/>
</svg>
