<svg width="38" height="38" viewBox="0 0 38 38" fill="none" xmlns="http://www.w3.org/2000/svg">
<g clip-path="url(#clip0_1289_582)">
<path d="M5.82207 16.4173C7.58061 16.4173 9.01132 14.9867 9.01132 13.2281C9.01132 11.4695 7.58068 10.0388 5.82207 10.0388C4.06353 10.0388 2.63281 11.4695 2.63281 13.2281C2.63281 14.9867 4.06345 16.4173 5.82207 16.4173ZM5.82207 11.1521C6.96674 11.1521 7.89804 12.0834 7.89804 13.2281C7.89804 14.3727 6.96674 15.304 5.82207 15.304C4.67739 15.304 3.74609 14.3728 3.74609 13.2281C3.74609 12.0834 4.67732 11.1521 5.82207 11.1521Z" fill="#416387"/>
<path d="M3.18945 21.6825H8.45468C8.76209 21.6825 9.01132 21.4333 9.01132 21.1259C9.01132 20.8184 8.76209 20.5692 8.45468 20.5692H3.18945C2.88204 20.5692 2.63281 20.8184 2.63281 21.1259C2.63281 21.4333 2.88196 21.6825 3.18945 21.6825Z" fill="#416387"/>
<path d="M8.45461 23.2018H3.18945C2.88204 23.2018 2.63281 23.451 2.63281 23.7584C2.63281 24.0658 2.88204 24.3151 3.18945 24.3151H8.45468C8.76209 24.3151 9.01132 24.0658 9.01132 23.7584C9.01125 23.451 8.76202 23.2018 8.45461 23.2018Z" fill="#416387"/>
<path d="M7.13847 28.1309H4.50586C4.19845 28.1309 3.94922 28.3801 3.94922 28.6875C3.94922 28.9949 4.19845 29.2441 4.50586 29.2441H7.13847C7.44589 29.2441 7.69511 28.9949 7.69511 28.6875C7.69511 28.3801 7.44589 28.1309 7.13847 28.1309Z" fill="#416387"/>
<path d="M16.3523 10.0388C14.5938 10.0388 13.1631 11.4695 13.1631 13.2281C13.1631 14.9866 14.5937 16.4173 16.3523 16.4173C18.1109 16.4173 19.5416 14.9867 19.5416 13.2281C19.5415 11.4695 18.1109 10.0388 16.3523 10.0388ZM16.3523 15.304C15.2077 15.304 14.2764 14.3728 14.2764 13.2281C14.2764 12.0834 15.2076 11.1521 16.3523 11.1521C17.497 11.1521 18.4283 12.0834 18.4283 13.2281C18.4282 14.3728 17.497 15.304 16.3523 15.304Z" fill="#416387"/>
<path d="M18.9849 20.5692H13.7197C13.4123 20.5692 13.1631 20.8184 13.1631 21.1259C13.1631 21.4333 13.4123 21.6825 13.7197 21.6825H18.9849C19.2923 21.6825 19.5415 21.4333 19.5415 21.1259C19.5415 20.8184 19.2924 20.5692 18.9849 20.5692Z" fill="#416387"/>
<path d="M19.5415 23.7584C19.5415 23.451 19.2924 23.2018 18.9849 23.2018H13.7197C13.4123 23.2018 13.1631 23.451 13.1631 23.7584C13.1631 24.0658 13.4123 24.3151 13.7197 24.3151H18.9849C19.2924 24.3151 19.5415 24.0658 19.5415 23.7584Z" fill="#416387"/>
<path d="M15.0361 28.1309C14.7287 28.1309 14.4795 28.3801 14.4795 28.6875C14.4795 28.9949 14.7287 29.2441 15.0361 29.2441H17.6687C17.9762 29.2441 18.2254 28.9949 18.2254 28.6875C18.2254 28.3801 17.9762 28.1309 17.6687 28.1309H15.0361Z" fill="#416387"/>
<path d="M37.9915 33.5439L34.3259 12.7531C34.2724 12.4504 33.9839 12.2485 33.6811 12.3016C33.3783 12.3549 33.1761 12.6436 33.2295 12.9464L36.3461 30.6234L27.0719 32.2587L22.6617 7.24577L31.9357 5.61051L32.8079 10.5573C32.8613 10.86 33.1503 11.0621 33.4527 11.0088C33.7555 10.9554 33.9577 10.6667 33.9042 10.3639L32.506 2.43291C32.4526 2.13017 32.1643 1.92785 31.8611 1.98136L22.153 3.6927C22.0866 3.45957 21.8721 3.28887 21.6176 3.28887H6.71902C6.41161 3.28887 6.16238 3.5381 6.16238 3.84551C6.16238 4.15293 6.41161 4.40215 6.71902 4.40215H10.5302V5.76318H1.11328V4.40215H4.29281C4.60023 4.40215 4.84945 4.15293 4.84945 3.84551C4.84945 3.5381 4.60023 3.28887 4.29281 3.28887H0.556641C0.249227 3.28887 0 3.5381 0 3.84551V35.4366C0 35.7441 0.249227 35.9933 0.556641 35.9933H21.6176C21.9251 35.9933 22.1743 35.7441 22.1743 35.4366V28.0882C22.1743 27.7808 21.9251 27.5316 21.6176 27.5316C21.3102 27.5316 21.061 27.7808 21.061 28.0882V32.2752H11.6434V6.87646H21.061V25.6621C21.061 25.9695 21.3102 26.2188 21.6176 26.2188C21.9251 26.2188 22.1743 25.9695 22.1743 25.6621V10.8927L26.5245 35.566C26.5702 35.8615 26.8768 36.0755 27.1693 36.0176L37.5399 34.1888C37.8427 34.1354 38.0448 33.8467 37.9915 33.5439ZM31.5062 3.17443L31.7424 4.51407L22.4684 6.14934L22.2321 4.80917L31.5062 3.17443ZM10.5302 6.87646V32.2752H1.11328V6.87646H10.5302ZM1.11328 33.3885H10.5302V34.8801H1.11328V33.3885ZM21.061 34.8801H11.6434V33.3885H21.061V34.8801ZM11.6434 5.76318V4.40215H21.0325C21.0339 4.41959 21.036 4.43696 21.0392 4.45433L21.0611 4.5785V5.76325L11.6434 5.76318ZM27.5242 34.8245L27.2651 33.3551L36.5394 31.7198L36.7984 33.1891L27.5242 34.8245Z" fill="#416387"/>
<path d="M28.9553 15.8241C30.6496 15.5613 31.8749 13.8115 31.5422 12.1295C31.2796 10.4351 29.5294 9.20994 27.8477 9.54259C26.1532 9.80532 24.928 11.5551 25.2608 13.2372C25.5202 14.9309 27.2811 16.1585 28.9553 15.8241ZM26.357 13.0438C26.1405 11.9489 26.938 10.8099 28.041 10.6389C29.1308 10.4212 30.2768 11.2205 30.4458 12.3228C30.6623 13.4177 29.8648 14.5567 28.7619 14.7277C27.667 14.9444 26.5282 14.1466 26.357 13.0438Z" fill="#416387"/>
<path d="M27.2775 21.4665L32.4627 20.5522C32.7654 20.4988 32.9676 20.2101 32.9142 19.9073C32.8608 19.6045 32.5719 19.4026 32.2694 19.4558L27.0842 20.3701C26.7815 20.4234 26.5826 20.7116 26.6327 21.0149C26.6812 21.3083 26.9125 21.5322 27.2775 21.4665Z" fill="#416387"/>
<path d="M33.3712 22.4998C33.3178 22.197 33.0289 21.9951 32.7263 22.0483L27.5411 22.9626C27.2384 23.0159 27.0362 23.3047 27.0896 23.6075C27.1416 23.912 27.4388 24.1134 27.7344 24.059L32.9197 23.1447C33.2225 23.0913 33.4246 22.8026 33.3712 22.4998Z" fill="#416387"/>
<path d="M32.286 27.1311L29.6934 27.5883C29.3907 27.6416 29.1885 27.9303 29.242 28.2331C29.2939 28.5377 29.5912 28.7391 29.8868 28.6847L32.4795 28.2275C32.7822 28.1741 32.9844 27.8854 32.9309 27.5826C32.8775 27.2798 32.5886 27.0779 32.286 27.1311Z" fill="#416387"/>
</g>
<defs>
<clipPath id="clip0_1289_582">
<rect width="38" height="38" fill="white"/>
</clipPath>
</defs>
</svg>
