<svg width="37" height="37" viewBox="0 0 37 37" fill="none" xmlns="http://www.w3.org/2000/svg">
<g clip-path="url(#clip0_1289_568)">
<path d="M1.85 32.6833H3.08333V33.9167C3.08333 34.9384 3.91161 35.7667 4.93333 35.7667H28.8847C29.2252 35.7667 29.5013 35.4906 29.5013 35.15C29.5013 34.8094 29.2252 34.5333 28.8847 34.5333H4.93333C4.59276 34.5333 4.31667 34.2572 4.31667 33.9167V32.6833H15.281C15.6216 32.6833 15.8977 32.4072 15.8977 32.0667C15.8977 31.7261 15.6216 31.45 15.281 31.45H1.85C1.50942 31.45 1.23333 31.1739 1.23333 30.8333V9.86667H8.01667C9.03839 9.86667 9.86667 9.03839 9.86667 8.01667V1.23333H26.5167C26.8572 1.23333 27.1333 1.50942 27.1333 1.85V11.2603C27.1333 11.6009 27.4094 11.877 27.75 11.877C28.0906 11.877 28.3667 11.6009 28.3667 11.2603V4.31667H29.6C29.9406 4.31667 30.2167 4.59276 30.2167 4.93333V12.9438C30.2167 13.2844 30.4928 13.5605 30.8333 13.5605C31.1739 13.5605 31.45 13.2844 31.45 12.9438V4.93333C31.45 3.91161 30.6217 3.08333 29.6 3.08333H28.3667V1.85C28.3667 0.828273 27.5384 0 26.5167 0H9.25C9.08646 3.4928e-05 8.92964 0.0650279 8.81402 0.180683L0.180683 8.81402C0.0650279 8.92964 3.4928e-05 9.08646 0 9.25V30.8333C0 31.8551 0.828273 32.6833 1.85 32.6833ZM8.01667 8.63333H2.1053L8.63333 2.1053V8.01667C8.63333 8.35724 8.35724 8.63333 8.01667 8.63333Z" fill="#416387"/>
<path d="M3.08346 25.9C2.74289 25.9 2.4668 26.1761 2.4668 26.5167V29.6C2.4668 29.9406 2.74289 30.2167 3.08346 30.2167H6.1668C6.50737 30.2167 6.78346 29.9406 6.78346 29.6C6.78346 29.2594 6.50737 28.9834 6.1668 28.9834H3.70013V26.5167C3.70013 26.1761 3.42404 25.9 3.08346 25.9Z" fill="#416387"/>
<path d="M25.283 6.78334C25.6236 6.78334 25.8997 6.50725 25.8997 6.16668V3.08334C25.8997 2.74277 25.6236 2.46667 25.283 2.46667H22.1997C21.8591 2.46667 21.583 2.74277 21.583 3.08334C21.583 3.42392 21.8591 3.70001 22.1997 3.70001H24.6663V6.16668C24.6663 6.50725 24.9424 6.78334 25.283 6.78334Z" fill="#416387"/>
<path d="M23.4335 33.2999C25.168 33.3035 26.876 32.8741 28.4026 32.0506L32.5959 36.2476C33.6093 37.2326 35.2261 37.2208 36.2249 36.221C37.2237 35.2211 37.2339 33.6044 36.2478 32.592L32.2068 28.5565C34.8345 24.5407 34.3997 19.2533 31.1512 15.7206C27.9028 12.188 22.6703 11.3123 18.4486 13.5948C14.227 15.8773 12.0944 20.735 13.2713 25.3876C14.4483 30.0402 18.6344 33.2995 23.4335 33.2999ZM35.3722 33.4627C35.9001 33.9893 35.9012 34.8441 35.3746 35.3719C34.8481 35.8998 33.9933 35.9009 33.4654 35.3744L29.4731 31.3759C29.9623 31.033 30.4217 30.6496 30.8465 30.2296C31.0623 30.0131 31.2633 29.7856 31.4582 29.5549L35.3722 33.4627ZM16.8931 16.2762C20.0138 13.156 24.9039 12.6746 28.573 15.1266C32.2421 17.5785 33.6682 22.2808 31.9792 26.3578C30.2901 30.4347 25.9564 32.7507 21.6283 31.8895C17.3002 31.0282 14.1832 27.2296 14.1835 22.8166C14.1769 20.3621 15.1526 18.0069 16.8931 16.2762Z" fill="#416387"/>
<path d="M19.446 28.8459C19.9036 29.2976 20.6306 29.3243 21.1202 28.9075L30.6551 20.7367C31.1721 20.2937 31.2322 19.5156 30.7896 18.9983L29.9879 18.0604C29.5446 17.5442 28.767 17.4846 28.2501 17.9272L20.4468 24.6137L18.7553 22.9228C18.2737 22.4413 17.493 22.4413 17.0114 22.9228L16.1394 23.7947C15.658 24.2764 15.658 25.0571 16.1394 25.5387L19.4454 28.8452L19.446 28.8459ZM17.8834 23.7947L19.98 25.8914C20.2079 26.1193 20.5728 26.1332 20.8175 25.9235L29.05 18.8633L29.8516 19.8L20.3173 27.9733L17.0114 24.6667L17.8834 23.7947Z" fill="#416387"/>
<path d="M3.69967 13.5667H14.7997C15.1403 13.5667 15.4163 13.2906 15.4163 12.95C15.4163 12.6095 15.1403 12.3334 14.7997 12.3334H3.69967C3.3591 12.3334 3.08301 12.6095 3.08301 12.95C3.08301 13.2906 3.3591 13.5667 3.69967 13.5667Z" fill="#416387"/>
<path d="M14.1768 15.4167C14.1768 15.0761 13.9008 14.8 13.5602 14.8H3.69967C3.3591 14.8 3.08301 15.0761 3.08301 15.4167C3.08301 15.7573 3.3591 16.0334 3.69967 16.0334H13.5602C13.9008 16.0334 14.1768 15.7573 14.1768 15.4167Z" fill="#416387"/>
<path d="M12.74 17.8834C12.74 17.5428 12.4639 17.2667 12.1233 17.2667H3.69967C3.3591 17.2667 3.08301 17.5428 3.08301 17.8834C3.08301 18.224 3.3591 18.5001 3.69967 18.5001H12.1233C12.4639 18.5001 12.74 18.224 12.74 17.8834Z" fill="#416387"/>
<path d="M11.963 20.3499C11.963 20.0094 11.6869 19.7333 11.3463 19.7333H3.69967C3.3591 19.7333 3.08301 20.0094 3.08301 20.3499C3.08301 20.6905 3.3591 20.9666 3.69967 20.9666H11.3463C11.6869 20.9666 11.963 20.6905 11.963 20.3499Z" fill="#416387"/>
<path d="M11.7163 22.8166C11.7163 22.476 11.4403 22.2 11.0997 22.2H3.69967C3.3591 22.2 3.08301 22.476 3.08301 22.8166C3.08301 23.1572 3.3591 23.4333 3.69967 23.4333H11.0997C11.4403 23.4333 11.7163 23.1572 11.7163 22.8166Z" fill="#416387"/>
</g>
<defs>
<clipPath id="clip0_1289_568">
<rect width="37" height="37" fill="white"/>
</clipPath>
</defs>
</svg>
