<svg width="15" height="21" viewBox="0 0 15 21" fill="none" xmlns="http://www.w3.org/2000/svg">
<path d="M14.6783 6.86334L5.98637 15.5552C5.78122 15.7599 5.50326 15.8748 5.21346 15.8748C4.92367 15.8748 4.6457 15.7599 4.44055 15.5552L0.317515 11.4323C0.113683 11.227 -0.000492572 10.9494 1.59746e-06 10.6601C0.000495766 10.3709 0.11562 10.0936 0.320152 9.88909C0.524684 9.68456 0.801947 9.56943 1.0912 9.56894C1.38045 9.56844 1.65811 9.68262 1.86334 9.88645L4.98873 13.0119C5.04833 13.0715 5.12917 13.105 5.21346 13.105C5.29775 13.105 5.37859 13.0715 5.4382 13.0119L13.1325 5.31752C13.3377 5.11368 13.6154 4.99951 13.9046 5C14.1939 5.0005 14.4711 5.11562 14.6757 5.32015C14.8802 5.52468 14.9953 5.80195 14.9958 6.0912C14.9963 6.38045 14.8821 6.65811 14.6783 6.86334Z" fill="#416387"/>
</svg>
