<svg width="24" height="24" viewBox="0 0 24 24" fill="none" xmlns="http://www.w3.org/2000/svg">
<g clip-path="url(#clip0_1186_2751)">
<path d="M23.2969 12.0478H23.0198L20.5698 5.92278H21.7906C22.7225 5.88819 22.7218 4.5508 21.7906 4.51653H20.2344V4.46656C20.1998 3.53464 18.8624 3.53535 18.8281 4.46656V4.51653H14.8775C14.6161 3.44694 13.7727 2.60361 12.7031 2.34219V1.45405C12.6685 0.522127 11.3311 0.52283 11.2969 1.45405V2.34219C10.2273 2.60361 9.38391 3.44694 9.12248 4.51653H5.17186V4.46656C5.13727 3.53464 3.79987 3.53535 3.76561 4.46656V4.51653H2.20941C1.27748 4.55113 1.27819 5.88852 2.20941 5.92278H3.43022L0.980203 12.0478H0.703125C0.314812 12.0478 0 12.3626 0 12.7509C0 14.3626 0.334687 15.4479 1.05328 16.1665C2.23659 17.5776 6.70087 17.5777 7.88428 16.1665C8.60287 15.4479 8.93756 14.3626 8.93756 12.7509C8.93756 12.3626 8.62275 12.0478 8.23444 12.0478H7.95731L5.5073 5.92278H9.12253C9.38395 6.99238 10.2273 7.83575 11.2969 8.09717V18.0847C8.29556 18.2292 6.39056 18.9165 6.05662 21.8384H5.22187C4.28995 21.873 4.29066 23.2104 5.22187 23.2446H18.7781C19.71 23.2101 19.7093 21.8727 18.7781 21.8384H17.9434C17.6185 18.9261 15.6949 18.2239 12.7031 18.0847V8.09717C13.7727 7.83575 14.6161 6.99238 14.8775 5.92278H18.4927L16.0427 12.0478H15.7656C15.3773 12.0478 15.0625 12.3626 15.0625 12.7509C15.0625 14.3626 15.3972 15.4479 16.1158 16.1665C17.2991 17.5776 21.7634 17.5777 22.9468 16.1665C23.6654 15.4479 24 14.3626 24 12.7509C24 12.3626 23.6852 12.0478 23.2969 12.0478ZM6.88987 15.1721C6.20058 16.0339 2.7367 16.0339 2.04759 15.1721C1.70133 14.8258 1.5015 14.2719 1.43316 13.4541H7.50436C7.43602 14.2719 7.23614 14.8258 6.88987 15.1721ZM6.44273 12.0478H2.49473L4.46873 7.11289L6.44273 12.0478ZM15.6771 20.1953C16.0203 20.4405 16.4055 20.8484 16.5286 21.8384H7.47141C7.59455 20.8483 7.97972 20.4405 8.32294 20.1953C9.36708 19.2371 14.6328 19.237 15.6771 20.1953ZM12 6.77595C11.1419 6.77595 10.4437 6.0778 10.4437 5.2197C10.522 3.158 13.4783 3.15856 13.5562 5.2197C13.5562 6.0778 12.8581 6.77595 12 6.77595ZM19.5313 7.11289L21.5053 12.0478H17.5573L19.5313 7.11289ZM21.9524 15.1721C21.2632 16.034 17.7991 16.0338 17.1101 15.1721C16.7638 14.8258 16.564 14.2719 16.4956 13.4541H22.5668C22.4985 14.2719 22.2986 14.8258 21.9524 15.1721Z" fill="#416387"/>
</g>
<defs>
<clipPath id="clip0_1186_2751">
<rect width="24" height="24" fill="white"/>
</clipPath>
</defs>
</svg>
