<svg width="285" height="256" viewBox="0 0 285 256" fill="none" xmlns="http://www.w3.org/2000/svg">
<g clip-path="url(#clip0_1210_469)">
<rect x="-97.8638" y="63.1533" width="350.987" height="245.598" transform="rotate(-30 -97.8638 63.1533)" fill="url(#paint0_linear_1210_469)"/>
<mask id="path-3-inside-1_1210_469" fill="white">
<path fill-rule="evenodd" clip-rule="evenodd" d="M211.314 127.207C211.47 126.946 211.737 126.771 212.038 126.723C222.784 125.026 231 115.723 231 104.5C231 92.0736 220.926 82 208.5 82C196.074 82 186 92.0736 186 104.5C186 116.043 194.692 125.556 205.888 126.85C206.205 126.887 206.491 127.065 206.655 127.339L208.086 129.738C208.474 130.389 209.416 130.389 209.804 129.738L211.314 127.207Z"/>
</mask>
<path fill-rule="evenodd" clip-rule="evenodd" d="M211.314 127.207C211.47 126.946 211.737 126.771 212.038 126.723C222.784 125.026 231 115.723 231 104.5C231 92.0736 220.926 82 208.5 82C196.074 82 186 92.0736 186 104.5C186 116.043 194.692 125.556 205.888 126.85C206.205 126.887 206.491 127.065 206.655 127.339L208.086 129.738C208.474 130.389 209.416 130.389 209.804 129.738L211.314 127.207Z" fill="white"/>
<path d="M208.086 129.738L207.657 129.994L208.086 129.738ZM209.804 129.738L209.374 129.482L209.804 129.738ZM205.888 126.85L205.945 126.353L205.888 126.85ZM206.655 127.339L206.225 127.595L206.655 127.339ZM212.038 126.723L211.96 126.23L212.038 126.723ZM211.314 127.207L210.884 126.951L211.314 127.207ZM230.5 104.5C230.5 115.473 222.466 124.57 211.96 126.23L212.116 127.217C223.101 125.482 231.5 115.973 231.5 104.5H230.5ZM208.5 82.5C220.65 82.5 230.5 92.3497 230.5 104.5H231.5C231.5 91.7975 221.203 81.5 208.5 81.5V82.5ZM186.5 104.5C186.5 92.3497 196.35 82.5 208.5 82.5V81.5C195.797 81.5 185.5 91.7975 185.5 104.5H186.5ZM205.945 126.353C194.999 125.088 186.5 115.786 186.5 104.5H185.5C185.5 116.3 194.385 126.023 205.83 127.347L205.945 126.353ZM208.515 129.482L207.084 127.083L206.225 127.595L207.657 129.994L208.515 129.482ZM210.884 126.951L209.374 129.482L210.233 129.994L211.743 127.463L210.884 126.951ZM207.657 129.994C208.239 130.97 209.651 130.97 210.233 129.994L209.374 129.482C209.18 129.807 208.709 129.807 208.515 129.482L207.657 129.994ZM205.83 127.347C206 127.366 206.145 127.461 206.225 127.595L207.084 127.083C206.837 126.669 206.41 126.407 205.945 126.353L205.83 127.347ZM211.96 126.23C211.519 126.299 211.12 126.557 210.884 126.951L211.743 127.463C211.82 127.335 211.956 127.243 212.116 127.217L211.96 126.23Z" fill="white" mask="url(#path-3-inside-1_1210_469)"/>
<path d="M221.387 104.999C221.387 104.477 221.355 103.961 221.293 103.455C221.273 103.292 221.359 103.135 221.505 103.06L223.119 102.233C223.279 102.151 223.362 101.972 223.323 101.796C223.163 101.056 222.947 100.337 222.681 99.6421C222.617 99.4741 222.449 99.3695 222.27 99.3887L220.467 99.5819C220.305 99.5991 220.147 99.5144 220.074 99.3676C219.522 98.2528 218.812 97.2301 217.973 96.3297C217.861 96.21 217.838 96.0327 217.912 95.8865L218.731 94.2703C218.812 94.1102 218.774 93.9157 218.639 93.7966C218.08 93.2985 217.483 92.8414 216.854 92.4305C216.703 92.332 216.505 92.3459 216.372 92.4663L215.029 93.6809C214.908 93.7907 214.73 93.8152 214.586 93.7391C213.507 93.1708 212.336 92.7527 211.1 92.5132C210.939 92.4821 210.815 92.3525 210.79 92.1904L210.502 90.4029C210.474 90.2256 210.329 90.0906 210.15 90.0734C209.662 90.0251 209.167 90 208.666 90C208.409 90 208.154 90.0066 207.9 90.0198C207.721 90.0291 207.57 90.1568 207.533 90.3321L207.16 92.1037C207.127 92.2645 206.997 92.3882 206.834 92.4114C205.586 92.5913 204.398 92.9525 203.294 93.4672C203.146 93.5366 202.969 93.5036 202.854 93.3878L201.57 92.1103C201.442 91.9833 201.246 91.9602 201.091 92.0515C200.442 92.4319 199.824 92.8599 199.242 93.3302C199.102 93.4434 199.054 93.6352 199.128 93.7993L199.868 95.4532C199.935 95.6027 199.904 95.7786 199.787 95.8931C198.904 96.7538 198.146 97.7415 197.543 98.8271C197.463 98.9706 197.301 99.048 197.14 99.0222L195.348 98.7424C195.171 98.7146 194.998 98.8112 194.926 98.9759C194.627 99.658 194.376 100.366 194.18 101.097C194.133 101.27 194.207 101.454 194.363 101.543L195.936 102.447C196.078 102.528 196.155 102.69 196.128 102.852C196.009 103.551 195.946 104.268 195.946 105.001C195.946 105.523 195.978 106.039 196.04 106.545C196.059 106.708 195.973 106.865 195.828 106.94L194.214 107.767C194.054 107.849 193.971 108.028 194.009 108.204C194.17 108.944 194.386 109.663 194.652 110.358C194.716 110.526 194.884 110.63 195.062 110.611L196.865 110.418C197.028 110.401 197.186 110.486 197.259 110.632C197.811 111.747 198.52 112.77 199.36 113.67C199.472 113.79 199.494 113.967 199.421 114.114L198.602 115.73C198.52 115.89 198.559 116.084 198.693 116.203C199.252 116.702 199.849 117.159 200.479 117.569C200.629 117.668 200.827 117.654 200.96 117.534L202.303 116.319C202.425 116.209 202.602 116.185 202.747 116.261C203.826 116.829 204.997 117.247 206.232 117.487C206.394 117.518 206.517 117.648 206.543 117.81L206.83 119.597C206.859 119.774 207.003 119.909 207.182 119.927C207.67 119.975 208.165 120 208.667 120C208.923 120 209.179 119.993 209.433 119.98C209.612 119.971 209.763 119.843 209.8 119.668L210.172 117.896C210.206 117.736 210.336 117.612 210.498 117.589C211.746 117.409 212.935 117.047 214.038 116.533C214.187 116.463 214.363 116.496 214.479 116.612L215.762 117.89C215.89 118.017 216.087 118.04 216.242 117.949C216.891 117.568 217.509 117.14 218.091 116.67C218.231 116.557 218.278 116.365 218.205 116.201L217.465 114.547C217.398 114.397 217.429 114.221 217.546 114.107C218.428 113.246 219.187 112.259 219.79 111.173C219.869 111.029 220.031 110.952 220.193 110.978L221.984 111.258C222.162 111.285 222.334 111.189 222.407 111.024C222.707 110.342 222.956 109.634 223.153 108.903C223.2 108.73 223.125 108.546 222.969 108.457L221.397 107.553C221.255 107.472 221.177 107.31 221.205 107.148C221.324 106.449 221.387 105.732 221.387 104.999ZM212.152 114.214C204.077 117.008 196.657 109.588 199.451 101.514C200.38 98.8304 202.498 96.7128 205.181 95.7839C213.255 92.9895 220.676 100.41 217.881 108.484C216.953 111.168 214.835 113.285 212.152 114.214Z" fill="#2C4662"/>
<g clip-path="url(#clip1_1210_469)">
<path d="M215.511 102.382L214.487 101.465C214.425 101.409 214.43 101.299 214.499 101.22C214.528 101.187 214.543 101.146 214.543 101.109C214.543 101.077 214.531 101.046 214.508 101.025L214.167 100.72C214.277 100.519 214.263 100.286 214.118 100.156L213.493 99.596C213.348 99.4659 213.117 99.4797 212.934 99.6146L212.593 99.3095C212.543 99.2646 212.458 99.2794 212.403 99.3423C212.334 99.4211 212.227 99.4396 212.164 99.3833L211.14 98.4656C211.013 98.3521 210.797 98.3893 210.657 98.5488L209.304 100.095C209.165 100.255 209.154 100.476 209.281 100.59L210.305 101.507C210.368 101.563 210.363 101.673 210.293 101.752C210.264 101.785 210.249 101.826 210.249 101.863C210.249 101.896 210.261 101.926 210.284 101.947L210.413 102.062C210.524 102.161 210.515 102.355 210.393 102.494L208.7 104.428L208.577 104.569L208.535 104.616L208.305 104.879L207.578 105.71L203.589 110.269C203.396 110.488 203.382 110.793 203.557 110.949L204.182 111.509C204.356 111.666 204.653 111.614 204.846 111.395L208.7 106.991L209.426 106.161L209.656 105.898L209.821 105.709L211.649 103.62C211.771 103.481 211.96 103.448 212.071 103.547L212.199 103.663C212.249 103.708 212.335 103.693 212.389 103.63C212.431 103.582 212.487 103.556 212.539 103.556C212.572 103.556 212.604 103.567 212.628 103.589L213.652 104.506C213.779 104.62 213.995 104.583 214.135 104.423L215.488 102.877C215.627 102.717 215.638 102.496 215.511 102.382L215.511 102.382ZM211.114 102.231C211.117 102.365 211.071 102.5 211.021 102.607C210.972 102.712 210.906 102.81 210.829 102.898L210.579 103.183L209.095 104.879L208.93 105.067L208.7 105.33L207.973 106.161L203.887 110.83L203.76 110.717C203.688 110.652 203.694 110.525 203.773 110.434L207.743 105.898L208.47 105.067L208.7 104.805L208.865 104.616L210.577 102.659C210.812 102.392 210.829 102.02 210.616 101.83L210.567 101.785C210.606 101.705 210.625 101.621 210.623 101.542C210.622 101.499 210.672 101.465 210.703 101.488C211.18 101.85 211.109 101.946 211.114 102.231H211.114ZM211.064 99.2789L210.902 99.1332C210.854 99.0908 210.774 99.1047 210.722 99.164L209.593 100.455L209.484 100.358C209.459 100.335 209.461 100.292 209.489 100.261L210.842 98.7142C210.869 98.6831 210.912 98.6757 210.937 98.698L211.501 99.2033C211.374 99.3477 211.179 99.3815 211.064 99.2786V99.2789ZM213.057 99.8358C213.135 99.7786 213.231 99.7756 213.29 99.8283L213.914 100.388C213.973 100.441 213.982 100.537 213.935 100.623L213.841 100.795L212.899 99.9512L213.057 99.8358ZM215.119 102.808L213.894 104.208C213.867 104.239 213.824 104.246 213.799 104.224L212.775 103.307C212.758 103.291 212.74 103.278 212.721 103.267C212.797 103.181 212.897 103.135 212.99 103.135C213.049 103.135 213.106 103.154 213.15 103.193L213.777 103.756C213.847 103.818 213.964 103.797 214.041 103.71L215.135 102.46C215.225 102.54 215.217 102.696 215.119 102.808H215.119Z" fill="#2C4662"/>
<path d="M209.809 105.695L209.094 104.879L208.93 105.067L209.641 105.88L209.656 105.897L209.821 105.709L209.809 105.695ZM208.698 104.426L208.577 104.568L208.535 104.616L208.536 104.616L208.7 104.804L208.865 104.616L208.7 104.428L208.699 104.426H208.698ZM209.408 106.139L208.7 105.33L207.973 106.16L208.669 106.956L208.7 106.991L209.427 106.16L209.408 106.139H209.408ZM208.308 104.882L208.305 104.879L207.579 105.709L207.59 105.722L207.743 105.897L208.47 105.067L208.308 104.882ZM213.811 110.268L209.968 105.877L209.923 105.93L209.882 105.979L209.806 106.068L213.626 110.434C213.706 110.525 213.712 110.652 213.64 110.717L213.513 110.83L209.578 106.334L208.936 107.084L208.86 107.173L212.554 111.395C212.746 111.614 213.044 111.665 213.218 111.509L213.843 110.949C214.017 110.793 214.003 110.488 213.811 110.268L213.811 110.268ZM206.822 102.659L208.374 104.431L208.541 104.246L207.007 102.493C206.885 102.354 206.876 102.161 206.987 102.062L207.115 101.946C207.165 101.901 207.161 101.814 207.106 101.751C207.07 101.709 207.051 101.659 207.051 101.612C207.051 101.571 207.065 101.533 207.095 101.507L208.119 100.589C208.245 100.476 208.235 100.254 208.095 100.095L206.742 98.5483C206.603 98.3888 206.386 98.3516 206.26 98.4651L205.236 99.3825C205.173 99.4388 205.066 99.4203 204.997 99.3414C204.942 99.2785 204.857 99.2637 204.807 99.3087L204.466 99.6137C204.282 99.4788 204.052 99.4651 203.907 99.5952L203.282 100.155C203.137 100.285 203.122 100.518 203.232 100.719L202.892 101.025C202.842 101.069 202.846 101.156 202.901 101.219C202.938 101.261 202.956 101.312 202.956 101.358C202.956 101.4 202.942 101.438 202.912 101.464L201.889 102.382C201.762 102.495 201.772 102.717 201.912 102.876L203.265 104.423C203.405 104.582 203.621 104.62 203.748 104.506L204.771 103.589C204.834 103.532 204.941 103.551 205.01 103.63C205.044 103.668 205.088 103.688 205.129 103.688C205.156 103.688 205.181 103.68 205.2 103.662L205.329 103.547C205.44 103.448 205.628 103.48 205.75 103.62L207.402 105.507L208.14 104.69L206.821 103.183L206.571 102.898C206.494 102.809 206.428 102.711 206.379 102.607C206.329 102.5 206.283 102.364 206.286 102.23C206.291 101.946 206.22 101.85 206.697 101.488C206.728 101.464 206.778 101.498 206.777 101.541C206.775 101.621 206.794 101.705 206.833 101.785L206.784 101.829C206.571 102.02 206.589 102.391 206.823 102.659H206.822ZM203.485 100.387L204.11 99.8276C204.169 99.7748 204.265 99.778 204.343 99.8351L204.5 99.9506L203.559 100.794L203.465 100.622C203.418 100.537 203.426 100.44 203.485 100.387ZM204.624 103.306L203.6 104.223C203.576 104.245 203.533 104.238 203.506 104.207L202.281 102.808C202.183 102.695 202.175 102.539 202.265 102.459L203.359 103.71C203.436 103.797 203.553 103.817 203.623 103.755L204.25 103.193C204.363 103.092 204.555 103.125 204.679 103.266C204.66 103.278 204.641 103.291 204.624 103.306ZM206.677 99.1635C206.626 99.1042 206.545 99.0903 206.498 99.1327L206.335 99.2784C206.221 99.3812 206.025 99.3473 205.899 99.2031L206.463 98.6977C206.488 98.6754 206.53 98.6827 206.558 98.714L207.911 100.26C207.938 100.292 207.94 100.335 207.915 100.357L207.807 100.454L206.677 99.1638V99.1635Z" fill="#2C4662"/>
</g>
<circle cx="208.938" cy="135.444" r="2.55556" fill="white"/>
</g>
<defs>
<linearGradient id="paint0_linear_1210_469" x1="88.6481" y1="145.833" x2="107.933" y2="266.243" gradientUnits="userSpaceOnUse">
<stop stop-color="#2C4662"/>
<stop offset="1" stop-color="#2C4662" stop-opacity="0"/>
</linearGradient>
<clipPath id="clip0_1210_469">
<rect width="285" height="256" rx="30" fill="white"/>
</clipPath>
<clipPath id="clip1_1210_469">
<rect width="13.8" height="13.2" fill="white" transform="translate(201.8 98.3999)"/>
</clipPath>
</defs>
</svg>
