<svg width="285" height="256" viewBox="0 0 285 256" fill="none" xmlns="http://www.w3.org/2000/svg">
<g clip-path="url(#clip0_1210_477)">
<rect x="-97.8638" y="63.1533" width="350.987" height="245.598" transform="rotate(-30 -97.8638 63.1533)" fill="url(#paint0_linear_1210_477)"/>
<mask id="path-3-inside-1_1210_477" fill="white">
<path fill-rule="evenodd" clip-rule="evenodd" d="M110.314 145.207C110.47 144.946 110.737 144.771 111.038 144.723C121.784 143.026 130 133.723 130 122.5C130 110.074 119.926 100 107.5 100C95.0736 100 85 110.074 85 122.5C85 134.043 93.692 143.556 104.888 144.85C105.205 144.887 105.491 145.065 105.655 145.339L107.086 147.738C107.474 148.389 108.416 148.389 108.804 147.738L110.314 145.207Z"/>
</mask>
<path fill-rule="evenodd" clip-rule="evenodd" d="M110.314 145.207C110.47 144.946 110.737 144.771 111.038 144.723C121.784 143.026 130 133.723 130 122.5C130 110.074 119.926 100 107.5 100C95.0736 100 85 110.074 85 122.5C85 134.043 93.692 143.556 104.888 144.85C105.205 144.887 105.491 145.065 105.655 145.339L107.086 147.738C107.474 148.389 108.416 148.389 108.804 147.738L110.314 145.207Z" fill="white"/>
<path d="M107.086 147.738L106.657 147.994L107.086 147.738ZM108.804 147.738L108.374 147.482L108.804 147.738ZM104.888 144.85L104.945 144.353L104.888 144.85ZM105.655 145.339L105.225 145.595L105.655 145.339ZM111.038 144.723L110.96 144.23L111.038 144.723ZM110.314 145.207L109.884 144.951L110.314 145.207ZM129.5 122.5C129.5 133.473 121.466 142.57 110.96 144.23L111.116 145.217C122.101 143.482 130.5 133.973 130.5 122.5H129.5ZM107.5 100.5C119.65 100.5 129.5 110.35 129.5 122.5H130.5C130.5 109.797 120.203 99.5 107.5 99.5V100.5ZM85.5 122.5C85.5 110.35 95.3497 100.5 107.5 100.5V99.5C94.7975 99.5 84.5 109.797 84.5 122.5H85.5ZM104.945 144.353C93.9987 143.088 85.5 133.786 85.5 122.5H84.5C84.5 134.3 93.3852 144.023 104.83 145.347L104.945 144.353ZM107.515 147.482L106.084 145.083L105.225 145.595L106.657 147.994L107.515 147.482ZM109.884 144.951L108.374 147.482L109.233 147.994L110.743 145.463L109.884 144.951ZM106.657 147.994C107.239 148.97 108.651 148.97 109.233 147.994L108.374 147.482C108.18 147.807 107.709 147.807 107.515 147.482L106.657 147.994ZM104.83 145.347C105 145.366 105.145 145.461 105.225 145.595L106.084 145.083C105.837 144.669 105.41 144.407 104.945 144.353L104.83 145.347ZM110.96 144.23C110.519 144.299 110.12 144.557 109.884 144.951L110.743 145.463C110.82 145.335 110.956 145.243 111.116 145.217L110.96 144.23Z" fill="white" mask="url(#path-3-inside-1_1210_477)"/>
<path d="M120.387 122.999C120.387 122.477 120.355 121.961 120.293 121.455C120.273 121.292 120.359 121.135 120.505 121.06L122.119 120.233C122.279 120.151 122.362 119.972 122.323 119.796C122.163 119.056 121.947 118.337 121.681 117.642C121.617 117.474 121.449 117.37 121.27 117.389L119.467 117.582C119.305 117.599 119.147 117.514 119.074 117.368C118.522 116.253 117.812 115.23 116.973 114.33C116.861 114.21 116.838 114.033 116.912 113.886L117.731 112.27C117.812 112.11 117.774 111.916 117.639 111.797C117.08 111.298 116.483 110.841 115.854 110.431C115.703 110.332 115.505 110.346 115.372 110.466L114.029 111.681C113.908 111.791 113.73 111.815 113.586 111.739C112.507 111.171 111.336 110.753 110.1 110.513C109.939 110.482 109.815 110.352 109.79 110.19L109.502 108.403C109.474 108.226 109.329 108.091 109.15 108.073C108.662 108.025 108.167 108 107.666 108C107.409 108 107.154 108.007 106.9 108.02C106.721 108.029 106.57 108.157 106.533 108.332L106.16 110.104C106.127 110.264 105.997 110.388 105.834 110.411C104.586 110.591 103.398 110.953 102.294 111.467C102.146 111.537 101.969 111.504 101.854 111.388L100.57 110.11C100.442 109.983 100.246 109.96 100.091 110.051C99.4416 110.432 98.8237 110.86 98.2415 111.33C98.1019 111.443 98.0543 111.635 98.1277 111.799L98.868 113.453C98.9348 113.603 98.9037 113.779 98.7866 113.893C97.9041 114.754 97.146 115.741 96.5426 116.827C96.4633 116.971 96.3012 117.048 96.1398 117.022L94.3483 116.742C94.171 116.715 93.9983 116.811 93.9256 116.976C93.6265 117.658 93.3765 118.366 93.18 119.097C93.133 119.27 93.2071 119.454 93.3632 119.543L94.9357 120.447C95.078 120.528 95.1554 120.69 95.1276 120.852C95.0085 121.551 94.9457 122.268 94.9457 123.001C94.9457 123.523 94.9781 124.039 95.0396 124.545C95.0594 124.708 94.9734 124.865 94.8279 124.94L93.2137 125.767C93.0536 125.849 92.9709 126.028 93.0093 126.204C93.1701 126.944 93.3857 127.663 93.6517 128.358C93.7158 128.526 93.8839 128.63 94.0625 128.611L95.8652 128.418C96.028 128.401 96.1861 128.486 96.2588 128.632C96.8106 129.747 97.5204 130.77 98.3599 131.67C98.4717 131.79 98.4942 131.967 98.4208 132.114L97.6018 133.73C97.5204 133.89 97.5588 134.084 97.6931 134.203C98.2521 134.702 98.8495 135.159 99.4786 135.569C99.6294 135.668 99.8272 135.654 99.9602 135.534L101.303 134.319C101.425 134.209 101.602 134.185 101.747 134.261C102.826 134.829 103.997 135.247 105.232 135.487C105.394 135.518 105.517 135.648 105.543 135.81L105.83 137.597C105.859 137.774 106.003 137.909 106.182 137.927C106.67 137.975 107.165 138 107.667 138C107.923 138 108.179 137.993 108.433 137.98C108.612 137.971 108.763 137.843 108.8 137.668L109.172 135.896C109.206 135.736 109.336 135.612 109.498 135.589C110.746 135.409 111.935 135.047 113.038 134.533C113.187 134.463 113.363 134.496 113.479 134.612L114.762 135.89C114.89 136.017 115.087 136.04 115.242 135.949C115.891 135.568 116.509 135.14 117.091 134.67C117.231 134.557 117.278 134.365 117.205 134.201L116.465 132.547C116.398 132.397 116.429 132.221 116.546 132.107C117.428 131.246 118.187 130.259 118.79 129.173C118.869 129.029 119.031 128.952 119.193 128.978L120.984 129.258C121.162 129.285 121.334 129.189 121.407 129.024C121.707 128.342 121.956 127.634 122.153 126.903C122.2 126.73 122.125 126.546 121.969 126.457L120.397 125.553C120.255 125.472 120.177 125.31 120.205 125.148C120.324 124.449 120.387 123.732 120.387 122.999ZM111.152 132.214C103.077 135.008 95.6568 127.588 98.4512 119.514C99.38 116.83 101.498 114.713 104.181 113.784C112.255 110.99 119.676 118.41 116.881 126.484C115.953 129.168 113.835 131.285 111.152 132.214Z" fill="#2C4662"/>
<g clip-path="url(#clip1_1210_477)">
<path d="M114.511 120.382L113.487 119.465C113.425 119.409 113.43 119.299 113.499 119.22C113.528 119.187 113.543 119.146 113.543 119.109C113.543 119.077 113.531 119.046 113.508 119.025L113.167 118.72C113.277 118.519 113.263 118.286 113.118 118.156L112.493 117.596C112.348 117.466 112.117 117.48 111.934 117.615L111.593 117.31C111.543 117.265 111.458 117.279 111.403 117.342C111.334 117.421 111.227 117.44 111.164 117.383L110.14 116.466C110.013 116.352 109.797 116.389 109.657 116.549L108.304 118.095C108.165 118.255 108.154 118.476 108.281 118.59L109.305 119.507C109.368 119.563 109.363 119.673 109.293 119.752C109.264 119.785 109.249 119.826 109.249 119.863C109.249 119.896 109.261 119.926 109.284 119.947L109.413 120.062C109.524 120.161 109.515 120.355 109.393 120.494L107.7 122.428L107.577 122.569L107.535 122.616L107.305 122.879L106.578 123.71L102.589 128.269C102.396 128.488 102.382 128.793 102.557 128.949L103.182 129.509C103.356 129.666 103.653 129.614 103.846 129.395L107.7 124.991L108.426 124.161L108.656 123.898L108.821 123.709L110.649 121.62C110.771 121.481 110.96 121.448 111.071 121.547L111.199 121.663C111.249 121.708 111.335 121.693 111.389 121.63C111.431 121.582 111.487 121.556 111.539 121.556C111.572 121.556 111.604 121.567 111.628 121.589L112.652 122.506C112.779 122.62 112.995 122.583 113.135 122.423L114.488 120.877C114.627 120.717 114.638 120.496 114.511 120.382L114.511 120.382ZM110.114 120.231C110.117 120.365 110.071 120.5 110.021 120.607C109.972 120.712 109.906 120.81 109.829 120.898L109.579 121.183L108.095 122.879L107.93 123.067L107.7 123.33L106.973 124.161L102.887 128.83L102.76 128.717C102.688 128.652 102.694 128.525 102.773 128.434L106.743 123.898L107.47 123.067L107.7 122.805L107.865 122.616L109.577 120.659C109.812 120.392 109.829 120.02 109.616 119.83L109.567 119.785C109.606 119.705 109.625 119.621 109.623 119.542C109.622 119.499 109.672 119.465 109.703 119.488C110.18 119.85 110.109 119.946 110.114 120.231H110.114ZM110.064 117.279L109.902 117.133C109.854 117.091 109.774 117.105 109.722 117.164L108.593 118.455L108.484 118.358C108.459 118.335 108.461 118.292 108.489 118.261L109.842 116.714C109.869 116.683 109.912 116.676 109.937 116.698L110.501 117.203C110.374 117.348 110.179 117.381 110.064 117.279V117.279ZM112.057 117.836C112.135 117.779 112.231 117.776 112.29 117.828L112.914 118.388C112.973 118.441 112.982 118.537 112.935 118.623L112.841 118.795L111.899 117.951L112.057 117.836ZM114.119 120.808L112.894 122.208C112.867 122.239 112.824 122.246 112.799 122.224L111.775 121.307C111.758 121.291 111.74 121.278 111.721 121.267C111.797 121.181 111.897 121.135 111.99 121.135C112.049 121.135 112.106 121.154 112.15 121.193L112.777 121.756C112.847 121.818 112.964 121.797 113.041 121.71L114.135 120.46C114.225 120.54 114.217 120.696 114.119 120.808H114.119Z" fill="#2C4662"/>
<path d="M108.809 123.695L108.094 122.879L107.93 123.067L108.641 123.88L108.656 123.897L108.821 123.709L108.809 123.695ZM107.698 122.426L107.577 122.568L107.535 122.616L107.536 122.616L107.7 122.804L107.865 122.616L107.7 122.428L107.699 122.426H107.698ZM108.408 124.139L107.7 123.33L106.973 124.16L107.669 124.956L107.7 124.991L108.427 124.16L108.408 124.139H108.408ZM107.308 122.882L107.305 122.879L106.579 123.709L106.59 123.722L106.743 123.897L107.47 123.067L107.308 122.882ZM112.811 128.268L108.968 123.877L108.923 123.93L108.882 123.979L108.806 124.068L112.626 128.434C112.706 128.525 112.712 128.652 112.64 128.717L112.513 128.83L108.578 124.334L107.936 125.084L107.86 125.173L111.554 129.395C111.746 129.614 112.044 129.665 112.218 129.509L112.843 128.949C113.017 128.793 113.003 128.488 112.811 128.268L112.811 128.268ZM105.822 120.659L107.374 122.431L107.541 122.246L106.007 120.493C105.885 120.354 105.876 120.161 105.987 120.062L106.115 119.946C106.165 119.901 106.161 119.814 106.106 119.751C106.07 119.709 106.051 119.659 106.051 119.612C106.051 119.571 106.065 119.533 106.095 119.507L107.119 118.589C107.245 118.476 107.235 118.254 107.095 118.095L105.742 116.548C105.603 116.389 105.386 116.352 105.26 116.465L104.236 117.382C104.173 117.439 104.066 117.42 103.997 117.341C103.942 117.279 103.857 117.264 103.807 117.309L103.466 117.614C103.282 117.479 103.052 117.465 102.907 117.595L102.282 118.155C102.137 118.285 102.122 118.518 102.232 118.719L101.892 119.025C101.842 119.069 101.846 119.156 101.901 119.219C101.938 119.261 101.956 119.312 101.956 119.358C101.956 119.4 101.942 119.438 101.912 119.464L100.889 120.382C100.762 120.495 100.772 120.717 100.912 120.876L102.265 122.423C102.405 122.582 102.621 122.62 102.748 122.506L103.771 121.589C103.834 121.532 103.941 121.551 104.01 121.63C104.044 121.668 104.088 121.688 104.129 121.688C104.156 121.688 104.181 121.68 104.2 121.662L104.329 121.547C104.44 121.448 104.628 121.48 104.75 121.62L106.402 123.507L107.14 122.69L105.821 121.183L105.571 120.898C105.494 120.809 105.428 120.711 105.379 120.607C105.329 120.5 105.283 120.364 105.286 120.23C105.291 119.946 105.22 119.85 105.697 119.488C105.728 119.464 105.778 119.498 105.777 119.541C105.775 119.621 105.794 119.705 105.833 119.785L105.784 119.829C105.571 120.02 105.589 120.391 105.823 120.659H105.822ZM102.485 118.387L103.11 117.828C103.169 117.775 103.265 117.778 103.343 117.835L103.5 117.951L102.559 118.794L102.465 118.622C102.418 118.537 102.426 118.44 102.485 118.387ZM103.624 121.306L102.6 122.223C102.576 122.245 102.533 122.238 102.506 122.207L101.281 120.808C101.183 120.695 101.175 120.539 101.265 120.459L102.359 121.71C102.436 121.797 102.553 121.817 102.623 121.755L103.25 121.193C103.363 121.092 103.555 121.125 103.679 121.266C103.66 121.278 103.641 121.291 103.624 121.306ZM105.677 117.164C105.626 117.104 105.545 117.09 105.498 117.133L105.335 117.278C105.221 117.381 105.025 117.347 104.899 117.203L105.463 116.698C105.488 116.675 105.53 116.683 105.558 116.714L106.911 118.26C106.938 118.292 106.94 118.335 106.915 118.357L106.807 118.454L105.677 117.164V117.164Z" fill="#2C4662"/>
</g>
<circle cx="107.938" cy="153.444" r="2.55556" fill="white"/>
</g>
<defs>
<linearGradient id="paint0_linear_1210_477" x1="88.6481" y1="145.833" x2="107.933" y2="266.243" gradientUnits="userSpaceOnUse">
<stop stop-color="#2C4662"/>
<stop offset="1" stop-color="#2C4662" stop-opacity="0"/>
</linearGradient>
<clipPath id="clip0_1210_477">
<rect width="285" height="256" rx="30" fill="white"/>
</clipPath>
<clipPath id="clip1_1210_477">
<rect width="13.8" height="13.2" fill="white" transform="translate(100.8 116.4)"/>
</clipPath>
</defs>
</svg>
