<svg width="285" height="256" viewBox="0 0 285 256" fill="none" xmlns="http://www.w3.org/2000/svg">
<g clip-path="url(#clip0_1210_413)">
<rect x="-97.8638" y="63.1533" width="350.987" height="245.598" transform="rotate(-30 -97.8638 63.1533)" fill="url(#paint0_linear_1210_413)"/>
<mask id="path-3-inside-1_1210_413" fill="white">
<path fill-rule="evenodd" clip-rule="evenodd" d="M174.314 153.207C174.47 152.946 174.737 152.771 175.038 152.723C185.784 151.026 194 141.723 194 130.5C194 118.074 183.926 108 171.5 108C159.074 108 149 118.074 149 130.5C149 142.043 157.692 151.556 168.888 152.85C169.205 152.887 169.491 153.065 169.655 153.339L171.086 155.738C171.474 156.389 172.416 156.389 172.804 155.738L174.314 153.207Z"/>
</mask>
<path fill-rule="evenodd" clip-rule="evenodd" d="M174.314 153.207C174.47 152.946 174.737 152.771 175.038 152.723C185.784 151.026 194 141.723 194 130.5C194 118.074 183.926 108 171.5 108C159.074 108 149 118.074 149 130.5C149 142.043 157.692 151.556 168.888 152.85C169.205 152.887 169.491 153.065 169.655 153.339L171.086 155.738C171.474 156.389 172.416 156.389 172.804 155.738L174.314 153.207Z" fill="white"/>
<path d="M171.086 155.738L170.657 155.994L171.086 155.738ZM172.804 155.738L172.374 155.482L172.804 155.738ZM168.888 152.85L168.945 152.353L168.888 152.85ZM169.655 153.339L169.225 153.595L169.655 153.339ZM175.038 152.723L174.96 152.23L175.038 152.723ZM174.314 153.207L173.884 152.951L174.314 153.207ZM193.5 130.5C193.5 141.473 185.466 150.57 174.96 152.23L175.116 153.217C186.101 151.482 194.5 141.973 194.5 130.5H193.5ZM171.5 108.5C183.65 108.5 193.5 118.35 193.5 130.5H194.5C194.5 117.797 184.203 107.5 171.5 107.5V108.5ZM149.5 130.5C149.5 118.35 159.35 108.5 171.5 108.5V107.5C158.797 107.5 148.5 117.797 148.5 130.5H149.5ZM168.945 152.353C157.999 151.088 149.5 141.786 149.5 130.5H148.5C148.5 142.3 157.385 152.023 168.83 153.347L168.945 152.353ZM171.515 155.482L170.084 153.083L169.225 153.595L170.657 155.994L171.515 155.482ZM173.884 152.951L172.374 155.482L173.233 155.994L174.743 153.463L173.884 152.951ZM170.657 155.994C171.239 156.97 172.651 156.97 173.233 155.994L172.374 155.482C172.18 155.807 171.709 155.807 171.515 155.482L170.657 155.994ZM168.83 153.347C169 153.366 169.145 153.461 169.225 153.595L170.084 153.083C169.837 152.669 169.41 152.407 168.945 152.353L168.83 153.347ZM174.96 152.23C174.519 152.299 174.12 152.557 173.884 152.951L174.743 153.463C174.82 153.335 174.956 153.243 175.116 153.217L174.96 152.23Z" fill="white" mask="url(#path-3-inside-1_1210_413)"/>
<path d="M184.387 130.999C184.387 130.477 184.355 129.961 184.293 129.455C184.273 129.292 184.359 129.135 184.505 129.06L186.119 128.233C186.279 128.151 186.362 127.972 186.323 127.796C186.163 127.056 185.947 126.337 185.681 125.642C185.617 125.474 185.449 125.37 185.27 125.389L183.467 125.582C183.305 125.599 183.147 125.514 183.074 125.368C182.522 124.253 181.812 123.23 180.973 122.33C180.861 122.21 180.838 122.033 180.912 121.886L181.731 120.27C181.812 120.11 181.774 119.916 181.639 119.797C181.08 119.298 180.483 118.841 179.854 118.431C179.703 118.332 179.505 118.346 179.372 118.466L178.029 119.681C177.908 119.791 177.73 119.815 177.586 119.739C176.507 119.171 175.336 118.753 174.1 118.513C173.939 118.482 173.815 118.352 173.79 118.19L173.502 116.403C173.474 116.226 173.329 116.091 173.15 116.073C172.662 116.025 172.167 116 171.666 116C171.409 116 171.154 116.007 170.9 116.02C170.721 116.029 170.57 116.157 170.533 116.332L170.16 118.104C170.127 118.264 169.997 118.388 169.834 118.411C168.586 118.591 167.398 118.953 166.294 119.467C166.146 119.537 165.969 119.504 165.854 119.388L164.57 118.11C164.442 117.983 164.246 117.96 164.091 118.051C163.442 118.432 162.824 118.86 162.242 119.33C162.102 119.443 162.054 119.635 162.128 119.799L162.868 121.453C162.935 121.603 162.904 121.779 162.787 121.893C161.904 122.754 161.146 123.741 160.543 124.827C160.463 124.971 160.301 125.048 160.14 125.022L158.348 124.742C158.171 124.715 157.998 124.811 157.926 124.976C157.627 125.658 157.376 126.366 157.18 127.097C157.133 127.27 157.207 127.454 157.363 127.543L158.936 128.447C159.078 128.528 159.155 128.69 159.128 128.852C159.009 129.551 158.946 130.268 158.946 131.001C158.946 131.523 158.978 132.039 159.04 132.545C159.059 132.708 158.973 132.865 158.828 132.94L157.214 133.767C157.054 133.849 156.971 134.028 157.009 134.204C157.17 134.944 157.386 135.663 157.652 136.358C157.716 136.526 157.884 136.63 158.062 136.611L159.865 136.418C160.028 136.401 160.186 136.486 160.259 136.632C160.811 137.747 161.52 138.77 162.36 139.67C162.472 139.79 162.494 139.967 162.421 140.114L161.602 141.73C161.52 141.89 161.559 142.084 161.693 142.203C162.252 142.702 162.849 143.159 163.479 143.569C163.629 143.668 163.827 143.654 163.96 143.534L165.303 142.319C165.425 142.209 165.602 142.185 165.747 142.261C166.826 142.829 167.997 143.247 169.232 143.487C169.394 143.518 169.517 143.648 169.543 143.81L169.83 145.597C169.859 145.774 170.003 145.909 170.182 145.927C170.67 145.975 171.165 146 171.667 146C171.923 146 172.179 145.993 172.433 145.98C172.612 145.971 172.763 145.843 172.8 145.668L173.172 143.896C173.206 143.736 173.336 143.612 173.498 143.589C174.746 143.409 175.935 143.047 177.038 142.533C177.187 142.463 177.363 142.496 177.479 142.612L178.762 143.89C178.89 144.017 179.087 144.04 179.242 143.949C179.891 143.568 180.509 143.14 181.091 142.67C181.231 142.557 181.278 142.365 181.205 142.201L180.465 140.547C180.398 140.397 180.429 140.221 180.546 140.107C181.428 139.246 182.187 138.259 182.79 137.173C182.869 137.029 183.031 136.952 183.193 136.978L184.984 137.258C185.162 137.285 185.334 137.189 185.407 137.024C185.707 136.342 185.956 135.634 186.153 134.903C186.2 134.73 186.125 134.546 185.969 134.457L184.397 133.553C184.255 133.472 184.177 133.31 184.205 133.148C184.324 132.449 184.387 131.732 184.387 130.999ZM175.152 140.214C167.077 143.008 159.657 135.588 162.451 127.514C163.38 124.83 165.498 122.713 168.181 121.784C176.255 118.99 183.676 126.41 180.881 134.484C179.953 137.168 177.835 139.285 175.152 140.214Z" fill="#2C4662"/>
<g clip-path="url(#clip1_1210_413)">
<path d="M178.511 128.382L177.487 127.465C177.425 127.409 177.43 127.299 177.499 127.22C177.528 127.187 177.543 127.146 177.543 127.109C177.543 127.077 177.531 127.046 177.508 127.025L177.167 126.72C177.277 126.519 177.263 126.286 177.118 126.156L176.493 125.596C176.348 125.466 176.117 125.48 175.934 125.615L175.593 125.31C175.543 125.265 175.458 125.279 175.403 125.342C175.334 125.421 175.227 125.44 175.164 125.383L174.14 124.466C174.013 124.352 173.797 124.389 173.657 124.549L172.304 126.095C172.165 126.255 172.154 126.476 172.281 126.59L173.305 127.507C173.368 127.563 173.363 127.673 173.293 127.752C173.264 127.785 173.249 127.826 173.249 127.863C173.249 127.896 173.261 127.926 173.284 127.947L173.413 128.062C173.524 128.161 173.515 128.355 173.393 128.494L171.7 130.428L171.577 130.569L171.535 130.616L171.305 130.879L170.578 131.71L166.589 136.269C166.396 136.488 166.382 136.793 166.557 136.949L167.182 137.509C167.356 137.666 167.653 137.614 167.846 137.395L171.7 132.991L172.426 132.161L172.656 131.898L172.821 131.709L174.649 129.62C174.771 129.481 174.96 129.448 175.071 129.547L175.199 129.663C175.249 129.708 175.335 129.693 175.389 129.63C175.431 129.582 175.487 129.556 175.539 129.556C175.572 129.556 175.604 129.567 175.628 129.589L176.652 130.506C176.779 130.62 176.995 130.583 177.135 130.423L178.488 128.877C178.627 128.717 178.638 128.496 178.511 128.382L178.511 128.382ZM174.114 128.231C174.117 128.365 174.071 128.5 174.021 128.607C173.972 128.712 173.906 128.81 173.829 128.898L173.579 129.183L172.095 130.879L171.93 131.067L171.7 131.33L170.973 132.161L166.887 136.83L166.76 136.717C166.688 136.652 166.694 136.525 166.773 136.434L170.743 131.898L171.47 131.067L171.7 130.805L171.865 130.616L173.577 128.659C173.812 128.392 173.829 128.02 173.616 127.83L173.567 127.785C173.606 127.705 173.625 127.621 173.623 127.542C173.622 127.499 173.672 127.465 173.703 127.488C174.18 127.85 174.109 127.946 174.114 128.231H174.114ZM174.064 125.279L173.902 125.133C173.854 125.091 173.774 125.105 173.722 125.164L172.593 126.455L172.484 126.358C172.459 126.335 172.461 126.292 172.489 126.261L173.842 124.714C173.869 124.683 173.912 124.676 173.937 124.698L174.501 125.203C174.374 125.348 174.179 125.381 174.064 125.279V125.279ZM176.057 125.836C176.135 125.779 176.231 125.776 176.29 125.828L176.914 126.388C176.973 126.441 176.982 126.537 176.935 126.623L176.841 126.795L175.899 125.951L176.057 125.836ZM178.119 128.808L176.894 130.208C176.867 130.239 176.824 130.246 176.799 130.224L175.775 129.307C175.758 129.291 175.74 129.278 175.721 129.267C175.797 129.181 175.897 129.135 175.99 129.135C176.049 129.135 176.106 129.154 176.15 129.193L176.777 129.756C176.847 129.818 176.964 129.797 177.041 129.71L178.135 128.46C178.225 128.54 178.217 128.696 178.119 128.808H178.119Z" fill="#2C4662"/>
<path d="M172.809 131.695L172.094 130.879L171.93 131.067L172.641 131.88L172.656 131.897L172.821 131.709L172.809 131.695ZM171.698 130.426L171.577 130.568L171.535 130.616L171.536 130.616L171.7 130.804L171.865 130.616L171.7 130.428L171.699 130.426H171.698ZM172.408 132.139L171.7 131.33L170.973 132.16L171.669 132.956L171.7 132.991L172.427 132.16L172.408 132.139H172.408ZM171.308 130.882L171.305 130.879L170.579 131.709L170.59 131.722L170.743 131.897L171.47 131.067L171.308 130.882ZM176.811 136.268L172.968 131.877L172.923 131.93L172.882 131.979L172.806 132.068L176.626 136.434C176.706 136.525 176.712 136.652 176.64 136.717L176.513 136.83L172.578 132.334L171.936 133.084L171.86 133.173L175.554 137.395C175.746 137.614 176.044 137.665 176.218 137.509L176.843 136.949C177.017 136.793 177.003 136.488 176.811 136.268L176.811 136.268ZM169.822 128.659L171.374 130.431L171.541 130.246L170.007 128.493C169.885 128.354 169.876 128.161 169.987 128.062L170.115 127.946C170.165 127.901 170.161 127.814 170.106 127.751C170.07 127.709 170.051 127.659 170.051 127.612C170.051 127.571 170.065 127.533 170.095 127.507L171.119 126.589C171.245 126.476 171.235 126.254 171.095 126.095L169.742 124.548C169.603 124.389 169.386 124.352 169.26 124.465L168.236 125.382C168.173 125.439 168.066 125.42 167.997 125.341C167.942 125.279 167.857 125.264 167.807 125.309L167.466 125.614C167.282 125.479 167.052 125.465 166.907 125.595L166.282 126.155C166.137 126.285 166.122 126.518 166.232 126.719L165.892 127.025C165.842 127.069 165.846 127.156 165.901 127.219C165.938 127.261 165.956 127.312 165.956 127.358C165.956 127.4 165.942 127.438 165.912 127.464L164.889 128.382C164.762 128.495 164.772 128.717 164.912 128.876L166.265 130.423C166.405 130.582 166.621 130.62 166.748 130.506L167.771 129.589C167.834 129.532 167.941 129.551 168.01 129.63C168.044 129.668 168.088 129.688 168.129 129.688C168.156 129.688 168.181 129.68 168.2 129.662L168.329 129.547C168.44 129.448 168.628 129.48 168.75 129.62L170.402 131.507L171.14 130.69L169.821 129.183L169.571 128.898C169.494 128.809 169.428 128.711 169.379 128.607C169.329 128.5 169.283 128.364 169.286 128.23C169.291 127.946 169.22 127.85 169.697 127.488C169.728 127.464 169.778 127.498 169.777 127.541C169.775 127.621 169.794 127.705 169.833 127.785L169.784 127.829C169.571 128.02 169.589 128.391 169.823 128.659H169.822ZM166.485 126.387L167.11 125.828C167.169 125.775 167.265 125.778 167.343 125.835L167.5 125.951L166.559 126.794L166.465 126.622C166.418 126.537 166.426 126.44 166.485 126.387ZM167.624 129.306L166.6 130.223C166.576 130.245 166.533 130.238 166.506 130.207L165.281 128.808C165.183 128.695 165.175 128.539 165.265 128.459L166.359 129.71C166.436 129.797 166.553 129.817 166.623 129.755L167.25 129.193C167.363 129.092 167.555 129.125 167.679 129.266C167.66 129.278 167.641 129.291 167.624 129.306ZM169.677 125.164C169.626 125.104 169.545 125.09 169.498 125.133L169.335 125.278C169.221 125.381 169.025 125.347 168.899 125.203L169.463 124.698C169.488 124.675 169.53 124.683 169.558 124.714L170.911 126.26C170.938 126.292 170.94 126.335 170.915 126.357L170.807 126.454L169.677 125.164V125.164Z" fill="#2C4662"/>
</g>
<circle cx="171.938" cy="161.444" r="2.55556" fill="white"/>
</g>
<defs>
<linearGradient id="paint0_linear_1210_413" x1="88.6481" y1="145.833" x2="107.933" y2="266.243" gradientUnits="userSpaceOnUse">
<stop stop-color="#2C4662"/>
<stop offset="1" stop-color="#2C4662" stop-opacity="0"/>
</linearGradient>
<clipPath id="clip0_1210_413">
<rect width="285" height="256" rx="30" fill="white"/>
</clipPath>
<clipPath id="clip1_1210_413">
<rect width="13.8" height="13.2" fill="white" transform="translate(164.8 124.4)"/>
</clipPath>
</defs>
</svg>
