<svg width="285" height="256" viewBox="0 0 285 256" fill="none" xmlns="http://www.w3.org/2000/svg">
<g clip-path="url(#clip0_1210_461)">
<rect x="-97.8638" y="63.1533" width="350.987" height="245.598" transform="rotate(-30 -97.8638 63.1533)" fill="url(#paint0_linear_1210_461)"/>
<mask id="path-3-inside-1_1210_461" fill="white">
<path fill-rule="evenodd" clip-rule="evenodd" d="M118.314 173.207C118.47 172.946 118.737 172.771 119.038 172.723C129.784 171.026 138 161.723 138 150.5C138 138.074 127.926 128 115.5 128C103.074 128 93 138.074 93 150.5C93 162.043 101.692 171.556 112.888 172.85C113.205 172.887 113.491 173.065 113.655 173.339L115.086 175.738C115.474 176.389 116.416 176.389 116.804 175.738L118.314 173.207Z"/>
</mask>
<path fill-rule="evenodd" clip-rule="evenodd" d="M118.314 173.207C118.47 172.946 118.737 172.771 119.038 172.723C129.784 171.026 138 161.723 138 150.5C138 138.074 127.926 128 115.5 128C103.074 128 93 138.074 93 150.5C93 162.043 101.692 171.556 112.888 172.85C113.205 172.887 113.491 173.065 113.655 173.339L115.086 175.738C115.474 176.389 116.416 176.389 116.804 175.738L118.314 173.207Z" fill="white"/>
<path d="M115.086 175.738L114.657 175.994L115.086 175.738ZM116.804 175.738L116.374 175.482L116.804 175.738ZM112.888 172.85L112.945 172.353L112.888 172.85ZM113.655 173.339L113.225 173.595L113.655 173.339ZM119.038 172.723L118.96 172.23L119.038 172.723ZM118.314 173.207L117.884 172.951L118.314 173.207ZM137.5 150.5C137.5 161.473 129.466 170.57 118.96 172.23L119.116 173.217C130.101 171.482 138.5 161.973 138.5 150.5H137.5ZM115.5 128.5C127.65 128.5 137.5 138.35 137.5 150.5H138.5C138.5 137.797 128.203 127.5 115.5 127.5V128.5ZM93.5 150.5C93.5 138.35 103.35 128.5 115.5 128.5V127.5C102.797 127.5 92.5 137.797 92.5 150.5H93.5ZM112.945 172.353C101.999 171.088 93.5 161.786 93.5 150.5H92.5C92.5 162.3 101.385 172.023 112.83 173.347L112.945 172.353ZM115.515 175.482L114.084 173.083L113.225 173.595L114.657 175.994L115.515 175.482ZM117.884 172.951L116.374 175.482L117.233 175.994L118.743 173.463L117.884 172.951ZM114.657 175.994C115.239 176.97 116.651 176.97 117.233 175.994L116.374 175.482C116.18 175.807 115.709 175.807 115.515 175.482L114.657 175.994ZM112.83 173.347C113 173.366 113.145 173.461 113.225 173.595L114.084 173.083C113.837 172.669 113.41 172.407 112.945 172.353L112.83 173.347ZM118.96 172.23C118.519 172.299 118.12 172.557 117.884 172.951L118.743 173.463C118.82 173.335 118.956 173.243 119.116 173.217L118.96 172.23Z" fill="white" mask="url(#path-3-inside-1_1210_461)"/>
<path d="M128.387 150.999C128.387 150.477 128.355 149.961 128.293 149.455C128.273 149.292 128.359 149.135 128.505 149.06L130.119 148.233C130.279 148.151 130.362 147.972 130.323 147.796C130.163 147.056 129.947 146.337 129.681 145.642C129.617 145.474 129.449 145.37 129.27 145.389L127.467 145.582C127.305 145.599 127.147 145.514 127.074 145.368C126.522 144.253 125.812 143.23 124.973 142.33C124.861 142.21 124.838 142.033 124.912 141.886L125.731 140.27C125.812 140.11 125.774 139.916 125.639 139.797C125.08 139.298 124.483 138.841 123.854 138.431C123.703 138.332 123.505 138.346 123.372 138.466L122.029 139.681C121.908 139.791 121.73 139.815 121.586 139.739C120.507 139.171 119.336 138.753 118.1 138.513C117.939 138.482 117.815 138.352 117.79 138.19L117.502 136.403C117.474 136.226 117.329 136.091 117.15 136.073C116.662 136.025 116.167 136 115.666 136C115.409 136 115.154 136.007 114.9 136.02C114.721 136.029 114.57 136.157 114.533 136.332L114.16 138.104C114.127 138.264 113.997 138.388 113.834 138.411C112.586 138.591 111.398 138.953 110.294 139.467C110.146 139.537 109.969 139.504 109.854 139.388L108.57 138.11C108.442 137.983 108.246 137.96 108.091 138.051C107.442 138.432 106.824 138.86 106.242 139.33C106.102 139.443 106.054 139.635 106.128 139.799L106.868 141.453C106.935 141.603 106.904 141.779 106.787 141.893C105.904 142.754 105.146 143.741 104.543 144.827C104.463 144.971 104.301 145.048 104.14 145.022L102.348 144.742C102.171 144.715 101.998 144.811 101.926 144.976C101.627 145.658 101.376 146.366 101.18 147.097C101.133 147.27 101.207 147.454 101.363 147.543L102.936 148.447C103.078 148.528 103.155 148.69 103.128 148.852C103.009 149.551 102.946 150.268 102.946 151.001C102.946 151.523 102.978 152.039 103.04 152.545C103.059 152.708 102.973 152.865 102.828 152.94L101.214 153.767C101.054 153.849 100.971 154.028 101.009 154.204C101.17 154.944 101.386 155.663 101.652 156.358C101.716 156.526 101.884 156.63 102.062 156.611L103.865 156.418C104.028 156.401 104.186 156.486 104.259 156.632C104.811 157.747 105.52 158.77 106.36 159.67C106.472 159.79 106.494 159.967 106.421 160.114L105.602 161.73C105.52 161.89 105.559 162.084 105.693 162.203C106.252 162.702 106.849 163.159 107.479 163.569C107.629 163.668 107.827 163.654 107.96 163.534L109.303 162.319C109.425 162.209 109.602 162.185 109.747 162.261C110.826 162.829 111.997 163.247 113.232 163.487C113.394 163.518 113.517 163.648 113.543 163.81L113.83 165.597C113.859 165.774 114.003 165.909 114.182 165.927C114.67 165.975 115.165 166 115.667 166C115.923 166 116.179 165.993 116.433 165.98C116.612 165.971 116.763 165.843 116.8 165.668L117.172 163.896C117.206 163.736 117.336 163.612 117.498 163.589C118.746 163.409 119.935 163.047 121.038 162.533C121.187 162.463 121.363 162.496 121.479 162.612L122.762 163.89C122.89 164.017 123.087 164.04 123.242 163.949C123.891 163.568 124.509 163.14 125.091 162.67C125.231 162.557 125.278 162.365 125.205 162.201L124.465 160.547C124.398 160.397 124.429 160.221 124.546 160.107C125.428 159.246 126.187 158.259 126.79 157.173C126.869 157.029 127.031 156.952 127.193 156.978L128.984 157.258C129.162 157.285 129.334 157.189 129.407 157.024C129.707 156.342 129.956 155.634 130.153 154.903C130.2 154.73 130.125 154.546 129.969 154.457L128.397 153.553C128.255 153.472 128.177 153.31 128.205 153.148C128.324 152.449 128.387 151.732 128.387 150.999ZM119.152 160.214C111.077 163.008 103.657 155.588 106.451 147.514C107.38 144.83 109.498 142.713 112.181 141.784C120.255 138.99 127.676 146.41 124.881 154.484C123.953 157.168 121.835 159.285 119.152 160.214Z" fill="#2C4662"/>
<g clip-path="url(#clip1_1210_461)">
<path d="M122.511 148.382L121.487 147.465C121.425 147.409 121.43 147.299 121.499 147.22C121.528 147.187 121.543 147.146 121.543 147.109C121.543 147.077 121.531 147.046 121.508 147.025L121.167 146.72C121.277 146.519 121.263 146.286 121.118 146.156L120.493 145.596C120.348 145.466 120.117 145.48 119.934 145.615L119.593 145.31C119.543 145.265 119.458 145.279 119.403 145.342C119.334 145.421 119.227 145.44 119.164 145.383L118.14 144.466C118.013 144.352 117.797 144.389 117.657 144.549L116.304 146.095C116.165 146.255 116.154 146.476 116.281 146.59L117.305 147.507C117.368 147.563 117.363 147.673 117.293 147.752C117.264 147.785 117.249 147.826 117.249 147.863C117.249 147.896 117.261 147.926 117.284 147.947L117.413 148.062C117.524 148.161 117.515 148.355 117.393 148.494L115.7 150.428L115.577 150.569L115.535 150.616L115.305 150.879L114.578 151.71L110.589 156.269C110.396 156.488 110.382 156.793 110.557 156.949L111.182 157.509C111.356 157.666 111.653 157.614 111.846 157.395L115.7 152.991L116.426 152.161L116.656 151.898L116.821 151.709L118.649 149.62C118.771 149.481 118.96 149.448 119.071 149.547L119.199 149.663C119.249 149.708 119.335 149.693 119.389 149.63C119.431 149.582 119.487 149.556 119.539 149.556C119.572 149.556 119.604 149.567 119.628 149.589L120.652 150.506C120.779 150.62 120.995 150.583 121.135 150.423L122.488 148.877C122.627 148.717 122.638 148.496 122.511 148.382L122.511 148.382ZM118.114 148.231C118.117 148.365 118.071 148.5 118.021 148.607C117.972 148.712 117.906 148.81 117.829 148.898L117.579 149.183L116.095 150.879L115.93 151.067L115.7 151.33L114.973 152.161L110.887 156.83L110.76 156.717C110.688 156.652 110.694 156.525 110.773 156.434L114.743 151.898L115.47 151.067L115.7 150.805L115.865 150.616L117.577 148.659C117.812 148.392 117.829 148.02 117.616 147.83L117.567 147.785C117.606 147.705 117.625 147.621 117.623 147.542C117.622 147.499 117.672 147.465 117.703 147.488C118.18 147.85 118.109 147.946 118.114 148.231H118.114ZM118.064 145.279L117.902 145.133C117.854 145.091 117.774 145.105 117.722 145.164L116.593 146.455L116.484 146.358C116.459 146.335 116.461 146.292 116.489 146.261L117.842 144.714C117.869 144.683 117.912 144.676 117.937 144.698L118.501 145.203C118.374 145.348 118.179 145.381 118.064 145.279V145.279ZM120.057 145.836C120.135 145.779 120.231 145.776 120.29 145.828L120.914 146.388C120.973 146.441 120.982 146.537 120.935 146.623L120.841 146.795L119.899 145.951L120.057 145.836ZM122.119 148.808L120.894 150.208C120.867 150.239 120.824 150.246 120.799 150.224L119.775 149.307C119.758 149.291 119.74 149.278 119.721 149.267C119.797 149.181 119.897 149.135 119.99 149.135C120.049 149.135 120.106 149.154 120.15 149.193L120.777 149.756C120.847 149.818 120.964 149.797 121.041 149.71L122.135 148.46C122.225 148.54 122.217 148.696 122.119 148.808H122.119Z" fill="#2C4662"/>
<path d="M116.809 151.695L116.094 150.879L115.93 151.067L116.641 151.88L116.656 151.897L116.821 151.709L116.809 151.695ZM115.698 150.426L115.577 150.568L115.535 150.616L115.536 150.616L115.7 150.804L115.865 150.616L115.7 150.428L115.699 150.426H115.698ZM116.408 152.139L115.7 151.33L114.973 152.16L115.669 152.956L115.7 152.991L116.427 152.16L116.408 152.139H116.408ZM115.308 150.882L115.305 150.879L114.579 151.709L114.59 151.722L114.743 151.897L115.47 151.067L115.308 150.882ZM120.811 156.268L116.968 151.877L116.923 151.93L116.882 151.979L116.806 152.068L120.626 156.434C120.706 156.525 120.712 156.652 120.64 156.717L120.513 156.83L116.578 152.334L115.936 153.084L115.86 153.173L119.554 157.395C119.746 157.614 120.044 157.665 120.218 157.509L120.843 156.949C121.017 156.793 121.003 156.488 120.811 156.268L120.811 156.268ZM113.822 148.659L115.374 150.431L115.541 150.246L114.007 148.493C113.885 148.354 113.876 148.161 113.987 148.062L114.115 147.946C114.165 147.901 114.161 147.814 114.106 147.751C114.07 147.709 114.051 147.659 114.051 147.612C114.051 147.571 114.065 147.533 114.095 147.507L115.119 146.589C115.245 146.476 115.235 146.254 115.095 146.095L113.742 144.548C113.603 144.389 113.386 144.352 113.26 144.465L112.236 145.382C112.173 145.439 112.066 145.42 111.997 145.341C111.942 145.279 111.857 145.264 111.807 145.309L111.466 145.614C111.282 145.479 111.052 145.465 110.907 145.595L110.282 146.155C110.137 146.285 110.122 146.518 110.232 146.719L109.892 147.025C109.842 147.069 109.846 147.156 109.901 147.219C109.938 147.261 109.956 147.312 109.956 147.358C109.956 147.4 109.942 147.438 109.912 147.464L108.889 148.382C108.762 148.495 108.772 148.717 108.912 148.876L110.265 150.423C110.405 150.582 110.621 150.62 110.748 150.506L111.771 149.589C111.834 149.532 111.941 149.551 112.01 149.63C112.044 149.668 112.088 149.688 112.129 149.688C112.156 149.688 112.181 149.68 112.2 149.662L112.329 149.547C112.44 149.448 112.628 149.48 112.75 149.62L114.402 151.507L115.14 150.69L113.821 149.183L113.571 148.898C113.494 148.809 113.428 148.711 113.379 148.607C113.329 148.5 113.283 148.364 113.286 148.23C113.291 147.946 113.22 147.85 113.697 147.488C113.728 147.464 113.778 147.498 113.777 147.541C113.775 147.621 113.794 147.705 113.833 147.785L113.784 147.829C113.571 148.02 113.589 148.391 113.823 148.659H113.822ZM110.485 146.387L111.11 145.828C111.169 145.775 111.265 145.778 111.343 145.835L111.5 145.951L110.559 146.794L110.465 146.622C110.418 146.537 110.426 146.44 110.485 146.387ZM111.624 149.306L110.6 150.223C110.576 150.245 110.533 150.238 110.506 150.207L109.281 148.808C109.183 148.695 109.175 148.539 109.265 148.459L110.359 149.71C110.436 149.797 110.553 149.817 110.623 149.755L111.25 149.193C111.363 149.092 111.555 149.125 111.679 149.266C111.66 149.278 111.641 149.291 111.624 149.306ZM113.677 145.164C113.626 145.104 113.545 145.09 113.498 145.133L113.335 145.278C113.221 145.381 113.025 145.347 112.899 145.203L113.463 144.698C113.488 144.675 113.53 144.683 113.558 144.714L114.911 146.26C114.938 146.292 114.94 146.335 114.915 146.357L114.807 146.454L113.677 145.164V145.164Z" fill="#2C4662"/>
</g>
<circle cx="115.938" cy="181.444" r="2.55556" fill="white"/>
</g>
<defs>
<linearGradient id="paint0_linear_1210_461" x1="88.6481" y1="145.833" x2="107.933" y2="266.243" gradientUnits="userSpaceOnUse">
<stop stop-color="#2C4662"/>
<stop offset="1" stop-color="#2C4662" stop-opacity="0"/>
</linearGradient>
<clipPath id="clip0_1210_461">
<rect width="285" height="256" rx="30" fill="white"/>
</clipPath>
<clipPath id="clip1_1210_461">
<rect width="13.8" height="13.2" fill="white" transform="translate(108.8 144.4)"/>
</clipPath>
</defs>
</svg>
