<svg width="169" height="50" viewBox="0 0 169 50" fill="none" xmlns="http://www.w3.org/2000/svg">
<path d="M45.6449 24.9989C45.6449 24.1279 45.5908 23.2689 45.4883 22.4244C45.4552 22.1531 45.5986 21.8918 45.8411 21.7672L48.5314 20.389C48.7983 20.2523 48.9361 19.9535 48.8721 19.6602C48.6042 18.4264 48.2448 17.2279 47.8015 16.0702C47.6946 15.7901 47.4145 15.6159 47.1168 15.6479L44.1123 15.9698C43.841 15.9985 43.5775 15.8574 43.4562 15.6126C42.5367 13.7547 41.3536 12.0501 39.9544 10.5495C39.7681 10.35 39.7306 10.0545 39.853 9.8108L41.218 7.11718C41.3536 6.85036 41.2897 6.5262 41.0658 6.32773C40.1341 5.49749 39.1385 4.7356 38.09 4.0509C37.8386 3.88661 37.5089 3.90977 37.2873 4.11044L35.049 6.13478C34.8462 6.31781 34.5507 6.3586 34.3092 6.23181C32.5109 5.28469 30.5593 4.58785 28.5008 4.18872C28.2317 4.1369 28.0256 3.92079 27.9826 3.65066L27.504 0.671474C27.4566 0.375981 27.2152 0.151054 26.9175 0.122387C26.1038 0.0418982 25.279 0 24.4433 0C24.0155 0 23.5899 0.0110258 23.1665 0.0330775C22.8677 0.0485137 22.6163 0.261313 22.5545 0.553497L21.9338 3.50622C21.8776 3.77415 21.6614 3.98033 21.3902 4.01892C19.3107 4.31882 17.3294 4.92083 15.4903 5.77865C15.2433 5.89442 14.9489 5.83929 14.756 5.64634L12.6169 3.51724C12.4041 3.30555 12.0767 3.26696 11.8176 3.41911C10.7359 4.0531 9.70612 4.76647 8.73585 5.55041C8.5032 5.73895 8.42381 6.0587 8.5462 6.33214L9.77999 9.0886C9.89135 9.33779 9.83953 9.63107 9.64438 9.82182C8.17353 11.2563 6.90997 12.9024 5.90441 14.7118C5.7721 14.951 5.50197 15.08 5.23293 15.037L2.24714 14.5707C1.95164 14.5243 1.66387 14.6853 1.54258 14.9599C1.04422 16.0966 0.627439 17.2764 0.299971 18.4948C0.221688 18.7836 0.345177 19.0901 0.605387 19.239L3.22623 20.7451C3.46329 20.8807 3.59229 21.1498 3.54598 21.4199C3.34751 22.5842 3.24277 23.7805 3.24277 25.0011C3.24277 25.8721 3.2968 26.7311 3.39934 27.5756C3.43241 27.8469 3.28908 28.1082 3.04651 28.2328L0.356203 29.611C0.0893772 29.7477 -0.0484459 30.0465 0.015504 30.3398C0.283432 31.5736 0.642875 32.7721 1.08611 33.9298C1.19306 34.2099 1.47312 34.3841 1.77082 34.3521L4.77536 34.0302C5.0466 34.0015 5.31011 34.1426 5.4314 34.3874C6.35096 36.2453 7.53403 37.9499 8.93321 39.4505C9.11955 39.65 9.15703 39.9455 9.03465 40.1892L7.66965 42.8828C7.53403 43.1496 7.59798 43.4738 7.8218 43.6723C8.75349 44.5025 9.74912 45.2644 10.7977 45.9491C11.0491 46.1134 11.3787 46.0902 11.6004 45.8896L13.8386 43.8652C14.0415 43.6822 14.337 43.6414 14.5784 43.7682C16.3768 44.7153 18.3283 45.4121 20.3869 45.8113C20.6559 45.8631 20.8621 46.0792 20.9051 46.3493L21.3836 49.3285C21.431 49.624 21.6725 49.8489 21.9702 49.8776C22.7839 49.9581 23.6086 50 24.4444 50C24.8722 50 25.2978 49.989 25.7212 49.9669C26.02 49.9515 26.2714 49.7387 26.3331 49.4465L26.9539 46.4938C27.0101 46.2259 27.2262 46.0197 27.4974 45.9811C29.5769 45.6812 31.5582 45.0792 33.3974 44.2214C33.6443 44.1056 33.9387 44.1607 34.1317 44.3537L36.2707 46.4828C36.4835 46.6945 36.811 46.733 37.0701 46.5809C38.1517 45.9469 39.1815 45.2335 40.1518 44.4496C40.3844 44.261 40.4638 43.9413 40.3414 43.6679L39.1076 40.9114C38.9963 40.6622 39.0481 40.3689 39.2433 40.1782C40.7141 38.7437 41.9777 37.0976 42.9832 35.2882C43.1155 35.049 43.3846 34.92 43.6547 34.963L46.6405 35.4293C46.936 35.4757 47.2238 35.3147 47.3451 35.0401C47.8445 33.9034 48.2602 32.7236 48.5877 31.5052C48.6659 31.2164 48.5425 30.9099 48.2822 30.761L45.6614 29.2549C45.4243 29.1193 45.2953 28.8502 45.3417 28.5801C45.5401 27.4158 45.6449 26.2195 45.6449 24.9989ZM30.2528 40.3568C16.7957 45.0141 4.42805 32.6464 9.08536 19.1894C10.6334 14.7173 14.1628 11.1879 18.6349 9.6399C32.0919 4.98258 44.4596 17.3503 39.8023 30.8073C38.2542 35.2794 34.7249 38.8088 30.2528 40.3568Z" fill="white"/>
<g clip-path="url(#clip0_3101_454)">
<path d="M35.8523 20.637L34.1457 19.1081C34.0412 19.0145 34.0496 18.8318 34.1648 18.7007C34.2135 18.6448 34.2386 18.5776 34.2386 18.5159C34.2386 18.4613 34.2192 18.4108 34.1803 18.3758L33.6125 17.867C33.7959 17.5317 33.7718 17.1434 33.5301 16.9267L32.4887 15.9936C32.2466 15.7767 31.8626 15.7996 31.5562 16.0244L30.9884 15.516C30.9049 15.4412 30.7634 15.4658 30.6714 15.5707C30.5564 15.702 30.3786 15.7329 30.2739 15.6391L28.5671 14.1095C28.3556 13.9204 27.9956 13.9823 27.7627 14.2482L25.5075 16.8254C25.2748 17.0915 25.2573 17.4608 25.4688 17.6499L27.1752 19.1788C27.2796 19.2726 27.2712 19.4551 27.156 19.5867C27.1074 19.6426 27.0826 19.7097 27.0826 19.7717C27.0826 19.8263 27.1018 19.8765 27.1407 19.9116L27.3553 20.1038C27.5395 20.269 27.5247 20.5912 27.3215 20.8233L24.4999 24.0473L24.2947 24.2817L24.2254 24.3609L23.8421 24.799L22.6309 26.1828L15.9815 33.7811C15.661 34.1471 15.6371 34.6553 15.9281 34.9159L16.9695 35.8491C17.2603 36.1095 17.7561 36.0242 18.0764 35.6581L24.4997 28.3183L25.7109 26.9345L26.0942 26.4962L26.3687 26.1826L29.4162 22.7004C29.6194 22.4681 29.9334 22.4141 30.1181 22.5793L30.3324 22.7715C30.4159 22.8462 30.5579 22.8218 30.6494 22.7169C30.7195 22.6366 30.8128 22.5943 30.899 22.5943C30.9542 22.5943 31.0063 22.6118 31.0471 22.6483L32.7535 24.1772C32.9652 24.3667 33.325 24.3046 33.5579 24.0385L35.8133 21.4613C36.046 21.1955 36.0635 20.8264 35.8521 20.6368L35.8523 20.637ZM28.5242 20.3849C28.529 20.6081 28.4525 20.8337 28.369 21.0126C28.2872 21.1867 28.1767 21.35 28.0479 21.4972L27.6321 21.9724L25.1582 24.799L24.8837 25.1126L24.5004 25.5508L23.2892 26.9348L16.478 34.7176L16.2671 34.5291C16.1462 34.4205 16.1563 34.2092 16.2894 34.0568L22.9056 26.4964L24.1168 25.1126L24.5001 24.6745L24.7747 24.3609L27.6294 21.0991C28.0195 20.6531 28.0486 20.034 27.6943 19.7166L27.6112 19.6424C27.677 19.5093 27.7083 19.3692 27.7054 19.2366C27.704 19.165 27.7872 19.1083 27.8384 19.1469C28.633 19.7508 28.5147 19.9103 28.5244 20.3849H28.5242ZM28.4407 15.4649L28.1697 15.2222C28.091 15.1515 27.9573 15.1747 27.8707 15.2735L25.9883 17.4247L25.8076 17.2629C25.7661 17.2257 25.7694 17.1532 25.8152 17.1013L28.0704 14.5239C28.1162 14.4719 28.1866 14.4596 28.2283 14.4968L29.1684 15.339C28.9576 15.5796 28.6318 15.6359 28.4407 15.4645V15.4649ZM31.7614 16.3931C31.8917 16.2978 32.0512 16.2928 32.1495 16.3806L33.1907 17.3135C33.289 17.4015 33.3032 17.5625 33.2253 17.7047L33.0682 17.9912L31.4993 16.5856L31.7614 16.3931ZM35.1979 21.3473L33.1571 23.6797C33.1113 23.7316 33.0408 23.7439 32.9994 23.7068L31.2928 22.1778C31.2644 22.1526 31.2341 22.1309 31.2021 22.1122C31.328 21.9685 31.4956 21.8917 31.6502 21.8917C31.7493 21.8917 31.843 21.9232 31.9164 21.9891L32.9625 22.9262C33.0779 23.0297 33.2743 22.9957 33.4013 22.8508L35.2254 20.7663C35.3746 20.8998 35.3622 21.1598 35.1982 21.3473H35.1979Z" fill="white"/>
<path d="M26.3482 26.1588L25.1578 24.7988L24.8833 25.1124L26.0691 26.4674L26.0945 26.4962L26.369 26.1826L26.3482 26.1588ZM24.4977 24.0443L24.2949 24.2814L24.2257 24.3607L24.2263 24.3615L24.5002 24.6743L24.7747 24.3607L24.5002 24.047L24.4979 24.0443H24.4977ZM25.6798 26.8986L24.5002 25.5505L23.289 26.9345L24.4491 28.2601L24.5002 28.3183L25.7114 26.9345L25.68 26.8986H25.6798ZM23.8473 24.8048L23.8423 24.799L22.6312 26.1828L22.6503 26.2045L22.9057 26.4964L24.1169 25.1126L23.8473 24.8048ZM33.0186 33.7811L26.6142 26.463L26.5386 26.5514L26.47 26.6317L26.3432 26.78L32.7111 34.0567C32.8445 34.2092 32.8544 34.4202 32.7334 34.5291L32.5226 34.7176L25.9638 27.2235L24.8938 28.4745L24.7667 28.623L30.9235 35.6582C31.2438 36.0244 31.7396 36.1097 32.0304 35.8492L33.0718 34.9161C33.3626 34.6552 33.3389 34.147 33.0184 33.7813L33.0186 33.7811ZM21.3709 21.0989L23.9563 24.0529L24.2351 23.7443L21.6784 20.8228C21.4752 20.5909 21.4604 20.2685 21.6446 20.1034L21.8592 19.9111C21.9426 19.8365 21.9354 19.6911 21.8439 19.5862C21.7829 19.5164 21.7518 19.4321 21.7518 19.3544C21.7518 19.286 21.7759 19.2226 21.825 19.1786L23.5314 17.6496C23.7428 17.4605 23.7253 17.0912 23.4926 16.8251L21.2374 14.2479C21.0047 13.9821 20.6445 13.9201 20.433 14.1093L18.7264 15.6382C18.6219 15.732 18.4441 15.7012 18.3289 15.5698C18.237 15.4649 18.0952 15.4403 18.0119 15.5152L17.4441 16.0236C17.1377 15.7988 16.7538 15.7758 16.5116 15.9927L15.4702 16.9258C15.2283 17.1427 15.2044 17.5308 15.3878 17.8661L14.82 18.3749C14.7368 18.4496 14.7434 18.5949 14.8353 18.6998C14.8963 18.7696 14.9274 18.8539 14.9274 18.9315C14.9274 19.0001 14.9033 19.0632 14.8542 19.1072L13.1478 20.6368C12.9364 20.8263 12.9539 21.1954 13.1866 21.4613L15.442 24.0385C15.6747 24.3046 16.0347 24.3667 16.2464 24.1772L17.9528 22.6482C18.0573 22.5546 18.2355 22.5853 18.3505 22.7168C18.4064 22.7807 18.4808 22.8146 18.5492 22.8146C18.5933 22.8146 18.6349 22.8007 18.6675 22.7715L18.8818 22.5792C19.0665 22.4141 19.3805 22.4681 19.5838 22.7004L22.3363 25.8458L23.5668 24.4843L21.3685 21.9722L20.9526 21.497C20.8238 21.3497 20.7133 21.1863 20.6315 21.0124C20.5478 20.8336 20.4716 20.6078 20.4763 20.3847C20.486 19.9101 20.3677 19.7506 21.1624 19.1467C21.2135 19.1081 21.2968 19.1648 21.2953 19.2363C21.2924 19.3687 21.3237 19.5091 21.3895 19.6421L21.3064 19.7164C20.9522 20.0339 20.9812 20.6528 21.3714 21.0989H21.3709ZM15.8095 17.3131L16.8506 16.3801C16.9489 16.2921 17.1084 16.2973 17.2387 16.3926L17.5008 16.5851L15.9319 17.9908L15.7748 17.7043C15.6971 17.5621 15.7112 17.4011 15.8095 17.3131ZM17.7075 22.1772L16.0009 23.7061C15.9595 23.7432 15.889 23.7311 15.8433 23.679L13.8024 21.3466C13.6383 21.1592 13.626 20.8991 13.7752 20.7657L15.5993 22.8501C15.7264 22.995 15.9228 23.0288 16.038 22.9256L17.0841 21.9885C17.2717 21.82 17.5917 21.8752 17.7982 22.1115C17.7663 22.1303 17.736 22.1519 17.7075 22.1772ZM21.1294 15.2733C21.0429 15.1744 20.9089 15.1513 20.8304 15.222L20.5594 15.4647C20.3683 15.6361 20.0425 15.5796 19.8317 15.3392L20.7718 14.4969C20.8135 14.4598 20.884 14.4719 20.9297 14.524L23.1849 17.1014C23.2307 17.1534 23.234 17.2259 23.1926 17.263L23.0118 17.4249L21.1294 15.2737V15.2733Z" fill="white"/>
</g>
<path d="M72.7587 6.864C75.2867 6.864 77.3747 7.704 79.0227 9.384C80.6707 11.032 81.4947 13.104 81.4947 15.6C81.4947 18.08 80.6707 20.152 79.0227 21.816C77.3747 23.496 75.2867 24.336 72.7587 24.336C71.2387 24.336 69.8387 23.984 68.5587 23.28C67.2787 22.56 66.2787 21.592 65.5587 20.376L68.4147 18.72C68.8147 19.456 69.3987 20.04 70.1667 20.472C70.9507 20.888 71.8147 21.096 72.7587 21.096C74.1027 21.096 75.2387 20.744 76.1667 20.04C77.1107 19.32 77.7267 18.352 78.0147 17.136H70.5267V14.04H78.0147C77.7267 12.824 77.1107 11.864 76.1667 11.16C75.2387 10.44 74.1027 10.08 72.7587 10.08C71.8147 10.08 70.9587 10.296 70.1907 10.728C69.4227 11.144 68.8307 11.728 68.4147 12.48L65.5587 10.824C66.2787 9.608 67.2787 8.648 68.5587 7.944C69.8547 7.224 71.2547 6.864 72.7587 6.864ZM90.4859 15.36L96.9419 24H93.1259L87.1259 16.128V24H83.8139V7.2H87.1259V14.616L92.8859 7.2H96.7019L90.4859 15.36ZM105.118 24.336C102.606 24.336 100.518 23.496 98.8538 21.816C97.2058 20.152 96.3818 18.08 96.3818 15.6C96.3818 13.104 97.2058 11.032 98.8538 9.384C100.518 7.704 102.606 6.864 105.118 6.864C106.638 6.864 108.038 7.224 109.318 7.944C110.614 8.648 111.622 9.608 112.342 10.824L109.486 12.48C109.07 11.728 108.478 11.144 107.71 10.728C106.942 10.296 106.078 10.08 105.118 10.08C103.486 10.08 102.166 10.592 101.158 11.616C100.166 12.656 99.6698 13.984 99.6698 15.6C99.6698 17.2 100.166 18.52 101.158 19.56C102.166 20.584 103.486 21.096 105.118 21.096C106.078 21.096 106.942 20.888 107.71 20.472C108.494 20.04 109.086 19.456 109.486 18.72L112.342 20.376C111.622 21.592 110.614 22.56 109.318 23.28C108.038 23.984 106.638 24.336 105.118 24.336ZM114.376 7.2H126.928V24H123.616V10.368H117.688V24H114.376V7.2ZM133.368 17.064V20.832H140.448V24H130.056V7.2H140.328V10.368H133.368V13.944H139.728V17.064H133.368ZM142.783 7.2H149.047C150.647 7.2 152.007 7.744 153.127 8.832C154.231 9.92 154.783 11.256 154.783 12.84C154.783 14.424 154.231 15.76 153.127 16.848C152.007 17.936 150.647 18.48 149.047 18.48H146.095V24H142.783V7.2ZM146.095 15.384H149.047C149.751 15.384 150.335 15.144 150.799 14.664C151.263 14.168 151.495 13.56 151.495 12.84C151.495 12.104 151.263 11.496 150.799 11.016C150.335 10.536 149.751 10.296 149.047 10.296H146.095V15.384ZM155.386 7.2H167.746V10.368H163.21V24H159.898V10.368H155.386V7.2Z" fill="white"/>
<path d="M65.7267 36H69.5667V36.768H66.5187V42H65.7267V36ZM73.7474 35.856C74.6034 35.856 75.3314 36.16 75.9314 36.768C76.5394 37.376 76.8434 38.12 76.8434 39C76.8434 39.88 76.5394 40.624 75.9314 41.232C75.3314 41.84 74.6034 42.144 73.7474 42.144C72.6834 42.144 71.8754 41.704 71.3234 40.824V44.4H70.5314V36H71.3234V37.176C71.8754 36.296 72.6834 35.856 73.7474 35.856ZM72.0074 40.692C72.4634 41.148 73.0234 41.376 73.6874 41.376C74.3514 41.376 74.9114 41.148 75.3674 40.692C75.8234 40.22 76.0514 39.656 76.0514 39C76.0514 38.336 75.8234 37.776 75.3674 37.32C74.9114 36.856 74.3514 36.624 73.6874 36.624C73.0234 36.624 72.4634 36.856 72.0074 37.32C71.5514 37.776 71.3234 38.336 71.3234 39C71.3234 39.656 71.5514 40.22 72.0074 40.692ZM80.3019 41.028L82.2459 36H83.0859L80.5179 42.552C80.2779 43.16 79.9419 43.628 79.5099 43.956C79.0859 44.292 78.6139 44.44 78.0939 44.4V43.656C78.8139 43.744 79.3619 43.328 79.7379 42.408L79.8939 42.036L77.2059 36H78.0459L80.3019 41.028ZM84.0431 36H89.0831V42H88.2911V36.768H84.8351V42H84.0431V36ZM90.758 36H95.798V42H95.006V36.768H91.55V42H90.758V36ZM102.633 37.176V36H103.425V42H102.633V40.824C102.081 41.704 101.273 42.144 100.209 42.144C99.3528 42.144 98.6208 41.84 98.0128 41.232C97.4128 40.624 97.1128 39.88 97.1128 39C97.1128 38.12 97.4128 37.376 98.0128 36.768C98.6208 36.16 99.3528 35.856 100.209 35.856C101.273 35.856 102.081 36.296 102.633 37.176ZM98.5888 40.692C99.0448 41.148 99.6048 41.376 100.269 41.376C100.933 41.376 101.493 41.148 101.949 40.692C102.405 40.22 102.633 39.656 102.633 39C102.633 38.336 102.405 37.776 101.949 37.32C101.493 36.856 100.933 36.624 100.269 36.624C99.6048 36.624 99.0448 36.856 98.5888 37.32C98.1328 37.776 97.9048 38.336 97.9048 39C97.9048 39.656 98.1328 40.22 98.5888 40.692ZM109.734 38.88L112.95 42H111.894L108.894 39.108V42H108.102V36H108.894V38.652L111.75 36H112.83L109.734 38.88ZM118.462 41.244C117.846 41.844 117.102 42.144 116.23 42.144C115.342 42.144 114.594 41.844 113.986 41.244C113.378 40.636 113.074 39.888 113.074 39C113.074 38.112 113.378 37.368 113.986 36.768C114.594 36.16 115.342 35.856 116.23 35.856C117.11 35.856 117.854 36.16 118.462 36.768C119.078 37.368 119.386 38.112 119.386 39C119.386 39.88 119.078 40.628 118.462 41.244ZM114.55 40.692C115.006 41.148 115.566 41.376 116.23 41.376C116.894 41.376 117.454 41.148 117.91 40.692C118.366 40.22 118.594 39.656 118.594 39C118.594 38.336 118.366 37.776 117.91 37.32C117.454 36.856 116.894 36.624 116.23 36.624C115.566 36.624 115.006 36.856 114.55 37.32C114.094 37.776 113.866 38.336 113.866 39C113.866 39.656 114.094 40.22 114.55 40.692ZM125.679 36H126.591V42H125.799V37.212L123.699 40.62H123.603L121.503 37.212V42H120.711V36H121.623L123.651 39.288L125.679 36ZM128.27 36H133.31V42H132.518V36.768H129.062V42H128.27V36ZM140.145 37.176V36H140.937V42H140.145V40.824C139.593 41.704 138.785 42.144 137.721 42.144C136.865 42.144 136.133 41.84 135.525 41.232C134.925 40.624 134.625 39.88 134.625 39C134.625 38.12 134.925 37.376 135.525 36.768C136.133 36.16 136.865 35.856 137.721 35.856C138.785 35.856 139.593 36.296 140.145 37.176ZM136.101 40.692C136.557 41.148 137.117 41.376 137.781 41.376C138.445 41.376 139.005 41.148 139.461 40.692C139.917 40.22 140.145 39.656 140.145 39C140.145 38.336 139.917 37.776 139.461 37.32C139.005 36.856 138.445 36.624 137.781 36.624C137.117 36.624 136.557 36.856 136.101 37.32C135.645 37.776 135.417 38.336 135.417 39C135.417 39.656 135.645 40.22 136.101 40.692ZM146.861 38.616V36H147.653V42H146.861V39.384H143.405V42H142.613V36H143.405V38.616H146.861ZM150.12 40.62L153.696 36H154.368V42H153.576V37.38L150 42H149.328V36H150.12V40.62ZM160.123 35.04H157.003V34.344H160.123V35.04ZM156.835 40.62L160.411 36H161.083V42H160.291V37.38L156.715 42H156.043V36H156.835V40.62Z" fill="white"/>
<defs>
<clipPath id="clip0_3101_454">
<rect width="23" height="22" fill="white" transform="translate(13 14)"/>
</clipPath>
</defs>
</svg>
