<svg width="14" height="10" viewBox="0 0 14 10" fill="none" xmlns="http://www.w3.org/2000/svg">
<path fill-rule="evenodd" clip-rule="evenodd" d="M13.6182 0C13.6198 0 13.6212 0.000274115 13.6228 0.000274115L7.05742 6.11955C7.04189 6.13412 7.02141 6.14222 7.00014 6.14222C6.97886 6.14222 6.95838 6.13412 6.94285 6.11955L0.37707 0.000274115C0.378656 0.000274115 0.380051 0 0.381637 0H13.6182ZM13.6182 10C13.7194 9.99995 13.8165 9.95964 13.8881 9.88793C13.9596 9.81622 13.9999 9.71896 14 9.61753V0.639758L7.55037 6.65084C7.40058 6.78971 7.20404 6.86685 6.99999 6.86685C6.79593 6.86685 6.59939 6.78971 6.4496 6.65084L0 0.639758V9.61753C0.000108582 9.71894 0.0403524 9.81616 0.1119 9.88787C0.183448 9.95957 0.280456 9.9999 0.381637 10H13.6182Z" fill="#EFF0F3"/>
</svg>
