<svg width="45" height="56" viewBox="0 0 45 56" fill="none" xmlns="http://www.w3.org/2000/svg">
<mask id="path-1-inside-1_905_1325" fill="white">
<path fill-rule="evenodd" clip-rule="evenodd" d="M25.3137 45.2072C25.4697 44.9458 25.7374 44.7709 26.038 44.7234C36.7836 43.0262 45 33.7227 45 22.5C45 10.0736 34.9264 0 22.5 0C10.0736 0 0 10.0736 0 22.5C0 34.0428 8.69196 43.5555 19.8877 44.85C20.205 44.8867 20.4911 45.0649 20.6547 45.3392L22.0861 47.7383C22.474 48.3885 23.4157 48.3885 23.8036 47.7383L25.3137 45.2072Z"/>
</mask>
<path fill-rule="evenodd" clip-rule="evenodd" d="M25.3137 45.2072C25.4697 44.9458 25.7374 44.7709 26.038 44.7234C36.7836 43.0262 45 33.7227 45 22.5C45 10.0736 34.9264 0 22.5 0C10.0736 0 0 10.0736 0 22.5C0 34.0428 8.69196 43.5555 19.8877 44.85C20.205 44.8867 20.4911 45.0649 20.6547 45.3392L22.0861 47.7383C22.474 48.3885 23.4157 48.3885 23.8036 47.7383L25.3137 45.2072Z" fill="#416387"/>
<path d="M22.0861 47.7383L21.6567 47.9945L22.0861 47.7383ZM23.8036 47.7383L23.3742 47.4821L23.8036 47.7383ZM19.8877 44.85L19.9452 44.3533L19.8877 44.85ZM20.6547 45.3392L20.2253 45.5954L20.6547 45.3392ZM26.038 44.7234L25.96 44.2296L26.038 44.7234ZM25.3137 45.2072L24.8843 44.951L25.3137 45.2072ZM44.5 22.5C44.5 33.4728 36.4663 42.5702 25.96 44.2296L26.116 45.2173C37.1008 43.4823 45.5 33.9725 45.5 22.5H44.5ZM22.5 0.5C34.6503 0.5 44.5 10.3497 44.5 22.5H45.5C45.5 9.79745 35.2025 -0.5 22.5 -0.5V0.5ZM0.5 22.5C0.5 10.3497 10.3497 0.5 22.5 0.5V-0.5C9.79745 -0.5 -0.5 9.79745 -0.5 22.5H0.5ZM19.9452 44.3533C8.99871 43.0877 0.5 33.786 0.5 22.5H-0.5C-0.5 34.2997 8.38521 44.0234 19.8303 45.3467L19.9452 44.3533ZM22.5155 47.4821L21.0841 45.083L20.2253 45.5954L21.6567 47.9945L22.5155 47.4821ZM24.8843 44.951L23.3742 47.4821L24.233 47.9945L25.7431 45.4634L24.8843 44.951ZM21.6567 47.9945C22.2386 48.9698 23.6511 48.9698 24.233 47.9945L23.3742 47.4821C23.1803 47.8072 22.7094 47.8072 22.5155 47.4821L21.6567 47.9945ZM19.8303 45.3467C19.9996 45.3663 20.1449 45.4606 20.2253 45.5954L21.0841 45.083C20.8373 44.6693 20.4103 44.4071 19.9452 44.3533L19.8303 45.3467ZM25.96 44.2296C25.5191 44.2992 25.1195 44.5568 24.8843 44.951L25.7431 45.4634C25.8198 45.3349 25.9557 45.2426 26.116 45.2173L25.96 44.2296Z" fill="#416387" mask="url(#path-1-inside-1_905_1325)"/>
<path d="M35.3869 22.9993C35.3869 22.4767 35.3545 21.9614 35.293 21.4546C35.2731 21.2919 35.3591 21.1351 35.5047 21.0603L37.1189 20.2334C37.279 20.1514 37.3616 19.9721 37.3233 19.7961C37.1625 19.0558 36.9469 18.3367 36.6809 17.6421C36.6167 17.4741 36.4487 17.3695 36.2701 17.3887L34.4674 17.5819C34.3046 17.5991 34.1465 17.5144 34.0737 17.3676C33.522 16.2528 32.8122 15.2301 31.9727 14.3297C31.8609 14.21 31.8384 14.0327 31.9118 13.8865L32.7308 12.2703C32.8122 12.1102 32.7738 11.9157 32.6395 11.7966C32.0805 11.2985 31.4831 10.8414 30.854 10.4305C30.7031 10.332 30.5053 10.3459 30.3724 10.4663L29.0294 11.6809C28.9077 11.7907 28.7304 11.8152 28.5855 11.7391C27.5065 11.1708 26.3356 10.7527 25.1005 10.5132C24.939 10.4821 24.8153 10.3525 24.7895 10.1904L24.5024 8.40288C24.474 8.22559 24.3291 8.09063 24.1505 8.07343C23.6623 8.02514 23.1674 8 22.666 8C22.4093 8 22.1539 8.00662 21.8999 8.01985C21.7206 8.02911 21.5698 8.15679 21.5327 8.3321L21.1603 10.1037C21.1265 10.2645 20.9969 10.3882 20.8341 10.4114C19.5864 10.5913 18.3976 10.9525 17.2942 11.4672C17.146 11.5366 16.9693 11.5036 16.8536 11.3878L15.5702 10.1103C15.4425 9.98333 15.246 9.96017 15.0905 10.0515C14.4416 10.4319 13.8237 10.8599 13.2415 11.3302C13.1019 11.4434 13.0543 11.6352 13.1277 11.7993L13.868 13.4532C13.9348 13.6027 13.9037 13.7786 13.7866 13.8931C12.9041 14.7538 12.146 15.7415 11.5426 16.8271C11.4633 16.9706 11.3012 17.048 11.1398 17.0222L9.34828 16.7424C9.17099 16.7146 8.99832 16.8112 8.92555 16.9759C8.62653 17.658 8.37646 18.3658 8.17998 19.0969C8.13301 19.2702 8.20711 19.4541 8.36323 19.5434L9.93574 20.4471C10.078 20.5284 10.1554 20.6899 10.1276 20.8519C10.0085 21.5505 9.94566 22.2683 9.94566 23.0007C9.94566 23.5233 9.97808 24.0386 10.0396 24.5454C10.0594 24.7081 9.97345 24.8649 9.82791 24.9397L8.21372 25.7666C8.05363 25.8486 7.97093 26.0279 8.0093 26.2039C8.17006 26.9442 8.38572 27.6633 8.65167 28.3579C8.71584 28.5259 8.88387 28.6305 9.06249 28.6113L10.8652 28.4181C11.028 28.4009 11.1861 28.4856 11.2588 28.6324C11.8106 29.7472 12.5204 30.7699 13.3599 31.6703C13.4717 31.79 13.4942 31.9673 13.4208 32.1135L12.6018 33.7297C12.5204 33.8898 12.5588 34.0843 12.6931 34.2034C13.2521 34.7015 13.8495 35.1586 14.4786 35.5695C14.6294 35.668 14.8272 35.6541 14.9602 35.5337L16.3032 34.3191C16.4249 34.2093 16.6022 34.1848 16.7471 34.2609C17.8261 34.8292 18.997 35.2473 20.2321 35.4868C20.3935 35.5179 20.5172 35.6475 20.543 35.8096L20.8302 37.5971C20.8586 37.7744 21.0035 37.9094 21.1821 37.9266C21.6703 37.9749 22.1652 38 22.6666 38C22.9233 38 23.1787 37.9934 23.4327 37.9802C23.612 37.9709 23.7628 37.8432 23.7999 37.6679L24.1723 35.8963C24.2061 35.7355 24.3357 35.6118 24.4985 35.5886C25.7461 35.4087 26.9349 35.0475 28.0384 34.5328C28.1866 34.4633 28.3632 34.4964 28.479 34.6122L29.7624 35.8897C29.8901 36.0167 30.0866 36.0398 30.242 35.9485C30.891 35.5681 31.5089 35.1401 32.0911 34.6698C32.2307 34.5566 32.2783 34.3648 32.2049 34.2007L31.4646 32.5468C31.3978 32.3973 31.4289 32.2214 31.546 32.1069C32.4285 31.2462 33.1866 30.2585 33.7899 29.1729C33.8693 29.0294 34.0307 28.952 34.1928 28.9778L35.9843 29.2576C36.1616 29.2854 36.3343 29.1888 36.407 29.0241C36.7067 28.342 36.9561 27.6342 37.1526 26.9031C37.1996 26.7298 37.1255 26.5459 36.9693 26.4566L35.3968 25.5529C35.2546 25.4716 35.1772 25.3101 35.205 25.1481C35.3241 24.4495 35.3869 23.7317 35.3869 22.9993ZM26.1517 32.2141C18.0774 35.0085 10.6568 27.5879 13.4512 19.5136C14.38 16.8304 16.4977 14.7128 19.1809 13.7839C27.2551 10.9895 34.6758 18.4102 31.8814 26.4844C30.9525 29.1676 28.8349 31.2853 26.1517 32.2141Z" fill="white"/>
<g clip-path="url(#clip0_905_1325)">
<path d="M29.5112 20.3821L28.4872 19.4648C28.4245 19.4086 28.4296 19.299 28.4987 19.2203C28.5279 19.1868 28.543 19.1465 28.543 19.1094C28.543 19.0767 28.5313 19.0464 28.508 19.0254L28.1673 18.7201C28.2774 18.5189 28.2629 18.2859 28.1179 18.1559L27.493 17.596C27.3477 17.4659 27.1174 17.4797 26.9335 17.6146L26.5928 17.3095C26.5428 17.2646 26.4578 17.2794 26.4027 17.3423C26.3337 17.4211 26.227 17.4396 26.1641 17.3833L25.1401 16.4656C25.0132 16.3521 24.7972 16.3893 24.6574 16.5488L23.3043 18.0951C23.1647 18.2548 23.1542 18.4764 23.2811 18.5898L24.3049 19.5072C24.3676 19.5635 24.3625 19.673 24.2934 19.7519C24.2642 19.7854 24.2494 19.8257 24.2494 19.8629C24.2494 19.8957 24.2609 19.9258 24.2843 19.9468L24.413 20.0622C24.5235 20.1613 24.5146 20.3546 24.3927 20.4939L22.6998 22.4283L22.5766 22.5689L22.5351 22.6164L22.3051 22.8793L21.5784 23.7096L17.5887 28.2686C17.3964 28.4881 17.3821 28.7931 17.5567 28.9495L18.1815 29.5093C18.356 29.6656 18.6535 29.6144 18.8456 29.3947L22.6996 24.9909L23.4264 24.1606L23.6563 23.8976L23.821 23.7095L25.6495 21.6201C25.7714 21.4808 25.9599 21.4484 26.0707 21.5475L26.1993 21.6628C26.2493 21.7076 26.3345 21.693 26.3894 21.63C26.4315 21.5819 26.4875 21.5565 26.5392 21.5565C26.5723 21.5565 26.6036 21.567 26.6281 21.5889L27.6519 22.5062C27.7789 22.62 27.9948 22.5827 28.1345 22.423L29.4878 20.8767C29.6274 20.7172 29.6379 20.4957 29.511 20.382L29.5112 20.3821ZM25.1143 20.2309C25.1172 20.3647 25.0713 20.5001 25.0212 20.6075C24.9721 20.7119 24.9059 20.8099 24.8286 20.8982L24.579 21.1834L23.0947 22.8793L22.93 23.0675L22.7 23.3304L21.9733 24.1608L17.8866 28.8305L17.7601 28.7174C17.6875 28.6522 17.6936 28.5254 17.7734 28.434L21.7432 23.8978L22.4699 23.0675L22.6999 22.8046L22.8646 22.6164L24.5774 20.6594C24.8115 20.3918 24.8289 20.0203 24.6164 19.8299L24.5666 19.7853C24.606 19.7055 24.6248 19.6214 24.6231 19.5418C24.6222 19.4989 24.6722 19.4649 24.7028 19.488C25.1796 19.8504 25.1086 19.9461 25.1145 20.2309H25.1143ZM25.0643 17.2789L24.9016 17.1332C24.8544 17.0908 24.7742 17.1047 24.7222 17.164L23.5928 18.4547L23.4843 18.3576C23.4595 18.3354 23.4615 18.2918 23.4889 18.2607L24.842 16.7142C24.8695 16.6831 24.9118 16.6757 24.9368 16.698L25.5009 17.2033C25.3744 17.3477 25.1789 17.3815 25.0643 17.2786V17.2789ZM27.0567 17.8358C27.1348 17.7786 27.2305 17.7756 27.2895 17.8283L27.9142 18.388C27.9732 18.4408 27.9817 18.5374 27.935 18.6227L27.8407 18.7947L26.8994 17.9512L27.0567 17.8358ZM29.1186 20.8083L27.894 22.2077C27.8666 22.2388 27.8243 22.2462 27.7994 22.224L26.7755 21.3066C26.7584 21.2915 26.7402 21.2785 26.7211 21.2672C26.7966 21.181 26.8972 21.1349 26.9899 21.1349C27.0494 21.1349 27.1056 21.1538 27.1497 21.1934L27.7773 21.7557C27.8466 21.8177 27.9644 21.7973 28.0406 21.7104L29.135 20.4597C29.2245 20.5398 29.2171 20.6958 29.1187 20.8083H29.1186Z" fill="white"/>
<path d="M23.8087 23.6951L23.0945 22.8791L22.9298 23.0672L23.6413 23.8803L23.6565 23.8975L23.8212 23.7093L23.8087 23.6951ZM22.6984 22.4264L22.5768 22.5687L22.5352 22.6162L22.6999 22.8044L22.8646 22.6162L22.6999 22.428L22.6984 22.4264ZM23.4077 24.139L22.6999 23.3301L21.9732 24.1605L22.6692 24.9559L22.6999 24.9908L23.4266 24.1605L23.4077 24.139ZM22.3082 22.8827L22.3052 22.8792L21.5785 23.7095L21.59 23.7225L21.7432 23.8976L22.4699 23.0674L22.3082 22.8827ZM27.811 28.2684L23.9683 23.8776L23.923 23.9307L23.8818 23.9788L23.8057 24.0678L27.6265 28.4339C27.7065 28.5253 27.7124 28.6519 27.6398 28.7172L27.5133 28.8303L23.5781 24.3339L22.9361 25.0845L22.8598 25.1736L26.5539 29.3947C26.7461 29.6144 27.0436 29.6656 27.2181 29.5094L27.8429 28.9495C28.0173 28.7929 28.0032 28.4879 27.811 28.2684ZM20.8224 20.6591L22.3736 22.4315L22.5409 22.2464L21.0069 20.4935C20.8849 20.3544 20.876 20.1609 20.9866 20.0618L21.1153 19.9465C21.1654 19.9017 21.1611 19.8145 21.1062 19.7515C21.0696 19.7096 21.0509 19.6591 21.0509 19.6124C21.0509 19.5714 21.0653 19.5333 21.0948 19.5069L22.1186 18.5896C22.2455 18.4761 22.235 18.2545 22.0954 18.0949L20.7422 16.5486C20.6026 16.3891 20.3865 16.3519 20.2596 16.4654L19.2357 17.3827C19.173 17.439 19.0663 17.4205 18.9971 17.3417C18.942 17.2788 18.8569 17.264 18.807 17.3089L18.4663 17.6139C18.2824 17.4791 18.0521 17.4653 17.9068 17.5954L17.2819 18.1553C17.1368 18.2854 17.1224 18.5183 17.2325 18.7195L16.8918 19.0247C16.8419 19.0695 16.8458 19.1567 16.901 19.2197C16.9376 19.2616 16.9562 19.3121 16.9562 19.3587C16.9562 19.3998 16.9418 19.4378 16.9124 19.4642L15.8885 20.3819C15.7616 20.4956 15.7722 20.7171 15.9118 20.8766L17.265 22.4229C17.4046 22.5825 17.6206 22.6198 17.7476 22.5061L18.7715 21.5888C18.8342 21.5326 18.9411 21.551 19.0101 21.6299C19.0436 21.6682 19.0883 21.6886 19.1293 21.6886C19.1558 21.6886 19.1808 21.6802 19.2003 21.6627L19.3289 21.5473C19.4397 21.4482 19.6281 21.4807 19.7501 21.62L21.4016 23.5073L22.1399 22.6904L20.8209 21.1831L20.5714 20.898C20.4941 20.8097 20.4278 20.7116 20.3787 20.6072C20.3285 20.5 20.2828 20.3645 20.2856 20.2306C20.2914 19.9459 20.2204 19.8501 20.6972 19.4878C20.7279 19.4647 20.7779 19.4987 20.777 19.5416C20.7753 19.621 20.7941 19.7053 20.8335 19.7851L20.7837 19.8296C20.5711 20.0202 20.5883 20.3915 20.8224 20.6591ZM17.4855 18.3877L18.1102 17.8279C18.1692 17.7751 18.2649 17.7782 18.343 17.8354L18.5003 17.9509L17.5589 18.7943L17.4647 18.6224C17.4181 18.537 17.4265 18.4405 17.4855 18.3877ZM18.6243 21.3061L17.6004 22.2235C17.5755 22.2457 17.5332 22.2385 17.5058 22.2072L16.2812 20.8078C16.1828 20.6953 16.1754 20.5393 16.2649 20.4592L17.3594 21.7099C17.4356 21.7968 17.5535 21.8171 17.6226 21.7552L18.2503 21.1929C18.3628 21.0918 18.5548 21.1249 18.6787 21.2667C18.6596 21.278 18.6414 21.291 18.6243 21.3061ZM20.6774 17.1638C20.6255 17.1045 20.5451 17.0906 20.498 17.133L20.3354 17.2786C20.2208 17.3815 20.0253 17.3476 19.8988 17.2033L20.4629 16.698C20.4879 16.6757 20.5302 16.6829 20.5576 16.7142L21.9108 18.2607C21.9382 18.2918 21.9402 18.3354 21.9153 18.3576L21.8069 18.4547L20.6774 17.1638Z" fill="white"/>
</g>
<circle cx="22.9384" cy="53.4442" r="2.55556" fill="#416387"/>
<defs>
<clipPath id="clip0_905_1325">
<rect width="13.8" height="13.2" fill="white" transform="translate(15.7998 16.3999)"/>
</clipPath>
</defs>
</svg>
