<svg width="1200" height="643" viewBox="0 0 1200 643" fill="none" xmlns="http://www.w3.org/2000/svg">
<rect width="1200" height="643" rx="30" fill="white"/>
<rect x="90" y="78" width="284" height="89" rx="30" fill="#EDF1F4"/>
<path d="M200.792 114.4V125.416H202.142V129.412H200.468V127H192.152V129.412H190.478V125.416H191.576C192.356 124.432 192.746 122.956 192.746 120.988V114.4H200.792ZM193.466 125.416H199.118V115.966H194.42V121.024C194.42 122.92 194.102 124.384 193.466 125.416ZM205.46 124.318L210.446 118H211.706V127H210.158V120.682L205.172 127H203.912V118H205.46V124.318ZM219.057 117.766C220.317 117.766 221.391 118.228 222.279 119.152C223.167 120.076 223.611 121.192 223.611 122.5C223.611 123.82 223.167 124.942 222.279 125.866C221.403 126.778 220.329 127.234 219.057 127.234C217.569 127.234 216.435 126.64 215.655 125.452V130.6H214.089V118H215.655V119.548C216.435 118.36 217.569 117.766 219.057 117.766ZM218.859 125.722C219.759 125.722 220.515 125.416 221.127 124.804C221.739 124.168 222.045 123.4 222.045 122.5C222.045 121.588 221.739 120.826 221.127 120.214C220.515 119.59 219.759 119.278 218.859 119.278C217.947 119.278 217.185 119.59 216.573 120.214C215.961 120.826 215.655 121.588 215.655 122.5C215.655 123.4 215.961 124.168 216.573 124.804C217.185 125.416 217.947 125.722 218.859 125.722ZM234.12 123.22H226.578C226.734 124.012 227.1 124.636 227.676 125.092C228.252 125.536 228.972 125.758 229.836 125.758C231.024 125.758 231.888 125.32 232.428 124.444L233.76 125.2C232.872 126.556 231.552 127.234 229.8 127.234C228.384 127.234 227.22 126.79 226.308 125.902C225.42 124.99 224.976 123.856 224.976 122.5C224.976 121.132 225.414 120.004 226.29 119.116C227.166 118.216 228.3 117.766 229.692 117.766C231.012 117.766 232.086 118.234 232.914 119.17C233.754 120.082 234.174 121.198 234.174 122.518C234.174 122.746 234.156 122.98 234.12 123.22ZM229.692 119.242C228.864 119.242 228.168 119.476 227.604 119.944C227.052 120.412 226.71 121.048 226.578 121.852H232.59C232.458 121.024 232.128 120.382 231.6 119.926C231.072 119.47 230.436 119.242 229.692 119.242ZM239.142 122.356L243.588 127H241.644L237.54 122.734V127H235.974V118H237.54V121.978L241.428 118H243.444L239.142 122.356ZM244.036 118H251.74V119.512H248.68V127H247.114V119.512H244.036V118ZM260.357 125.866C259.445 126.778 258.323 127.234 256.991 127.234C255.659 127.234 254.537 126.778 253.625 125.866C252.713 124.954 252.257 123.832 252.257 122.5C252.257 121.168 252.713 120.046 253.625 119.134C254.537 118.222 255.659 117.766 256.991 117.766C258.323 117.766 259.445 118.222 260.357 119.134C261.281 120.058 261.743 121.18 261.743 122.5C261.743 123.82 261.281 124.942 260.357 125.866ZM256.991 125.704C257.891 125.704 258.647 125.398 259.259 124.786C259.871 124.174 260.177 123.412 260.177 122.5C260.177 121.588 259.871 120.826 259.259 120.214C258.647 119.602 257.891 119.296 256.991 119.296C256.103 119.296 255.353 119.602 254.741 120.214C254.129 120.826 253.823 121.588 253.823 122.5C253.823 123.412 254.129 124.174 254.741 124.786C255.353 125.398 256.103 125.704 256.991 125.704ZM268.557 117.766C269.817 117.766 270.891 118.228 271.779 119.152C272.667 120.076 273.111 121.192 273.111 122.5C273.111 123.82 272.667 124.942 271.779 125.866C270.903 126.778 269.829 127.234 268.557 127.234C267.069 127.234 265.935 126.64 265.155 125.452V130.6H263.589V118H265.155V119.548C265.935 118.36 267.069 117.766 268.557 117.766ZM268.359 125.722C269.259 125.722 270.015 125.416 270.627 124.804C271.239 124.168 271.545 123.4 271.545 122.5C271.545 121.588 271.239 120.826 270.627 120.214C270.015 119.59 269.259 119.278 268.359 119.278C267.447 119.278 266.685 119.59 266.073 120.214C265.461 120.826 265.155 121.588 265.155 122.5C265.155 123.4 265.461 124.168 266.073 124.804C266.685 125.416 267.447 125.722 268.359 125.722Z" fill="#416387"/>
<path d="M378 122.5H454" stroke="#416387" stroke-width="2" stroke-dasharray="4 4"/>
<rect x="458" y="78" width="284" height="89" rx="30" fill="#EDF1F4"/>
<path d="M534.114 114.4H543.258V127H541.584V115.984H535.788V127H534.114V114.4ZM550.767 117.766C552.027 117.766 553.101 118.228 553.989 119.152C554.877 120.076 555.321 121.192 555.321 122.5C555.321 123.82 554.877 124.942 553.989 125.866C553.113 126.778 552.039 127.234 550.767 127.234C549.279 127.234 548.145 126.64 547.365 125.452V130.6H545.799V118H547.365V119.548C548.145 118.36 549.279 117.766 550.767 117.766ZM550.569 125.722C551.469 125.722 552.225 125.416 552.837 124.804C553.449 124.168 553.755 123.4 553.755 122.5C553.755 121.588 553.449 120.826 552.837 120.214C552.225 119.59 551.469 119.278 550.569 119.278C549.657 119.278 548.895 119.59 548.283 120.214C547.671 120.826 547.365 121.588 547.365 122.5C547.365 123.4 547.671 124.168 548.283 124.804C548.895 125.416 549.657 125.722 550.569 125.722ZM565.83 123.22H558.288C558.444 124.012 558.81 124.636 559.386 125.092C559.962 125.536 560.682 125.758 561.546 125.758C562.734 125.758 563.598 125.32 564.138 124.444L565.47 125.2C564.582 126.556 563.262 127.234 561.51 127.234C560.094 127.234 558.93 126.79 558.018 125.902C557.13 124.99 556.686 123.856 556.686 122.5C556.686 121.132 557.124 120.004 558 119.116C558.876 118.216 560.01 117.766 561.402 117.766C562.722 117.766 563.796 118.234 564.624 119.17C565.464 120.082 565.884 121.198 565.884 122.518C565.884 122.746 565.866 122.98 565.83 123.22ZM561.402 119.242C560.574 119.242 559.878 119.476 559.314 119.944C558.762 120.412 558.42 121.048 558.288 121.852H564.3C564.168 121.024 563.838 120.382 563.31 119.926C562.782 119.47 562.146 119.242 561.402 119.242ZM567.684 118H575.478V127H573.912V119.494H569.25V127H567.684V118ZM585.458 125.866C584.546 126.778 583.424 127.234 582.092 127.234C580.76 127.234 579.638 126.778 578.726 125.866C577.814 124.954 577.358 123.832 577.358 122.5C577.358 121.168 577.814 120.046 578.726 119.134C579.638 118.222 580.76 117.766 582.092 117.766C583.424 117.766 584.546 118.222 585.458 119.134C586.382 120.058 586.844 121.18 586.844 122.5C586.844 123.82 586.382 124.942 585.458 125.866ZM582.092 125.704C582.992 125.704 583.748 125.398 584.36 124.786C584.972 124.174 585.278 123.412 585.278 122.5C585.278 121.588 584.972 120.826 584.36 120.214C583.748 119.602 582.992 119.296 582.092 119.296C581.204 119.296 580.454 119.602 579.842 120.214C579.23 120.826 578.924 121.588 578.924 122.5C578.924 123.412 579.23 124.174 579.842 124.786C580.454 125.398 581.204 125.704 582.092 125.704ZM596.078 118V125.506H597.32V129.412H595.772V127H589.022V129.412H587.474V125.506H588.572C589.148 124.714 589.436 123.604 589.436 122.176V118H596.078ZM590.354 125.506H594.53V119.458H590.984V122.176C590.984 123.496 590.774 124.606 590.354 125.506ZM606.109 119.548V118H607.675V127H606.109V125.452C605.341 126.64 604.207 127.234 602.707 127.234C601.435 127.234 600.361 126.778 599.485 125.866C598.597 124.942 598.153 123.82 598.153 122.5C598.153 121.192 598.597 120.076 599.485 119.152C600.373 118.228 601.447 117.766 602.707 117.766C604.207 117.766 605.341 118.36 606.109 119.548ZM602.905 125.722C603.817 125.722 604.579 125.416 605.191 124.804C605.803 124.168 606.109 123.4 606.109 122.5C606.109 121.588 605.803 120.826 605.191 120.214C604.579 119.59 603.817 119.278 602.905 119.278C602.005 119.278 601.249 119.59 600.637 120.214C600.025 120.826 599.719 121.588 599.719 122.5C599.719 123.4 600.025 124.168 600.637 124.804C601.249 125.416 602.005 125.722 602.905 125.722ZM616.041 122.374C616.965 122.758 617.427 123.454 617.427 124.462C617.427 125.23 617.175 125.848 616.671 126.316C616.167 126.772 615.459 127 614.547 127H610.047V118H614.187C615.075 118 615.765 118.222 616.257 118.666C616.761 119.11 617.013 119.704 617.013 120.448C617.013 121.312 616.689 121.954 616.041 122.374ZM614.115 119.404H611.577V121.762H614.115C615.027 121.762 615.483 121.36 615.483 120.556C615.483 119.788 615.027 119.404 614.115 119.404ZM611.577 125.578H614.457C614.913 125.578 615.261 125.47 615.501 125.254C615.753 125.038 615.879 124.732 615.879 124.336C615.879 123.964 615.753 123.676 615.501 123.472C615.261 123.256 614.913 123.148 614.457 123.148H611.577V125.578ZM626.57 119.548V118H628.136V127H626.57V125.452C625.802 126.64 624.668 127.234 623.168 127.234C621.896 127.234 620.822 126.778 619.946 125.866C619.058 124.942 618.614 123.82 618.614 122.5C618.614 121.192 619.058 120.076 619.946 119.152C620.834 118.228 621.908 117.766 623.168 117.766C624.668 117.766 625.802 118.36 626.57 119.548ZM623.366 125.722C624.278 125.722 625.04 125.416 625.652 124.804C626.264 124.168 626.57 123.4 626.57 122.5C626.57 121.588 626.264 120.826 625.652 120.214C625.04 119.59 624.278 119.278 623.366 119.278C622.466 119.278 621.71 119.59 621.098 120.214C620.486 120.826 620.18 121.588 620.18 122.5C620.18 123.4 620.486 124.168 621.098 124.804C621.71 125.416 622.466 125.722 623.366 125.722ZM629.5 118H637.204V119.512H634.144V127H632.578V119.512H629.5V118ZM646.865 123.22H639.323C639.479 124.012 639.845 124.636 640.421 125.092C640.997 125.536 641.717 125.758 642.581 125.758C643.769 125.758 644.633 125.32 645.173 124.444L646.505 125.2C645.617 126.556 644.297 127.234 642.545 127.234C641.129 127.234 639.965 126.79 639.053 125.902C638.165 124.99 637.721 123.856 637.721 122.5C637.721 121.132 638.159 120.004 639.035 119.116C639.911 118.216 641.045 117.766 642.437 117.766C643.757 117.766 644.831 118.234 645.659 119.17C646.499 120.082 646.919 121.198 646.919 122.518C646.919 122.746 646.901 122.98 646.865 123.22ZM642.437 119.242C641.609 119.242 640.913 119.476 640.349 119.944C639.797 120.412 639.455 121.048 639.323 121.852H645.335C645.203 121.024 644.873 120.382 644.345 119.926C643.817 119.47 643.181 119.242 642.437 119.242ZM649.196 118H655.874V127H654.308V119.512H650.762V123.184C650.762 124.624 650.474 125.65 649.898 126.262C649.322 126.862 648.476 127.108 647.36 127V125.524C647.984 125.608 648.446 125.47 648.746 125.11C649.046 124.738 649.196 124.084 649.196 123.148V118ZM659.795 124.318L664.781 118H666.041V127H664.493V120.682L659.507 127H658.247V118H659.795V124.318Z" fill="#416387"/>
<path d="M746 122.5H822" stroke="#416387" stroke-width="2" stroke-dasharray="4 4"/>
<rect x="826" y="78" width="284" height="89" rx="30" fill="#EDF1F4"/>
<path d="M897.816 114.4H902.388C903.54 114.4 904.506 114.79 905.286 115.57C906.066 116.35 906.456 117.31 906.456 118.45C906.456 119.59 906.066 120.55 905.286 121.33C904.506 122.11 903.54 122.5 902.388 122.5H899.49V127H897.816V114.4ZM899.49 120.934H902.388C903.096 120.934 903.672 120.7 904.116 120.232C904.572 119.74 904.8 119.146 904.8 118.45C904.8 117.73 904.572 117.136 904.116 116.668C903.66 116.2 903.084 115.966 902.388 115.966H899.49V120.934ZM911.961 125.056L914.553 118H916.227L912.555 127.558C912.171 128.578 911.631 129.352 910.935 129.88C910.239 130.42 909.447 130.66 908.559 130.6V129.142C909.651 129.226 910.461 128.626 910.989 127.342L911.133 127.018L907.227 118H908.883L911.961 125.056ZM920.703 122.356L925.149 127H923.205L919.101 122.734V127H917.535V118H919.101V121.978L922.989 118H925.005L920.703 122.356ZM933.375 125.866C932.463 126.778 931.341 127.234 930.009 127.234C928.677 127.234 927.555 126.778 926.643 125.866C925.731 124.954 925.275 123.832 925.275 122.5C925.275 121.168 925.731 120.046 926.643 119.134C927.555 118.222 928.677 117.766 930.009 117.766C931.341 117.766 932.463 118.222 933.375 119.134C934.299 120.058 934.761 121.18 934.761 122.5C934.761 123.82 934.299 124.942 933.375 125.866ZM930.009 125.704C930.909 125.704 931.665 125.398 932.277 124.786C932.889 124.174 933.195 123.412 933.195 122.5C933.195 121.588 932.889 120.826 932.277 120.214C931.665 119.602 930.909 119.296 930.009 119.296C929.121 119.296 928.371 119.602 927.759 120.214C927.147 120.826 926.841 121.588 926.841 122.5C926.841 123.412 927.147 124.174 927.759 124.786C928.371 125.398 929.121 125.704 930.009 125.704ZM942.601 122.374C943.525 122.758 943.987 123.454 943.987 124.462C943.987 125.23 943.735 125.848 943.231 126.316C942.727 126.772 942.019 127 941.107 127H936.607V118H940.747C941.635 118 942.325 118.222 942.817 118.666C943.321 119.11 943.573 119.704 943.573 120.448C943.573 121.312 943.249 121.954 942.601 122.374ZM940.675 119.404H938.137V121.762H940.675C941.587 121.762 942.043 121.36 942.043 120.556C942.043 119.788 941.587 119.404 940.675 119.404ZM938.137 125.578H941.017C941.473 125.578 941.821 125.47 942.061 125.254C942.313 125.038 942.439 124.732 942.439 124.336C942.439 123.964 942.313 123.676 942.061 123.472C941.821 123.256 941.473 123.148 941.017 123.148H938.137V125.578ZM953.273 125.866C952.361 126.778 951.239 127.234 949.907 127.234C948.575 127.234 947.453 126.778 946.541 125.866C945.629 124.954 945.173 123.832 945.173 122.5C945.173 121.168 945.629 120.046 946.541 119.134C947.453 118.222 948.575 117.766 949.907 117.766C951.239 117.766 952.361 118.222 953.273 119.134C954.197 120.058 954.659 121.18 954.659 122.5C954.659 123.82 954.197 124.942 953.273 125.866ZM949.907 125.704C950.807 125.704 951.563 125.398 952.175 124.786C952.787 124.174 953.093 123.412 953.093 122.5C953.093 121.588 952.787 120.826 952.175 120.214C951.563 119.602 950.807 119.296 949.907 119.296C949.019 119.296 948.269 119.602 947.657 120.214C947.045 120.826 946.739 121.588 946.739 122.5C946.739 123.412 947.045 124.174 947.657 124.786C948.269 125.398 949.019 125.704 949.907 125.704ZM963.894 118V125.506H965.136V129.412H963.588V127H956.838V129.412H955.29V125.506H956.388C956.964 124.714 957.252 123.604 957.252 122.176V118H963.894ZM958.17 125.506H962.346V119.458H958.8V122.176C958.8 123.496 958.59 124.606 958.17 125.506ZM968.372 124.318L973.358 118H974.618V127H973.07V120.682L968.084 127H966.824V118H968.372V124.318ZM975.993 118H983.697V119.512H980.637V127H979.071V119.512H975.993V118ZM993.358 123.22H985.816C985.972 124.012 986.338 124.636 986.914 125.092C987.49 125.536 988.21 125.758 989.074 125.758C990.262 125.758 991.126 125.32 991.666 124.444L992.998 125.2C992.11 126.556 990.79 127.234 989.038 127.234C987.622 127.234 986.458 126.79 985.546 125.902C984.658 124.99 984.214 123.856 984.214 122.5C984.214 121.132 984.652 120.004 985.528 119.116C986.404 118.216 987.538 117.766 988.93 117.766C990.25 117.766 991.324 118.234 992.152 119.17C992.992 120.082 993.412 121.198 993.412 122.518C993.412 122.746 993.394 122.98 993.358 123.22ZM988.93 119.242C988.102 119.242 987.406 119.476 986.842 119.944C986.29 120.412 985.948 121.048 985.816 121.852H991.828C991.696 121.024 991.366 120.382 990.838 119.926C990.31 119.47 989.674 119.242 988.93 119.242ZM995.689 118H1002.37V127H1000.8V119.512H997.255V123.184C997.255 124.624 996.967 125.65 996.391 126.262C995.815 126.862 994.969 127.108 993.853 127V125.524C994.477 125.608 994.939 125.47 995.239 125.11C995.539 124.738 995.689 124.084 995.689 123.148V118ZM1006.31 121.24H1008.54C1009.44 121.24 1010.18 121.51 1010.77 122.05C1011.37 122.578 1011.67 123.268 1011.67 124.12C1011.67 124.972 1011.37 125.668 1010.77 126.208C1010.17 126.736 1009.43 127 1008.54 127H1004.74V118H1006.31V121.24ZM1006.31 125.542H1008.54C1008.99 125.542 1009.37 125.41 1009.67 125.146C1009.97 124.882 1010.12 124.54 1010.12 124.12C1010.12 123.7 1009.97 123.358 1009.65 123.094C1009.35 122.818 1008.98 122.68 1008.54 122.68H1006.31V125.542ZM1022.21 121.6L1025.23 114.4H1026.93L1022.88 124.012C1021.98 126.124 1020.53 127.12 1018.54 127V125.452C1019.22 125.524 1019.78 125.428 1020.21 125.164C1020.66 124.888 1021.02 124.408 1021.31 123.724L1021.44 123.436L1017.17 114.4H1018.86L1022.21 121.6ZM1037.6 114.4V125.416H1038.95V129.412H1037.28V127H1028.46V114.4H1030.13V125.416H1035.93V114.4H1037.6Z" fill="#416387"/>
<path d="M600 192L600 268" stroke="#416387" stroke-width="2" stroke-dasharray="4 4"/>
<path d="M232 230L968 230" stroke="#416387" stroke-width="2" stroke-dasharray="4 4"/>
<path d="M142 444L321 444" stroke="#416387" stroke-width="2" stroke-dasharray="4 4"/>
<path d="M510 444L689 444" stroke="#416387" stroke-width="2" stroke-dasharray="4 4"/>
<path d="M878 444L1057 444" stroke="#416387" stroke-width="2" stroke-dasharray="4 4"/>
<path d="M232 233.158L232 295.158" stroke="#416387" stroke-width="2" stroke-dasharray="4 4"/>
<path d="M232 382.658L232 444" stroke="#416387" stroke-width="2" stroke-dasharray="4 4"/>
<path d="M600 409L600 444" stroke="#416387" stroke-width="2" stroke-dasharray="4 4"/>
<path d="M968 409L968 444" stroke="#416387" stroke-width="2" stroke-dasharray="4 4"/>
<path d="M142 444L142 479" stroke="#416387" stroke-width="2" stroke-dasharray="4 4"/>
<path d="M510 444L510 479" stroke="#416387" stroke-width="2" stroke-dasharray="4 4"/>
<path d="M878 444L878 479" stroke="#416387" stroke-width="2" stroke-dasharray="4 4"/>
<path d="M321 444L321 479" stroke="#416387" stroke-width="2" stroke-dasharray="4 4"/>
<path d="M689 444L689 479" stroke="#416387" stroke-width="2" stroke-dasharray="4 4"/>
<path d="M1057 444L1057 479" stroke="#416387" stroke-width="2" stroke-dasharray="4 4"/>
<path d="M968 233L968 268" stroke="#416387" stroke-width="2" stroke-dasharray="4 4"/>
<rect x="90" y="295" width="284" height="89" rx="30" fill="#EDF1F4"/>
<path d="M138.059 331.4H147.203V344H145.529V332.984H139.733V344H138.059V331.4ZM158.385 340.22H150.843C150.999 341.012 151.365 341.636 151.941 342.092C152.517 342.536 153.237 342.758 154.101 342.758C155.289 342.758 156.153 342.32 156.693 341.444L158.025 342.2C157.137 343.556 155.817 344.234 154.065 344.234C152.649 344.234 151.485 343.79 150.573 342.902C149.685 341.99 149.241 340.856 149.241 339.5C149.241 338.132 149.679 337.004 150.555 336.116C151.431 335.216 152.565 334.766 153.957 334.766C155.277 334.766 156.351 335.234 157.179 336.17C158.019 337.082 158.439 338.198 158.439 339.518C158.439 339.746 158.421 339.98 158.385 340.22ZM153.957 336.242C153.129 336.242 152.433 336.476 151.869 336.944C151.317 337.412 150.975 338.048 150.843 338.852H156.855C156.723 338.024 156.393 337.382 155.865 336.926C155.337 336.47 154.701 336.242 153.957 336.242ZM167.627 335V342.506H168.869V346.412H167.321V344H160.571V346.412H159.023V342.506H160.121C160.697 341.714 160.985 340.604 160.985 339.176V335H167.627ZM161.903 342.506H166.079V336.458H162.533V339.176C162.533 340.496 162.323 341.606 161.903 342.506ZM177.658 336.548V335H179.224V344H177.658V342.452C176.89 343.64 175.756 344.234 174.256 344.234C172.984 344.234 171.91 343.778 171.034 342.866C170.146 341.942 169.702 340.82 169.702 339.5C169.702 338.192 170.146 337.076 171.034 336.152C171.922 335.228 172.996 334.766 174.256 334.766C175.756 334.766 176.89 335.36 177.658 336.548ZM174.454 342.722C175.366 342.722 176.128 342.416 176.74 341.804C177.352 341.168 177.658 340.4 177.658 339.5C177.658 338.588 177.352 337.826 176.74 337.214C176.128 336.59 175.366 336.278 174.454 336.278C173.554 336.278 172.798 336.59 172.186 337.214C171.574 337.826 171.268 338.588 171.268 339.5C171.268 340.4 171.574 341.168 172.186 341.804C172.798 342.416 173.554 342.722 174.454 342.722ZM181.596 335H187.5V336.512H183.162V344H181.596V335ZM196.118 342.866C195.206 343.778 194.084 344.234 192.752 344.234C191.42 344.234 190.298 343.778 189.386 342.866C188.474 341.954 188.018 340.832 188.018 339.5C188.018 338.168 188.474 337.046 189.386 336.134C190.298 335.222 191.42 334.766 192.752 334.766C194.084 334.766 195.206 335.222 196.118 336.134C197.042 337.058 197.504 338.18 197.504 339.5C197.504 340.82 197.042 341.942 196.118 342.866ZM192.752 342.704C193.652 342.704 194.408 342.398 195.02 341.786C195.632 341.174 195.938 340.412 195.938 339.5C195.938 338.588 195.632 337.826 195.02 337.214C194.408 336.602 193.652 336.296 192.752 336.296C191.864 336.296 191.114 336.602 190.502 337.214C189.89 337.826 189.584 338.588 189.584 339.5C189.584 340.412 189.89 341.174 190.502 341.786C191.114 342.398 191.864 342.704 192.752 342.704ZM199.35 335H205.254V336.512H200.916V344H199.35V335ZM208.175 341.318L213.161 335H214.421V344H212.873V337.682L207.887 344H206.627V335H208.175V341.318ZM222.475 339.302V335H224.041V344H222.475V340.76C221.743 341.072 220.933 341.228 220.045 341.228C218.881 341.228 217.987 340.952 217.363 340.4C216.739 339.848 216.427 339.044 216.427 337.988V335H217.993V337.898C217.993 338.558 218.167 339.038 218.515 339.338C218.875 339.626 219.421 339.77 220.153 339.77C220.981 339.77 221.755 339.614 222.475 339.302ZM235.06 340.22H227.518C227.674 341.012 228.04 341.636 228.616 342.092C229.192 342.536 229.912 342.758 230.776 342.758C231.964 342.758 232.828 342.32 233.368 341.444L234.7 342.2C233.812 343.556 232.492 344.234 230.74 344.234C229.324 344.234 228.16 343.79 227.248 342.902C226.36 341.99 225.916 340.856 225.916 339.5C225.916 338.132 226.354 337.004 227.23 336.116C228.106 335.216 229.24 334.766 230.632 334.766C231.952 334.766 233.026 335.234 233.854 336.17C234.694 337.082 235.114 338.198 235.114 339.518C235.114 339.746 235.096 339.98 235.06 340.22ZM230.632 336.242C229.804 336.242 229.108 336.476 228.544 336.944C227.992 337.412 227.65 338.048 227.518 338.852H233.53C233.398 338.024 233.068 337.382 232.54 336.926C232.012 336.47 231.376 336.242 230.632 336.242ZM241.127 344.234C239.771 344.234 238.643 343.784 237.743 342.884C236.843 341.972 236.393 340.844 236.393 339.5C236.393 338.156 236.843 337.034 237.743 336.134C238.643 335.222 239.771 334.766 241.127 334.766C242.015 334.766 242.813 334.982 243.521 335.414C244.229 335.834 244.757 336.404 245.105 337.124L243.791 337.88C243.563 337.4 243.209 337.016 242.729 336.728C242.261 336.44 241.727 336.296 241.127 336.296C240.227 336.296 239.471 336.602 238.859 337.214C238.259 337.838 237.959 338.6 237.959 339.5C237.959 340.388 238.259 341.144 238.859 341.768C239.471 342.38 240.227 342.686 241.127 342.686C241.727 342.686 242.267 342.548 242.747 342.272C243.227 341.984 243.593 341.6 243.845 341.12L245.177 341.894C244.781 342.614 244.223 343.184 243.503 343.604C242.783 344.024 241.991 344.234 241.127 344.234ZM249.909 339.356L254.355 344H252.411L248.307 339.734V344H246.741V335H248.307V338.978L252.195 335H254.211L249.909 339.356ZM257.359 341.318L262.345 335H263.605V344H262.057V337.682L257.071 344H255.811V335H257.359V341.318ZM272.325 333.65H267.465V332.282H272.325V333.65ZM267.537 341.318L272.523 335H273.783V344H272.235V337.682L267.249 344H265.989V335H267.537V341.318ZM284.897 344.234C283.541 344.234 282.413 343.784 281.513 342.884C280.613 341.972 280.163 340.844 280.163 339.5C280.163 338.156 280.613 337.034 281.513 336.134C282.413 335.222 283.541 334.766 284.897 334.766C285.785 334.766 286.583 334.982 287.291 335.414C287.999 335.834 288.527 336.404 288.875 337.124L287.561 337.88C287.333 337.4 286.979 337.016 286.499 336.728C286.031 336.44 285.497 336.296 284.897 336.296C283.997 336.296 283.241 336.602 282.629 337.214C282.029 337.838 281.729 338.6 281.729 339.5C281.729 340.388 282.029 341.144 282.629 341.768C283.241 342.38 283.997 342.686 284.897 342.686C285.497 342.686 286.037 342.548 286.517 342.272C286.997 341.984 287.363 341.6 287.615 341.12L288.947 341.894C288.551 342.614 287.993 343.184 287.273 343.604C286.553 344.024 285.761 344.234 284.897 344.234ZM297.966 342.866C297.054 343.778 295.932 344.234 294.6 344.234C293.268 344.234 292.146 343.778 291.234 342.866C290.322 341.954 289.866 340.832 289.866 339.5C289.866 338.168 290.322 337.046 291.234 336.134C292.146 335.222 293.268 334.766 294.6 334.766C295.932 334.766 297.054 335.222 297.966 336.134C298.89 337.058 299.352 338.18 299.352 339.5C299.352 340.82 298.89 341.942 297.966 342.866ZM294.6 342.704C295.5 342.704 296.256 342.398 296.868 341.786C297.48 341.174 297.786 340.412 297.786 339.5C297.786 338.588 297.48 337.826 296.868 337.214C296.256 336.602 295.5 336.296 294.6 336.296C293.712 336.296 292.962 336.602 292.35 337.214C291.738 337.826 291.432 338.588 291.432 339.5C291.432 340.412 291.738 341.174 292.35 341.786C292.962 342.398 293.712 342.704 294.6 342.704ZM307.192 339.374C308.116 339.758 308.578 340.454 308.578 341.462C308.578 342.23 308.326 342.848 307.822 343.316C307.318 343.772 306.61 344 305.698 344H301.198V335H305.338C306.226 335 306.916 335.222 307.408 335.666C307.912 336.11 308.164 336.704 308.164 337.448C308.164 338.312 307.84 338.954 307.192 339.374ZM305.266 336.404H302.728V338.762H305.266C306.178 338.762 306.634 338.36 306.634 337.556C306.634 336.788 306.178 336.404 305.266 336.404ZM302.728 342.578H305.608C306.064 342.578 306.412 342.47 306.652 342.254C306.904 342.038 307.03 341.732 307.03 341.336C307.03 340.964 306.904 340.676 306.652 340.472C306.412 340.256 306.064 340.148 305.608 340.148H302.728V342.578ZM318.908 340.22H311.366C311.522 341.012 311.888 341.636 312.464 342.092C313.04 342.536 313.76 342.758 314.624 342.758C315.812 342.758 316.676 342.32 317.216 341.444L318.548 342.2C317.66 343.556 316.34 344.234 314.588 344.234C313.172 344.234 312.008 343.79 311.096 342.902C310.208 341.99 309.764 340.856 309.764 339.5C309.764 338.132 310.202 337.004 311.078 336.116C311.954 335.216 313.088 334.766 314.48 334.766C315.8 334.766 316.874 335.234 317.702 336.17C318.542 337.082 318.962 338.198 318.962 339.518C318.962 339.746 318.944 339.98 318.908 340.22ZM314.48 336.242C313.652 336.242 312.956 336.476 312.392 336.944C311.84 337.412 311.498 338.048 311.366 338.852H317.378C317.246 338.024 316.916 337.382 316.388 336.926C315.86 336.47 315.224 336.242 314.48 336.242ZM319.403 335H327.107V336.512H324.047V344H322.481V336.512H319.403V335Z" fill="#416387"/>
<rect x="458" y="270" width="284" height="139" rx="30" fill="#EDF1F4"/>
<path d="M556.039 306.4V317.416H557.389V321.412H555.715V319H547.399V321.412H545.725V317.416H546.823C547.603 316.432 547.993 314.956 547.993 312.988V306.4H556.039ZM548.713 317.416H554.365V307.966H549.667V313.024C549.667 314.92 549.349 316.384 548.713 317.416ZM560.707 316.318L565.693 310H566.953V319H565.405V312.682L560.419 319H559.159V310H560.707V316.318ZM574.304 309.766C575.564 309.766 576.638 310.228 577.526 311.152C578.414 312.076 578.858 313.192 578.858 314.5C578.858 315.82 578.414 316.942 577.526 317.866C576.65 318.778 575.576 319.234 574.304 319.234C572.816 319.234 571.682 318.64 570.902 317.452V322.6H569.336V310H570.902V311.548C571.682 310.36 572.816 309.766 574.304 309.766ZM574.106 317.722C575.006 317.722 575.762 317.416 576.374 316.804C576.986 316.168 577.292 315.4 577.292 314.5C577.292 313.588 576.986 312.826 576.374 312.214C575.762 311.59 575.006 311.278 574.106 311.278C573.194 311.278 572.432 311.59 571.82 312.214C571.208 312.826 570.902 313.588 570.902 314.5C570.902 315.4 571.208 316.168 571.82 316.804C572.432 317.416 573.194 317.722 574.106 317.722ZM589.367 315.22H581.825C581.981 316.012 582.347 316.636 582.923 317.092C583.499 317.536 584.219 317.758 585.083 317.758C586.271 317.758 587.135 317.32 587.675 316.444L589.007 317.2C588.119 318.556 586.799 319.234 585.047 319.234C583.631 319.234 582.467 318.79 581.555 317.902C580.667 316.99 580.223 315.856 580.223 314.5C580.223 313.132 580.661 312.004 581.537 311.116C582.413 310.216 583.547 309.766 584.939 309.766C586.259 309.766 587.333 310.234 588.161 311.17C589.001 312.082 589.421 313.198 589.421 314.518C589.421 314.746 589.403 314.98 589.367 315.22ZM584.939 311.242C584.111 311.242 583.415 311.476 582.851 311.944C582.299 312.412 581.957 313.048 581.825 313.852H587.837C587.705 313.024 587.375 312.382 586.847 311.926C586.319 311.47 585.683 311.242 584.939 311.242ZM594.389 314.356L598.835 319H596.891L592.787 314.734V319H591.221V310H592.787V313.978L596.675 310H598.691L594.389 314.356ZM599.284 310H606.988V311.512H603.928V319H602.362V311.512H599.284V310ZM615.604 317.866C614.692 318.778 613.57 319.234 612.238 319.234C610.906 319.234 609.784 318.778 608.872 317.866C607.96 316.954 607.504 315.832 607.504 314.5C607.504 313.168 607.96 312.046 608.872 311.134C609.784 310.222 610.906 309.766 612.238 309.766C613.57 309.766 614.692 310.222 615.604 311.134C616.528 312.058 616.99 313.18 616.99 314.5C616.99 315.82 616.528 316.942 615.604 317.866ZM612.238 317.704C613.138 317.704 613.894 317.398 614.506 316.786C615.118 316.174 615.424 315.412 615.424 314.5C615.424 313.588 615.118 312.826 614.506 312.214C613.894 311.602 613.138 311.296 612.238 311.296C611.35 311.296 610.6 311.602 609.988 312.214C609.376 312.826 609.07 313.588 609.07 314.5C609.07 315.412 609.376 316.174 609.988 316.786C610.6 317.398 611.35 317.704 612.238 317.704ZM623.804 309.766C625.064 309.766 626.138 310.228 627.026 311.152C627.914 312.076 628.358 313.192 628.358 314.5C628.358 315.82 627.914 316.942 627.026 317.866C626.15 318.778 625.076 319.234 623.804 319.234C622.316 319.234 621.182 318.64 620.402 317.452V322.6H618.836V310H620.402V311.548C621.182 310.36 622.316 309.766 623.804 309.766ZM623.606 317.722C624.506 317.722 625.262 317.416 625.874 316.804C626.486 316.168 626.792 315.4 626.792 314.5C626.792 313.588 626.486 312.826 625.874 312.214C625.262 311.59 624.506 311.278 623.606 311.278C622.694 311.278 621.932 311.59 621.32 312.214C620.708 312.826 620.402 313.588 620.402 314.5C620.402 315.4 620.708 316.168 621.32 316.804C621.932 317.416 622.694 317.722 623.606 317.722ZM634.727 310H642.521V319H640.955V311.494H636.293V319H634.727V310ZM652.501 317.866C651.589 318.778 650.467 319.234 649.135 319.234C647.803 319.234 646.681 318.778 645.769 317.866C644.857 316.954 644.401 315.832 644.401 314.5C644.401 313.168 644.857 312.046 645.769 311.134C646.681 310.222 647.803 309.766 649.135 309.766C650.467 309.766 651.589 310.222 652.501 311.134C653.425 312.058 653.887 313.18 653.887 314.5C653.887 315.82 653.425 316.942 652.501 317.866ZM649.135 317.704C650.035 317.704 650.791 317.398 651.403 316.786C652.015 316.174 652.321 315.412 652.321 314.5C652.321 313.588 652.015 312.826 651.403 312.214C650.791 311.602 650.035 311.296 649.135 311.296C648.247 311.296 647.497 311.602 646.885 312.214C646.273 312.826 645.967 313.588 645.967 314.5C645.967 315.412 646.273 316.174 646.885 316.786C647.497 317.398 648.247 317.704 649.135 317.704ZM542.391 334.766C543.651 334.766 544.725 335.228 545.613 336.152C546.501 337.076 546.945 338.192 546.945 339.5C546.945 340.82 546.501 341.942 545.613 342.866C544.737 343.778 543.663 344.234 542.391 344.234C540.903 344.234 539.769 343.64 538.989 342.452V347.6H537.423V335H538.989V336.548C539.769 335.36 540.903 334.766 542.391 334.766ZM542.193 342.722C543.093 342.722 543.849 342.416 544.461 341.804C545.073 341.168 545.379 340.4 545.379 339.5C545.379 338.588 545.073 337.826 544.461 337.214C543.849 336.59 543.093 336.278 542.193 336.278C541.281 336.278 540.519 336.59 539.907 337.214C539.295 337.826 538.989 338.588 538.989 339.5C538.989 340.4 539.295 341.168 539.907 341.804C540.519 342.416 541.281 342.722 542.193 342.722ZM556.266 336.548V335H557.832V344H556.266V342.452C555.498 343.64 554.364 344.234 552.864 344.234C551.592 344.234 550.518 343.778 549.642 342.866C548.754 341.942 548.31 340.82 548.31 339.5C548.31 338.192 548.754 337.076 549.642 336.152C550.53 335.228 551.604 334.766 552.864 334.766C554.364 334.766 555.498 335.36 556.266 336.548ZM553.062 342.722C553.974 342.722 554.736 342.416 555.348 341.804C555.96 341.168 556.266 340.4 556.266 339.5C556.266 338.588 555.96 337.826 555.348 337.214C554.736 336.59 553.974 336.278 553.062 336.278C552.162 336.278 551.406 336.59 550.794 337.214C550.182 337.826 549.876 338.588 549.876 339.5C549.876 340.4 550.182 341.168 550.794 341.804C551.406 342.416 552.162 342.722 553.062 342.722ZM565.065 339.392C566.061 339.812 566.559 340.526 566.559 341.534C566.559 342.314 566.253 342.962 565.641 343.478C565.029 343.982 564.183 344.234 563.103 344.234C561.303 344.234 560.097 343.514 559.485 342.074L560.799 341.3C561.135 342.284 561.909 342.776 563.121 342.776C563.709 342.776 564.171 342.65 564.507 342.398C564.843 342.146 565.011 341.81 565.011 341.39C565.011 341.03 564.873 340.736 564.597 340.508C564.333 340.28 563.973 340.166 563.517 340.166H562.203V338.744H563.175C563.631 338.744 563.985 338.636 564.237 338.42C564.489 338.192 564.615 337.886 564.615 337.502C564.615 337.106 564.465 336.794 564.165 336.566C563.865 336.326 563.463 336.206 562.959 336.206C561.951 336.206 561.267 336.632 560.907 337.484L559.629 336.746C560.265 335.426 561.375 334.766 562.959 334.766C563.919 334.766 564.687 335.018 565.263 335.522C565.851 336.014 566.145 336.632 566.145 337.376C566.145 338.288 565.785 338.96 565.065 339.392ZM575.581 335H577.255V344H575.725V337.466L572.863 342.074H572.665L569.803 337.466V344H568.255V335H569.929L572.755 339.554L575.581 335ZM588.286 340.22H580.744C580.9 341.012 581.266 341.636 581.842 342.092C582.418 342.536 583.138 342.758 584.002 342.758C585.19 342.758 586.054 342.32 586.594 341.444L587.926 342.2C587.038 343.556 585.718 344.234 583.966 344.234C582.55 344.234 581.386 343.79 580.474 342.902C579.586 341.99 579.142 340.856 579.142 339.5C579.142 338.132 579.58 337.004 580.456 336.116C581.332 335.216 582.466 334.766 583.858 334.766C585.178 334.766 586.252 335.234 587.08 336.17C587.92 337.082 588.34 338.198 588.34 339.518C588.34 339.746 588.322 339.98 588.286 340.22ZM583.858 336.242C583.03 336.242 582.334 336.476 581.77 336.944C581.218 337.412 580.876 338.048 580.744 338.852H586.756C586.624 338.024 586.294 337.382 585.766 336.926C585.238 336.47 584.602 336.242 583.858 336.242ZM602.38 335V342.506H603.622V346.412H602.074V344H590.14V335H591.706V342.506H595.486V335H597.052V342.506H600.814V335H602.38ZM613.599 340.22H606.057C606.213 341.012 606.579 341.636 607.155 342.092C607.731 342.536 608.451 342.758 609.315 342.758C610.503 342.758 611.367 342.32 611.907 341.444L613.239 342.2C612.351 343.556 611.031 344.234 609.279 344.234C607.863 344.234 606.699 343.79 605.787 342.902C604.899 341.99 604.455 340.856 604.455 339.5C604.455 338.132 604.893 337.004 605.769 336.116C606.645 335.216 607.779 334.766 609.171 334.766C610.491 334.766 611.565 335.234 612.393 336.17C613.233 337.082 613.653 338.198 613.653 339.518C613.653 339.746 613.635 339.98 613.599 340.22ZM609.171 336.242C608.343 336.242 607.647 336.476 607.083 336.944C606.531 337.412 606.189 338.048 606.057 338.852H612.069C611.937 338.024 611.607 337.382 611.079 336.926C610.551 336.47 609.915 336.242 609.171 336.242ZM621.681 338.744V335H623.247V344H621.681V340.238H617.019V344H615.453V335H617.019V338.744H621.681ZM627.178 341.318L632.164 335H633.424V344H631.876V337.682L626.89 344H625.63V335H627.178V341.318ZM643.674 334.766C644.994 334.766 646.11 335.222 647.022 336.134C647.946 337.058 648.408 338.18 648.408 339.5C648.408 340.82 647.946 341.942 647.022 342.866C646.11 343.778 644.994 344.234 643.674 344.234C642.486 344.234 641.46 343.856 640.596 343.1C639.72 342.344 639.204 341.39 639.048 340.238H637.374V344H635.808V335H637.374V338.744H639.048C639.216 337.592 639.732 336.644 640.596 335.9C641.484 335.144 642.51 334.766 643.674 334.766ZM643.674 342.704C644.562 342.704 645.312 342.398 645.924 341.786C646.536 341.174 646.842 340.412 646.842 339.5C646.842 338.588 646.536 337.826 645.924 337.214C645.312 336.602 644.562 336.296 643.674 336.296C642.774 336.296 642.018 336.602 641.406 337.214C640.794 337.826 640.488 338.588 640.488 339.5C640.488 340.412 640.794 341.174 641.406 341.786C642.018 342.398 642.774 342.704 643.674 342.704ZM656.323 341.318L661.309 335H662.569V344H661.021V337.682L656.035 344H654.775V335H656.323V341.318ZM530.828 363.744V360H532.394V369H530.828V365.238H526.166V369H524.6V360H526.166V363.744H530.828ZM542.374 367.866C541.462 368.778 540.34 369.234 539.008 369.234C537.676 369.234 536.554 368.778 535.642 367.866C534.73 366.954 534.274 365.832 534.274 364.5C534.274 363.168 534.73 362.046 535.642 361.134C536.554 360.222 537.676 359.766 539.008 359.766C540.34 359.766 541.462 360.222 542.374 361.134C543.298 362.058 543.76 363.18 543.76 364.5C543.76 365.82 543.298 366.942 542.374 367.866ZM539.008 367.704C539.908 367.704 540.664 367.398 541.276 366.786C541.888 366.174 542.194 365.412 542.194 364.5C542.194 363.588 541.888 362.826 541.276 362.214C540.664 361.602 539.908 361.296 539.008 361.296C538.12 361.296 537.37 361.602 536.758 362.214C536.146 362.826 535.84 363.588 535.84 364.5C535.84 365.412 536.146 366.174 536.758 366.786C537.37 367.398 538.12 367.704 539.008 367.704ZM552.932 360H554.606V369H553.076V362.466L550.214 367.074H550.016L547.154 362.466V369H545.606V360H547.28L550.106 364.554L552.932 360ZM565.637 365.22H558.095C558.251 366.012 558.617 366.636 559.193 367.092C559.769 367.536 560.489 367.758 561.353 367.758C562.541 367.758 563.405 367.32 563.945 366.444L565.277 367.2C564.389 368.556 563.069 369.234 561.317 369.234C559.901 369.234 558.737 368.79 557.825 367.902C556.937 366.99 556.493 365.856 556.493 364.5C556.493 363.132 556.931 362.004 557.807 361.116C558.683 360.216 559.817 359.766 561.209 359.766C562.529 359.766 563.603 360.234 564.431 361.17C565.271 362.082 565.691 363.198 565.691 364.518C565.691 364.746 565.673 364.98 565.637 365.22ZM561.209 361.242C560.381 361.242 559.685 361.476 559.121 361.944C558.569 362.412 558.227 363.048 558.095 363.852H564.107C563.975 363.024 563.645 362.382 563.117 361.926C562.589 361.47 561.953 361.242 561.209 361.242ZM572.459 359.766C573.719 359.766 574.793 360.228 575.681 361.152C576.569 362.076 577.013 363.192 577.013 364.5C577.013 365.82 576.569 366.942 575.681 367.866C574.805 368.778 573.731 369.234 572.459 369.234C570.971 369.234 569.837 368.64 569.057 367.452V372.6H567.491V360H569.057V361.548C569.837 360.36 570.971 359.766 572.459 359.766ZM572.261 367.722C573.161 367.722 573.917 367.416 574.529 366.804C575.141 366.168 575.447 365.4 575.447 364.5C575.447 363.588 575.141 362.826 574.529 362.214C573.917 361.59 573.161 361.278 572.261 361.278C571.349 361.278 570.587 361.59 569.975 362.214C569.363 362.826 569.057 363.588 569.057 364.5C569.057 365.4 569.363 366.168 569.975 366.804C570.587 367.416 571.349 367.722 572.261 367.722ZM585.109 363.744V360H586.675V369H585.109V365.238H580.447V369H578.881V360H580.447V363.744H585.109ZM596.655 367.866C595.743 368.778 594.621 369.234 593.289 369.234C591.957 369.234 590.835 368.778 589.923 367.866C589.011 366.954 588.555 365.832 588.555 364.5C588.555 363.168 589.011 362.046 589.923 361.134C590.835 360.222 591.957 359.766 593.289 359.766C594.621 359.766 595.743 360.222 596.655 361.134C597.579 362.058 598.041 363.18 598.041 364.5C598.041 365.82 597.579 366.942 596.655 367.866ZM593.289 367.704C594.189 367.704 594.945 367.398 595.557 366.786C596.169 366.174 596.475 365.412 596.475 364.5C596.475 363.588 596.169 362.826 595.557 362.214C594.945 361.602 594.189 361.296 593.289 361.296C592.401 361.296 591.651 361.602 591.039 362.214C590.427 362.826 590.121 363.588 590.121 364.5C590.121 365.412 590.427 366.174 591.039 366.786C591.651 367.398 592.401 367.704 593.289 367.704ZM607.213 360H608.887V369H607.357V362.466L604.495 367.074H604.297L601.435 362.466V369H599.887V360H601.561L604.387 364.554L607.213 360ZM614.968 367.056L617.56 360H619.234L615.562 369.558C615.178 370.578 614.638 371.352 613.942 371.88C613.246 372.42 612.454 372.66 611.566 372.6V371.142C612.658 371.226 613.468 370.626 613.996 369.342L614.14 369.018L610.234 360H611.89L614.968 367.056ZM630.712 369.18V372.6H629.164V369.18C627.76 369.024 626.638 368.514 625.798 367.65C624.958 366.798 624.538 365.748 624.538 364.5C624.538 363.252 624.958 362.202 625.798 361.35C626.638 360.486 627.76 359.976 629.164 359.82V356.4H630.712V359.82C632.116 359.976 633.238 360.486 634.078 361.35C634.918 362.202 635.338 363.252 635.338 364.5C635.338 365.748 634.918 366.798 634.078 367.65C633.238 368.514 632.116 369.024 630.712 369.18ZM626.086 364.5C626.086 365.34 626.356 366.048 626.896 366.624C627.448 367.188 628.204 367.536 629.164 367.668V361.332C628.216 361.452 627.466 361.8 626.914 362.376C626.362 362.94 626.086 363.648 626.086 364.5ZM630.712 361.332V367.668C631.66 367.536 632.404 367.188 632.944 366.624C633.496 366.048 633.772 365.34 633.772 364.5C633.772 363.66 633.496 362.958 632.944 362.394C632.404 361.818 631.66 361.464 630.712 361.332ZM644.784 367.866C643.872 368.778 642.75 369.234 641.418 369.234C640.086 369.234 638.964 368.778 638.052 367.866C637.14 366.954 636.684 365.832 636.684 364.5C636.684 363.168 637.14 362.046 638.052 361.134C638.964 360.222 640.086 359.766 641.418 359.766C642.75 359.766 643.872 360.222 644.784 361.134C645.708 362.058 646.17 363.18 646.17 364.5C646.17 365.82 645.708 366.942 644.784 367.866ZM641.418 367.704C642.318 367.704 643.074 367.398 643.686 366.786C644.298 366.174 644.604 365.412 644.604 364.5C644.604 363.588 644.298 362.826 643.686 362.214C643.074 361.602 642.318 361.296 641.418 361.296C640.53 361.296 639.78 361.602 639.168 362.214C638.556 362.826 638.25 363.588 638.25 364.5C638.25 365.412 638.556 366.174 639.168 366.786C639.78 367.398 640.53 367.704 641.418 367.704ZM654.244 363.744V360H655.81V369H654.244V365.238H649.582V369H648.016V360H649.582V363.744H654.244ZM665.934 360V367.506H667.176V371.412H665.628V369H658.878V371.412H657.33V367.506H658.428C659.004 366.714 659.292 365.604 659.292 364.176V360H665.934ZM660.21 367.506H664.386V361.458H660.84V364.176C660.84 365.496 660.63 366.606 660.21 367.506ZM672.202 367.056L674.794 360H676.468L672.796 369.558C672.412 370.578 671.872 371.352 671.176 371.88C670.48 372.42 669.688 372.66 668.8 372.6V371.142C669.892 371.226 670.702 370.626 671.23 369.342L671.374 369.018L667.468 360H669.124L672.202 367.056Z" fill="#416387"/>
<rect x="826" y="270" width="284" height="139" rx="30" fill="#EDF1F4"/>
<path d="M934.542 318.9V329.916H935.892V333.912H934.218V331.5H925.902V333.912H924.228V329.916H925.326C926.106 328.932 926.496 327.456 926.496 325.488V318.9H934.542ZM927.216 329.916H932.868V320.466H928.17V325.524C928.17 327.42 927.852 328.884 927.216 329.916ZM939.21 328.818L944.196 322.5H945.456V331.5H943.908V325.182L938.922 331.5H937.662V322.5H939.21V328.818ZM952.807 322.266C954.067 322.266 955.141 322.728 956.029 323.652C956.917 324.576 957.361 325.692 957.361 327C957.361 328.32 956.917 329.442 956.029 330.366C955.153 331.278 954.079 331.734 952.807 331.734C951.319 331.734 950.185 331.14 949.405 329.952V335.1H947.839V322.5H949.405V324.048C950.185 322.86 951.319 322.266 952.807 322.266ZM952.609 330.222C953.509 330.222 954.265 329.916 954.877 329.304C955.489 328.668 955.795 327.9 955.795 327C955.795 326.088 955.489 325.326 954.877 324.714C954.265 324.09 953.509 323.778 952.609 323.778C951.697 323.778 950.935 324.09 950.323 324.714C949.711 325.326 949.405 326.088 949.405 327C949.405 327.9 949.711 328.668 950.323 329.304C950.935 329.916 951.697 330.222 952.609 330.222ZM967.87 327.72H960.328C960.484 328.512 960.85 329.136 961.426 329.592C962.002 330.036 962.722 330.258 963.586 330.258C964.774 330.258 965.638 329.82 966.178 328.944L967.51 329.7C966.622 331.056 965.302 331.734 963.55 331.734C962.134 331.734 960.97 331.29 960.058 330.402C959.17 329.49 958.726 328.356 958.726 327C958.726 325.632 959.164 324.504 960.04 323.616C960.916 322.716 962.05 322.266 963.442 322.266C964.762 322.266 965.836 322.734 966.664 323.67C967.504 324.582 967.924 325.698 967.924 327.018C967.924 327.246 967.906 327.48 967.87 327.72ZM963.442 323.742C962.614 323.742 961.918 323.976 961.354 324.444C960.802 324.912 960.46 325.548 960.328 326.352H966.34C966.208 325.524 965.878 324.882 965.35 324.426C964.822 323.97 964.186 323.742 963.442 323.742ZM972.892 326.856L977.338 331.5H975.394L971.29 327.234V331.5H969.724V322.5H971.29V326.478L975.178 322.5H977.194L972.892 326.856ZM977.786 322.5H985.49V324.012H982.43V331.5H980.864V324.012H977.786V322.5ZM994.107 330.366C993.195 331.278 992.073 331.734 990.741 331.734C989.409 331.734 988.287 331.278 987.375 330.366C986.463 329.454 986.007 328.332 986.007 327C986.007 325.668 986.463 324.546 987.375 323.634C988.287 322.722 989.409 322.266 990.741 322.266C992.073 322.266 993.195 322.722 994.107 323.634C995.031 324.558 995.493 325.68 995.493 327C995.493 328.32 995.031 329.442 994.107 330.366ZM990.741 330.204C991.641 330.204 992.397 329.898 993.009 329.286C993.621 328.674 993.927 327.912 993.927 327C993.927 326.088 993.621 325.326 993.009 324.714C992.397 324.102 991.641 323.796 990.741 323.796C989.853 323.796 989.103 324.102 988.491 324.714C987.879 325.326 987.573 326.088 987.573 327C987.573 327.912 987.879 328.674 988.491 329.286C989.103 329.898 989.853 330.204 990.741 330.204ZM1002.31 322.266C1003.57 322.266 1004.64 322.728 1005.53 323.652C1006.42 324.576 1006.86 325.692 1006.86 327C1006.86 328.32 1006.42 329.442 1005.53 330.366C1004.65 331.278 1003.58 331.734 1002.31 331.734C1000.82 331.734 999.685 331.14 998.905 329.952V335.1H997.339V322.5H998.905V324.048C999.685 322.86 1000.82 322.266 1002.31 322.266ZM1002.11 330.222C1003.01 330.222 1003.77 329.916 1004.38 329.304C1004.99 328.668 1005.3 327.9 1005.3 327C1005.3 326.088 1004.99 325.326 1004.38 324.714C1003.77 324.09 1003.01 323.778 1002.11 323.778C1001.2 323.778 1000.44 324.09 999.823 324.714C999.211 325.326 998.905 326.088 998.905 327C998.905 327.9 999.211 328.668 999.823 329.304C1000.44 329.916 1001.2 330.222 1002.11 330.222ZM919.292 347.5H927.086V356.5H925.52V348.994H920.858V356.5H919.292V347.5ZM937.066 355.366C936.154 356.278 935.032 356.734 933.7 356.734C932.368 356.734 931.246 356.278 930.334 355.366C929.422 354.454 928.966 353.332 928.966 352C928.966 350.668 929.422 349.546 930.334 348.634C931.246 347.722 932.368 347.266 933.7 347.266C935.032 347.266 936.154 347.722 937.066 348.634C937.99 349.558 938.452 350.68 938.452 352C938.452 353.32 937.99 354.442 937.066 355.366ZM933.7 355.204C934.6 355.204 935.356 354.898 935.968 354.286C936.58 353.674 936.886 352.912 936.886 352C936.886 351.088 936.58 350.326 935.968 349.714C935.356 349.102 934.6 348.796 933.7 348.796C932.812 348.796 932.062 349.102 931.45 349.714C930.838 350.326 930.532 351.088 930.532 352C930.532 352.912 930.838 353.674 931.45 354.286C932.062 354.898 932.812 355.204 933.7 355.204ZM944.798 347.5H952.592V356.5H951.026V348.994H946.364V356.5H944.798V347.5ZM956.524 353.818L961.51 347.5H962.77V356.5H961.222V350.182L956.236 356.5H954.976V347.5H956.524V353.818ZM964.146 347.5H971.85V349.012H968.79V356.5H967.224V349.012H964.146V347.5ZM980.323 349.048V347.5H981.889V356.5H980.323V354.952C979.555 356.14 978.421 356.734 976.921 356.734C975.649 356.734 974.575 356.278 973.699 355.366C972.811 354.442 972.367 353.32 972.367 352C972.367 350.692 972.811 349.576 973.699 348.652C974.587 347.728 975.661 347.266 976.921 347.266C978.421 347.266 979.555 347.86 980.323 349.048ZM977.119 355.222C978.031 355.222 978.793 354.916 979.405 354.304C980.017 353.668 980.323 352.9 980.323 352C980.323 351.088 980.017 350.326 979.405 349.714C978.793 349.09 978.031 348.778 977.119 348.778C976.219 348.778 975.463 349.09 974.851 349.714C974.239 350.326 973.933 351.088 973.933 352C973.933 352.9 974.239 353.668 974.851 354.304C975.463 354.916 976.219 355.222 977.119 355.222ZM990.489 351.244V347.5H992.055V356.5H990.489V352.738H985.827V356.5H984.261V347.5H985.827V351.244H990.489ZM995.987 353.818L1000.97 347.5H1002.23V356.5H1000.68V350.182L995.699 356.5H994.439V347.5H995.987V353.818ZM1012.48 347.266C1013.8 347.266 1014.92 347.722 1015.83 348.634C1016.75 349.558 1017.22 350.68 1017.22 352C1017.22 353.32 1016.75 354.442 1015.83 355.366C1014.92 356.278 1013.8 356.734 1012.48 356.734C1011.29 356.734 1010.27 356.356 1009.4 355.6C1008.53 354.844 1008.01 353.89 1007.86 352.738H1006.18V356.5H1004.62V347.5H1006.18V351.244H1007.86C1008.02 350.092 1008.54 349.144 1009.4 348.4C1010.29 347.644 1011.32 347.266 1012.48 347.266ZM1012.48 355.204C1013.37 355.204 1014.12 354.898 1014.73 354.286C1015.34 353.674 1015.65 352.912 1015.65 352C1015.65 351.088 1015.34 350.326 1014.73 349.714C1014.12 349.102 1013.37 348.796 1012.48 348.796C1011.58 348.796 1010.83 349.102 1010.21 349.714C1009.6 350.326 1009.3 351.088 1009.3 352C1009.3 352.912 1009.6 353.674 1010.21 354.286C1010.83 354.898 1011.58 355.204 1012.48 355.204Z" fill="#416387"/>
<rect x="62" y="479" width="159.5" height="86" rx="30" fill="#EDF1F4"/>
<path d="M82.7859 514.8H90.9139V526H89.4259V516.208H84.2739V526H82.7859V514.8ZM99.9252 524.992C99.1145 525.803 98.1172 526.208 96.9332 526.208C95.7492 526.208 94.7519 525.803 93.9412 524.992C93.1305 524.181 92.7252 523.184 92.7252 522C92.7252 520.816 93.1305 519.819 93.9412 519.008C94.7519 518.197 95.7492 517.792 96.9332 517.792C98.1172 517.792 99.1145 518.197 99.9252 519.008C100.747 519.829 101.157 520.827 101.157 522C101.157 523.173 100.747 524.171 99.9252 524.992ZM96.9332 524.848C97.7332 524.848 98.4052 524.576 98.9492 524.032C99.4932 523.488 99.7652 522.811 99.7652 522C99.7652 521.189 99.4932 520.512 98.9492 519.968C98.4052 519.424 97.7332 519.152 96.9332 519.152C96.1439 519.152 95.4772 519.424 94.9332 519.968C94.3892 520.512 94.1172 521.189 94.1172 522C94.1172 522.811 94.3892 523.488 94.9332 524.032C95.4772 524.576 96.1439 524.848 96.9332 524.848ZM109.366 518V524.672H110.47V528.144H109.094V526H103.094V528.144H101.718V524.672H102.694C103.206 523.968 103.462 522.981 103.462 521.712V518H109.366ZM104.278 524.672H107.99V519.296H104.838V521.712C104.838 522.885 104.651 523.872 104.278 524.672ZM116.386 517.792C117.506 517.792 118.461 518.203 119.25 519.024C120.039 519.845 120.434 520.837 120.434 522C120.434 523.173 120.039 524.171 119.25 524.992C118.471 525.803 117.517 526.208 116.386 526.208C115.063 526.208 114.055 525.68 113.362 524.624V529.2H111.97V518H113.362V519.376C114.055 518.32 115.063 517.792 116.386 517.792ZM116.21 524.864C117.01 524.864 117.682 524.592 118.226 524.048C118.77 523.483 119.042 522.8 119.042 522C119.042 521.189 118.77 520.512 118.226 519.968C117.682 519.413 117.01 519.136 116.21 519.136C115.399 519.136 114.722 519.413 114.178 519.968C113.634 520.512 113.362 521.189 113.362 522C113.362 522.8 113.634 523.483 114.178 524.048C114.722 524.592 115.399 524.864 116.21 524.864ZM128.719 519.376V518H130.111V526H128.719V524.624C128.036 525.68 127.028 526.208 125.695 526.208C124.564 526.208 123.61 525.803 122.831 524.992C122.042 524.171 121.647 523.173 121.647 522C121.647 520.837 122.042 519.845 122.831 519.024C123.62 518.203 124.575 517.792 125.695 517.792C127.028 517.792 128.036 518.32 128.719 519.376ZM125.871 524.864C126.682 524.864 127.359 524.592 127.903 524.048C128.447 523.483 128.719 522.8 128.719 522C128.719 521.189 128.447 520.512 127.903 519.968C127.359 519.413 126.682 519.136 125.871 519.136C125.071 519.136 124.399 519.413 123.855 519.968C123.311 520.512 123.039 521.189 123.039 522C123.039 522.8 123.311 523.483 123.855 524.048C124.399 524.592 125.071 524.864 125.871 524.864ZM136.54 521.904C137.425 522.277 137.868 522.912 137.868 523.808C137.868 524.501 137.596 525.077 137.052 525.536C136.508 525.984 135.756 526.208 134.796 526.208C133.196 526.208 132.124 525.568 131.58 524.288L132.748 523.6C133.047 524.475 133.735 524.912 134.812 524.912C135.335 524.912 135.745 524.8 136.044 524.576C136.343 524.352 136.492 524.053 136.492 523.68C136.492 523.36 136.369 523.099 136.124 522.896C135.889 522.693 135.569 522.592 135.164 522.592H133.996V521.328H134.86C135.265 521.328 135.58 521.232 135.804 521.04C136.028 520.837 136.14 520.565 136.14 520.224C136.14 519.872 136.007 519.595 135.74 519.392C135.473 519.179 135.116 519.072 134.668 519.072C133.772 519.072 133.164 519.451 132.844 520.208L131.708 519.552C132.273 518.379 133.26 517.792 134.668 517.792C135.521 517.792 136.204 518.016 136.716 518.464C137.239 518.901 137.5 519.451 137.5 520.112C137.5 520.923 137.18 521.52 136.54 521.904ZM146.131 518V524.672H147.235V528.144H145.859V526H139.859V528.144H138.483V524.672H139.459C139.971 523.968 140.227 522.981 140.227 521.712V518H146.131ZM141.043 524.672H144.755V519.296H141.603V521.712C141.603 522.885 141.417 523.872 141.043 524.672ZM156.103 522.64H149.399C149.538 523.344 149.863 523.899 150.375 524.304C150.887 524.699 151.527 524.896 152.295 524.896C153.351 524.896 154.119 524.507 154.599 523.728L155.783 524.4C154.994 525.605 153.821 526.208 152.263 526.208C151.005 526.208 149.97 525.813 149.159 525.024C148.37 524.213 147.975 523.205 147.975 522C147.975 520.784 148.365 519.781 149.143 518.992C149.922 518.192 150.93 517.792 152.167 517.792C153.341 517.792 154.295 518.208 155.031 519.04C155.778 519.851 156.151 520.843 156.151 522.016C156.151 522.219 156.135 522.427 156.103 522.64ZM152.167 519.104C151.431 519.104 150.813 519.312 150.311 519.728C149.821 520.144 149.517 520.709 149.399 521.424H154.743C154.626 520.688 154.333 520.117 153.863 519.712C153.394 519.307 152.829 519.104 152.167 519.104ZM158.175 518H164.111V526H162.719V519.344H159.567V522.608C159.567 523.888 159.311 524.8 158.799 525.344C158.287 525.877 157.535 526.096 156.543 526V524.688C157.097 524.763 157.508 524.64 157.775 524.32C158.041 523.989 158.175 523.408 158.175 522.576V518ZM173.9 522.64H167.196C167.335 523.344 167.66 523.899 168.172 524.304C168.684 524.699 169.324 524.896 170.092 524.896C171.148 524.896 171.916 524.507 172.396 523.728L173.58 524.4C172.791 525.605 171.617 526.208 170.06 526.208C168.801 526.208 167.767 525.813 166.956 525.024C166.167 524.213 165.772 523.205 165.772 522C165.772 520.784 166.161 519.781 166.94 518.992C167.719 518.192 168.727 517.792 169.964 517.792C171.137 517.792 172.092 518.208 172.828 519.04C173.575 519.851 173.948 520.843 173.948 522.016C173.948 522.219 173.932 522.427 173.9 522.64ZM169.964 519.104C169.228 519.104 168.609 519.312 168.108 519.728C167.617 520.144 167.313 520.709 167.196 521.424H172.54C172.423 520.688 172.129 520.117 171.66 519.712C171.191 519.307 170.625 519.104 169.964 519.104ZM181.084 521.328V518H182.476V526H181.084V522.656H176.94V526H175.548V518H176.94V521.328H181.084ZM185.971 523.616L190.403 518H191.523V526H190.147V520.384L185.715 526H184.595V518H185.971V523.616ZM201.322 522.64H194.618C194.757 523.344 195.082 523.899 195.594 524.304C196.106 524.699 196.746 524.896 197.514 524.896C198.57 524.896 199.338 524.507 199.818 523.728L201.002 524.4C200.213 525.605 199.039 526.208 197.482 526.208C196.223 526.208 195.189 525.813 194.378 525.024C193.589 524.213 193.194 523.205 193.194 522C193.194 520.784 193.583 519.781 194.362 518.992C195.141 518.192 196.149 517.792 197.386 517.792C198.559 517.792 199.514 518.208 200.25 519.04C200.997 519.851 201.37 520.843 201.37 522.016C201.37 522.219 201.354 522.427 201.322 522.64ZM197.386 519.104C196.65 519.104 196.031 519.312 195.53 519.728C195.039 520.144 194.735 520.709 194.618 521.424H199.962C199.845 520.688 199.551 520.117 199.082 519.712C198.613 519.307 198.047 519.104 197.386 519.104Z" fill="#416387"/>
<rect x="241.5" y="479" width="159.5" height="86" rx="30" fill="#EDF1F4"/>
<path d="M262.286 514.8H270.414V526H268.926V516.208H263.774V526H262.286V514.8ZM279.425 524.992C278.615 525.803 277.617 526.208 276.433 526.208C275.249 526.208 274.252 525.803 273.441 524.992C272.631 524.181 272.225 523.184 272.225 522C272.225 520.816 272.631 519.819 273.441 519.008C274.252 518.197 275.249 517.792 276.433 517.792C277.617 517.792 278.615 518.197 279.425 519.008C280.247 519.829 280.657 520.827 280.657 522C280.657 523.173 280.247 524.171 279.425 524.992ZM276.433 524.848C277.233 524.848 277.905 524.576 278.449 524.032C278.993 523.488 279.265 522.811 279.265 522C279.265 521.189 278.993 520.512 278.449 519.968C277.905 519.424 277.233 519.152 276.433 519.152C275.644 519.152 274.977 519.424 274.433 519.968C273.889 520.512 273.617 521.189 273.617 522C273.617 522.811 273.889 523.488 274.433 524.032C274.977 524.576 275.644 524.848 276.433 524.848ZM288.866 518V524.672H289.97V528.144H288.594V526H282.594V528.144H281.218V524.672H282.194C282.706 523.968 282.962 522.981 282.962 521.712V518H288.866ZM283.778 524.672H287.49V519.296H284.338V521.712C284.338 522.885 284.151 523.872 283.778 524.672ZM295.886 517.792C297.006 517.792 297.961 518.203 298.75 519.024C299.539 519.845 299.934 520.837 299.934 522C299.934 523.173 299.539 524.171 298.75 524.992C297.971 525.803 297.017 526.208 295.886 526.208C294.563 526.208 293.555 525.68 292.862 524.624V529.2H291.47V518H292.862V519.376C293.555 518.32 294.563 517.792 295.886 517.792ZM295.71 524.864C296.51 524.864 297.182 524.592 297.726 524.048C298.27 523.483 298.542 522.8 298.542 522C298.542 521.189 298.27 520.512 297.726 519.968C297.182 519.413 296.51 519.136 295.71 519.136C294.899 519.136 294.222 519.413 293.678 519.968C293.134 520.512 292.862 521.189 292.862 522C292.862 522.8 293.134 523.483 293.678 524.048C294.222 524.592 294.899 524.864 295.71 524.864ZM308.219 519.376V518H309.611V526H308.219V524.624C307.536 525.68 306.528 526.208 305.195 526.208C304.064 526.208 303.11 525.803 302.331 524.992C301.542 524.171 301.147 523.173 301.147 522C301.147 520.837 301.542 519.845 302.331 519.024C303.12 518.203 304.075 517.792 305.195 517.792C306.528 517.792 307.536 518.32 308.219 519.376ZM305.371 524.864C306.182 524.864 306.859 524.592 307.403 524.048C307.947 523.483 308.219 522.8 308.219 522C308.219 521.189 307.947 520.512 307.403 519.968C306.859 519.413 306.182 519.136 305.371 519.136C304.571 519.136 303.899 519.413 303.355 519.968C302.811 520.512 302.539 521.189 302.539 522C302.539 522.8 302.811 523.483 303.355 524.048C303.899 524.592 304.571 524.864 305.371 524.864ZM316.04 521.904C316.925 522.277 317.368 522.912 317.368 523.808C317.368 524.501 317.096 525.077 316.552 525.536C316.008 525.984 315.256 526.208 314.296 526.208C312.696 526.208 311.624 525.568 311.08 524.288L312.248 523.6C312.547 524.475 313.235 524.912 314.312 524.912C314.835 524.912 315.245 524.8 315.544 524.576C315.843 524.352 315.992 524.053 315.992 523.68C315.992 523.36 315.869 523.099 315.624 522.896C315.389 522.693 315.069 522.592 314.664 522.592H313.496V521.328H314.36C314.765 521.328 315.08 521.232 315.304 521.04C315.528 520.837 315.64 520.565 315.64 520.224C315.64 519.872 315.507 519.595 315.24 519.392C314.973 519.179 314.616 519.072 314.168 519.072C313.272 519.072 312.664 519.451 312.344 520.208L311.208 519.552C311.773 518.379 312.76 517.792 314.168 517.792C315.021 517.792 315.704 518.016 316.216 518.464C316.739 518.901 317 519.451 317 520.112C317 520.923 316.68 521.52 316.04 521.904ZM325.631 518V524.672H326.735V528.144H325.359V526H319.359V528.144H317.983V524.672H318.959C319.471 523.968 319.727 522.981 319.727 521.712V518H325.631ZM320.543 524.672H324.255V519.296H321.103V521.712C321.103 522.885 320.917 523.872 320.543 524.672ZM335.603 522.64H328.899C329.038 523.344 329.363 523.899 329.875 524.304C330.387 524.699 331.027 524.896 331.795 524.896C332.851 524.896 333.619 524.507 334.099 523.728L335.283 524.4C334.494 525.605 333.321 526.208 331.763 526.208C330.505 526.208 329.47 525.813 328.659 525.024C327.87 524.213 327.475 523.205 327.475 522C327.475 520.784 327.865 519.781 328.643 518.992C329.422 518.192 330.43 517.792 331.667 517.792C332.841 517.792 333.795 518.208 334.531 519.04C335.278 519.851 335.651 520.843 335.651 522.016C335.651 522.219 335.635 522.427 335.603 522.64ZM331.667 519.104C330.931 519.104 330.313 519.312 329.811 519.728C329.321 520.144 329.017 520.709 328.899 521.424H334.243C334.126 520.688 333.833 520.117 333.363 519.712C332.894 519.307 332.329 519.104 331.667 519.104ZM337.675 518H343.611V526H342.219V519.344H339.067V522.608C339.067 523.888 338.811 524.8 338.299 525.344C337.787 525.877 337.035 526.096 336.043 526V524.688C336.597 524.763 337.008 524.64 337.275 524.32C337.541 523.989 337.675 523.408 337.675 522.576V518ZM353.4 522.64H346.696C346.835 523.344 347.16 523.899 347.672 524.304C348.184 524.699 348.824 524.896 349.592 524.896C350.648 524.896 351.416 524.507 351.896 523.728L353.08 524.4C352.291 525.605 351.117 526.208 349.56 526.208C348.301 526.208 347.267 525.813 346.456 525.024C345.667 524.213 345.272 523.205 345.272 522C345.272 520.784 345.661 519.781 346.44 518.992C347.219 518.192 348.227 517.792 349.464 517.792C350.637 517.792 351.592 518.208 352.328 519.04C353.075 519.851 353.448 520.843 353.448 522.016C353.448 522.219 353.432 522.427 353.4 522.64ZM349.464 519.104C348.728 519.104 348.109 519.312 347.608 519.728C347.117 520.144 346.813 520.709 346.696 521.424H352.04C351.923 520.688 351.629 520.117 351.16 519.712C350.691 519.307 350.125 519.104 349.464 519.104ZM360.584 521.328V518H361.976V526H360.584V522.656H356.44V526H355.048V518H356.44V521.328H360.584ZM365.471 523.616L369.903 518H371.023V526H369.647V520.384L365.215 526H364.095V518H365.471V523.616ZM380.822 522.64H374.118C374.257 523.344 374.582 523.899 375.094 524.304C375.606 524.699 376.246 524.896 377.014 524.896C378.07 524.896 378.838 524.507 379.318 523.728L380.502 524.4C379.713 525.605 378.539 526.208 376.982 526.208C375.723 526.208 374.689 525.813 373.878 525.024C373.089 524.213 372.694 523.205 372.694 522C372.694 520.784 373.083 519.781 373.862 518.992C374.641 518.192 375.649 517.792 376.886 517.792C378.059 517.792 379.014 518.208 379.75 519.04C380.497 519.851 380.87 520.843 380.87 522.016C380.87 522.219 380.854 522.427 380.822 522.64ZM376.886 519.104C376.15 519.104 375.531 519.312 375.03 519.728C374.539 520.144 374.235 520.709 374.118 521.424H379.462C379.345 520.688 379.051 520.117 378.582 519.712C378.113 519.307 377.547 519.104 376.886 519.104Z" fill="#416387"/>
<rect x="430" y="479" width="159.5" height="86" rx="30" fill="#EDF1F4"/>
<path d="M450.786 514.8H458.914V526H457.426V516.208H452.274V526H450.786V514.8ZM467.925 524.992C467.115 525.803 466.117 526.208 464.933 526.208C463.749 526.208 462.752 525.803 461.941 524.992C461.131 524.181 460.725 523.184 460.725 522C460.725 520.816 461.131 519.819 461.941 519.008C462.752 518.197 463.749 517.792 464.933 517.792C466.117 517.792 467.115 518.197 467.925 519.008C468.747 519.829 469.157 520.827 469.157 522C469.157 523.173 468.747 524.171 467.925 524.992ZM464.933 524.848C465.733 524.848 466.405 524.576 466.949 524.032C467.493 523.488 467.765 522.811 467.765 522C467.765 521.189 467.493 520.512 466.949 519.968C466.405 519.424 465.733 519.152 464.933 519.152C464.144 519.152 463.477 519.424 462.933 519.968C462.389 520.512 462.117 521.189 462.117 522C462.117 522.811 462.389 523.488 462.933 524.032C463.477 524.576 464.144 524.848 464.933 524.848ZM477.366 518V524.672H478.47V528.144H477.094V526H471.094V528.144H469.718V524.672H470.694C471.206 523.968 471.462 522.981 471.462 521.712V518H477.366ZM472.278 524.672H475.99V519.296H472.838V521.712C472.838 522.885 472.651 523.872 472.278 524.672ZM484.386 517.792C485.506 517.792 486.461 518.203 487.25 519.024C488.039 519.845 488.434 520.837 488.434 522C488.434 523.173 488.039 524.171 487.25 524.992C486.471 525.803 485.517 526.208 484.386 526.208C483.063 526.208 482.055 525.68 481.362 524.624V529.2H479.97V518H481.362V519.376C482.055 518.32 483.063 517.792 484.386 517.792ZM484.21 524.864C485.01 524.864 485.682 524.592 486.226 524.048C486.77 523.483 487.042 522.8 487.042 522C487.042 521.189 486.77 520.512 486.226 519.968C485.682 519.413 485.01 519.136 484.21 519.136C483.399 519.136 482.722 519.413 482.178 519.968C481.634 520.512 481.362 521.189 481.362 522C481.362 522.8 481.634 523.483 482.178 524.048C482.722 524.592 483.399 524.864 484.21 524.864ZM496.719 519.376V518H498.111V526H496.719V524.624C496.036 525.68 495.028 526.208 493.695 526.208C492.564 526.208 491.61 525.803 490.831 524.992C490.042 524.171 489.647 523.173 489.647 522C489.647 520.837 490.042 519.845 490.831 519.024C491.62 518.203 492.575 517.792 493.695 517.792C495.028 517.792 496.036 518.32 496.719 519.376ZM493.871 524.864C494.682 524.864 495.359 524.592 495.903 524.048C496.447 523.483 496.719 522.8 496.719 522C496.719 521.189 496.447 520.512 495.903 519.968C495.359 519.413 494.682 519.136 493.871 519.136C493.071 519.136 492.399 519.413 491.855 519.968C491.311 520.512 491.039 521.189 491.039 522C491.039 522.8 491.311 523.483 491.855 524.048C492.399 524.592 493.071 524.864 493.871 524.864ZM504.54 521.904C505.425 522.277 505.868 522.912 505.868 523.808C505.868 524.501 505.596 525.077 505.052 525.536C504.508 525.984 503.756 526.208 502.796 526.208C501.196 526.208 500.124 525.568 499.58 524.288L500.748 523.6C501.047 524.475 501.735 524.912 502.812 524.912C503.335 524.912 503.745 524.8 504.044 524.576C504.343 524.352 504.492 524.053 504.492 523.68C504.492 523.36 504.369 523.099 504.124 522.896C503.889 522.693 503.569 522.592 503.164 522.592H501.996V521.328H502.86C503.265 521.328 503.58 521.232 503.804 521.04C504.028 520.837 504.14 520.565 504.14 520.224C504.14 519.872 504.007 519.595 503.74 519.392C503.473 519.179 503.116 519.072 502.668 519.072C501.772 519.072 501.164 519.451 500.844 520.208L499.708 519.552C500.273 518.379 501.26 517.792 502.668 517.792C503.521 517.792 504.204 518.016 504.716 518.464C505.239 518.901 505.5 519.451 505.5 520.112C505.5 520.923 505.18 521.52 504.54 521.904ZM514.131 518V524.672H515.235V528.144H513.859V526H507.859V528.144H506.483V524.672H507.459C507.971 523.968 508.227 522.981 508.227 521.712V518H514.131ZM509.043 524.672H512.755V519.296H509.603V521.712C509.603 522.885 509.417 523.872 509.043 524.672ZM524.103 522.64H517.399C517.538 523.344 517.863 523.899 518.375 524.304C518.887 524.699 519.527 524.896 520.295 524.896C521.351 524.896 522.119 524.507 522.599 523.728L523.783 524.4C522.994 525.605 521.821 526.208 520.263 526.208C519.005 526.208 517.97 525.813 517.159 525.024C516.37 524.213 515.975 523.205 515.975 522C515.975 520.784 516.365 519.781 517.143 518.992C517.922 518.192 518.93 517.792 520.167 517.792C521.341 517.792 522.295 518.208 523.031 519.04C523.778 519.851 524.151 520.843 524.151 522.016C524.151 522.219 524.135 522.427 524.103 522.64ZM520.167 519.104C519.431 519.104 518.813 519.312 518.311 519.728C517.821 520.144 517.517 520.709 517.399 521.424H522.743C522.626 520.688 522.333 520.117 521.863 519.712C521.394 519.307 520.829 519.104 520.167 519.104ZM526.175 518H532.111V526H530.719V519.344H527.567V522.608C527.567 523.888 527.311 524.8 526.799 525.344C526.287 525.877 525.535 526.096 524.543 526V524.688C525.097 524.763 525.508 524.64 525.775 524.32C526.041 523.989 526.175 523.408 526.175 522.576V518ZM541.9 522.64H535.196C535.335 523.344 535.66 523.899 536.172 524.304C536.684 524.699 537.324 524.896 538.092 524.896C539.148 524.896 539.916 524.507 540.396 523.728L541.58 524.4C540.791 525.605 539.617 526.208 538.06 526.208C536.801 526.208 535.767 525.813 534.956 525.024C534.167 524.213 533.772 523.205 533.772 522C533.772 520.784 534.161 519.781 534.94 518.992C535.719 518.192 536.727 517.792 537.964 517.792C539.137 517.792 540.092 518.208 540.828 519.04C541.575 519.851 541.948 520.843 541.948 522.016C541.948 522.219 541.932 522.427 541.9 522.64ZM537.964 519.104C537.228 519.104 536.609 519.312 536.108 519.728C535.617 520.144 535.313 520.709 535.196 521.424H540.54C540.423 520.688 540.129 520.117 539.66 519.712C539.191 519.307 538.625 519.104 537.964 519.104ZM549.084 521.328V518H550.476V526H549.084V522.656H544.94V526H543.548V518H544.94V521.328H549.084ZM553.971 523.616L558.403 518H559.523V526H558.147V520.384L553.715 526H552.595V518H553.971V523.616ZM569.322 522.64H562.618C562.757 523.344 563.082 523.899 563.594 524.304C564.106 524.699 564.746 524.896 565.514 524.896C566.57 524.896 567.338 524.507 567.818 523.728L569.002 524.4C568.213 525.605 567.039 526.208 565.482 526.208C564.223 526.208 563.189 525.813 562.378 525.024C561.589 524.213 561.194 523.205 561.194 522C561.194 520.784 561.583 519.781 562.362 518.992C563.141 518.192 564.149 517.792 565.386 517.792C566.559 517.792 567.514 518.208 568.25 519.04C568.997 519.851 569.37 520.843 569.37 522.016C569.37 522.219 569.354 522.427 569.322 522.64ZM565.386 519.104C564.65 519.104 564.031 519.312 563.53 519.728C563.039 520.144 562.735 520.709 562.618 521.424H567.962C567.845 520.688 567.551 520.117 567.082 519.712C566.613 519.307 566.047 519.104 565.386 519.104Z" fill="#416387"/>
<rect x="609.5" y="479" width="159.5" height="86" rx="30" fill="#EDF1F4"/>
<path d="M630.286 514.8H638.414V526H636.926V516.208H631.774V526H630.286V514.8ZM647.425 524.992C646.615 525.803 645.617 526.208 644.433 526.208C643.249 526.208 642.252 525.803 641.441 524.992C640.631 524.181 640.225 523.184 640.225 522C640.225 520.816 640.631 519.819 641.441 519.008C642.252 518.197 643.249 517.792 644.433 517.792C645.617 517.792 646.615 518.197 647.425 519.008C648.247 519.829 648.657 520.827 648.657 522C648.657 523.173 648.247 524.171 647.425 524.992ZM644.433 524.848C645.233 524.848 645.905 524.576 646.449 524.032C646.993 523.488 647.265 522.811 647.265 522C647.265 521.189 646.993 520.512 646.449 519.968C645.905 519.424 645.233 519.152 644.433 519.152C643.644 519.152 642.977 519.424 642.433 519.968C641.889 520.512 641.617 521.189 641.617 522C641.617 522.811 641.889 523.488 642.433 524.032C642.977 524.576 643.644 524.848 644.433 524.848ZM656.866 518V524.672H657.97V528.144H656.594V526H650.594V528.144H649.218V524.672H650.194C650.706 523.968 650.962 522.981 650.962 521.712V518H656.866ZM651.778 524.672H655.49V519.296H652.338V521.712C652.338 522.885 652.151 523.872 651.778 524.672ZM663.886 517.792C665.006 517.792 665.961 518.203 666.75 519.024C667.539 519.845 667.934 520.837 667.934 522C667.934 523.173 667.539 524.171 666.75 524.992C665.971 525.803 665.017 526.208 663.886 526.208C662.563 526.208 661.555 525.68 660.862 524.624V529.2H659.47V518H660.862V519.376C661.555 518.32 662.563 517.792 663.886 517.792ZM663.71 524.864C664.51 524.864 665.182 524.592 665.726 524.048C666.27 523.483 666.542 522.8 666.542 522C666.542 521.189 666.27 520.512 665.726 519.968C665.182 519.413 664.51 519.136 663.71 519.136C662.899 519.136 662.222 519.413 661.678 519.968C661.134 520.512 660.862 521.189 660.862 522C660.862 522.8 661.134 523.483 661.678 524.048C662.222 524.592 662.899 524.864 663.71 524.864ZM676.219 519.376V518H677.611V526H676.219V524.624C675.536 525.68 674.528 526.208 673.195 526.208C672.064 526.208 671.11 525.803 670.331 524.992C669.542 524.171 669.147 523.173 669.147 522C669.147 520.837 669.542 519.845 670.331 519.024C671.12 518.203 672.075 517.792 673.195 517.792C674.528 517.792 675.536 518.32 676.219 519.376ZM673.371 524.864C674.182 524.864 674.859 524.592 675.403 524.048C675.947 523.483 676.219 522.8 676.219 522C676.219 521.189 675.947 520.512 675.403 519.968C674.859 519.413 674.182 519.136 673.371 519.136C672.571 519.136 671.899 519.413 671.355 519.968C670.811 520.512 670.539 521.189 670.539 522C670.539 522.8 670.811 523.483 671.355 524.048C671.899 524.592 672.571 524.864 673.371 524.864ZM684.04 521.904C684.925 522.277 685.368 522.912 685.368 523.808C685.368 524.501 685.096 525.077 684.552 525.536C684.008 525.984 683.256 526.208 682.296 526.208C680.696 526.208 679.624 525.568 679.08 524.288L680.248 523.6C680.547 524.475 681.235 524.912 682.312 524.912C682.835 524.912 683.245 524.8 683.544 524.576C683.843 524.352 683.992 524.053 683.992 523.68C683.992 523.36 683.869 523.099 683.624 522.896C683.389 522.693 683.069 522.592 682.664 522.592H681.496V521.328H682.36C682.765 521.328 683.08 521.232 683.304 521.04C683.528 520.837 683.64 520.565 683.64 520.224C683.64 519.872 683.507 519.595 683.24 519.392C682.973 519.179 682.616 519.072 682.168 519.072C681.272 519.072 680.664 519.451 680.344 520.208L679.208 519.552C679.773 518.379 680.76 517.792 682.168 517.792C683.021 517.792 683.704 518.016 684.216 518.464C684.739 518.901 685 519.451 685 520.112C685 520.923 684.68 521.52 684.04 521.904ZM693.631 518V524.672H694.735V528.144H693.359V526H687.359V528.144H685.983V524.672H686.959C687.471 523.968 687.727 522.981 687.727 521.712V518H693.631ZM688.543 524.672H692.255V519.296H689.103V521.712C689.103 522.885 688.917 523.872 688.543 524.672ZM703.603 522.64H696.899C697.038 523.344 697.363 523.899 697.875 524.304C698.387 524.699 699.027 524.896 699.795 524.896C700.851 524.896 701.619 524.507 702.099 523.728L703.283 524.4C702.494 525.605 701.321 526.208 699.763 526.208C698.505 526.208 697.47 525.813 696.659 525.024C695.87 524.213 695.475 523.205 695.475 522C695.475 520.784 695.865 519.781 696.643 518.992C697.422 518.192 698.43 517.792 699.667 517.792C700.841 517.792 701.795 518.208 702.531 519.04C703.278 519.851 703.651 520.843 703.651 522.016C703.651 522.219 703.635 522.427 703.603 522.64ZM699.667 519.104C698.931 519.104 698.313 519.312 697.811 519.728C697.321 520.144 697.017 520.709 696.899 521.424H702.243C702.126 520.688 701.833 520.117 701.363 519.712C700.894 519.307 700.329 519.104 699.667 519.104ZM705.675 518H711.611V526H710.219V519.344H707.067V522.608C707.067 523.888 706.811 524.8 706.299 525.344C705.787 525.877 705.035 526.096 704.043 526V524.688C704.597 524.763 705.008 524.64 705.275 524.32C705.541 523.989 705.675 523.408 705.675 522.576V518ZM721.4 522.64H714.696C714.835 523.344 715.16 523.899 715.672 524.304C716.184 524.699 716.824 524.896 717.592 524.896C718.648 524.896 719.416 524.507 719.896 523.728L721.08 524.4C720.291 525.605 719.117 526.208 717.56 526.208C716.301 526.208 715.267 525.813 714.456 525.024C713.667 524.213 713.272 523.205 713.272 522C713.272 520.784 713.661 519.781 714.44 518.992C715.219 518.192 716.227 517.792 717.464 517.792C718.637 517.792 719.592 518.208 720.328 519.04C721.075 519.851 721.448 520.843 721.448 522.016C721.448 522.219 721.432 522.427 721.4 522.64ZM717.464 519.104C716.728 519.104 716.109 519.312 715.608 519.728C715.117 520.144 714.813 520.709 714.696 521.424H720.04C719.923 520.688 719.629 520.117 719.16 519.712C718.691 519.307 718.125 519.104 717.464 519.104ZM728.584 521.328V518H729.976V526H728.584V522.656H724.44V526H723.048V518H724.44V521.328H728.584ZM733.471 523.616L737.903 518H739.023V526H737.647V520.384L733.215 526H732.095V518H733.471V523.616ZM748.822 522.64H742.118C742.257 523.344 742.582 523.899 743.094 524.304C743.606 524.699 744.246 524.896 745.014 524.896C746.07 524.896 746.838 524.507 747.318 523.728L748.502 524.4C747.713 525.605 746.539 526.208 744.982 526.208C743.723 526.208 742.689 525.813 741.878 525.024C741.089 524.213 740.694 523.205 740.694 522C740.694 520.784 741.083 519.781 741.862 518.992C742.641 518.192 743.649 517.792 744.886 517.792C746.059 517.792 747.014 518.208 747.75 519.04C748.497 519.851 748.87 520.843 748.87 522.016C748.87 522.219 748.854 522.427 748.822 522.64ZM744.886 519.104C744.15 519.104 743.531 519.312 743.03 519.728C742.539 520.144 742.235 520.709 742.118 521.424H747.462C747.345 520.688 747.051 520.117 746.582 519.712C746.113 519.307 745.547 519.104 744.886 519.104Z" fill="#416387"/>
<rect x="798" y="479" width="159.5" height="86" rx="30" fill="#EDF1F4"/>
<path d="M818.786 514.8H826.914V526H825.426V516.208H820.274V526H818.786V514.8ZM835.925 524.992C835.115 525.803 834.117 526.208 832.933 526.208C831.749 526.208 830.752 525.803 829.941 524.992C829.131 524.181 828.725 523.184 828.725 522C828.725 520.816 829.131 519.819 829.941 519.008C830.752 518.197 831.749 517.792 832.933 517.792C834.117 517.792 835.115 518.197 835.925 519.008C836.747 519.829 837.157 520.827 837.157 522C837.157 523.173 836.747 524.171 835.925 524.992ZM832.933 524.848C833.733 524.848 834.405 524.576 834.949 524.032C835.493 523.488 835.765 522.811 835.765 522C835.765 521.189 835.493 520.512 834.949 519.968C834.405 519.424 833.733 519.152 832.933 519.152C832.144 519.152 831.477 519.424 830.933 519.968C830.389 520.512 830.117 521.189 830.117 522C830.117 522.811 830.389 523.488 830.933 524.032C831.477 524.576 832.144 524.848 832.933 524.848ZM845.366 518V524.672H846.47V528.144H845.094V526H839.094V528.144H837.718V524.672H838.694C839.206 523.968 839.462 522.981 839.462 521.712V518H845.366ZM840.278 524.672H843.99V519.296H840.838V521.712C840.838 522.885 840.651 523.872 840.278 524.672ZM852.386 517.792C853.506 517.792 854.461 518.203 855.25 519.024C856.039 519.845 856.434 520.837 856.434 522C856.434 523.173 856.039 524.171 855.25 524.992C854.471 525.803 853.517 526.208 852.386 526.208C851.063 526.208 850.055 525.68 849.362 524.624V529.2H847.97V518H849.362V519.376C850.055 518.32 851.063 517.792 852.386 517.792ZM852.21 524.864C853.01 524.864 853.682 524.592 854.226 524.048C854.77 523.483 855.042 522.8 855.042 522C855.042 521.189 854.77 520.512 854.226 519.968C853.682 519.413 853.01 519.136 852.21 519.136C851.399 519.136 850.722 519.413 850.178 519.968C849.634 520.512 849.362 521.189 849.362 522C849.362 522.8 849.634 523.483 850.178 524.048C850.722 524.592 851.399 524.864 852.21 524.864ZM864.719 519.376V518H866.111V526H864.719V524.624C864.036 525.68 863.028 526.208 861.695 526.208C860.564 526.208 859.61 525.803 858.831 524.992C858.042 524.171 857.647 523.173 857.647 522C857.647 520.837 858.042 519.845 858.831 519.024C859.62 518.203 860.575 517.792 861.695 517.792C863.028 517.792 864.036 518.32 864.719 519.376ZM861.871 524.864C862.682 524.864 863.359 524.592 863.903 524.048C864.447 523.483 864.719 522.8 864.719 522C864.719 521.189 864.447 520.512 863.903 519.968C863.359 519.413 862.682 519.136 861.871 519.136C861.071 519.136 860.399 519.413 859.855 519.968C859.311 520.512 859.039 521.189 859.039 522C859.039 522.8 859.311 523.483 859.855 524.048C860.399 524.592 861.071 524.864 861.871 524.864ZM872.54 521.904C873.425 522.277 873.868 522.912 873.868 523.808C873.868 524.501 873.596 525.077 873.052 525.536C872.508 525.984 871.756 526.208 870.796 526.208C869.196 526.208 868.124 525.568 867.58 524.288L868.748 523.6C869.047 524.475 869.735 524.912 870.812 524.912C871.335 524.912 871.745 524.8 872.044 524.576C872.343 524.352 872.492 524.053 872.492 523.68C872.492 523.36 872.369 523.099 872.124 522.896C871.889 522.693 871.569 522.592 871.164 522.592H869.996V521.328H870.86C871.265 521.328 871.58 521.232 871.804 521.04C872.028 520.837 872.14 520.565 872.14 520.224C872.14 519.872 872.007 519.595 871.74 519.392C871.473 519.179 871.116 519.072 870.668 519.072C869.772 519.072 869.164 519.451 868.844 520.208L867.708 519.552C868.273 518.379 869.26 517.792 870.668 517.792C871.521 517.792 872.204 518.016 872.716 518.464C873.239 518.901 873.5 519.451 873.5 520.112C873.5 520.923 873.18 521.52 872.54 521.904ZM882.131 518V524.672H883.235V528.144H881.859V526H875.859V528.144H874.483V524.672H875.459C875.971 523.968 876.227 522.981 876.227 521.712V518H882.131ZM877.043 524.672H880.755V519.296H877.603V521.712C877.603 522.885 877.417 523.872 877.043 524.672ZM892.103 522.64H885.399C885.538 523.344 885.863 523.899 886.375 524.304C886.887 524.699 887.527 524.896 888.295 524.896C889.351 524.896 890.119 524.507 890.599 523.728L891.783 524.4C890.994 525.605 889.821 526.208 888.263 526.208C887.005 526.208 885.97 525.813 885.159 525.024C884.37 524.213 883.975 523.205 883.975 522C883.975 520.784 884.365 519.781 885.143 518.992C885.922 518.192 886.93 517.792 888.167 517.792C889.341 517.792 890.295 518.208 891.031 519.04C891.778 519.851 892.151 520.843 892.151 522.016C892.151 522.219 892.135 522.427 892.103 522.64ZM888.167 519.104C887.431 519.104 886.813 519.312 886.311 519.728C885.821 520.144 885.517 520.709 885.399 521.424H890.743C890.626 520.688 890.333 520.117 889.863 519.712C889.394 519.307 888.829 519.104 888.167 519.104ZM894.175 518H900.111V526H898.719V519.344H895.567V522.608C895.567 523.888 895.311 524.8 894.799 525.344C894.287 525.877 893.535 526.096 892.543 526V524.688C893.097 524.763 893.508 524.64 893.775 524.32C894.041 523.989 894.175 523.408 894.175 522.576V518ZM909.9 522.64H903.196C903.335 523.344 903.66 523.899 904.172 524.304C904.684 524.699 905.324 524.896 906.092 524.896C907.148 524.896 907.916 524.507 908.396 523.728L909.58 524.4C908.791 525.605 907.617 526.208 906.06 526.208C904.801 526.208 903.767 525.813 902.956 525.024C902.167 524.213 901.772 523.205 901.772 522C901.772 520.784 902.161 519.781 902.94 518.992C903.719 518.192 904.727 517.792 905.964 517.792C907.137 517.792 908.092 518.208 908.828 519.04C909.575 519.851 909.948 520.843 909.948 522.016C909.948 522.219 909.932 522.427 909.9 522.64ZM905.964 519.104C905.228 519.104 904.609 519.312 904.108 519.728C903.617 520.144 903.313 520.709 903.196 521.424H908.54C908.423 520.688 908.129 520.117 907.66 519.712C907.191 519.307 906.625 519.104 905.964 519.104ZM917.084 521.328V518H918.476V526H917.084V522.656H912.94V526H911.548V518H912.94V521.328H917.084ZM921.971 523.616L926.403 518H927.523V526H926.147V520.384L921.715 526H920.595V518H921.971V523.616ZM937.322 522.64H930.618C930.757 523.344 931.082 523.899 931.594 524.304C932.106 524.699 932.746 524.896 933.514 524.896C934.57 524.896 935.338 524.507 935.818 523.728L937.002 524.4C936.213 525.605 935.039 526.208 933.482 526.208C932.223 526.208 931.189 525.813 930.378 525.024C929.589 524.213 929.194 523.205 929.194 522C929.194 520.784 929.583 519.781 930.362 518.992C931.141 518.192 932.149 517.792 933.386 517.792C934.559 517.792 935.514 518.208 936.25 519.04C936.997 519.851 937.37 520.843 937.37 522.016C937.37 522.219 937.354 522.427 937.322 522.64ZM933.386 519.104C932.65 519.104 932.031 519.312 931.53 519.728C931.039 520.144 930.735 520.709 930.618 521.424H935.962C935.845 520.688 935.551 520.117 935.082 519.712C934.613 519.307 934.047 519.104 933.386 519.104Z" fill="#416387"/>
<rect x="977.5" y="479" width="159.5" height="86" rx="30" fill="#EDF1F4"/>
<path d="M998.286 514.8H1006.41V526H1004.93V516.208H999.774V526H998.286V514.8ZM1015.43 524.992C1014.61 525.803 1013.62 526.208 1012.43 526.208C1011.25 526.208 1010.25 525.803 1009.44 524.992C1008.63 524.181 1008.23 523.184 1008.23 522C1008.23 520.816 1008.63 519.819 1009.44 519.008C1010.25 518.197 1011.25 517.792 1012.43 517.792C1013.62 517.792 1014.61 518.197 1015.43 519.008C1016.25 519.829 1016.66 520.827 1016.66 522C1016.66 523.173 1016.25 524.171 1015.43 524.992ZM1012.43 524.848C1013.23 524.848 1013.91 524.576 1014.45 524.032C1014.99 523.488 1015.27 522.811 1015.27 522C1015.27 521.189 1014.99 520.512 1014.45 519.968C1013.91 519.424 1013.23 519.152 1012.43 519.152C1011.64 519.152 1010.98 519.424 1010.43 519.968C1009.89 520.512 1009.62 521.189 1009.62 522C1009.62 522.811 1009.89 523.488 1010.43 524.032C1010.98 524.576 1011.64 524.848 1012.43 524.848ZM1024.87 518V524.672H1025.97V528.144H1024.59V526H1018.59V528.144H1017.22V524.672H1018.19C1018.71 523.968 1018.96 522.981 1018.96 521.712V518H1024.87ZM1019.78 524.672H1023.49V519.296H1020.34V521.712C1020.34 522.885 1020.15 523.872 1019.78 524.672ZM1031.89 517.792C1033.01 517.792 1033.96 518.203 1034.75 519.024C1035.54 519.845 1035.93 520.837 1035.93 522C1035.93 523.173 1035.54 524.171 1034.75 524.992C1033.97 525.803 1033.02 526.208 1031.89 526.208C1030.56 526.208 1029.56 525.68 1028.86 524.624V529.2H1027.47V518H1028.86V519.376C1029.56 518.32 1030.56 517.792 1031.89 517.792ZM1031.71 524.864C1032.51 524.864 1033.18 524.592 1033.73 524.048C1034.27 523.483 1034.54 522.8 1034.54 522C1034.54 521.189 1034.27 520.512 1033.73 519.968C1033.18 519.413 1032.51 519.136 1031.71 519.136C1030.9 519.136 1030.22 519.413 1029.68 519.968C1029.13 520.512 1028.86 521.189 1028.86 522C1028.86 522.8 1029.13 523.483 1029.68 524.048C1030.22 524.592 1030.9 524.864 1031.71 524.864ZM1044.22 519.376V518H1045.61V526H1044.22V524.624C1043.54 525.68 1042.53 526.208 1041.2 526.208C1040.06 526.208 1039.11 525.803 1038.33 524.992C1037.54 524.171 1037.15 523.173 1037.15 522C1037.15 520.837 1037.54 519.845 1038.33 519.024C1039.12 518.203 1040.08 517.792 1041.2 517.792C1042.53 517.792 1043.54 518.32 1044.22 519.376ZM1041.37 524.864C1042.18 524.864 1042.86 524.592 1043.4 524.048C1043.95 523.483 1044.22 522.8 1044.22 522C1044.22 521.189 1043.95 520.512 1043.4 519.968C1042.86 519.413 1042.18 519.136 1041.37 519.136C1040.57 519.136 1039.9 519.413 1039.36 519.968C1038.81 520.512 1038.54 521.189 1038.54 522C1038.54 522.8 1038.81 523.483 1039.36 524.048C1039.9 524.592 1040.57 524.864 1041.37 524.864ZM1052.04 521.904C1052.93 522.277 1053.37 522.912 1053.37 523.808C1053.37 524.501 1053.1 525.077 1052.55 525.536C1052.01 525.984 1051.26 526.208 1050.3 526.208C1048.7 526.208 1047.62 525.568 1047.08 524.288L1048.25 523.6C1048.55 524.475 1049.23 524.912 1050.31 524.912C1050.83 524.912 1051.25 524.8 1051.54 524.576C1051.84 524.352 1051.99 524.053 1051.99 523.68C1051.99 523.36 1051.87 523.099 1051.62 522.896C1051.39 522.693 1051.07 522.592 1050.66 522.592H1049.5V521.328H1050.36C1050.77 521.328 1051.08 521.232 1051.3 521.04C1051.53 520.837 1051.64 520.565 1051.64 520.224C1051.64 519.872 1051.51 519.595 1051.24 519.392C1050.97 519.179 1050.62 519.072 1050.17 519.072C1049.27 519.072 1048.66 519.451 1048.34 520.208L1047.21 519.552C1047.77 518.379 1048.76 517.792 1050.17 517.792C1051.02 517.792 1051.7 518.016 1052.22 518.464C1052.74 518.901 1053 519.451 1053 520.112C1053 520.923 1052.68 521.52 1052.04 521.904ZM1061.63 518V524.672H1062.74V528.144H1061.36V526H1055.36V528.144H1053.98V524.672H1054.96C1055.47 523.968 1055.73 522.981 1055.73 521.712V518H1061.63ZM1056.54 524.672H1060.26V519.296H1057.1V521.712C1057.1 522.885 1056.92 523.872 1056.54 524.672ZM1071.6 522.64H1064.9C1065.04 523.344 1065.36 523.899 1065.88 524.304C1066.39 524.699 1067.03 524.896 1067.8 524.896C1068.85 524.896 1069.62 524.507 1070.1 523.728L1071.28 524.4C1070.49 525.605 1069.32 526.208 1067.76 526.208C1066.5 526.208 1065.47 525.813 1064.66 525.024C1063.87 524.213 1063.48 523.205 1063.48 522C1063.48 520.784 1063.86 519.781 1064.64 518.992C1065.42 518.192 1066.43 517.792 1067.67 517.792C1068.84 517.792 1069.8 518.208 1070.53 519.04C1071.28 519.851 1071.65 520.843 1071.65 522.016C1071.65 522.219 1071.64 522.427 1071.6 522.64ZM1067.67 519.104C1066.93 519.104 1066.31 519.312 1065.81 519.728C1065.32 520.144 1065.02 520.709 1064.9 521.424H1070.24C1070.13 520.688 1069.83 520.117 1069.36 519.712C1068.89 519.307 1068.33 519.104 1067.67 519.104ZM1073.67 518H1079.61V526H1078.22V519.344H1075.07V522.608C1075.07 523.888 1074.81 524.8 1074.3 525.344C1073.79 525.877 1073.03 526.096 1072.04 526V524.688C1072.6 524.763 1073.01 524.64 1073.27 524.32C1073.54 523.989 1073.67 523.408 1073.67 522.576V518ZM1089.4 522.64H1082.7C1082.83 523.344 1083.16 523.899 1083.67 524.304C1084.18 524.699 1084.82 524.896 1085.59 524.896C1086.65 524.896 1087.42 524.507 1087.9 523.728L1089.08 524.4C1088.29 525.605 1087.12 526.208 1085.56 526.208C1084.3 526.208 1083.27 525.813 1082.46 525.024C1081.67 524.213 1081.27 523.205 1081.27 522C1081.27 520.784 1081.66 519.781 1082.44 518.992C1083.22 518.192 1084.23 517.792 1085.46 517.792C1086.64 517.792 1087.59 518.208 1088.33 519.04C1089.07 519.851 1089.45 520.843 1089.45 522.016C1089.45 522.219 1089.43 522.427 1089.4 522.64ZM1085.46 519.104C1084.73 519.104 1084.11 519.312 1083.61 519.728C1083.12 520.144 1082.81 520.709 1082.7 521.424H1088.04C1087.92 520.688 1087.63 520.117 1087.16 519.712C1086.69 519.307 1086.13 519.104 1085.46 519.104ZM1096.58 521.328V518H1097.98V526H1096.58V522.656H1092.44V526H1091.05V518H1092.44V521.328H1096.58ZM1101.47 523.616L1105.9 518H1107.02V526H1105.65V520.384L1101.22 526H1100.1V518H1101.47V523.616ZM1116.82 522.64H1110.12C1110.26 523.344 1110.58 523.899 1111.09 524.304C1111.61 524.699 1112.25 524.896 1113.01 524.896C1114.07 524.896 1114.84 524.507 1115.32 523.728L1116.5 524.4C1115.71 525.605 1114.54 526.208 1112.98 526.208C1111.72 526.208 1110.69 525.813 1109.88 525.024C1109.09 524.213 1108.69 523.205 1108.69 522C1108.69 520.784 1109.08 519.781 1109.86 518.992C1110.64 518.192 1111.65 517.792 1112.89 517.792C1114.06 517.792 1115.01 518.208 1115.75 519.04C1116.5 519.851 1116.87 520.843 1116.87 522.016C1116.87 522.219 1116.85 522.427 1116.82 522.64ZM1112.89 519.104C1112.15 519.104 1111.53 519.312 1111.03 519.728C1110.54 520.144 1110.24 520.709 1110.12 521.424H1115.46C1115.34 520.688 1115.05 520.117 1114.58 519.712C1114.11 519.307 1113.55 519.104 1112.89 519.104Z" fill="#416387"/>
</svg>
