<svg width="38" height="39" viewBox="0 0 38 39" fill="none" xmlns="http://www.w3.org/2000/svg">
<path d="M37.55 17.5101V4.38113C37.55 2.32352 35.9202 0.649658 33.9161 0.649658H3.63387C1.62984 0.649658 0 2.32359 0 4.38113V17.5101C0 18.7257 0.571847 19.8043 1.45057 20.4862C0.584534 21.0191 0 21.9681 0 23.0583V32.9299C0 34.1225 0.410704 35.2914 1.15509 36.2228C2.16032 37.4788 3.66066 38.1996 5.26967 38.1996H32.2801C33.8894 38.1996 35.3894 37.4788 36.3949 36.2215C37.1398 35.2914 37.5497 34.1223 37.5497 32.9299V23.0583C37.5497 21.9681 36.9652 21.0191 36.0992 20.4862C36.9779 19.804 37.5497 18.7254 37.5497 17.5099L37.55 17.5101ZM32.2803 36.9884H5.26994C4.03027 36.9884 2.87519 36.433 2.10059 35.4645C1.88131 35.1909 1.71313 34.8843 1.572 34.5658H35.9782C35.8371 34.8843 35.6686 35.1915 35.4488 35.4651C34.6747 36.4335 33.5205 36.9884 32.2808 36.9884H32.2803ZM34.5218 21.2416C35.5236 21.2416 36.3387 22.0568 36.3387 23.0585V32.9302C36.3387 33.0732 36.3176 33.2136 36.3025 33.3547H1.24774C1.2326 33.2136 1.21151 33.073 1.21151 32.9302V23.0585C1.21151 22.0568 2.02667 21.2416 3.02844 21.2416H34.5218ZM36.3387 17.5101C36.3387 18.8996 35.2521 20.0303 33.9161 20.0303H3.63387C2.29792 20.0303 1.21129 18.8996 1.21129 17.5101V4.38113C1.21129 2.99167 2.29792 1.86095 3.63387 1.86095H33.9161C35.2521 1.86095 36.3387 2.99167 36.3387 4.38113V17.5101Z" fill="#416387"/>
<path d="M33.3098 3.07227H4.23881C3.23704 3.07227 2.42188 3.88743 2.42188 4.8892V17.0021C2.42188 18.0039 3.23704 18.819 4.23881 18.819H33.3098C34.3116 18.819 35.1267 18.0039 35.1267 17.0021V4.8892C35.1267 3.88743 34.3116 3.07227 33.3098 3.07227ZM33.9154 17.0021C33.9154 17.3358 33.644 17.6078 33.3098 17.6078H4.23881C3.90463 17.6078 3.63317 17.3358 3.63317 17.0021V4.8892C3.63317 4.55556 3.90463 4.28356 4.23881 4.28356H33.3098C33.644 4.28356 33.9154 4.55556 33.9154 4.8892V17.0021Z" fill="#416387"/>
<path d="M19.3809 15.1851H31.4938V6.70605H19.3809V15.1851ZM26.6486 13.9738H24.226V12.7625H26.6486V13.9738ZM24.226 7.91735H26.6486V9.12864H24.226V7.91735ZM20.5922 7.91735H23.0147V10.3399H27.8599V7.91735H30.2825V13.9738H27.8599V11.5512H23.0147V13.9738H20.5922V7.91735Z" fill="#416387"/>
<path d="M6.66299 29.7206C8.33284 29.7206 9.69122 28.3623 9.69122 26.6924C9.69122 25.0226 8.33284 23.6642 6.66299 23.6642C4.99314 23.6642 3.63477 25.0226 3.63477 26.6924C3.63477 28.3623 4.99314 29.7206 6.66299 29.7206ZM6.66299 24.8755C7.66476 24.8755 8.47993 25.6906 8.47993 26.6924C8.47993 27.4809 7.97189 28.1471 7.26864 28.398V26.6924H6.05735V28.398C5.35411 28.1471 4.84606 27.4809 4.84606 26.6924C4.84606 25.6906 5.66122 24.8755 6.66299 24.8755Z" fill="#416387"/>
<path d="M14.5362 23.6642H10.9023V27.2981H14.5362V23.6642ZM13.3249 26.0868H12.1136V24.8755H13.3249V26.0868Z" fill="#416387"/>
<path d="M14.5362 28.5094H10.9023V32.1433H14.5362V28.5094ZM13.3249 30.932H12.1136V29.7207H13.3249V30.932Z" fill="#416387"/>
<path d="M19.3819 28.5094H15.748V32.1433H19.3819V28.5094ZM18.1706 30.932H16.9593V29.7207H18.1706V30.932Z" fill="#416387"/>
<path d="M19.3819 23.6642H15.748V27.2981H19.3819V23.6642ZM18.1706 26.0868H16.9593V24.8755H18.1706V26.0868Z" fill="#416387"/>
<path d="M33.9156 23.6642H21.8027V32.1432H33.9156V23.6642ZM32.7044 27.2981H30.2818V24.8755H32.7044V27.2981ZM26.6479 27.2981V24.8755H29.0705V27.2981H26.6479ZM29.0705 28.5093V30.9319H26.6479V28.5093H29.0705ZM25.4366 24.8755V27.2981H23.014V24.8755H25.4366ZM23.014 28.5093H25.4366V30.9319H23.014V28.5093ZM30.2818 30.9319V28.5093H32.7044V30.9319H30.2818Z" fill="#416387"/>
<path d="M13.3244 13.9738H12.1131V10.3399H8.47922V13.9738H7.26793V6.70605H6.05664V15.1851H16.9583V7.3117H13.3244V13.9738ZM9.69051 11.5512H10.9018V13.9738H9.69051V11.5512ZM14.5357 8.52299H15.747V13.9738H14.5357V8.52299Z" fill="#416387"/>
<path d="M8.47852 30.9319H9.68981V32.1432H8.47852V30.9319Z" fill="#416387"/>
<path d="M6.05664 30.9319H7.26793V32.1432H6.05664V30.9319Z" fill="#416387"/>
<path d="M3.63477 30.9319H4.84606V32.1432H3.63477V30.9319Z" fill="#416387"/>
</svg>
