<svg width="37" height="38" viewBox="0 0 37 38" fill="none" xmlns="http://www.w3.org/2000/svg">
<path d="M36.656 20.6917C36.656 19.7626 36.2884 18.8528 35.6467 18.1958L33.7714 16.2747C33.13 15.6174 32.2419 15.2408 31.335 15.2408C30.428 15.2408 29.5399 15.6174 28.8985 16.2747L28.3788 16.8071V8.57864C28.3788 5.67044 26.38 3.20951 23.649 2.64443V1.3109C23.649 0.6428 23.1187 0.0996094 22.4665 0.0996094H5.91225C5.26006 0.0996094 4.7298 0.6428 4.7298 1.3109V2.52219H1.77367C0.795755 2.52219 0 3.33735 0 4.33913V31.5932C0 34.9326 2.65234 37.6496 5.91225 37.6496H27.1964C28.1743 37.6496 28.97 36.8344 28.97 35.8327V30.0269L35.6466 23.1874C36.2882 22.5304 36.6559 21.6206 36.6559 20.6915L36.656 20.6917ZM17.6287 32.8046H7.09479C5.79065 32.8046 4.72989 31.7179 4.72989 30.382V7.36746H21.2842C22.5883 7.36746 23.6491 8.45409 23.6491 9.79004V21.6524L19.5749 25.8259L17.6287 32.8046ZM27.4924 19.4285L29.6126 21.6004L23.9878 27.3624C23.5602 26.3596 22.6227 25.6447 21.5094 25.5576L27.4924 19.4285ZM19.3436 31.0672L21.207 32.9761L18.598 33.7399L19.3436 31.0672ZM22.508 32.5959L19.7155 29.7354L20.548 26.7485H21.2846C22.2625 26.7485 23.0583 27.5637 23.0583 28.5655V29.1711H23.6495C24.6274 29.1711 25.4232 29.9863 25.4232 30.988V31.7426L22.508 32.5959ZM26.5856 30.7579C26.5004 29.6174 25.8028 28.6568 24.8238 28.219L30.4487 22.457L32.5689 24.629L26.5856 30.7579ZM28.3284 18.5723L28.9706 17.9145L34.0469 23.1147L33.4048 23.7725L28.3284 18.5723ZM10.6423 3.73366V1.31108H17.737V3.73366H10.6423ZM18.9195 1.31108H22.4668V3.73366H18.9195V1.31108ZM5.91255 1.31108H9.4599V3.73366H5.91255V1.31108ZM27.7879 35.8329C27.7879 36.167 27.5229 36.4385 27.1966 36.4385H5.91255C3.30454 36.4385 1.18275 34.265 1.18275 31.5933V4.33931C1.18275 4.00566 1.44774 3.73366 1.77397 3.73366H4.7301C4.7301 4.40176 5.26036 4.94495 5.91255 4.94495H22.4668C23.0676 4.94495 23.5596 4.48233 23.634 3.88697C25.7032 4.42232 27.1966 6.33115 27.1966 8.57882V18.0186L24.8317 20.4412V9.79011C24.8317 7.78608 23.2407 6.15624 21.2844 6.15624H4.7301C4.07791 6.15624 3.54765 6.69943 3.54765 7.36753V30.382C3.54765 32.3861 5.13869 34.0159 7.095 34.0159H17.2911L16.8762 35.5032L26.3236 32.7384L27.788 31.2383L27.7879 35.8329ZM34.8751 22.2505L29.813 17.0649C30.2274 16.6785 30.7733 16.452 31.3349 16.452C31.9309 16.452 32.5139 16.6996 32.9354 17.1309L34.8107 19.0519C35.2323 19.4837 35.4735 20.081 35.4735 20.6915C35.4735 21.2669 35.2528 21.826 34.8751 22.2505L34.8751 22.2505Z" fill="#416387"/>
<path d="M21.2831 9.79004H7.09375V15.8465H21.2831V9.79004ZM20.1007 14.6352H8.2762V11.0013H20.1007V14.6352Z" fill="#416387"/>
<path d="M7.09375 21.9029H11.8236V17.0577H7.09375V21.9029ZM8.2762 18.269H10.6411V20.6916H8.2762V18.269Z" fill="#416387"/>
<path d="M7.09375 29.1707H11.8236V24.3256H7.09375V29.1707ZM8.2762 25.5369H10.6411V27.9594H8.2762V25.5369Z" fill="#416387"/>
<path d="M13.0078 17.0577H21.285V18.269H13.0078V17.0577Z" fill="#416387"/>
<path d="M20.1016 19.4803H21.284V20.6916H20.1016V19.4803Z" fill="#416387"/>
<path d="M13.0078 19.4803H18.9201V20.6916H13.0078V19.4803Z" fill="#416387"/>
<path d="M13.0078 26.748H17.7376V27.9593H13.0078V26.748Z" fill="#416387"/>
<path d="M13.0078 24.3256H17.7376V25.5369H13.0078V24.3256Z" fill="#416387"/>
</svg>
