<svg width="37" height="39" viewBox="0 0 37 39" fill="none" xmlns="http://www.w3.org/2000/svg">
<path d="M0 0.649658V38.1997H36.656V0.649658H0ZM13.007 10.34H2.01827L5.56562 6.70611H13.007V10.34ZM4.4852 6.10046L1.18252 9.4837V2.71723L4.4852 6.10046ZM13.007 5.49482H5.56562L2.01827 1.86095H13.007V5.49482ZM14.1894 1.86095H22.4666V13.3682L20.5894 11.9255L18.328 14.8212L16.0665 11.9257L14.1894 13.3682V1.86095ZM31.6579 5.49482H23.649V1.86095H34.762L31.6579 5.49482ZM23.649 6.70611H31.6579L34.7619 10.34H23.6495L23.649 6.70611ZM32.712 6.10046L35.4736 2.86701V9.33419L32.712 6.10046ZM1.18245 36.9884V11.5513H13.007V15.7908L15.8596 13.5997L18.328 16.7604L20.7963 13.5994L23.649 15.7908V11.5513H35.4735V36.9884H1.18245Z" fill="#416387"/>
<path d="M3.54688 35.7771H33.1081V17.6078H3.54688V35.7771ZM4.72933 28.5094H10.6416V34.5659H4.72933V28.5094ZM11.824 34.5659V27.2981H4.72933V26.0868H11.824V18.8191H22.4661V27.2981H31.9257V34.5659H11.824ZM31.9257 26.0868H23.6485V18.8191H31.9257V26.0868ZM10.6416 18.8191V24.8755H4.72933V18.8191H10.6416Z" fill="#416387"/>
<path d="M9.45946 20.0303H5.91211V23.6641H9.45946V20.0303ZM8.27701 22.4529H7.09456V21.2416H8.27701V22.4529Z" fill="#416387"/>
<path d="M5.91211 29.7206V33.3545H9.45946V29.7206H5.91211ZM8.27701 32.1432H7.09456V30.9319H8.27701V32.1432Z" fill="#416387"/>
<path d="M30.7443 24.8754V20.0303H24.832V24.8754H30.7443ZM26.0145 21.2416H29.5618V23.6641H26.0145V21.2416Z" fill="#416387"/>
<path d="M13.0078 20.0303H18.9201V21.2416H13.0078V20.0303Z" fill="#416387"/>
<path d="M18.9188 22.4529H17.7363V30.9319H21.2837V29.7206H18.9188V22.4529Z" fill="#416387"/>
<path d="M13.0078 22.4529H14.1903V26.0868H13.0078V22.4529Z" fill="#416387"/>
<path d="M15.373 24.8755H16.5555V26.0868H15.373V24.8755Z" fill="#416387"/>
<path d="M13.0078 28.5093H15.3727V33.3544H16.5552V27.298H13.0078V28.5093Z" fill="#416387"/>
<path d="M13.0078 29.7206H14.1903V33.3545H13.0078V29.7206Z" fill="#416387"/>
<path d="M20.1016 22.4529H21.284V26.0868H20.1016V22.4529Z" fill="#416387"/>
<path d="M17.7363 32.1432H18.9188V33.3545H17.7363V32.1432Z" fill="#416387"/>
<path d="M24.8317 32.1432H22.4668V33.3545H26.0141V30.9319H24.8317V32.1432Z" fill="#416387"/>
<path d="M27.1973 28.5094H28.3797V33.3546H27.1973V28.5094Z" fill="#416387"/>
<path d="M29.5605 32.1432H30.743V33.3545H29.5605V32.1432Z" fill="#416387"/>
<path d="M29.5605 28.5094H30.743V30.932H29.5605V28.5094Z" fill="#416387"/>
<path d="M20.1016 32.1432H21.284V33.3545H20.1016V32.1432Z" fill="#416387"/>
<path d="M24.832 28.5094H26.0145V29.7207H24.832V28.5094Z" fill="#416387"/>
<path d="M22.4668 28.5094H23.6492V30.932H22.4668V28.5094Z" fill="#416387"/>
<path d="M20.1016 27.298H21.284V28.5093H20.1016V27.298Z" fill="#416387"/>
<path d="M15.373 22.4529H16.5555V23.6642H15.373V22.4529Z" fill="#416387"/>
<path d="M20.1016 20.0303H21.284V21.2416H20.1016V20.0303Z" fill="#416387"/>
</svg>
