<svg width="38" height="39" viewBox="0 0 38 39" fill="none" xmlns="http://www.w3.org/2000/svg">
<path d="M36.3388 30.8324H30.2823V25.6322L34.7725 21.142L28.4654 14.8349V13.2686H30.888C31.5561 13.2686 32.0992 12.7254 32.0992 12.0573V10.846C32.0992 10.1779 31.5561 9.63474 30.888 9.63474H29.6767V6.00086C29.6767 2.99506 27.2316 0.550049 24.2258 0.550049H6.66211C3.6563 0.550049 1.21129 2.99506 1.21129 6.00086V13.9414C0.463406 14.7063 0 15.7505 0 16.9023C0 18.0541 0.463427 19.0983 1.21129 19.8632V30.8319C0.543192 30.8319 0 31.3751 0 32.0432V33.2545C0 33.9226 0.543192 34.4658 1.21129 34.4658V36.8884C1.21129 37.5565 1.75448 38.0997 2.42258 38.0997H35.1275C35.7956 38.0997 36.3388 37.5565 36.3388 36.8884V34.4658C37.0069 34.4658 37.5501 33.9226 37.5501 33.2545V32.0432C37.5501 31.3751 37.0069 30.8319 36.3388 30.8319V30.8324ZM20.592 30.8324V22.3533H24.2258V24.7759H25.4371V22.3533H29.071V30.8324H20.592ZM11.6014 21.0742L8.1268 18.5892C8.35284 18.0719 8.47938 17.5023 8.47938 16.9026C8.47938 15.7507 8.01595 14.7065 7.26809 13.9417V8.42352C7.26809 7.42174 8.08325 6.60658 9.08502 6.60658H18.1697C19.1715 6.60658 19.9867 7.42174 19.9867 8.42352V9.63481H18.7754C18.1073 9.63481 17.5641 10.178 17.5641 10.8461V12.0574C17.5641 12.7255 18.1073 13.2687 18.7754 13.2687H21.1979V14.835L14.8909 21.1421L19.381 25.6322V30.8324H12.1133V22.0634C12.1133 21.6686 11.9207 21.2979 11.6014 21.0743L11.6014 21.0742ZM19.3807 21.142V23.9196L16.6031 21.142L21.1976 16.5475V18.1138H24.2258V21.142H19.3807ZM33.06 21.142L30.2824 23.9196V21.142H25.4372V18.1138H28.4654V16.5475L33.06 21.142ZM27.2541 16.9025H25.4372V15.6912H24.2259V16.9025H22.409V13.2686H27.2541V16.9025ZM30.8891 12.0574H18.7748V10.8461H30.8877L30.8891 12.0574ZM6.6619 1.76137H24.2256C26.5628 1.76137 28.4652 3.66373 28.4652 6.0009V9.63477H21.1974V8.42348C21.1974 6.75363 19.839 5.39525 18.1692 5.39525H9.08448C7.41463 5.39525 6.05625 6.75363 6.05625 8.42348V13.0777C5.50441 12.8149 4.88981 12.663 4.23931 12.663C3.58882 12.663 2.97424 12.8149 2.42238 13.0777V6.00103C2.42238 3.66386 4.32473 1.76151 6.6619 1.76151V1.76137ZM4.23931 13.8743C5.90917 13.8743 7.26755 15.2327 7.26755 16.9025C7.26755 18.5724 5.90917 19.9308 4.23931 19.9308C2.56946 19.9308 1.21108 18.5724 1.21108 16.9025C1.21108 15.2327 2.56946 13.8743 4.23931 13.8743ZM2.42238 20.7273C2.97422 20.9901 3.58882 21.1421 4.23931 21.1421C5.54253 21.1421 6.70924 20.5497 7.48738 19.622L10.9014 22.0633V30.8323H2.42238V20.7273ZM35.1273 36.8887L2.42238 36.8898V34.4661H35.1273V36.8887ZM36.3386 33.2548H1.21108V32.0435H36.3386V33.2548Z" fill="#416387"/>
<path d="M4.23881 18.7194C5.24059 18.7194 6.05575 17.9043 6.05575 16.9025C6.05575 15.9007 5.24059 15.0856 4.23881 15.0856C3.23704 15.0856 2.42188 15.9007 2.42188 16.9025C2.42188 17.9043 3.23704 18.7194 4.23881 18.7194ZM4.23881 16.2969C4.573 16.2969 4.84446 16.5683 4.84446 16.9025C4.84446 17.2367 4.573 17.5082 4.23881 17.5082C3.90463 17.5082 3.63317 17.2367 3.63317 16.9025C3.63317 16.5683 3.90463 16.2969 4.23881 16.2969Z" fill="#416387"/>
<path d="M3.63477 22.3534V27.1986H9.69123V22.3534H3.63477ZM8.47993 25.9873H4.84606V23.5647H8.47993V25.9873Z" fill="#416387"/>
<path d="M3.63477 28.4098H4.84606V29.6211H3.63477V28.4098Z" fill="#416387"/>
<path d="M6.05664 28.4098H7.26793V29.6211H6.05664V28.4098Z" fill="#416387"/>
<path d="M8.47852 28.4098H9.68981V29.6211H8.47852V28.4098Z" fill="#416387"/>
</svg>
