<svg width="37" height="38" viewBox="0 0 37 38" fill="none" xmlns="http://www.w3.org/2000/svg">
<path d="M37 26.0597L34.2714 20.6022V10.4525L31.9078 8.08894V2.76624C31.9078 2.03712 31.4705 1.3914 30.7933 1.11993C29.2256 0.492901 27.4992 0.492901 25.9309 1.11993C25.2545 1.39058 24.8172 2.03712 24.8172 2.76624V8.08894L23.0446 9.8616L21.2719 8.08894V2.76624C21.2719 2.03712 20.8345 1.3914 20.1574 1.11993C18.5897 0.492901 16.8632 0.492901 15.295 1.11993C14.6186 1.39058 14.1813 2.03712 14.1813 2.76624V8.08894L11.8177 10.4525V13.2149C8.69129 14.5858 6.49975 17.7061 6.49975 21.3326C6.49975 23.2625 7.12677 25.0439 8.17719 26.501L6.2043 28.4742L5.31797 27.5878L0.907669 31.9981C0.322057 32.5832 0 33.3606 0 34.1892C0 35.8969 1.38963 37.2865 3.09793 37.2865C3.92463 37.2865 4.70285 36.9645 5.28846 36.3796L9.69877 31.9686L8.81244 31.0822L10.636 29.2587V37.2866H35.4532V26.0598L37 26.0597ZM26.9549 24.8779L25.1823 21.3326H33.3149L35.0876 24.8779H26.9549ZM20.681 21.3326C20.681 24.2652 18.295 26.6506 15.363 26.6506C12.431 26.6506 10.0451 24.2652 10.0451 21.3326C10.0451 18.4006 12.431 16.0146 15.363 16.0146C16.5826 16.0146 17.7424 16.4248 18.682 17.1782L15.363 20.4971L13.5904 18.7245L10.9823 21.3326L15.363 25.7133L20.6071 20.4692C20.6538 20.7535 20.681 21.0413 20.681 21.3326L20.681 21.3326ZM15.363 24.0425L12.6531 21.3326L13.5904 20.3954L15.363 22.168L22.4537 15.0774L23.3909 16.0146L15.363 24.0425ZM24.1399 20.1508C24.0251 19.2875 23.7872 18.4521 23.4218 17.6543L25.0615 16.0146L23.6352 14.5883V11.2876H33.0894V20.1508H24.1399ZM15.363 4.19693H20.0901V7.74224H15.363V4.19693ZM20.4365 8.92401L21.6183 10.1058H13.8348L15.0165 8.92401H20.4365ZM25.999 4.19693H30.7261V7.74224H25.999V4.19693ZM31.0724 8.92401L32.2542 10.1058H24.4707L25.6525 8.92401H31.0724ZM26.3707 2.21695C27.6553 1.70283 29.0698 1.70283 30.3544 2.21695C30.5802 2.30716 30.7261 2.52294 30.7261 2.76589V3.01517H25.999V2.76589C25.999 2.52294 26.1449 2.30716 26.3707 2.21695H26.3707ZM15.7347 2.21695C17.0193 1.70283 18.4338 1.70283 19.7184 2.21695C19.9442 2.30716 20.0901 2.52294 20.0901 2.76589V3.01517H15.363V2.76589C15.363 2.52294 15.5089 2.30716 15.7347 2.21695H15.7347ZM12.9995 11.2876H22.4537V13.4066L21.1915 14.6688C19.5755 13.2522 17.5288 12.4693 15.363 12.4693C14.5434 12.4693 13.7534 12.5899 12.9995 12.7991V11.2876ZM15.363 13.6511C17.213 13.6511 18.9645 14.31 20.3555 15.5047L19.5193 16.341C18.3536 15.367 16.8983 14.8329 15.363 14.8329C11.7792 14.8329 8.86329 17.7488 8.86329 21.3326C8.86329 24.9164 11.7792 27.8324 15.363 27.8324C18.9468 27.8324 21.8628 24.9164 21.8628 21.3326C21.8628 20.7027 21.7699 20.0818 21.5927 19.4837L22.5175 18.5589C22.8607 19.4412 23.0445 20.3695 23.0445 21.3326C23.0445 25.568 19.5984 29.0141 15.363 29.0141C11.1276 29.0141 7.6815 25.568 7.6815 21.3326C7.6815 17.0972 11.1276 13.6511 15.363 13.6511H15.363ZM4.45292 35.5436C4.09073 35.9058 3.60906 36.1049 3.09786 36.1049C2.04136 36.1049 1.1817 35.2458 1.1817 34.1893C1.1817 33.677 1.38086 33.1962 1.74305 32.8345L5.31794 29.2589L8.02785 31.9688L4.45292 35.5436ZM7.03965 29.3098L8.93339 27.416C9.2378 27.7376 9.56516 28.0359 9.91412 28.3095L7.97683 30.247L7.03965 29.3098ZM11.8177 29.4509C12.9042 29.9273 14.1021 30.1961 15.363 30.1961C19.1375 30.1961 22.3597 27.8201 23.6354 24.4887V36.1052H11.8177V29.4509ZM34.2713 33.7414H29.5442V29.0143H34.2713V33.7414ZM34.2713 27.8326H28.3625V34.9232H34.2713V36.105H24.8171V23.2453L26.2247 26.0602H34.2716L34.2713 27.8326Z" fill="#416387"/>
<path d="M17.7266 33.7412H22.4537V34.923H17.7266V33.7412Z" fill="#416387"/>
<path d="M21.2715 31.3777H22.4533V32.5595H21.2715V31.3777Z" fill="#416387"/>
<path d="M15.3633 33.7412H16.5451V34.923H15.3633V33.7412Z" fill="#416387"/>
<path d="M16.5449 5.37878H18.9085V6.56056H16.5449V5.37878Z" fill="#416387"/>
<path d="M27.1797 5.37878H29.5432V6.56056H27.1797V5.37878Z" fill="#416387"/>
</svg>
