<svg width="38" height="38" viewBox="0 0 38 38" fill="none" xmlns="http://www.w3.org/2000/svg">
<path d="M35.7331 1.21129H25.4371C25.4371 0.543191 24.8939 0 24.2258 0H13.3242C12.6561 0 12.1129 0.543191 12.1129 1.21129H1.81694C0.815164 1.21129 0 2.02645 0 3.02823V35.7331C0 36.7348 0.815164 37.55 1.81694 37.55H35.7331C36.7348 37.55 37.55 36.7348 37.55 35.7331V3.02823C37.55 2.02645 36.7348 1.21129 35.7331 1.21129ZM13.3242 1.21129H24.2258V6.05645L23.0145 5.14798V3.63387H21.8032V5.20017L20.6573 6.34605L19.3806 4.64298V2.42265H18.1694V4.64298L16.8927 6.34557L15.7468 5.20024V3.63394H14.5355V5.14805L13.3242 6.05652V1.21129ZM36.3387 35.7331C36.3387 36.0673 36.0667 36.3387 35.7331 36.3387H1.81694C1.48329 36.3387 1.21129 36.0673 1.21129 35.7331V3.02823C1.21129 2.69404 1.48329 2.42258 1.81694 2.42258H12.1129V8.47903L15.0841 6.25033L17.0233 8.1895L18.7751 5.85482L20.5266 8.1895L22.4658 6.25033L25.4372 8.47903V2.42258H35.7332C36.0669 2.42258 36.3389 2.69404 36.3389 3.02823L36.3387 35.7331Z" fill="#416387"/>
<path d="M30.8884 9.69031H6.66264C5.66087 9.69031 4.8457 10.5055 4.8457 11.5072V26.0427C4.8457 27.0445 5.66087 27.8597 6.66264 27.8597H13.1547L12.2462 31.4935H10.2965C8.62666 31.4935 7.26828 32.8519 7.26828 34.5218V35.1274H30.2828V34.5218C30.2828 32.8519 28.9244 31.4935 27.2546 31.4935H25.3049L24.3964 27.8597H30.8884C31.8902 27.8597 32.7054 27.0445 32.7054 26.0427V11.5072C32.7054 10.5055 31.8902 9.69031 30.8884 9.69031ZM28.968 33.9161H8.58298C8.83308 33.2112 9.50661 32.7048 10.2964 32.7048H27.2544C28.0442 32.7048 28.7177 33.2112 28.9678 33.9161H28.968ZM24.0563 31.4935H13.4945L14.403 27.8597H23.1471L24.0563 31.4935ZM31.4943 26.0427C31.4943 26.3769 31.2223 26.6484 30.8887 26.6484H6.66285C6.3292 26.6484 6.0572 26.3769 6.0572 26.0427V11.5072C6.0572 11.1731 6.3292 10.9016 6.66285 10.9016H30.8887C31.2223 10.9016 31.4943 11.1731 31.4943 11.5072V26.0427Z" fill="#416387"/>
<path d="M7.26758 23.0145H30.2821V12.1129H7.26758V23.0145ZM8.47887 13.3242H29.0708V21.8032H8.47887V13.3242Z" fill="#416387"/>
<path d="M29.0703 24.2258H30.2816V25.4371H29.0703V24.2258Z" fill="#416387"/>
<path d="M26.6484 24.2258H27.8597V25.4371H26.6484V24.2258Z" fill="#416387"/>
<path d="M24.2266 24.2258H25.4379V25.4371H24.2266V24.2258Z" fill="#416387"/>
</svg>
