<svg width="38" height="39" viewBox="0 0 38 39" fill="none" xmlns="http://www.w3.org/2000/svg">
<path d="M31.4936 26.0868V24.8755H23.0145V26.0868H19.3806C18.7125 26.0868 18.1694 25.5436 18.1694 24.8755V17.6077H21.8032V5.49482H23.0145V0.649658H0V5.49482H1.21129V17.6077H4.84516V27.9037C4.84516 33.581 9.46378 38.1997 15.1411 38.1997H37.55V26.0868H31.4936ZM32.7048 27.298V36.9884H25.4371V33.3545H31.4936V27.298H32.7048ZM26.6484 26.0868H27.8597V27.298H26.6484V26.0868ZM24.2258 26.0868H25.4371V28.5093H29.071V26.0868H30.2823V32.1432H24.2258V26.0868ZM24.2258 33.3545V36.9884H15.4671L19.774 27.298H23.0142V33.3545H24.2258ZM1.21129 1.86095H21.8032V4.28353H1.21129V1.86095ZM2.42258 16.3964V5.49482H20.5919V16.3964H18.1694V9.12869H4.84516V16.3964H2.42258ZM7.26774 11.5513V16.3964H6.05645V10.34H16.9581V16.3964H15.7468V11.5513H7.26774ZM10.9016 12.7626H12.1129V13.9739H10.9016V12.7626ZM13.3242 15.1851V12.7626H14.5355V18.2134H8.47903V12.7626H9.69032V15.1851H13.3242ZM7.26774 17.6077V19.4247H15.7468V17.6077H16.9581V23.1918L15.7468 23.4947V21.8472H7.26774V25.6144L6.05645 25.9172V17.6078L7.26774 17.6077ZM10.9016 23.0585H12.1129V24.2698H10.9016V23.0585ZM13.3242 25.4811V23.0585H14.5355V29.115H8.47903V23.0585H9.69032V25.4811H13.3242ZM6.05645 27.9037V27.1647L7.26774 26.8619V30.3263H15.7468V24.7422L16.9581 24.4393V24.8755C16.9581 25.908 17.6102 26.7851 18.5219 27.1334L14.1661 36.9337C9.61356 36.4457 6.05673 32.5833 6.05673 27.9037L6.05645 27.9037ZM36.3387 36.9884H33.9161V27.298H36.3387V36.9884Z" fill="#416387"/>
<path d="M4.8457 6.70605H6.05699V7.91735H4.8457V6.70605Z" fill="#416387"/>
<path d="M7.26758 6.70605H8.47887V7.91735H7.26758V6.70605Z" fill="#416387"/>
<path d="M9.69141 6.70605H10.9027V7.91735H9.69141V6.70605Z" fill="#416387"/>
</svg>
