<svg width="38" height="39" viewBox="0 0 38 39" fill="none" xmlns="http://www.w3.org/2000/svg">
<path d="M37.55 0.649658H18.1694V7.9174H1.81694C0.815164 7.9174 0 8.73256 0 9.73434V29.115C0 30.1168 0.815164 30.9319 1.81694 30.9319H9.52005L8.61158 34.5658H6.66189C4.99204 34.5658 3.63366 35.9242 3.63366 37.594V38.1997H26.6482V37.594C26.6482 35.9242 25.2898 34.5658 23.62 34.5658H21.6703L20.7618 30.9319H28.4649C29.4667 30.9319 30.2818 30.1168 30.2818 29.115V15.1851H37.5496L37.55 0.649658ZM24.2258 1.86095H31.4936V4.28353H24.2258V1.86095ZM26.6484 15.1851V24.8755H3.63387V11.5513H18.1694V15.1851H26.6484ZM25.3335 36.9884H4.94857C5.19867 36.2835 5.8722 35.7771 6.66196 35.7771H23.62C24.4098 35.7771 25.0833 36.2835 25.3334 36.9884H25.3335ZM20.4219 34.5658H9.86011L10.7686 30.9319H19.5127L20.4219 34.5658ZM29.0712 29.115C29.0712 29.4492 28.7992 29.7206 28.4655 29.7206H1.81714C1.4835 29.7206 1.2115 29.4492 1.2115 29.115V9.73434C1.2115 9.40069 1.4835 9.12869 1.81714 9.12869H18.1696V10.34H2.42279V26.0868H27.8599V15.1851H29.0712V29.115ZM36.3389 13.9739H19.3809V1.86095H23.0147V5.49482H32.705V1.86095H36.3389V13.9739Z" fill="#416387"/>
<path d="M4.8457 12.7626H10.2965V13.9739H4.8457V12.7626Z" fill="#416387"/>
<path d="M11.5078 12.7626H12.7191V13.9739H11.5078V12.7626Z" fill="#416387"/>
<path d="M4.8457 15.1851H12.7191V16.3963H4.8457V15.1851Z" fill="#416387"/>
<path d="M4.8457 17.6078H12.7191V18.8191H4.8457V17.6078Z" fill="#416387"/>
<path d="M20.5918 12.7625H27.8595V7.91736H20.5918V12.7625ZM21.8031 9.12865H26.6482V11.5512H21.8031V9.12865Z" fill="#416387"/>
<path d="M29.0703 10.34H31.4929V11.5513H29.0703V10.34Z" fill="#416387"/>
<path d="M32.7051 10.34H35.1277V11.5513H32.7051V10.34Z" fill="#416387"/>
<path d="M29.0703 7.91736H35.1268V9.12865H29.0703V7.91736Z" fill="#416387"/>
<path d="M26.6484 27.298H27.8597V28.5093H26.6484V27.298Z" fill="#416387"/>
<path d="M24.2266 27.298H25.4379V28.5093H24.2266V27.298Z" fill="#416387"/>
<path d="M21.8027 27.298H23.014V28.5093H21.8027V27.298Z" fill="#416387"/>
<path d="M15.1415 20.0304C15.1415 20.6184 15.2851 21.1733 15.5347 21.665L14.3523 22.4529H12.1133V23.6642H14.7194L16.2541 22.6414C16.9076 23.273 17.796 23.6642 18.7754 23.6642C20.7794 23.6642 22.4092 22.0344 22.4092 20.0304C22.4092 19.4423 22.2657 18.8875 22.0161 18.3957L23.1985 17.6078H25.4375V16.3965H22.8314L21.2967 17.4193C20.6432 16.7877 19.7547 16.3965 18.7754 16.3965C16.7714 16.3965 15.1415 18.0263 15.1415 20.0304ZM21.198 20.0304C21.198 20.3567 21.1315 20.6674 21.0139 20.952L19.381 19.7275V17.6937C20.4228 17.9644 21.198 18.905 21.198 20.0304H21.198ZM18.1698 17.6937V20.3332L20.2787 21.9151C19.8645 22.2463 19.3459 22.4529 18.7754 22.4529C17.4395 22.4529 16.3528 21.3663 16.3528 20.0303C16.3528 18.905 17.128 17.9643 18.1698 17.6937V17.6937Z" fill="#416387"/>
</svg>
